<svg xmlns="http://www.w3.org/2000/svg" width="37.487" height="27.492" viewBox="0 0 37.487 27.492">
  <g id="Group_90170" data-name="Group 90170" transform="translate(-845.234 -570)">
    <path id="Path_5416" data-name="Path 5416" d="M185.058,160.813H152.437A2.439,2.439,0,0,1,150,158.376V135.757a2.439,2.439,0,0,1,2.437-2.437h32.621a2.436,2.436,0,0,1,2.429,2.437v22.619A2.436,2.436,0,0,1,185.058,160.813Zm-32.621-25.993a.938.938,0,0,0-.937.937v22.619a.938.938,0,0,0,.937.937h32.621a.934.934,0,0,0,.93-.937V135.757a.934.934,0,0,0-.93-.937Z" transform="translate(695.234 436.68)" fill="#47d7ac"/>
    <path id="Path_5417" data-name="Path 5417" d="M207.37,282.811H196.25a.75.75,0,0,1-.75-.75v-6.029a3.033,3.033,0,0,1,3.03-3.03h6.56a3.033,3.033,0,0,1,3.03,3.03v6.029a.75.75,0,0,1-.75.75ZM197,281.312h9.621v-5.28a1.533,1.533,0,0,0-1.531-1.531h-6.56A1.533,1.533,0,0,0,197,276.032Z" transform="translate(653.999 310.089)" fill="#47d7ac"/>
    <path id="Path_5418" data-name="Path 5418" d="M225.372,190.079a3.874,3.874,0,1,1,3.873-3.873A3.878,3.878,0,0,1,225.372,190.079Zm0-6.248a2.374,2.374,0,1,0,2.374,2.374A2.377,2.377,0,0,0,225.372,183.831Z" transform="translate(630.436 392.26)" fill="#47d7ac"/>
    <path id="Path_5419" data-name="Path 5419" d="M416.747,220.179h-7.5a.75.75,0,1,1,0-1.5h7.5a.75.75,0,0,1,0,1.5Z" transform="translate(460.961 359.319)" fill="#47d7ac"/>
    <path id="Path_5420" data-name="Path 5420" d="M366.9,288.179H354.25a.75.75,0,0,1,0-1.5H366.9a.75.75,0,1,1,0,1.5Z" transform="translate(510.806 297.693)" fill="#47d7ac"/>
    <path id="Path_5421" data-name="Path 5421" d="M366.9,356.179H354.25a.75.75,0,0,1,0-1.5H366.9a.75.75,0,1,1,0,1.5Z" transform="translate(510.806 236.065)" fill="#47d7ac"/>
  </g>
</svg>
