<svg xmlns="http://www.w3.org/2000/svg" width="28.688" height="28.044" viewBox="0 0 28.688 28.044">
  <path id="Path_5460" data-name="Path 5460" d="M115.039,36.548a8.3,8.3,0,0,0-11.064-12.311.452.452,0,0,0-.208.112l-.462.465A8.3,8.3,0,0,0,91.571,36.547l-1,.993a2.415,2.415,0,0,0,1.709,4.117,2.463,2.463,0,0,0,.4-.033,2.415,2.415,0,0,0,2.379,2.81,2.528,2.528,0,0,0,.4-.036,2.185,2.185,0,0,0-.036.4,2.415,2.415,0,0,0,2.415,2.415,2.221,2.221,0,0,0,.4-.036,2.478,2.478,0,0,0-.036.4,2.415,2.415,0,0,0,4.121,1.705l.987-.99.99.99a2.415,2.415,0,0,0,4.087-2.113,2.149,2.149,0,0,0,.4.036,2.415,2.415,0,0,0,2.376-2.8,2.146,2.146,0,0,0,.4.036,2.415,2.415,0,0,0,2.382-2.81,2.487,2.487,0,0,0,.4.036,2.415,2.415,0,0,0,1.709-4.121Zm-.758-10.973A7.4,7.4,0,0,1,114.4,35.9l-4.226-4.226-3.45-3.454.462-.462h0a.45.45,0,0,0,0-.64.456.456,0,0,0-.64,0l-.462.462-.64.64-4.83,4.83h0a1.509,1.509,0,0,1-2.134-2.134l5.932-5.932.036.036h0a7.4,7.4,0,0,1,9.838.552ZM99.54,48.638a1.509,1.509,0,0,1,0-2.134l1.63-1.63,1.066-1.069h0a1.509,1.509,0,0,1,2.134,2.134L103.3,47.008l-1.63,1.63a1.509,1.509,0,0,1-2.134,0Zm-2.774-2.774a1.51,1.51,0,0,1,0-2.134l.99-.99.64-.631,1.066-1.069h0a1.509,1.509,0,0,1,2.134,2.134l-1.066,1.048-1.63,1.63a1.51,1.51,0,0,1-2.134.012Zm-2.774-2.774h0a1.51,1.51,0,0,1,0-2.134l1.63-1.63,1.066-1.069a1.509,1.509,0,0,1,2.134,2.134l-1.066,1.069-.64.649-.99.99h0a1.51,1.51,0,0,1-2.134-.009ZM91.23,40.315a1.509,1.509,0,0,1,0-2.131l1.63-1.63,1.066-1.069h0a1.509,1.509,0,0,1,2.134,2.131l-1.066,1.069-.64.64-1.011.99a1.509,1.509,0,0,1-2.113,0Zm11.692,2.18.018-.133.115.115h0a.959.959,0,0,0-.145.018Zm4.148,6.143a1.509,1.509,0,0,1-2.134,0l-.99-.99,1.069-1.069a2.373,2.373,0,0,0,.688-1.452l1.367,1.367h0a1.509,1.509,0,0,1,0,2.143Zm8.311-8.323a1.51,1.51,0,0,1-2.131,0l-5.868-5.881a.456.456,0,0,0-.64,0,.45.45,0,0,0,0,.64l5.878,5.881a1.509,1.509,0,0,1-2.134,2.134l-5.871-5.875a.454.454,0,0,0-.643.64l5.875,5.875a1.509,1.509,0,0,1-2.134,2.134l-2.7-2.7-2.774-2.774a2.415,2.415,0,0,0-2.113-.67,2.464,2.464,0,0,0,.033-.4,2.415,2.415,0,0,0-2.415-2.415,2.478,2.478,0,0,0-.4.036,2.493,2.493,0,0,0,.036-.4,2.415,2.415,0,0,0-4.121-1.709L92.2,35.9a7.387,7.387,0,0,1,10.445-10.445l-4.83,4.83a2.419,2.419,0,0,0,3.435,3.405l4.83-4.83,3.441,3.441,5.856,5.881a1.509,1.509,0,0,1,0,2.131Z" transform="translate(-88.948 -22.19)" fill="#47d7ac" stroke="#47d7ac" stroke-width="0.5"/>
</svg>
