<svg xmlns="http://www.w3.org/2000/svg" xmlns:xlink="http://www.w3.org/1999/xlink" width="298.112" height="399.435" viewBox="0 0 298.112 399.435">
  <defs>
    <clipPath id="clip-path">
      <rect id="Rectangle_2956" data-name="Rectangle 2956" width="298.112" height="399.435" fill="none"/>
    </clipPath>
    <clipPath id="clip-path-6">
      <rect id="Rectangle_2960" data-name="Rectangle 2960" width="115.109" height="129.19" fill="none"/>
    </clipPath>
    <clipPath id="clip-path-7">
      <rect id="Rectangle_2961" data-name="Rectangle 2961" width="23.829" height="19.65" fill="none"/>
    </clipPath>
    <clipPath id="clip-path-8">
      <rect id="Rectangle_2963" data-name="Rectangle 2963" width="12.628" height="12.627" fill="none"/>
    </clipPath>
    <clipPath id="clip-path-9">
      <rect id="Rectangle_2964" data-name="Rectangle 2964" width="12.627" height="12.627" fill="none"/>
    </clipPath>
    <clipPath id="clip-path-12">
      <rect id="Rectangle_2968" data-name="Rectangle 2968" width="13.048" height="13.036" fill="none"/>
    </clipPath>
    <clipPath id="clip-path-13">
      <rect id="Rectangle_2969" data-name="Rectangle 2969" width="12.627" height="12.628" fill="none"/>
    </clipPath>
    <clipPath id="clip-path-17">
      <rect id="Rectangle_2975" data-name="Rectangle 2975" width="12.628" height="12.628" fill="none"/>
    </clipPath>
    <clipPath id="clip-path-23">
      <rect id="Rectangle_3005" data-name="Rectangle 3005" width="45.074" height="80.166" fill="none"/>
    </clipPath>
    <clipPath id="clip-path-24">
      <rect id="Rectangle_3006" data-name="Rectangle 3006" width="51.16" height="4.001" fill="none"/>
    </clipPath>
  </defs>
  <g id="Group_89993" data-name="Group 89993" transform="translate(-174 -234.565)">
    <path id="Path_4712" data-name="Path 4712" d="M102.144,457.285l-1.2,1.281L65.165,501.218l79.342.049,21.817-43.753Z" transform="translate(158.491 125.733)" fill="#ebebeb"/>
    <path id="Path_4713" data-name="Path 4713" d="M80.75,459.9l-1.2,1.324-39.862,44.1,77.314.05,27.926-45.236Z" transform="translate(164.554 125.111)" fill="#fafafa"/>
    <g id="Group_89927" data-name="Group 89927" transform="translate(174 234.565)" clip-path="url(#clip-path)">
      <path id="Path_4714" data-name="Path 4714" d="M80.631,459.892s.1-.008.292-.011l.876-.009,3.426-.011H98.251l46.562.1h.306l-.161.261-27.9,45.249-.058.094h-.11l-10.595-.006-66.719-.072h-.381l.255-.283,29.843-32.909,8.361-9.179,2.213-2.41c.505-.545.768-.811.768-.811s-.248.3-.735.852l-2.169,2.438-8.292,9.242-29.737,33-.126-.283,66.72.013,10.594.008-.168.094,27.947-45.221.146.262-46.5-.248-13.047-.094-3.444-.037-.885-.015c-.2-.005-.3-.014-.3-.014" transform="translate(-9.327 -109.444)" fill="#e0e0e0"/>
      <path id="Path_4715" data-name="Path 4715" d="M115.505,508.683a2.839,2.839,0,0,1-.545.035l-1.563.023-5.745.011L88.7,508.638l-18.954-.231L64,508.292l-1.562-.051a2.879,2.879,0,0,1-.544-.045,2.757,2.757,0,0,1,.544-.035L64,508.138l5.745-.011,18.956.114,18.953.23,5.744.116,1.561.051a2.8,2.8,0,0,1,.544.045" transform="translate(-14.731 -120.932)" fill="#e0e0e0"/>
      <path id="Path_4716" data-name="Path 4716" d="M118.929,502.479a2.7,2.7,0,0,1-.532.035l-1.525.024-5.605.012-18.492-.11-18.494-.226-5.6-.114-1.523-.051a2.667,2.667,0,0,1-.531-.045,2.7,2.7,0,0,1,.531-.035l1.524-.024,5.6-.012,18.5.11,18.492.226,5.6.114,1.523.051a2.67,2.67,0,0,1,.531.045" transform="translate(-15.856 -119.458)" fill="#e0e0e0"/>
      <path id="Path_4717" data-name="Path 4717" d="M123.755,496.221a2.6,2.6,0,0,1-.522.035l-1.5.024-5.5.014-18.154-.107-18.156-.223-5.5-.113-1.5-.051a2.621,2.621,0,0,1-.521-.044,2.554,2.554,0,0,1,.521-.036l1.5-.024,5.5-.013,18.158.107,18.154.223,5.5.114,1.5.05a2.569,2.569,0,0,1,.521.045" transform="translate(-17.232 -117.97)" fill="#e0e0e0"/>
      <path id="Path_4718" data-name="Path 4718" d="M129.325,490.42a2.5,2.5,0,0,1-.511.035l-1.466.024-5.39.014-17.782-.1-17.784-.219L81,490.058l-1.465-.05a.257.257,0,1,1,0-.08L81,489.9l5.39-.014,17.786.1,17.782.219,5.39.112,1.465.05a2.461,2.461,0,0,1,.511.045" transform="translate(-18.808 -116.591)" fill="#e0e0e0"/>
      <path id="Path_4719" data-name="Path 4719" d="M133.192,484.327a2.508,2.508,0,0,1-.512.035l-1.465.024-5.391.014-17.782-.1-17.783-.219-5.39-.112-1.465-.05a2.474,2.474,0,0,1-.511-.045,2.491,2.491,0,0,1,.511-.035l1.465-.024,5.39-.014,17.786.1,17.782.219,5.39.112,1.465.05a2.46,2.46,0,0,1,.511.045" transform="translate(-19.728 -115.141)" fill="#e0e0e0"/>
      <path id="Path_4720" data-name="Path 4720" d="M138.9,478.269a2.5,2.5,0,0,1-.511.035l-1.466.024-5.39.014-17.782-.1-17.784-.219-5.39-.112-1.465-.05a2.472,2.472,0,0,1-.511-.045,2.5,2.5,0,0,1,.511-.035l1.465-.024,5.39-.014,17.786.1,17.782.219,5.39.112,1.465.05a2.461,2.461,0,0,1,.511.045" transform="translate(-21.087 -113.7)" fill="#e0e0e0"/>
      <path id="Path_4721" data-name="Path 4721" d="M143.1,472.292a2.506,2.506,0,0,1-.512.033l-1.465.018-5.39-.01-17.781-.183-17.782-.3-5.389-.136-1.465-.057a2.482,2.482,0,0,1-.511-.047,2.5,2.5,0,0,1,.511-.033l1.465-.018,5.39.01,17.785.184,17.781.3,5.388.136,1.465.057a2.463,2.463,0,0,1,.51.047" transform="translate(-22.086 -112.229)" fill="#e0e0e0"/>
      <path id="Path_4722" data-name="Path 4722" d="M149.542,466.654a2.5,2.5,0,0,1-.512.033l-1.465.018-5.39-.01-17.781-.183-17.782-.3-5.389-.136-1.465-.057a2.477,2.477,0,0,1-.511-.047,2.491,2.491,0,0,1,.511-.033l1.465-.018,5.39.01,17.785.184,17.782.3,5.388.136,1.464.057a2.467,2.467,0,0,1,.511.047" transform="translate(-23.62 -110.887)" fill="#e0e0e0"/>
      <rect id="Rectangle_2954" data-name="Rectangle 2954" width="173.222" height="112.878" transform="translate(52.535 8.24)" fill="#f5f5f5"/>
      <rect id="Rectangle_2955" data-name="Rectangle 2955" width="173.222" height="112.632" transform="translate(43.973 2.135)" fill="#ebebeb"/>
    </g>
    <g id="Group_89929" data-name="Group 89929" transform="translate(174 234.565)" clip-path="url(#clip-path)">
      <path id="Path_4723" data-name="Path 4723" d="M297.5,447.317c0,.1-63.534.186-141.888.186-78.381,0-141.9-.083-141.9-.186s63.52-.186,141.9-.186c78.354,0,141.888.083,141.888.186" transform="translate(-3.264 -106.415)" fill="#263238"/>
    </g>
    <path id="Path_4724" data-name="Path 4724" d="M232.838,450.446l52.709,48.908,67.979-2.2-54.637-46.706Z" transform="translate(118.586 127.361)" fill="#f5f5f5"/>
    <path id="Path_4725" data-name="Path 4725" d="M200.9,460.006l52.709,48.909,67.978-2.2-54.637-46.706Z" transform="translate(126.186 125.086)" fill="#f5f5f5"/>
    <path id="Path_4726" data-name="Path 4726" d="M336.6,500.35l-67.979,2.2-52.709-48.909h66.051Z" transform="translate(122.613 126.601)" fill="#e0e0e0"/>
    <path id="Path_4727" data-name="Path 4727" d="M270.918,450.445H204.867l52.709,48.908,70.154-2.272Z" transform="translate(125.242 127.361)" fill="#f5f5f5"/>
    <g id="Group_89931" data-name="Group 89931" transform="translate(174 234.565)" clip-path="url(#clip-path)">
      <path id="Path_4728" data-name="Path 4728" d="M270.784,450.392s.092.065.27.2l.788.63,3.063,2.481,11.592,9.453,41.211,33.732.358.293-.463.015-67.28,2.2-2.874.094-.082,0-.059-.056-52.689-48.93-.314-.292h.428l47.961.074,13.377.046,3.514.024c.794.008,1.2.024,1.2.024s-.417.017-1.215.024l-3.529.024-13.393.046-47.913.074.114-.292c15.223,14.115,33.31,30.882,52.73,48.886l-.142-.053,2.874-.093,67.281-2.155-.105.309-41.077-33.815-11.544-9.539-3.042-2.53-.779-.655c-.174-.149-.26-.231-.26-.231" transform="translate(-48.624 -107.151)" fill="#263238"/>
      <path id="Path_4729" data-name="Path 4729" d="M307.927,487.456c0,.11-10.533.528-23.531.935s-23.543.648-23.546.538,10.531-.528,23.533-.935,23.54-.648,23.544-.538" transform="translate(-62.081 -116.006)" fill="#263238"/>
      <path id="Path_4730" data-name="Path 4730" d="M315.065,492.933c0,.11-10.7.526-23.9.93s-23.916.643-23.919.533,10.7-.526,23.907-.93,23.914-.643,23.917-.533" transform="translate(-63.602 -117.309)" fill="#263238"/>
      <path id="Path_4731" data-name="Path 4731" d="M322.749,498.421c0,.11-10.776.547-24.072.978s-24.084.69-24.087.581,10.772-.547,24.074-.978,24.082-.69,24.085-.581" transform="translate(-65.351 -118.616)" fill="#263238"/>
      <path id="Path_4732" data-name="Path 4732" d="M303.236,482.5c0,.11-10.84.543-24.216.968s-24.228.68-24.232.571,10.838-.543,24.219-.968,24.226-.68,24.229-.571" transform="translate(-60.638 -114.826)" fill="#263238"/>
      <path id="Path_4733" data-name="Path 4733" d="M274.931,461.966c0,.11-10.058.392-22.468.629s-22.477.343-22.479.233,10.057-.392,22.472-.629,22.474-.343,22.476-.233" transform="translate(-54.735 -109.935)" fill="#263238"/>
      <path id="Path_4734" data-name="Path 4734" d="M281.871,467.443c0,.11-10.368.4-23.16.643s-23.166.356-23.169.246,10.366-.4,23.161-.643,23.165-.356,23.167-.246" transform="translate(-56.058 -111.239)" fill="#263238"/>
      <path id="Path_4735" data-name="Path 4735" d="M288.53,472.92c0,.11-10.879.408-24.3.665s-24.309.377-24.311.267,10.877-.407,24.3-.664,24.306-.378,24.308-.268" transform="translate(-57.1 -112.543)" fill="#263238"/>
      <path id="Path_4736" data-name="Path 4736" d="M295.9,478.4c0,.11-10.879.408-24.3.665s-24.309.377-24.311.268,10.877-.408,24.3-.665,24.306-.378,24.308-.268" transform="translate(-58.854 -113.847)" fill="#263238"/>
      <path id="Path_4737" data-name="Path 4737" d="M270.227,457a2.081,2.081,0,0,1-.47.047l-1.35.057-4.967.135-16.389.295-16.393.178-4.968.009-1.351-.018a.237.237,0,1,1,0-.08l1.351-.056,4.967-.135,16.389-.295,16.388-.178,4.968-.009,1.352.018a2.162,2.162,0,0,1,.472.034" transform="translate(-53.28 -108.753)" fill="#263238"/>
    </g>
    <path id="Path_4738" data-name="Path 4738" d="M251.482,466.962,234.151,451.09l60.011-2.38,17.638,9.764Z" transform="translate(118.273 127.774)" fill="#455a64"/>
    <path id="Path_4739" data-name="Path 4739" d="M243.267,454.173l3.37,2.89-.014-2.06-3.565-2.664Z" transform="translate(116.153 126.911)" fill="#263238"/>
    <path id="Path_4740" data-name="Path 4740" d="M246.589,455.071l4.86-.165-3.912-2.838-4.479.207Z" transform="translate(116.153 126.976)" fill="#47d7ac"/>
    <path id="Path_4741" data-name="Path 4741" d="M247.691,455.958l.048,1.928,4.747-.308.065-1.785Z" transform="translate(115.051 126.089)" fill="#263238"/>
    <g id="Group_89933" data-name="Group 89933" transform="translate(174 234.565)" clip-path="url(#clip-path)">
      <path id="Path_4742" data-name="Path 4742" d="M251.448,454.842a27.371,27.371,0,0,1-3.913-2.518l-.231-.163.123.037a25.235,25.235,0,0,1-4.371.012,25.209,25.209,0,0,1,4.352-.408l.068,0,.056.04.231.162a27.447,27.447,0,0,1,3.684,2.842" transform="translate(-57.846 -107.526)" fill="#263238"/>
      <path id="Path_4743" data-name="Path 4743" d="M247.664,457.942c-.11,0-.21-.423-.223-.95s.064-.959.174-.961.21.422.223.95-.064.958-.174.961" transform="translate(-58.889 -108.533)" fill="#455a64"/>
      <path id="Path_4744" data-name="Path 4744" d="M253.939,453.973l3.37,2.89-.014-2.06-3.565-2.665Z" transform="translate(-60.387 -107.607)" fill="#263238"/>
      <path id="Path_4745" data-name="Path 4745" d="M257.261,454.871l4.86-.165-3.911-2.838-4.48.207Z" transform="translate(-60.387 -107.542)" fill="#e0e0e0"/>
      <path id="Path_4746" data-name="Path 4746" d="M258.364,455.757l.048,1.928,4.747-.308.065-1.785Z" transform="translate(-61.489 -108.429)" fill="#263238"/>
      <path id="Path_4747" data-name="Path 4747" d="M262.121,454.641a27.406,27.406,0,0,1-3.913-2.517l-.231-.164.123.036a25.2,25.2,0,0,1-4.371.013,25.214,25.214,0,0,1,4.352-.408l.068,0,.056.04.231.162a27.445,27.445,0,0,1,3.684,2.842" transform="translate(-60.387 -107.478)" fill="#263238"/>
      <path id="Path_4748" data-name="Path 4748" d="M258.336,457.741c-.11,0-.21-.423-.223-.95s.064-.959.174-.961.21.422.223.95-.064.958-.174.961" transform="translate(-61.429 -108.485)" fill="#455a64"/>
      <path id="Path_4749" data-name="Path 4749" d="M264.158,453.837l3.37,2.89-.014-2.06L263.949,452Z" transform="translate(-62.819 -107.575)" fill="#263238"/>
      <path id="Path_4750" data-name="Path 4750" d="M267.48,454.735l4.86-.165-3.911-2.838-4.48.206Z" transform="translate(-62.819 -107.51)" fill="#455a64"/>
      <path id="Path_4751" data-name="Path 4751" d="M268.583,455.622l.048,1.928,4.747-.308.065-1.785Z" transform="translate(-63.921 -108.397)" fill="#263238"/>
      <path id="Path_4752" data-name="Path 4752" d="M272.34,454.506a27.376,27.376,0,0,1-3.913-2.518l-.231-.163.123.036a25.2,25.2,0,0,1-4.371.013,25.209,25.209,0,0,1,4.352-.408l.068,0,.056.04.231.162a27.446,27.446,0,0,1,3.684,2.842" transform="translate(-62.819 -107.446)" fill="#263238"/>
      <path id="Path_4753" data-name="Path 4753" d="M268.555,457.606c-.11,0-.21-.423-.223-.95s.064-.959.174-.961.21.422.223.95-.064.958-.174.961" transform="translate(-63.861 -108.453)" fill="#455a64"/>
      <path id="Path_4754" data-name="Path 4754" d="M274.8,453.533l3.37,2.89-.014-2.06L274.59,451.7Z" transform="translate(-65.351 -107.502)" fill="#263238"/>
      <path id="Path_4755" data-name="Path 4755" d="M278.121,454.431l4.86-.165-3.911-2.839-4.48.207Z" transform="translate(-65.351 -107.437)" fill="#455a64"/>
      <path id="Path_4756" data-name="Path 4756" d="M279.224,455.317l.048,1.928,4.747-.308.065-1.785Z" transform="translate(-66.454 -108.324)" fill="#263238"/>
      <path id="Path_4757" data-name="Path 4757" d="M282.981,454.2a27.385,27.385,0,0,1-3.914-2.517l-.23-.164.123.036a25.193,25.193,0,0,1-4.371.013,25.2,25.2,0,0,1,4.352-.408l.067,0,.057.039.231.163a27.446,27.446,0,0,1,3.684,2.842" transform="translate(-65.351 -107.373)" fill="#263238"/>
      <path id="Path_4758" data-name="Path 4758" d="M279.2,457.3c-.11,0-.21-.423-.223-.95s.064-.959.174-.961.21.422.223.95-.064.958-.174.961" transform="translate(-66.394 -108.381)" fill="#455a64"/>
      <path id="Path_4759" data-name="Path 4759" d="M285.591,453.265l3.37,2.89-.014-2.06-3.565-2.665Z" transform="translate(-67.92 -107.438)" fill="#263238"/>
      <path id="Path_4760" data-name="Path 4760" d="M288.913,454.163l4.86-.165-3.911-2.838-4.48.206Z" transform="translate(-67.92 -107.374)" fill="#455a64"/>
      <path id="Path_4761" data-name="Path 4761" d="M290.016,455.05l.048,1.928,4.747-.308.065-1.785Z" transform="translate(-69.022 -108.261)" fill="#263238"/>
      <path id="Path_4762" data-name="Path 4762" d="M293.773,453.934a27.406,27.406,0,0,1-3.913-2.517l-.231-.164.123.036a25.193,25.193,0,0,1-4.371.013,25.211,25.211,0,0,1,4.352-.408l.068,0,.056.04.231.162a27.449,27.449,0,0,1,3.684,2.842" transform="translate(-67.92 -107.31)" fill="#263238"/>
      <path id="Path_4763" data-name="Path 4763" d="M289.988,457.034c-.11,0-.21-.423-.223-.95s.064-.959.174-.961.21.422.223.95-.064.958-.174.961" transform="translate(-68.962 -108.317)" fill="#455a64"/>
      <path id="Path_4764" data-name="Path 4764" d="M295.9,452.783l3.37,2.89-.014-2.06-3.565-2.665Z" transform="translate(-70.372 -107.323)" fill="#263238"/>
      <path id="Path_4765" data-name="Path 4765" d="M299.219,453.681l4.86-.165-3.912-2.839-4.479.207Z" transform="translate(-70.372 -107.259)" fill="#455a64"/>
      <path id="Path_4766" data-name="Path 4766" d="M300.322,454.568l.048,1.928,4.747-.308.065-1.785Z" transform="translate(-71.475 -108.146)" fill="#263238"/>
      <path id="Path_4767" data-name="Path 4767" d="M304.079,453.452a27.406,27.406,0,0,1-3.913-2.517l-.231-.164.123.036a25.193,25.193,0,0,1-4.371.013,25.208,25.208,0,0,1,4.352-.408l.068,0,.056.04.232.162a27.375,27.375,0,0,1,3.684,2.842" transform="translate(-70.372 -107.195)" fill="#263238"/>
      <path id="Path_4768" data-name="Path 4768" d="M300.294,456.552c-.11,0-.21-.423-.223-.95s.064-.959.174-.961.21.422.223.95-.064.958-.174.961" transform="translate(-71.415 -108.202)" fill="#455a64"/>
      <path id="Path_4769" data-name="Path 4769" d="M305.971,452.2l3.37,2.889-.014-2.06-3.565-2.664Z" transform="translate(-72.77 -107.186)" fill="#263238"/>
      <path id="Path_4770" data-name="Path 4770" d="M309.293,453.1l4.86-.165-3.911-2.839-4.48.207Z" transform="translate(-72.77 -107.121)" fill="#455a64"/>
      <path id="Path_4771" data-name="Path 4771" d="M310.4,453.987l.048,1.928,4.747-.308.065-1.785Z" transform="translate(-73.873 -108.008)" fill="#263238"/>
      <path id="Path_4772" data-name="Path 4772" d="M314.153,452.871a27.455,27.455,0,0,1-3.913-2.518l-.231-.163.123.036a25.193,25.193,0,0,1-4.371.013,25.2,25.2,0,0,1,4.352-.408l.068,0,.056.039.232.163a27.382,27.382,0,0,1,3.684,2.841" transform="translate(-72.77 -107.057)" fill="#263238"/>
      <path id="Path_4773" data-name="Path 4773" d="M310.368,455.971c-.11,0-.21-.423-.223-.95s.064-.959.174-.961.209.422.223.95-.064.958-.174.961" transform="translate(-73.813 -108.064)" fill="#455a64"/>
      <path id="Path_4774" data-name="Path 4774" d="M250.387,461.293l3.37,2.89-.014-2.06-3.565-2.665Z" transform="translate(-59.541 -109.349)" fill="#263238"/>
      <path id="Path_4775" data-name="Path 4775" d="M253.709,462.191l4.86-.165-3.912-2.839-4.479.207Z" transform="translate(-59.541 -109.284)" fill="#455a64"/>
      <path id="Path_4776" data-name="Path 4776" d="M254.811,463.077l.048,1.928,4.747-.308.065-1.785Z" transform="translate(-60.644 -110.171)" fill="#263238"/>
      <path id="Path_4777" data-name="Path 4777" d="M258.568,461.961a27.4,27.4,0,0,1-3.913-2.517l-.231-.164.123.036a25.194,25.194,0,0,1-4.371.013,25.211,25.211,0,0,1,4.352-.408l.068,0,.056.04.231.162a27.45,27.45,0,0,1,3.684,2.841" transform="translate(-59.541 -109.22)" fill="#263238"/>
      <path id="Path_4778" data-name="Path 4778" d="M254.783,465.062c-.11,0-.21-.423-.223-.95s.064-.959.174-.961.21.422.223.95-.064.958-.174.961" transform="translate(-60.584 -110.228)" fill="#455a64"/>
      <path id="Path_4779" data-name="Path 4779" d="M261.059,461.093l3.37,2.89-.014-2.06-3.565-2.664Z" transform="translate(-62.081 -109.301)" fill="#263238"/>
      <path id="Path_4780" data-name="Path 4780" d="M264.381,461.991l4.86-.165-3.911-2.839-4.48.207Z" transform="translate(-62.081 -109.237)" fill="#455a64"/>
      <path id="Path_4781" data-name="Path 4781" d="M265.484,462.877l.048,1.928,4.747-.308.065-1.785Z" transform="translate(-63.184 -110.123)" fill="#263238"/>
      <path id="Path_4782" data-name="Path 4782" d="M269.241,461.761a27.412,27.412,0,0,1-3.913-2.517l-.231-.164.123.036a25.2,25.2,0,0,1-4.371.013,25.211,25.211,0,0,1,4.352-.408l.068,0,.056.04.231.162a27.443,27.443,0,0,1,3.684,2.842" transform="translate(-62.081 -109.173)" fill="#263238"/>
      <path id="Path_4783" data-name="Path 4783" d="M265.456,464.861c-.11,0-.21-.423-.223-.95s.064-.959.174-.961.209.422.223.95-.064.958-.174.961" transform="translate(-63.124 -110.18)" fill="#455a64"/>
      <path id="Path_4784" data-name="Path 4784" d="M271.278,460.957l3.37,2.89-.014-2.06-3.565-2.665Z" transform="translate(-64.513 -109.269)" fill="#263238"/>
      <path id="Path_4785" data-name="Path 4785" d="M274.6,461.855l4.86-.165-3.912-2.839-4.479.207Z" transform="translate(-64.513 -109.204)" fill="#455a64"/>
      <path id="Path_4786" data-name="Path 4786" d="M275.7,462.742l.048,1.928,4.747-.308.065-1.785Z" transform="translate(-65.616 -110.091)" fill="#263238"/>
      <path id="Path_4787" data-name="Path 4787" d="M279.46,461.626a27.37,27.37,0,0,1-3.913-2.518l-.231-.163.123.036a25.191,25.191,0,0,1-4.371.013,25.209,25.209,0,0,1,4.352-.408l.068,0,.056.04.231.162a27.377,27.377,0,0,1,3.684,2.841" transform="translate(-64.513 -109.141)" fill="#263238"/>
      <path id="Path_4788" data-name="Path 4788" d="M275.675,464.726c-.11,0-.21-.423-.223-.95s.064-.959.174-.961.21.422.223.95-.064.958-.174.961" transform="translate(-65.556 -110.148)" fill="#455a64"/>
      <path id="Path_4789" data-name="Path 4789" d="M281.919,460.653l3.37,2.889-.014-2.06-3.565-2.665Z" transform="translate(-67.046 -109.196)" fill="#263238"/>
      <path id="Path_4790" data-name="Path 4790" d="M285.241,461.551l4.86-.165-3.911-2.838-4.48.207Z" transform="translate(-67.045 -109.132)" fill="#455a64"/>
      <path id="Path_4791" data-name="Path 4791" d="M286.343,462.437l.048,1.928,4.747-.308.065-1.785Z" transform="translate(-68.148 -110.019)" fill="#263238"/>
      <path id="Path_4792" data-name="Path 4792" d="M290.1,461.321a27.368,27.368,0,0,1-3.913-2.518l-.231-.163.123.036a25.2,25.2,0,0,1-4.371.013,25.207,25.207,0,0,1,4.352-.408l.068,0,.056.039.231.163a27.442,27.442,0,0,1,3.684,2.842" transform="translate(-67.045 -109.068)" fill="#263238"/>
      <path id="Path_4793" data-name="Path 4793" d="M286.315,464.421c-.11,0-.209-.423-.223-.95s.064-.959.174-.961.21.422.223.95-.063.958-.174.961" transform="translate(-68.088 -110.075)" fill="#455a64"/>
      <path id="Path_4794" data-name="Path 4794" d="M292.711,460.385l3.37,2.89-.014-2.06-3.565-2.664Z" transform="translate(-69.614 -109.133)" fill="#263238"/>
      <path id="Path_4795" data-name="Path 4795" d="M296.033,461.283l4.86-.165-3.911-2.839-4.48.207Z" transform="translate(-69.614 -109.068)" fill="#455a64"/>
      <path id="Path_4796" data-name="Path 4796" d="M297.136,462.17l.048,1.928,4.747-.308.065-1.785Z" transform="translate(-70.717 -109.955)" fill="#263238"/>
      <path id="Path_4797" data-name="Path 4797" d="M300.893,461.054a27.4,27.4,0,0,1-3.913-2.517l-.231-.164.123.036a25.193,25.193,0,0,1-4.371.013,25.209,25.209,0,0,1,4.352-.408l.068,0,.056.039.231.163a27.448,27.448,0,0,1,3.684,2.842" transform="translate(-69.614 -109.004)" fill="#263238"/>
      <path id="Path_4798" data-name="Path 4798" d="M297.108,464.154c-.11,0-.21-.423-.223-.95s.064-.959.174-.961.21.422.223.95-.064.958-.174.961" transform="translate(-70.657 -110.012)" fill="#455a64"/>
      <path id="Path_4799" data-name="Path 4799" d="M303.017,459.9l3.37,2.89-.014-2.06-3.565-2.664Z" transform="translate(-72.067 -109.018)" fill="#263238"/>
      <path id="Path_4800" data-name="Path 4800" d="M306.339,460.8l4.86-.165-3.911-2.839-4.48.207Z" transform="translate(-72.067 -108.953)" fill="#455a64"/>
      <path id="Path_4801" data-name="Path 4801" d="M307.441,461.687l.048,1.928,4.747-.308.065-1.785Z" transform="translate(-73.17 -109.84)" fill="#263238"/>
      <path id="Path_4802" data-name="Path 4802" d="M311.2,460.571a27.5,27.5,0,0,1-3.913-2.518l-.23-.163.123.036a25.194,25.194,0,0,1-4.371.013,25.213,25.213,0,0,1,4.352-.408l.068,0,.056.039.232.163a27.37,27.37,0,0,1,3.684,2.842" transform="translate(-72.067 -108.889)" fill="#263238"/>
      <path id="Path_4803" data-name="Path 4803" d="M307.414,463.672c-.11,0-.21-.423-.223-.95s.064-.959.174-.961.21.422.223.95-.064.958-.174.961" transform="translate(-73.11 -109.897)" fill="#455a64"/>
      <path id="Path_4804" data-name="Path 4804" d="M313.091,459.322l3.37,2.89-.014-2.06-3.565-2.665Z" transform="translate(-74.465 -108.88)" fill="#263238"/>
      <path id="Path_4805" data-name="Path 4805" d="M316.413,460.22l4.86-.165-3.912-2.838-4.479.207Z" transform="translate(-74.464 -108.816)" fill="#455a64"/>
      <path id="Path_4806" data-name="Path 4806" d="M317.516,461.107l.048,1.928,4.747-.308.065-1.785Z" transform="translate(-75.567 -109.702)" fill="#263238"/>
      <path id="Path_4807" data-name="Path 4807" d="M321.273,459.991a27.407,27.407,0,0,1-3.913-2.517l-.231-.164.123.036a25.191,25.191,0,0,1-4.371.013,25.208,25.208,0,0,1,4.352-.408l.068,0,.056.04.231.162a27.45,27.45,0,0,1,3.684,2.841" transform="translate(-74.464 -108.751)" fill="#263238"/>
      <path id="Path_4808" data-name="Path 4808" d="M317.488,463.091c-.11,0-.21-.423-.223-.95s.064-.959.174-.961.209.422.223.95-.064.958-.174.961" transform="translate(-75.507 -109.759)" fill="#455a64"/>
      <path id="Path_4809" data-name="Path 4809" d="M328.652,454.855l-68.05,3.7-9.035,8.544-17.416-15.269v4.43l18.04,17.291,9.959-9.685,67.54-4.028Z" transform="translate(-55.727 -107.534)" fill="#263238"/>
      <path id="Path_4810" data-name="Path 4810" d="M257.826,476.056l61.485-3.6,16.014-10.116-69.165,2.714Z" transform="translate(-61.361 -110.035)" fill="#263238"/>
      <path id="Path_4811" data-name="Path 4811" d="M335.326,462.34a.858.858,0,0,1-.209.033l-.616.056-2.37.179-8.72.583-28.776,1.774-26.842,1.551.094-.041-7.327,7.033-2.012,1.9-.532.488a1.021,1.021,0,0,1-.191.155,1.046,1.046,0,0,1,.161-.187l.5-.518,1.957-1.958,7.235-7.129.039-.039.056,0,26.836-1.651,28.783-1.658,8.727-.457,2.374-.1.619-.017a.85.85,0,0,1,.211.008" transform="translate(-61.361 -110.033)" fill="#455a64"/>
      <path id="Path_4812" data-name="Path 4812" d="M270.4,465.97a19.339,19.339,0,0,1-1.548-5.311,19.413,19.413,0,0,1,1.548,5.311" transform="translate(-63.981 -109.634)" fill="#455a64"/>
    </g>
    <g id="Group_89983" data-name="Group 89983" transform="translate(174 234.565)" clip-path="url(#clip-path)">
      <path id="Path_4813" data-name="Path 4813" d="M281.312,320.061,228.5,287.234a3.443,3.443,0,0,1-1.106-4.743L282.581,193.7a4.891,4.891,0,0,1,6.737-1.572l50.354,31.3a4.891,4.891,0,0,1,1.572,6.737l-55.189,88.79a3.443,3.443,0,0,1-4.743,1.107" transform="translate(-53.994 -45.55)" fill="#455a64"/>
      <g id="Group_89937" data-name="Group 89937" transform="translate(172.839 145.808)" opacity="0.4">
        <g id="Group_89936" data-name="Group 89936">
          <g id="Group_89935" data-name="Group 89935" clip-path="url(#clip-path-6)">
            <path id="Path_4814" data-name="Path 4814" d="M281.261,320.019l-52.814-32.827a3.444,3.444,0,0,1-1.107-4.743l55.19-88.791a4.891,4.891,0,0,1,6.737-1.572l50.354,31.3a4.891,4.891,0,0,1,1.572,6.737L286,318.911a3.443,3.443,0,0,1-4.743,1.107" transform="translate(-226.821 -191.348)"/>
          </g>
        </g>
      </g>
      <path id="Path_4815" data-name="Path 4815" d="M275.29,316.283l-52.814-32.827a3.443,3.443,0,0,1-1.106-4.743l55.189-88.791a4.891,4.891,0,0,1,6.737-1.572l50.354,31.3a4.891,4.891,0,0,1,1.572,6.737l-55.189,88.79a3.443,3.443,0,0,1-4.743,1.107" transform="translate(-52.561 -44.651)" fill="#455a64"/>
      <path id="Path_4816" data-name="Path 4816" d="M258.559,309.562l-16.654-10.351a1.843,1.843,0,0,1-.593-2.54l3.486-5.609a1.843,1.843,0,0,1,2.54-.593l16.654,10.351a1.843,1.843,0,0,1,.593,2.54l-3.486,5.609a1.844,1.844,0,0,1-2.54.593" transform="translate(-57.365 -69.064)" fill="#455a64"/>
      <g id="Group_89940" data-name="Group 89940" transform="translate(183.67 221.126)" opacity="0.2">
        <g id="Group_89939" data-name="Group 89939">
          <g id="Group_89938" data-name="Group 89938" clip-path="url(#clip-path-7)">
            <path id="Path_4817" data-name="Path 4817" d="M258.559,309.562l-16.654-10.351a1.843,1.843,0,0,1-.593-2.54l3.486-5.609a1.843,1.843,0,0,1,2.54-.593l16.654,10.351a1.843,1.843,0,0,1,.593,2.54l-3.486,5.609a1.844,1.844,0,0,1-2.54.593" transform="translate(-241.035 -290.19)"/>
          </g>
        </g>
      </g>
      <rect id="Rectangle_2962" data-name="Rectangle 2962" width="23.165" height="59.053" transform="matrix(0.528, -0.849, 0.849, 0.528, 213.015, 173.194)" fill="#fafafa"/>
      <path id="Path_4818" data-name="Path 4818" d="M329.658,252.273s.071-.123.212-.354l.626-1.022,2.414-3.917c2.1-3.4,5.142-8.313,8.917-14.417l.023.1-50.167-31.146,0,0,.137-.032L279.585,221.15l-.03-.132,35.921,22.38L325.9,249.91l2.79,1.748.721.455c.162.1.246.16.246.16s-.081-.046-.242-.143l-.718-.439-2.785-1.718-10.436-6.455L279.454,221.18l-.082-.05.051-.082,12.225-19.676.053-.085.085.053,0,0,50.135,31.2.059.037-.037.059-9,14.413-2.435,3.885-.632,1c-.143.225-.216.335-.216.335" transform="translate(-66.489 -47.906)" fill="#263238"/>
      <path id="Path_4819" data-name="Path 4819" d="M277.236,253.041l-5.831-3.624a1.587,1.587,0,0,1-.51-2.185l3.624-5.83a1.586,1.586,0,0,1,2.185-.51l5.831,3.624a1.586,1.586,0,0,1,.51,2.184l-3.624,5.831a1.587,1.587,0,0,1-2.185.51" transform="translate(-64.415 -57.274)" fill="#455a64"/>
      <g id="Group_89943" data-name="Group 89943" transform="translate(206.241 183.379)" opacity="0.2">
        <g id="Group_89942" data-name="Group 89942">
          <g id="Group_89941" data-name="Group 89941" clip-path="url(#clip-path-8)">
            <path id="Path_4820" data-name="Path 4820" d="M277.236,253.041l-5.831-3.624a1.587,1.587,0,0,1-.51-2.185l3.624-5.83a1.586,1.586,0,0,1,2.185-.51l5.831,3.624a1.586,1.586,0,0,1,.51,2.184l-3.624,5.831a1.587,1.587,0,0,1-2.185.51" transform="translate(-270.656 -240.653)"/>
          </g>
        </g>
      </g>
      <path id="Path_4821" data-name="Path 4821" d="M275.508,251.968l-5.831-3.624a1.586,1.586,0,0,1-.51-2.185l3.624-5.83a1.587,1.587,0,0,1,2.185-.511l5.831,3.624a1.587,1.587,0,0,1,.51,2.185l-3.624,5.831a1.587,1.587,0,0,1-2.185.51" transform="translate(-64.004 -57.019)" fill="#263238"/>
      <path id="Path_4822" data-name="Path 4822" d="M278.538,245.675l-2.208,3.553-.822-.511,1.8-2.893-.711-.441.41-.66Z" transform="translate(-65.569 -58.243)" fill="#fff"/>
      <path id="Path_4823" data-name="Path 4823" d="M292.836,262.738l-5.83-3.624a1.586,1.586,0,0,1-.511-2.185l3.624-5.83a1.587,1.587,0,0,1,2.185-.511l5.831,3.624a1.587,1.587,0,0,1,.51,2.185l-3.624,5.831a1.587,1.587,0,0,1-2.185.51" transform="translate(-68.128 -59.582)" fill="#455a64"/>
      <g id="Group_89946" data-name="Group 89946" transform="translate(218.129 190.768)" opacity="0.2">
        <g id="Group_89945" data-name="Group 89945">
          <g id="Group_89944" data-name="Group 89944" clip-path="url(#clip-path-9)">
            <path id="Path_4824" data-name="Path 4824" d="M292.836,262.738l-5.83-3.624a1.586,1.586,0,0,1-.511-2.185l3.624-5.83a1.587,1.587,0,0,1,2.185-.511l5.831,3.624a1.587,1.587,0,0,1,.51,2.185l-3.624,5.831a1.587,1.587,0,0,1-2.185.51" transform="translate(-286.257 -250.35)"/>
          </g>
        </g>
      </g>
      <path id="Path_4825" data-name="Path 4825" d="M291.109,261.664l-5.831-3.624a1.587,1.587,0,0,1-.51-2.185l3.624-5.83a1.587,1.587,0,0,1,2.185-.511l5.831,3.624a1.587,1.587,0,0,1,.51,2.185l-3.624,5.831a1.587,1.587,0,0,1-2.185.51" transform="translate(-67.717 -59.326)" fill="#263238"/>
      <path id="Path_4826" data-name="Path 4826" d="M293.449,259.191l-.417.67-2.685-1.669.331-.533,2.175-.443c.5-.1.67-.252.778-.424.173-.279.081-.562-.294-.795a1.025,1.025,0,0,0-.957-.1l-.358-.758a1.945,1.945,0,0,1,1.82.217c.791.492,1.067,1.227.666,1.871a1.666,1.666,0,0,1-1.291.752l-1.3.264Z" transform="translate(-69.101 -60.689)" fill="#fff"/>
      <path id="Path_4827" data-name="Path 4827" d="M309.009,272.79l-5.831-3.624a1.587,1.587,0,0,1-.51-2.185l3.624-5.83a1.586,1.586,0,0,1,2.185-.51l5.831,3.623a1.587,1.587,0,0,1,.51,2.185l-3.624,5.831a1.587,1.587,0,0,1-2.185.51" transform="translate(-71.977 -61.974)" fill="#455a64"/>
      <g id="Group_89949" data-name="Group 89949" transform="translate(230.452 198.428)" opacity="0.2">
        <g id="Group_89948" data-name="Group 89948">
          <g id="Group_89947" data-name="Group 89947" clip-path="url(#clip-path-8)">
            <path id="Path_4828" data-name="Path 4828" d="M309.009,272.79l-5.831-3.624a1.587,1.587,0,0,1-.51-2.185l3.624-5.83a1.586,1.586,0,0,1,2.185-.51l5.831,3.623a1.587,1.587,0,0,1,.51,2.185l-3.624,5.831a1.587,1.587,0,0,1-2.185.51" transform="translate(-302.429 -260.402)"/>
          </g>
        </g>
      </g>
      <path id="Path_4829" data-name="Path 4829" d="M307.281,271.717l-5.831-3.624a1.586,1.586,0,0,1-.51-2.185l3.624-5.83a1.586,1.586,0,0,1,2.185-.51l5.831,3.623a1.587,1.587,0,0,1,.51,2.185l-3.624,5.831a1.587,1.587,0,0,1-2.185.51" transform="translate(-71.565 -61.719)" fill="#263238"/>
      <path id="Path_4830" data-name="Path 4830" d="M309.859,268.7c-.372.6-1.175.86-2.185.232a2.882,2.882,0,0,1-1.119-1.223l.711-.431a2.032,2.032,0,0,0,.816.95c.411.256.769.246.949-.043.168-.269.074-.559-.393-.85l-.376-.233.338-.543,1.245-.373-1.513-.94.41-.66,2.487,1.546-.331.533-1.37.415a1.187,1.187,0,0,1,.33,1.619" transform="translate(-72.959 -62.969)" fill="#fff"/>
      <path id="Path_4831" data-name="Path 4831" d="M325.181,282.843l-5.831-3.624a1.586,1.586,0,0,1-.51-2.185l3.624-5.83a1.586,1.586,0,0,1,2.185-.51l5.831,3.623a1.587,1.587,0,0,1,.51,2.185l-3.624,5.831a1.587,1.587,0,0,1-2.185.51" transform="translate(-75.826 -64.367)" fill="#455a64"/>
      <g id="Group_89952" data-name="Group 89952" transform="translate(242.776 206.087)" opacity="0.2">
        <g id="Group_89951" data-name="Group 89951">
          <g id="Group_89950" data-name="Group 89950" clip-path="url(#clip-path-9)">
            <path id="Path_4832" data-name="Path 4832" d="M325.181,282.843l-5.831-3.624a1.586,1.586,0,0,1-.51-2.185l3.624-5.83a1.586,1.586,0,0,1,2.185-.51l5.831,3.623a1.587,1.587,0,0,1,.51,2.185l-3.624,5.831a1.587,1.587,0,0,1-2.185.51" transform="translate(-318.602 -270.454)"/>
          </g>
        </g>
      </g>
      <path id="Path_4833" data-name="Path 4833" d="M323.495,281.789l-5.831-3.624a1.586,1.586,0,0,1-.51-2.185l3.624-5.83a1.586,1.586,0,0,1,2.185-.51l5.831,3.623a1.587,1.587,0,0,1,.51,2.185l-3.624,5.831a1.587,1.587,0,0,1-2.185.51" transform="translate(-75.424 -64.116)" fill="#263238"/>
      <rect id="Rectangle_2967" data-name="Rectangle 2967" width="0.384" height="4.482" transform="matrix(0.528, -0.849, 0.849, 0.528, 245.833, 210.411)" fill="#fff"/>
      <path id="Path_4834" data-name="Path 4834" d="M326.988,275.445a.727.727,0,1,1-.233-1,.727.727,0,0,1,.233,1" transform="translate(-77.502 -65.29)" fill="#fff"/>
      <path id="Path_4835" data-name="Path 4835" d="M324.28,279.8a.727.727,0,1,1-.233-1,.727.727,0,0,1,.233,1" transform="translate(-76.857 -66.327)" fill="#fff"/>
      <g id="Group_89955" data-name="Group 89955" transform="translate(198.275 195.663)" opacity="0.2">
        <g id="Group_89954" data-name="Group 89954">
          <g id="Group_89953" data-name="Group 89953" clip-path="url(#clip-path-12)">
            <path id="Path_4836" data-name="Path 4836" d="M267.446,269.652l-6.751-4.2a1.045,1.045,0,0,1-.336-1.439l4.2-6.751a1.044,1.044,0,0,1,1.439-.336l6.751,4.2a1.03,1.03,0,0,1,.335,1.439l-4.2,6.751a1.045,1.045,0,0,1-1.439.336" transform="translate(-260.202 -256.774)"/>
          </g>
        </g>
      </g>
      <path id="Path_4837" data-name="Path 4837" d="M265.322,268.356l-5.831-3.624a1.586,1.586,0,0,1-.51-2.185l3.624-5.83a1.587,1.587,0,0,1,2.185-.51l5.831,3.624a1.587,1.587,0,0,1,.51,2.185l-3.624,5.831a1.587,1.587,0,0,1-2.185.51" transform="translate(-61.579 -60.919)" fill="#263238"/>
      <path id="Path_4838" data-name="Path 4838" d="M267.341,265.7l-.579-.36-.463.746-.8-.5.463-.746-1.913-1.189.344-.553,3.076-1.212.862.536-2.88,1.171.954.593.413-.664.776.482-.413.664.579.36Z" transform="translate(-62.842 -62.328)" fill="#fff"/>
      <path id="Path_4839" data-name="Path 4839" d="M282.65,279.127l-5.831-3.624a1.586,1.586,0,0,1-.51-2.185l3.624-5.83a1.587,1.587,0,0,1,2.185-.511l5.831,3.624a1.587,1.587,0,0,1,.51,2.185l-3.624,5.831a1.587,1.587,0,0,1-2.185.51" transform="translate(-65.703 -63.483)" fill="#455a64"/>
      <g id="Group_89958" data-name="Group 89958" transform="translate(210.367 203.256)" opacity="0.2">
        <g id="Group_89957" data-name="Group 89957">
          <g id="Group_89956" data-name="Group 89956" clip-path="url(#clip-path-13)">
            <path id="Path_4840" data-name="Path 4840" d="M282.65,279.127l-5.831-3.624a1.586,1.586,0,0,1-.51-2.185l3.624-5.83a1.587,1.587,0,0,1,2.185-.511l5.831,3.624a1.587,1.587,0,0,1,.51,2.185l-3.624,5.831a1.587,1.587,0,0,1-2.185.51" transform="translate(-276.07 -266.738)"/>
          </g>
        </g>
      </g>
      <path id="Path_4841" data-name="Path 4841" d="M280.922,278.053l-5.831-3.624a1.587,1.587,0,0,1-.51-2.185l3.624-5.83a1.586,1.586,0,0,1,2.185-.51l5.831,3.624a1.586,1.586,0,0,1,.51,2.184l-3.624,5.831a1.586,1.586,0,0,1-2.185.51" transform="translate(-65.292 -63.227)" fill="#263238"/>
      <path id="Path_4842" data-name="Path 4842" d="M283.042,274.758c-.391.629-1.193.89-2.209.26a2.891,2.891,0,0,1-1.118-1.223l.716-.427a2.009,2.009,0,0,0,.811.947c.411.256.772.241.952-.049s.1-.575-.54-.976l-.908-.565,1.426-1.886,2.167,1.347-.41.66-1.482-.921-.476.64.29.18c1.051.653,1.173,1.384.782,2.013" transform="translate(-66.571 -64.458)" fill="#fff"/>
      <path id="Path_4843" data-name="Path 4843" d="M298.822,289.179l-5.831-3.624a1.587,1.587,0,0,1-.51-2.185l3.624-5.83a1.586,1.586,0,0,1,2.185-.51l5.831,3.623a1.587,1.587,0,0,1,.51,2.185l-3.624,5.831a1.587,1.587,0,0,1-2.185.51" transform="translate(-69.552 -65.875)" fill="#455a64"/>
      <g id="Group_89961" data-name="Group 89961" transform="translate(222.691 210.915)" opacity="0.2">
        <g id="Group_89960" data-name="Group 89960">
          <g id="Group_89959" data-name="Group 89959" clip-path="url(#clip-path-13)">
            <path id="Path_4844" data-name="Path 4844" d="M298.822,289.179l-5.831-3.624a1.587,1.587,0,0,1-.51-2.185l3.624-5.83a1.586,1.586,0,0,1,2.185-.51l5.831,3.623a1.587,1.587,0,0,1,.51,2.185l-3.624,5.831a1.587,1.587,0,0,1-2.185.51" transform="translate(-292.243 -276.79)"/>
          </g>
        </g>
      </g>
      <path id="Path_4845" data-name="Path 4845" d="M297.095,288.1l-5.83-3.624a1.586,1.586,0,0,1-.511-2.185l3.624-5.83a1.587,1.587,0,0,1,2.185-.511l5.831,3.624a1.587,1.587,0,0,1,.51,2.185L299.28,287.6a1.587,1.587,0,0,1-2.185.51" transform="translate(-69.141 -65.619)" fill="#263238"/>
      <path id="Path_4846" data-name="Path 4846" d="M299.651,285.12a1.438,1.438,0,0,1-2.08.346,1.8,1.8,0,0,1-.494-2.748,2.036,2.036,0,0,1,3-.787,2.255,2.255,0,0,1,.837.859l-.68.415a1.37,1.37,0,0,0-.555-.591,1.11,1.11,0,0,0-1.639.409,1.409,1.409,0,0,1,1.073.231,1.327,1.327,0,0,1,.536,1.867m-.822-.455a.631.631,0,0,0-.273-.908.655.655,0,0,0-.946.151.642.642,0,0,0,.3.916.625.625,0,0,0,.922-.159" transform="translate(-70.604 -67.011)" fill="#fff"/>
      <path id="Path_4847" data-name="Path 4847" d="M314.995,299.231l-5.831-3.624a1.586,1.586,0,0,1-.51-2.185l3.624-5.83a1.586,1.586,0,0,1,2.185-.51l5.831,3.623a1.587,1.587,0,0,1,.51,2.185l-3.624,5.831a1.587,1.587,0,0,1-2.185.51" transform="translate(-73.401 -68.267)" fill="#455a64"/>
      <g id="Group_89964" data-name="Group 89964" transform="translate(235.014 218.576)" opacity="0.2">
        <g id="Group_89963" data-name="Group 89963">
          <g id="Group_89962" data-name="Group 89962" clip-path="url(#clip-path-8)">
            <path id="Path_4848" data-name="Path 4848" d="M314.995,299.231l-5.831-3.624a1.586,1.586,0,0,1-.51-2.185l3.624-5.83a1.586,1.586,0,0,1,2.185-.51l5.831,3.623a1.587,1.587,0,0,1,.51,2.185l-3.624,5.831a1.587,1.587,0,0,1-2.185.51" transform="translate(-308.415 -286.843)"/>
          </g>
        </g>
      </g>
      <path id="Path_4849" data-name="Path 4849" d="M313.267,298.157l-5.831-3.624a1.586,1.586,0,0,1-.51-2.185l3.624-5.83a1.586,1.586,0,0,1,2.185-.51l5.831,3.623a1.587,1.587,0,0,1,.51,2.185l-3.624,5.831a1.587,1.587,0,0,1-2.185.51" transform="translate(-72.99 -68.012)" fill="#263238"/>
      <rect id="Rectangle_2972" data-name="Rectangle 2972" width="4.482" height="0.383" transform="matrix(0.977, -0.213, 0.213, 0.977, 237.781, 224.361)" fill="#fff"/>
      <rect id="Rectangle_2973" data-name="Rectangle 2973" width="0.383" height="4.483" transform="translate(239.316 221.932) rotate(-13.139)" fill="#fff"/>
      <path id="Path_4850" data-name="Path 4850" d="M256.946,285.685l-5.831-3.624a1.587,1.587,0,0,1-.51-2.185l3.624-5.83a1.586,1.586,0,0,1,2.185-.51l5.831,3.623a1.587,1.587,0,0,1,.51,2.185l-3.624,5.831a1.587,1.587,0,0,1-2.185.51" transform="translate(-59.586 -65.043)" fill="#455a64"/>
      <g id="Group_89967" data-name="Group 89967" transform="translate(190.78 208.254)" opacity="0.2">
        <g id="Group_89966" data-name="Group 89966">
          <g id="Group_89965" data-name="Group 89965" clip-path="url(#clip-path-9)">
            <path id="Path_4851" data-name="Path 4851" d="M256.946,285.685l-5.831-3.624a1.587,1.587,0,0,1-.51-2.185l3.624-5.83a1.586,1.586,0,0,1,2.185-.51l5.831,3.623a1.587,1.587,0,0,1,.51,2.185l-3.624,5.831a1.587,1.587,0,0,1-2.185.51" transform="translate(-250.366 -273.297)"/>
          </g>
        </g>
      </g>
      <path id="Path_4852" data-name="Path 4852" d="M255.218,284.612l-5.831-3.624a1.586,1.586,0,0,1-.51-2.185l3.624-5.83a1.586,1.586,0,0,1,2.185-.51l5.831,3.623a1.587,1.587,0,0,1,.51,2.185L257.4,284.1a1.587,1.587,0,0,1-2.185.51" transform="translate(-59.175 -64.788)" fill="#263238"/>
      <path id="Path_4853" data-name="Path 4853" d="M258.555,278.525l-.331.533-3.2,2.2-.894-.556,3.066-2.091-1.177-.732-.36.578-.731-.454.776-1.249Z" transform="translate(-60.483 -65.866)" fill="#fff"/>
      <path id="Path_4854" data-name="Path 4854" d="M272.546,295.382l-5.831-3.624a1.586,1.586,0,0,1-.51-2.185l3.624-5.83a1.586,1.586,0,0,1,2.185-.51l5.831,3.623a1.587,1.587,0,0,1,.51,2.185l-3.624,5.831a1.587,1.587,0,0,1-2.185.51" transform="translate(-63.299 -67.351)" fill="#455a64"/>
      <g id="Group_89970" data-name="Group 89970" transform="translate(202.667 215.642)" opacity="0.2">
        <g id="Group_89969" data-name="Group 89969">
          <g id="Group_89968" data-name="Group 89968" clip-path="url(#clip-path-17)">
            <path id="Path_4855" data-name="Path 4855" d="M272.546,295.382l-5.831-3.624a1.586,1.586,0,0,1-.51-2.185l3.624-5.83a1.586,1.586,0,0,1,2.185-.51l5.831,3.623a1.587,1.587,0,0,1,.51,2.185l-3.624,5.831a1.587,1.587,0,0,1-2.185.51" transform="translate(-265.966 -282.993)"/>
          </g>
        </g>
      </g>
      <path id="Path_4856" data-name="Path 4856" d="M270.818,294.308l-5.83-3.624a1.587,1.587,0,0,1-.511-2.185l3.624-5.83a1.586,1.586,0,0,1,2.185-.51l5.831,3.623a1.587,1.587,0,0,1,.51,2.185L273,293.8a1.587,1.587,0,0,1-2.185.51" transform="translate(-62.888 -67.096)" fill="#263238"/>
      <path id="Path_4857" data-name="Path 4857" d="M273.3,291.382c-.416.67-1.276.719-2.18.158s-1.23-1.349-.814-2.019a1.063,1.063,0,0,1,1.058-.5.966.966,0,0,1,.043-.987c.388-.624,1.189-.668,2-.167s1.132,1.246.744,1.871a.973.973,0,0,1-.871.472,1.059,1.059,0,0,1,.022,1.175m-.816-.543c.2-.315.057-.668-.354-.924s-.78-.217-.975.1-.065.671.341.923.793.219.988-.1m-.281-2.265c-.167.269-.058.569.277.777s.662.18.829-.089.055-.586-.28-.794a.554.554,0,0,0-.826.106" transform="translate(-64.288 -68.429)" fill="#fff"/>
      <path id="Path_4858" data-name="Path 4858" d="M288.718,305.434l-5.831-3.624a1.587,1.587,0,0,1-.51-2.185l3.624-5.83a1.587,1.587,0,0,1,2.185-.51l5.831,3.623a1.586,1.586,0,0,1,.509,2.185l-3.623,5.831a1.587,1.587,0,0,1-2.185.51" transform="translate(-67.148 -69.744)" fill="#455a64"/>
      <g id="Group_89973" data-name="Group 89973" transform="translate(214.991 223.302)" opacity="0.2">
        <g id="Group_89972" data-name="Group 89972">
          <g id="Group_89971" data-name="Group 89971" clip-path="url(#clip-path-9)">
            <path id="Path_4859" data-name="Path 4859" d="M288.718,305.434l-5.831-3.624a1.587,1.587,0,0,1-.51-2.185l3.624-5.83a1.587,1.587,0,0,1,2.185-.51l5.831,3.623a1.586,1.586,0,0,1,.509,2.185l-3.623,5.831a1.587,1.587,0,0,1-2.185.51" transform="translate(-282.139 -293.046)"/>
          </g>
        </g>
      </g>
      <path id="Path_4860" data-name="Path 4860" d="M286.991,304.36l-5.83-3.624a1.586,1.586,0,0,1-.511-2.185l3.624-5.83a1.586,1.586,0,0,1,2.185-.51l5.831,3.623a1.587,1.587,0,0,1,.51,2.185l-3.624,5.831a1.587,1.587,0,0,1-2.185.51" transform="translate(-66.736 -69.488)" fill="#263238"/>
      <path id="Path_4861" data-name="Path 4861" d="M289.752,300.5a2.033,2.033,0,0,1-3,.787,2.237,2.237,0,0,1-.834-.856l.68-.415a1.357,1.357,0,0,0,.554.591,1.116,1.116,0,0,0,1.644-.415,1.426,1.426,0,0,1-1.082-.229,1.327,1.327,0,0,1-.536-1.866,1.438,1.438,0,0,1,2.08-.347,1.8,1.8,0,0,1,.494,2.749m-.533-1.19a.64.64,0,0,0-.291-.913.629.629,0,1,0-.649,1.068.649.649,0,0,0,.94-.155" transform="translate(-68.047 -70.794)" fill="#fff"/>
      <path id="Path_4862" data-name="Path 4862" d="M304.891,315.486l-5.831-3.624a1.586,1.586,0,0,1-.51-2.185l3.624-5.83a1.586,1.586,0,0,1,2.185-.51l5.831,3.623a1.587,1.587,0,0,1,.51,2.185l-3.624,5.831a1.586,1.586,0,0,1-2.185.51" transform="translate(-70.997 -72.136)" fill="#455a64"/>
      <g id="Group_89976" data-name="Group 89976" transform="translate(227.315 230.962)" opacity="0.2">
        <g id="Group_89975" data-name="Group 89975">
          <g id="Group_89974" data-name="Group 89974" clip-path="url(#clip-path-9)">
            <path id="Path_4863" data-name="Path 4863" d="M304.891,315.486l-5.831-3.624a1.586,1.586,0,0,1-.51-2.185l3.624-5.83a1.586,1.586,0,0,1,2.185-.51l5.831,3.623a1.587,1.587,0,0,1,.51,2.185l-3.624,5.831a1.586,1.586,0,0,1-2.185.51" transform="translate(-298.312 -303.098)"/>
          </g>
        </g>
      </g>
      <path id="Path_4864" data-name="Path 4864" d="M303.164,314.413l-5.83-3.624a1.586,1.586,0,0,1-.511-2.185l3.624-5.83a1.586,1.586,0,0,1,2.185-.51l5.831,3.623a1.587,1.587,0,0,1,.51,2.185l-3.624,5.831a1.587,1.587,0,0,1-2.185.51" transform="translate(-70.586 -71.88)" fill="#263238"/>
      <rect id="Rectangle_2978" data-name="Rectangle 2978" width="0.383" height="4.482" transform="matrix(0.528, -0.849, 0.849, 0.528, 230.307, 235.437)" fill="#fff"/>
      <path id="Path_4865" data-name="Path 4865" d="M278.527,321.831l-5.83-3.624a1.586,1.586,0,0,1-.51-2.185l3.623-5.83a1.586,1.586,0,0,1,2.185-.51l5.831,3.623a1.586,1.586,0,0,1,.509,2.185l-3.623,5.831a1.587,1.587,0,0,1-2.185.51" transform="translate(-64.722 -73.646)" fill="#455a64"/>
      <g id="Group_89979" data-name="Group 89979" transform="translate(207.225 235.797)" opacity="0.2">
        <g id="Group_89978" data-name="Group 89978">
          <g id="Group_89977" data-name="Group 89977" clip-path="url(#clip-path-9)">
            <path id="Path_4866" data-name="Path 4866" d="M278.527,321.831l-5.83-3.624a1.586,1.586,0,0,1-.51-2.185l3.623-5.83a1.586,1.586,0,0,1,2.185-.51l5.831,3.623a1.586,1.586,0,0,1,.509,2.185l-3.623,5.831a1.587,1.587,0,0,1-2.185.51" transform="translate(-271.947 -309.443)"/>
          </g>
        </g>
      </g>
      <path id="Path_4867" data-name="Path 4867" d="M276.8,320.758l-5.831-3.624a1.587,1.587,0,0,1-.51-2.185l3.624-5.83a1.586,1.586,0,0,1,2.185-.51l5.831,3.623a1.587,1.587,0,0,1,.51,2.185l-3.624,5.831a1.587,1.587,0,0,1-2.185.51" transform="translate(-64.311 -73.391)" fill="#263238"/>
      <path id="Path_4868" data-name="Path 4868" d="M294.7,331.884l-5.831-3.624a1.587,1.587,0,0,1-.51-2.185l3.624-5.83a1.586,1.586,0,0,1,2.185-.51L300,323.359a1.587,1.587,0,0,1,.51,2.185l-3.624,5.831a1.587,1.587,0,0,1-2.185.51" transform="translate(-68.571 -76.038)" fill="#ff725e"/>
      <g id="Group_89982" data-name="Group 89982" transform="translate(219.549 243.457)" opacity="0.4">
        <g id="Group_89981" data-name="Group 89981">
          <g id="Group_89980" data-name="Group 89980" clip-path="url(#clip-path-13)">
            <path id="Path_4869" data-name="Path 4869" d="M294.7,331.884l-5.831-3.624a1.587,1.587,0,0,1-.51-2.185l3.624-5.83a1.586,1.586,0,0,1,2.185-.51L300,323.359a1.587,1.587,0,0,1,.51,2.185l-3.624,5.831a1.587,1.587,0,0,1-2.185.51" transform="translate(-288.12 -319.495)"/>
          </g>
        </g>
      </g>
      <path id="Path_4870" data-name="Path 4870" d="M292.972,330.81l-5.831-3.624a1.587,1.587,0,0,1-.51-2.185l3.624-5.83a1.587,1.587,0,0,1,2.185-.511l5.831,3.624a1.587,1.587,0,0,1,.51,2.185l-3.624,5.831a1.587,1.587,0,0,1-2.185.51" transform="translate(-68.16 -75.783)" fill="#ff725e"/>
      <rect id="Rectangle_2981" data-name="Rectangle 2981" width="0.383" height="4.482" transform="matrix(0.528, -0.849, 0.849, 0.528, 222.833, 247.462)" fill="#fff"/>
      <rect id="Rectangle_2982" data-name="Rectangle 2982" width="0.383" height="4.482" transform="matrix(0.528, -0.849, 0.849, 0.528, 221.933, 248.911)" fill="#fff"/>
      <path id="Path_4871" data-name="Path 4871" d="M256.17,308.079,238.829,297.3a1.9,1.9,0,0,1-.613-2.624l3.422-5.505a1.9,1.9,0,0,1,2.624-.613L261.6,299.337a1.906,1.906,0,0,1,.613,2.624l-3.421,5.5a1.906,1.906,0,0,1-2.624.613" transform="translate(-56.626 -68.607)" fill="#263238"/>
      <path id="Path_4872" data-name="Path 4872" d="M253.03,300.234c.729-1.173,1.792-1.434,2.665-.892s1.109,1.612.381,2.784-1.787,1.437-2.665.891a1.874,1.874,0,0,1-.381-2.783m2.218,1.378c.5-.807.426-1.319.014-1.574s-.9-.094-1.4.713-.426,1.318-.02,1.57.9.1,1.405-.709" transform="translate(-60.117 -71.178)" fill="#fff"/>
      <rect id="Rectangle_2983" data-name="Rectangle 2983" width="4.482" height="0.383" transform="matrix(0.541, -0.841, 0.841, 0.541, 210.849, 243.074)" fill="#fff"/>
      <rect id="Rectangle_2984" data-name="Rectangle 2984" width="0.383" height="4.482" transform="matrix(0.528, -0.849, 0.849, 0.528, 210.218, 240.273)" fill="#fff"/>
      <path id="Path_4873" data-name="Path 4873" d="M312.881,230.666l-3.3,5.312-.251-.156,3.155-5.076-1.335-.83.146-.235Z" transform="translate(-73.619 -54.663)" fill="#263238"/>
      <path id="Path_4874" data-name="Path 4874" d="M315.093,239.494l-.146.235-3.6-2.236.114-.182,3.7-.876c1.058-.247,1.436-.549,1.7-.982.439-.706.229-1.468-.7-2.043a2.308,2.308,0,0,0-1.99-.353l-.071-.275a2.645,2.645,0,0,1,2.215.4,1.682,1.682,0,0,1,.8,2.414,2.566,2.566,0,0,1-1.875,1.106l-3.369.8Z" transform="translate(-74.1 -55.377)" fill="#263238"/>
      <path id="Path_4875" data-name="Path 4875" d="M321.344,241.457c-.547.88-1.557,1.116-2.725.389a2.814,2.814,0,0,1-1.386-1.882l.25-.1a2.589,2.589,0,0,0,1.275,1.74c1.017.632,1.859.461,2.336-.3s.272-1.588-.851-2.286l-.3-.184.114-.182,2.994-1.126-2.929-1.821.146-.235,3.263,2.028-.114.182-3.005,1.13c1.244.773,1.481,1.763.93,2.65" transform="translate(-75.5 -56.04)" fill="#263238"/>
      <path id="Path_4876" data-name="Path 4876" d="M328.137,246.031l-1.154-.717-.952,1.533-.251-.156.953-1.532-3.051-1.9.114-.182,5.172-1.771.3.184-5.105,1.75,2.717,1.689.839-1.351.251.156-.84,1.351,1.154.716Z" transform="translate(-77.035 -57.43)" fill="#263238"/>
      <path id="Path_4877" data-name="Path 4877" d="M329.683,250.093a1.733,1.733,0,0,1-.22.252l-.905.847-.2-.123.887-.9a.3.3,0,0,1-.066-.388.292.292,0,0,1,.406-.094.3.3,0,0,1,.1.406" transform="translate(-78.148 -59.413)" fill="#263238"/>
      <path id="Path_4878" data-name="Path 4878" d="M336.5,251.23l-1.154-.717-.952,1.533-.251-.155.953-1.533-3.05-1.9.113-.182,5.172-1.772.3.184-5.105,1.749,2.717,1.689.839-1.35.251.155-.84,1.351,1.154.716Z" transform="translate(-79.026 -58.668)" fill="#263238"/>
      <path id="Path_4879" data-name="Path 4879" d="M341.754,254.189a1.835,1.835,0,0,1-2.76.41,2.82,2.82,0,0,1-1.378-1.878l.257-.092a2.574,2.574,0,0,0,1.268,1.735,1.552,1.552,0,0,0,2.355-.335c.509-.82.325-1.608-1.193-2.55l-1.031-.642,1.836-2.329,2.739,1.7-.146.235-2.528-1.57-1.492,1.892.82.509c1.624,1.01,1.836,1.972,1.251,2.913" transform="translate(-80.351 -59.143)" fill="#263238"/>
    </g>
    <rect id="Rectangle_2986" data-name="Rectangle 2986" width="169.912" height="113.307" transform="translate(206.524 234.764)" fill="#fafafa"/>
    <rect id="Rectangle_2987" data-name="Rectangle 2987" width="27.954" height="11.214" transform="translate(238.058 275.303)" fill="#9680c5"/>
    <rect id="Rectangle_2988" data-name="Rectangle 2988" width="27.954" height="11.214" transform="translate(321.919 275.303)" fill="#9680c5"/>
    <rect id="Rectangle_2989" data-name="Rectangle 2989" width="27.954" height="11.214" transform="translate(321.919 297.575)" fill="#9680c5"/>
    <rect id="Rectangle_2990" data-name="Rectangle 2990" width="27.954" height="11.214" transform="translate(321.919 308.712)" fill="#9680c5"/>
    <rect id="Rectangle_2991" data-name="Rectangle 2991" width="27.954" height="11.214" transform="translate(266.012 297.776)" fill="#455a64"/>
    <rect id="Rectangle_2992" data-name="Rectangle 2992" width="27.954" height="11.214" transform="translate(293.919 309.127)" fill="#455a64"/>
    <rect id="Rectangle_2993" data-name="Rectangle 2993" width="27.954" height="11.668" transform="translate(266.012 331.371)" fill="#ebebeb"/>
    <rect id="Rectangle_2994" data-name="Rectangle 2994" width="27.954" height="11.214" transform="translate(321.919 331.526)" fill="#9680c5"/>
    <rect id="Rectangle_2995" data-name="Rectangle 2995" width="150.931" height="10.959" transform="translate(220.345 264.344)" fill="#e0e0e0"/>
    <rect id="Rectangle_2996" data-name="Rectangle 2996" width="26.461" height="78.929" transform="translate(211.596 264.345)" fill="#e0e0e0"/>
    <path id="Path_4880" data-name="Path 4880" d="M76.061,118.271H48.838V38.579H76.061ZM49.6,117.509H75.3V39.341H49.6Z" transform="translate(162.377 225.384)" fill="#e0e0e0"/>
    <rect id="Rectangle_2997" data-name="Rectangle 2997" width="169.912" height="12.854" transform="translate(206.524 234.764)" fill="#9680c5"/>
    <rect id="Rectangle_2998" data-name="Rectangle 2998" width="26.16" height="7.356" transform="translate(211.896 252.304)" fill="#ebebeb"/>
    <rect id="Rectangle_2999" data-name="Rectangle 2999" width="25.228" height="7.356" transform="translate(241.12 252.304)" fill="#ebebeb"/>
    <rect id="Rectangle_3000" data-name="Rectangle 3000" width="25.228" height="7.356" transform="translate(268.79 252.304)" fill="#ebebeb"/>
    <rect id="Rectangle_3001" data-name="Rectangle 3001" width="25.228" height="7.356" transform="translate(296.459 252.304)" fill="#ebebeb"/>
    <rect id="Rectangle_3002" data-name="Rectangle 3002" width="25.228" height="7.356" transform="translate(324.129 252.304)" fill="#ebebeb"/>
    <rect id="Rectangle_3003" data-name="Rectangle 3003" width="20.737" height="7.356" transform="translate(351.798 252.304)" fill="#ebebeb"/>
    <g id="Group_89985" data-name="Group 89985" transform="translate(174 234.565)" clip-path="url(#clip-path)">
      <path id="Path_4881" data-name="Path 4881" d="M49.292,117.713s.267-.008.781-.011l2.281-.011,8.827-.023,33.073-.052,114.718-.09-.187.187c0-24.338-.008-50.958-.011-78.683v-.011l.2.2-159.68-.052.147-.147c-.034,24.255-.06,43.911-.079,57.51-.015,6.805-.028,12.094-.037,15.688-.007,1.794-.012,3.163-.016,4.091s-.015,1.405-.015,1.405-.011-.461-.015-1.375-.009-2.283-.016-4.065c-.008-3.586-.021-8.864-.037-15.655-.018-13.621-.045-33.307-.078-57.6v-.147h.147l159.68-.051h.2v.21c0,27.725-.008,54.345-.011,78.683v.187h-.187l-114.843-.09L61.1,117.758l-8.788-.023-2.259-.011c-.506,0-.758-.011-.758-.011" transform="translate(-11.696 -9.239)" fill="#263238"/>
      <path id="Path_4882" data-name="Path 4882" d="M209.412,53.4c0,.11-35.748.2-79.836.2s-79.844-.088-79.844-.2,35.741-.2,79.844-.2,79.836.088,79.836.2" transform="translate(-11.836 -12.662)" fill="#263238"/>
      <path id="Path_4883" data-name="Path 4883" d="M209.412,68.115c0,.11-35.748.2-79.836.2s-79.844-.088-79.844-.2,35.741-.2,79.844-.2,79.836.088,79.836.2" transform="translate(-11.836 -16.164)" fill="#263238"/>
      <path id="Path_4884" data-name="Path 4884" d="M209.412,82.831c0,.11-35.748.2-79.836.2s-79.844-.088-79.844-.2,35.741-.2,79.844-.2,79.836.088,79.836.2" transform="translate(-11.836 -19.666)" fill="#263238"/>
      <path id="Path_4885" data-name="Path 4885" d="M209.412,97.547c0,.11-35.748.2-79.836.2s-79.844-.088-79.844-.2,35.741-.2,79.844-.2,79.836.088,79.836.2" transform="translate(-11.836 -23.169)" fill="#263238"/>
      <path id="Path_4886" data-name="Path 4886" d="M209.412,112.263c0,.11-35.748.2-79.836.2s-79.844-.088-79.844-.2,35.741-.2,79.844-.2,79.836.088,79.836.2" transform="translate(-11.836 -26.671)" fill="#263238"/>
      <path id="Path_4887" data-name="Path 4887" d="M209.412,126.979c0,.11-35.748.2-79.836.2s-79.844-.088-79.844-.2,35.741-.2,79.844-.2,79.836.088,79.836.2" transform="translate(-11.836 -30.173)" fill="#263238"/>
      <path id="Path_4888" data-name="Path 4888" d="M84,118.147c-.11,0-.2-17.572-.2-39.242s.088-39.246.2-39.246.2,17.568.2,39.246-.088,39.242-.2,39.242" transform="translate(-19.945 -9.438)" fill="#263238"/>
      <path id="Path_4889" data-name="Path 4889" d="M120.687,117.912c-.11,0-.2-17.519-.2-39.125s.088-39.128.2-39.128.2,17.515.2,39.128-.088,39.125-.2,39.125" transform="translate(-28.676 -9.439)" fill="#263238"/>
      <path id="Path_4890" data-name="Path 4890" d="M157.372,118.147c-.11,0-.2-17.572-.2-39.242s.088-39.246.2-39.246.2,17.568.2,39.246-.088,39.242-.2,39.242" transform="translate(-37.407 -9.438)" fill="#263238"/>
      <path id="Path_4891" data-name="Path 4891" d="M194.056,118.147c-.11,0-.2-17.572-.2-39.242s.088-39.246.2-39.246.2,17.568.2,39.246-.088,39.242-.2,39.242" transform="translate(-46.137 -9.438)" fill="#263238"/>
      <path id="Path_4892" data-name="Path 4892" d="M230.741,118.147c-.11,0-.2-17.572-.2-39.242s.088-39.246.2-39.246.2,17.568.2,39.246-.088,39.242-.2,39.242" transform="translate(-54.868 -9.438)" fill="#263238"/>
      <path id="Path_4893" data-name="Path 4893" d="M54.707,8.174a1.621,1.621,0,1,1-1.621-1.669,1.645,1.645,0,0,1,1.621,1.669" transform="translate(-12.248 -1.548)" fill="#fff"/>
      <path id="Path_4894" data-name="Path 4894" d="M61.934,8.174a1.621,1.621,0,1,1-1.621-1.669,1.645,1.645,0,0,1,1.621,1.669" transform="translate(-13.968 -1.548)" fill="#fff"/>
      <path id="Path_4895" data-name="Path 4895" d="M69.161,8.174A1.621,1.621,0,1,1,67.54,6.505a1.645,1.645,0,0,1,1.621,1.669" transform="translate(-15.688 -1.548)" fill="#fff"/>
      <path id="Path_4896" data-name="Path 4896" d="M212.533,113.5c0-1.293-.062-44.279-.159-113.307l.159.158L42.635.4h-.014l.2-.2c-.006,40.352-.012,78.73-.017,113.307l-.182-.182,122.434.09,34.966.049,9.3.022,2.4.011c.539,0,.819.011.819.011s-.266.007-.8.011l-2.377.011-9.258.022-34.925.049-122.554.09H42.44V113.5C42.434,78.928,42.429,40.55,42.423.2V0h.212l169.9.04h.159V.2c-.1,69.028-.157,112.015-.159,113.307" transform="translate(-10.096 0)" fill="#263238"/>
    </g>
    <path id="Path_4897" data-name="Path 4897" d="M178.977,266.549,170.164,277.5l-36.75,10.231,5.489,59.362c1.693,23.268,4.074,28.971,5.715,44.442v12.613H249l14.573-120.507-36-8.278-7.743-8.813Z" transform="translate(142.248 171.128)" fill="#47d7ac"/>
    <path id="Path_4898" data-name="Path 4898" d="M191.162,291.6l4.5,59.446,4.807,30.175,35.288-98.48-28.466,33.739Z" transform="translate(128.505 167.273)" fill="#fff"/>
    <path id="Path_4899" data-name="Path 4899" d="M202.7,384.367a1.907,1.907,0,0,1,.139-.289l.441-.828,1.731-3.165,6.433-11.6c5.475-9.795,13.021-23.3,21.356-38.212l11.641-20.734.042.229-5.067-4.28-.187-.158.21-.123,7.218-4.257-.075.15c-.789-7.03-1.433-12.767-1.882-16.771-.211-1.977-.376-3.523-.493-4.6-.05-.512-.088-.911-.116-1.2-.025-.271-.026-.412-.026-.412s.032.137.072.407l.161,1.2c.135,1.072.328,2.616.575,4.589.481,4,1.17,9.732,2.016,16.756l.011.1-.086.051-7.2,4.289.023-.28,5.081,4.264.115.1-.074.133-11.614,20.749c-8.375,14.892-15.957,28.374-21.456,38.154l-6.544,11.543c-.772,1.344-1.375,2.395-1.8,3.129l-.476.809a1.959,1.959,0,0,1-.173.269" transform="translate(125.758 168.376)" fill="#263238"/>
    <path id="Path_4900" data-name="Path 4900" d="M195.8,385.035a1.459,1.459,0,0,1-.1-.28c-.064-.2-.149-.48-.26-.83-.225-.754-.546-1.829-.957-3.2l-3.452-11.8c-1.43-4.993-3.206-10.9-5.03-17.533-1.7-6.657-3.322-14.027-5.038-21.76-2.328-10.606-4.432-20.538-6.179-28.943l-.031-.146.141-.049,4.808-1.683-.021.289-5.853-3.1-.11-.058.046-.114c1.839-4.619,3.322-8.345,4.354-10.938l1.2-2.95c.136-.321.241-.572.32-.761a1.531,1.531,0,0,1,.121-.255,1.71,1.71,0,0,1-.084.268c-.072.193-.165.45-.284.776-.266.7-.643,1.7-1.128,2.976-1.005,2.6-2.448,6.344-4.239,10.983l-.064-.171,5.871,3.066.322.168-.341.121-4.8,1.7.108-.2c1.784,8.4,3.908,18.324,6.234,28.928,1.716,7.731,3.328,15.1,5.006,21.754,1.8,6.607,3.551,12.549,4.945,17.546,1.4,4.981,2.539,9.021,3.331,11.837.381,1.383.678,2.465.887,3.223.094.355.167.633.22.841a1.575,1.575,0,0,1,.063.29" transform="translate(132.655 167.708)" fill="#263238"/>
    <path id="Path_4901" data-name="Path 4901" d="M113.284,294.345S105.2,298.278,99.507,316.4c-4.138,13.164-20.966,58.5-20.966,58.5L59.9,369.459S46.186,386.542,49.292,392.5,75.1,410.762,75.1,410.762h26.586a21.836,21.836,0,0,0,7.6-11.077l15.2-51.192Z" transform="translate(162.378 164.513)" fill="#47d7ac"/>
    <path id="Path_4902" data-name="Path 4902" d="M299.394,288.978A32.751,32.751,0,0,1,311.1,301c4.643,8.254,41.695,68.556,44.766,82.856,4.585,21.355-4.577,25.612-4.577,25.612h-12.8l-31.692-.179-4-24.8,14.089-3.006-26.112-28.96-1.73,2.953-5.108-41.337Z" transform="translate(106.427 165.79)" fill="#47d7ac"/>
    <path id="Path_4903" data-name="Path 4903" d="M137.821,327.022c.109-.009,1.053,10.246,2.108,22.9s1.823,22.928,1.714,22.937-1.053-10.244-2.109-22.9-1.822-22.926-1.713-22.935" transform="translate(141.202 156.735)" fill="#263238"/>
    <path id="Path_4904" data-name="Path 4904" d="M299.615,311.962c.109.013-1.351,12.809-3.26,28.575s-3.546,28.544-3.655,28.53,1.35-12.805,3.261-28.577,3.545-28.541,3.654-28.528" transform="translate(104.34 160.32)" fill="#263238"/>
    <path id="Path_4905" data-name="Path 4905" d="M313.9,437.848c-.01-.01.123-.158.359-.455s.57-.745.952-1.356a22.2,22.2,0,0,0,2.453-5.547,27.05,27.05,0,0,0,.882-4.1,19.252,19.252,0,0,0,.208-4.782,11.287,11.287,0,0,0-1.766-4.91,13.327,13.327,0,0,0-4.017-3.931c-.114-.072-.235-.143-.339-.2l-.424-.232.46-.135a99.623,99.623,0,0,1,19.574-3.653c2.537-.216,4.593-.312,6.013-.357.71-.025,1.262-.029,1.635-.034a3.277,3.277,0,0,1,.572.017,3.064,3.064,0,0,1-.568.063l-1.631.107c-1.417.091-3.467.23-5.995.482a106.254,106.254,0,0,0-19.489,3.757l.036-.367c.123.067.242.137.364.213a13.625,13.625,0,0,1,4.135,4.057,11.589,11.589,0,0,1,1.8,5.081,19.282,19.282,0,0,1-.245,4.871,26.6,26.6,0,0,1-.94,4.136,21.069,21.069,0,0,1-2.592,5.551,12.608,12.608,0,0,1-1.02,1.321,2.2,2.2,0,0,1-.42.4" transform="translate(99.695 137.427)" fill="#263238"/>
    <path id="Path_4906" data-name="Path 4906" d="M202.76,440c-.11,0-.2-5.106-.2-11.4s.088-11.4.2-11.4.2,5.1.2,11.4-.088,11.4-.2,11.4" transform="translate(125.791 135.275)" fill="#263238"/>
    <path id="Path_4907" data-name="Path 4907" d="M270.942,378.26a5.411,5.411,0,0,1-.024-.541c-.008-.374-.017-.88-.029-1.522-.015-1.343-.037-3.255-.065-5.66l.117.117-31.579.081c.088-.088-.2.2.2-.2v1.971q0,.98,0,1.947,0,1.933,0,3.805l-.194-.194,22.477.088,6.657.056,1.8.026.473.012a.972.972,0,0,1,.169.013,5.038,5.038,0,0,1-.594.025l-1.762.026-6.612.056-22.613.088h-.2v-.2q0-1.871,0-3.805,0-.967,0-1.947v-1.971c.4-.4.111-.11.2-.2l31.579.081h.119v.117c-.027,2.435-.05,4.37-.065,5.73-.012.631-.021,1.128-.029,1.5a3.9,3.9,0,0,1-.024.5" transform="translate(117.08 146.432)" fill="#263238"/>
    <path id="Path_4908" data-name="Path 4908" d="M136.5,316.388c-.107.023-1.142-4.382-2.313-9.838s-2.032-9.9-1.924-9.923,1.142,4.382,2.313,9.839,2.032,9.9,1.924,9.922" transform="translate(142.524 163.97)" fill="#263238"/>
    <g id="Group_89989" data-name="Group 89989" transform="translate(330.209 469.455)" opacity="0.3">
      <g id="Group_89988" data-name="Group 89988">
        <g id="Group_89987" data-name="Group 89987" clip-path="url(#clip-path-23)">
          <path id="Path_4909" data-name="Path 4909" d="M205,388.418l45.074-69.134-6.5-6.284,3.718-4.748-7.21,4.273,5.073,4.273Z" transform="translate(-204.997 -308.252)"/>
        </g>
      </g>
    </g>
    <g id="Group_89992" data-name="Group 89992" transform="translate(218.864 551.939)" opacity="0.3">
      <g id="Group_89991" data-name="Group 89991">
        <g id="Group_89990" data-name="Group 89990" clip-path="url(#clip-path-24)">
          <path id="Path_4910" data-name="Path 4910" d="M58.877,416.5v3.84l51.16.162v-4Z" transform="translate(-58.877 -416.498)"/>
        </g>
      </g>
    </g>
    <path id="Path_4911" data-name="Path 4911" d="M140.617,210.089a7.579,7.579,0,0,0,7.122-3.181c-1.837.282-3.816.543-5.471-.3s-2.592-3.283-1.3-4.613c1.013-1.038,2.682-.859,4.129-.965A8.929,8.929,0,0,0,152.7,195.2c1.225-3.518.105-7.355-.335-11.054a30.445,30.445,0,0,1,12.745-28.1l23.17-13.394c8.4,10.755,11.023,25.25,9.281,38.787s-7.485,26.261-14.387,38.035a45.17,45.17,0,0,1-6.991,9.62,17.9,17.9,0,0,1-10.413,5.342,10.737,10.737,0,0,1,1.715-9.7,23.386,23.386,0,0,1-17.232-6.172l4.966-3.809a18.136,18.136,0,0,1-14.6-4.671" transform="translate(140.594 200.615)" fill="#263238"/>
    <path id="Path_4912" data-name="Path 4912" d="M236.218,172.534c-.408-9.683-6.437-17.787-15.756-20.45l-29.047-8.3c-12.606-1.727-21.495,13.587-22.685,26.256-1.322,14.074-2.313,28.938-.967,39.511C170.473,230.811,186.606,234,186.606,234c0-.031-.538,19.161-.7,25.341l14.775,30.893,28.631-39.516,6.977-77.928c.018-.362-.046.224-.067-.259" transform="translate(134.226 200.377)" fill="#af7e69"/>
    <path id="Path_4913" data-name="Path 4913" d="M176.558,200.549a2.714,2.714,0,0,0,2.532,2.819,2.6,2.6,0,0,0,2.872-2.361,2.716,2.716,0,0,0-2.529-2.819,2.6,2.6,0,0,0-2.875,2.361" transform="translate(131.981 187.4)" fill="#263238"/>
    <path id="Path_4914" data-name="Path 4914" d="M173.08,188.438c.325.364,2.428-1.093,5.348-1,2.918.055,5.015,1.623,5.342,1.276.16-.154-.163-.8-1.075-1.51a7.447,7.447,0,0,0-4.263-1.459,7.143,7.143,0,0,0-4.27,1.234c-.92.661-1.244,1.292-1.083,1.455" transform="translate(132.817 190.358)" fill="#263238"/>
    <path id="Path_4915" data-name="Path 4915" d="M208.959,200.55a2.715,2.715,0,0,0,2.532,2.818,2.6,2.6,0,0,0,2.872-2.361,2.716,2.716,0,0,0-2.53-2.819,2.6,2.6,0,0,0-2.874,2.362" transform="translate(124.27 187.4)" fill="#263238"/>
    <path id="Path_4916" data-name="Path 4916" d="M209.471,189.477c.327.364,2.432-1.093,5.349-1,2.917.056,5.014,1.623,5.342,1.276.16-.153-.159-.8-1.075-1.51a7.45,7.45,0,0,0-4.263-1.46,7.161,7.161,0,0,0-4.27,1.235c-.917.661-1.242,1.292-1.083,1.455" transform="translate(124.156 190.111)" fill="#263238"/>
    <path id="Path_4917" data-name="Path 4917" d="M194.341,212.486c.018-.165-1.788-.534-4.716-1-.744-.1-1.444-.27-1.555-.782a3.791,3.791,0,0,1,.567-2.2q1.135-2.674,2.379-5.609c3.309-7.989,5.732-14.568,5.409-14.7s-3.269,6.239-6.58,14.228q-1.2,2.955-2.288,5.646a4.317,4.317,0,0,0-.476,2.915,1.869,1.869,0,0,0,1.193,1.128,5.054,5.054,0,0,0,1.261.215c2.955.25,4.791.32,4.807.154" transform="translate(129.503 189.774)" fill="#263238"/>
    <path id="Path_4918" data-name="Path 4918" d="M220.928,253.392s-7.3,14.337-28.415,11.705l.136-4.977a53.324,53.324,0,0,0,28.28-6.728" transform="translate(128.183 174.26)" fill="#7c5142"/>
    <path id="Path_4919" data-name="Path 4919" d="M211.078,177.327c.263.8,3.19.516,6.6,1.034,3.424.45,6.155,1.538,6.631.84.214-.335-.245-1.1-1.338-1.9a11.622,11.622,0,0,0-10.083-1.429c-1.273.469-1.925,1.073-1.813,1.454" transform="translate(123.768 192.844)" fill="#263238"/>
    <path id="Path_4920" data-name="Path 4920" d="M174.655,176.7c.493.678,2.526.053,4.945.094,2.421-.043,4.453.583,4.946-.1.217-.331-.085-1-.961-1.66a7.159,7.159,0,0,0-7.97,0c-.876.655-1.177,1.33-.961,1.66" transform="translate(132.449 193.196)" fill="#263238"/>
    <path id="Path_4921" data-name="Path 4921" d="M208.67,226.614a3.81,3.81,0,0,0-3.854-3.005,3.985,3.985,0,0,0-3.125,2.091,4.9,4.9,0,0,0-.283,3.806l.053.275a4.341,4.341,0,0,0,4.854,1.179,4.058,4.058,0,0,0,2.355-4.346" transform="translate(126.127 181.35)" fill="#7c5142"/>
    <path id="Path_4922" data-name="Path 4922" d="M198.778,229.184c.009-.444,2.957-.218,5.248-2.577s2.214-5.525,2.627-5.515c.188-.027.517.744.45,2.074a7.363,7.363,0,0,1-2.025,4.616,6.416,6.416,0,0,1-4.386,1.972c-1.242.016-1.947-.37-1.913-.571" transform="translate(126.692 181.947)" fill="#263238"/>
    <path id="Path_4923" data-name="Path 4923" d="M223.076,133.539c-3.268-5.192-10.988-10.612-17.032-11.668-6.889-1.2-11.04-.024-15.57,4.113,0,0-3.525,3.4-6.829,4.044s-6.066.1-10.007,2.114c-5.384,2.754-7.743,9.953-10.238,15.461-3.1,6.845-7.517,13.145-9.539,20.382s-.946,16.13,5.153,20.521c-1.046-5.545-1.917-11.646.367-16.666a14.553,14.553,0,0,0,.37,6.007c1.141-3.258,2.344-6.617,4.708-9.132,2.23-2.371,5.313-3.788,7.612-6.094,3.376-3.388,4.93-8.552,9.032-11.01,4.267-2.557,9.665-1.282,14.64-1.258a28.048,28.048,0,0,0,21.809-10.507l-1.237-.1a34.725,34.725,0,0,0,6.763-6.2" transform="translate(137.604 205.667)" fill="#263238"/>
    <path id="Path_4924" data-name="Path 4924" d="M271,188.567c-1.9-6.223-5.233-11.919-7.32-18.082-2.032-6-2.871-12.418-5.569-18.151-3.629-7.714-10.414-17.705-20.986-17.154l-.722.635a22.6,22.6,0,0,0-10.654,1.272l-.162,8.24-2.026,1.782c.85,1.635,1.654,3.217,2.432,4.77a52.054,52.054,0,0,0,2.7,9.07,23.507,23.507,0,0,0,5.072,7.711c18.21,43.6,1.693,46.35,9.9,71.336l5.16-14.3A25.492,25.492,0,0,0,259.028,214.7l.91,4.532a26.283,26.283,0,0,0,7.113-16.237l2.367,4.35c3.745-5.32,3.486-12.553,1.586-18.776" transform="translate(120.793 202.398)" fill="#263238"/>
    <path id="Path_4925" data-name="Path 4925" d="M244.887,202.786c.283-.709,13.446-5.039,13.223,8.813-.216,13.458-13.715,10.422-13.731,10.035s.508-18.848.508-18.848" transform="translate(115.839 186.588)" fill="#af7e69"/>
    <path id="Path_4926" data-name="Path 4926" d="M249.952,218c.06-.041.232.169.624.357a2.339,2.339,0,0,0,1.752.07c1.431-.495,2.671-2.728,2.784-5.153a7.737,7.737,0,0,0-.592-3.368,2.708,2.708,0,0,0-1.729-1.833,1.192,1.192,0,0,0-1.4.616c-.187.373-.107.643-.179.665-.039.033-.285-.232-.165-.785a1.489,1.489,0,0,1,.546-.833,1.764,1.764,0,0,1,1.3-.318,3.293,3.293,0,0,1,2.409,2.133,7.952,7.952,0,0,1,.741,3.767c-.138,2.71-1.575,5.221-3.53,5.746a2.512,2.512,0,0,1-2.137-.4c-.41-.341-.475-.643-.428-.667" transform="translate(114.516 185.205)" fill="#7c5142"/>
    <path id="Path_4927" data-name="Path 4927" d="M251.178,224.478a2.648,2.648,0,1,1-.634.181" transform="translate(114.751 181.147)" fill="#fff"/>
    <path id="Path_4928" data-name="Path 4928" d="M250.468,224.627a3.624,3.624,0,0,0-1.261,1.772,2.281,2.281,0,0,0,.465,2.127,2.354,2.354,0,0,0,4.175-1.2,2.285,2.285,0,0,0-.735-2.05,3.615,3.615,0,0,0-2.011-.831c-.007-.034.21-.133.635-.131a2.747,2.747,0,0,1,1.661.636,2.689,2.689,0,0,1,1.01,2.457,2.891,2.891,0,0,1-5.169,1.485,2.694,2.694,0,0,1-.449-2.618,2.755,2.755,0,0,1,1.071-1.42c.358-.228.6-.258.607-.226" transform="translate(114.827 181.18)" fill="#263238"/>
    <path id="Path_4929" data-name="Path 4929" d="M224.963,150.556c.267.106,1.51-4.455,5.259-8.687,3.689-4.288,8.04-6.135,7.9-6.386a7.511,7.511,0,0,0-2.838,1.137,21.817,21.817,0,0,0-9.577,10.97,7.5,7.5,0,0,0-.743,2.966" transform="translate(120.467 202.325)" fill="#455a64"/>
    <path id="Path_4930" data-name="Path 4930" d="M54.335,403.053l-10.042-11.8s-7.047,0-10.571-3.347-10.042-6.518-7.4-12.508c0,0-3.168-3.7-.615-7.752l.087-1.058s-7.929-3.347-5.638-7.4,6.695-2.291,6.695-2.291-8.658-5.85-10.218-7.452c-4.172-4.284.313-7.17,4.955-4.6,7.676,4.244,33.629,16.461,35.391,25.27v3.837s7.223,8.847,7.223,9.376-.528,14.271-9.866,19.732" transform="translate(170.436 152.726)" fill="#af7e69"/>
    <path id="Path_4931" data-name="Path 4931" d="M0,304.479c-.317-.4,39.411,63.641,39.411,63.641l1.8,21.486h62l-5.752-24.459s-10.718-28.729-10.6-29.064c.237-.652-20.057-32.578-20.057-32.578Z" transform="translate(174 162.333)" fill="#fff"/>
    <path id="Path_4932" data-name="Path 4932" d="M0,304.428s.417-.021,1.215-.04l3.532-.073,13.455-.239,48.6-.783.09,0,.048.076c5.311,8.374,11.151,17.552,17.2,27.466.751,1.244,1.506,2.5,2.235,3.783.181.324.36.646.527.988a2.226,2.226,0,0,1,.119.282.338.338,0,0,1,.021.138c-.016.1,0,.064.01.072s.008,0,.006,0l.02.064.164.522q.365,1.049.732,2.107,1.532,4.215,3.107,8.547l6.557,17.689,0,.011,0,.012c1.746,7.419,3.577,15.2,5.439,23.12.105.449.212.9.315,1.338l.057.244h-.251l-62-.016h-.168l-.014-.167Q40.1,378.3,39.245,368.083l.025.075c-11.847-19.164-21.684-35.08-28.568-46.213-3.421-5.567-6.105-9.937-7.941-12.924-.9-1.489-1.6-2.632-2.073-3.411-.228-.383-.4-.674-.522-.879a2.067,2.067,0,0,1-.165-.3L39.556,367.98l.021.034,0,.04q.863,10.2,1.817,21.485l-.181-.167,62-.017-.193.244c-.1-.44-.21-.889-.315-1.338-1.862-7.92-3.692-15.7-5.435-23.121l.007.024L90.73,347.471l-3.1-8.553q-.367-1.062-.732-2.116l-.169-.539-.021-.069a.694.694,0,0,1-.017-.135v-.068c-.139-.06.2.046.12.02a.284.284,0,0,0-.106-.016c-.053.005-.011.032-.023.026L86.671,336a2.092,2.092,0,0,0-.1-.229c-.157-.323-.337-.646-.514-.966-.722-1.279-1.477-2.533-2.225-3.775-6.037-9.914-11.866-19.1-17.162-27.484l.139.075-48.665.635L4.71,304.4l-3.513.03c-.793,0-1.2,0-1.2,0" transform="translate(174 162.384)" fill="#263238"/>
    <path id="Path_4933" data-name="Path 4933" d="M89.723,348.044a2.855,2.855,0,0,1-.554.024l-1.586-.007-5.832-.11c-4.923-.112-11.723-.3-19.235-.42s-14.316-.107-19.235.049c-2.46.066-4.449.168-5.822.246l-1.583.091a2.9,2.9,0,0,1-.555.005,2.852,2.852,0,0,1,.547-.085l1.578-.166c1.372-.126,3.362-.271,5.824-.373,4.924-.229,11.733-.278,19.251-.165s14.316.353,19.237.536l5.828.236,1.584.082a2.959,2.959,0,0,1,.552.056" transform="translate(165.594 151.963)" fill="#263238"/>
    <path id="Path_4934" data-name="Path 4934" d="M104.5,384.307c-.013.109-8.781-.849-19.582-2.139s-19.551-2.424-19.537-2.533,8.779.849,19.584,2.139,19.548,2.424,19.536,2.533" transform="translate(158.44 144.216)" fill="#263238"/>
    <path id="Path_4935" data-name="Path 4935" d="M41.747,388.538l11.6-.738a5.039,5.039,0,0,0,3.41-1.087c1.058-1.093.54-3.575-.794-4.306l-13.292-3.2" transform="translate(164.064 144.317)" fill="#af7e69"/>
    <path id="Path_4936" data-name="Path 4936" d="M42.671,379.2a5.947,5.947,0,0,1,1.027.177l2.807.617,9.5,2.22.027.006.021.012a2.759,2.759,0,0,1,1.115,1.284,3.758,3.758,0,0,1,.344,1.694,2.414,2.414,0,0,1-.685,1.7,3.451,3.451,0,0,1-1.558.821,19.05,19.05,0,0,1-3.194.328l-5.373.3-3.625.168a8.6,8.6,0,0,1-1.333.008,8.485,8.485,0,0,1,1.323-.162l3.616-.293,5.368-.385a19.474,19.474,0,0,0,3.118-.339,3.07,3.07,0,0,0,1.383-.728,2.024,2.024,0,0,0,.562-1.431,2.985,2.985,0,0,0-1.248-2.623l.047.019-9.471-2.353-2.78-.729a5.949,5.949,0,0,1-1-.311" transform="translate(164.064 144.318)" fill="#7c5142"/>
    <path id="Path_4937" data-name="Path 4937" d="M45.595,373.74a57.125,57.125,0,0,1,10.3,2.9,2.286,2.286,0,0,1,1.523,2.658,1.844,1.844,0,0,1-.763,1.418,3.671,3.671,0,0,1-1.626.45,42.018,42.018,0,0,1-9.86-.6c-3.322-.46-7.926,0-9.851,1.016" transform="translate(165.594 145.617)" fill="#af7e69"/>
    <path id="Path_4938" data-name="Path 4938" d="M35.322,381.586a1.372,1.372,0,0,1,.328-.2,7.5,7.5,0,0,1,1.022-.395,18.749,18.749,0,0,1,3.959-.684,24.787,24.787,0,0,1,2.778-.058,30.851,30.851,0,0,1,3.169.326,42.386,42.386,0,0,0,7.209.477,15.587,15.587,0,0,0,1.87-.171,1.758,1.758,0,0,0,1.365-.858,2.371,2.371,0,0,0-.619-2.918,7.575,7.575,0,0,0-1.453-.629L53.5,375.96c-.937-.325-1.816-.605-2.624-.847-1.615-.482-2.942-.805-3.861-1.021a12.685,12.685,0,0,1-1.425-.354,1.364,1.364,0,0,1,.38.03c.248.031.61.089,1.076.173.931.169,2.274.453,3.907.9.817.225,1.706.492,2.652.8l1.46.5a7.7,7.7,0,0,1,1.54.654,2.253,2.253,0,0,1,.981,1.523,3.234,3.234,0,0,1-.22,1.871,1.687,1.687,0,0,1-.7.741,3.139,3.139,0,0,1-.937.331,15.628,15.628,0,0,1-1.93.18,40.6,40.6,0,0,1-7.275-.511c-1.111-.157-2.149-.32-3.135-.36a25.81,25.81,0,0,0-2.746.01,21.124,21.124,0,0,0-3.936.552c-.912.229-1.375.477-1.391.444" transform="translate(165.594 145.619)" fill="#7c5142"/>
    <path id="Path_4939" data-name="Path 4939" d="M30.887,361.126l9.145,5.1a9.311,9.311,0,0,1,3.648,2.947c.824,1.349.757,3.384-.567,4.249-1.039.679-2.407.424-3.61.119a88.491,88.491,0,0,1-10.057-3.2" transform="translate(166.992 148.619)" fill="#af7e69"/>
    <path id="Path_4940" data-name="Path 4940" d="M29.445,370.347a9.488,9.488,0,0,1,1.285.4c.82.275,2,.677,3.482,1.131s3.244.965,5.225,1.459a5.645,5.645,0,0,0,3.052.172,2.122,2.122,0,0,0,1.179-.962,2.921,2.921,0,0,0,.348-1.576,4.043,4.043,0,0,0-1.47-2.842,14.177,14.177,0,0,0-2.627-1.756l-4.727-2.685-3.169-1.84a8.714,8.714,0,0,1-1.136-.722,8.547,8.547,0,0,1,1.211.587l3.232,1.73,4.768,2.611a14.212,14.212,0,0,1,2.71,1.788,5.386,5.386,0,0,1,1.111,1.356,3.967,3.967,0,0,1,.494,1.756,3.289,3.289,0,0,1-.4,1.79,2.508,2.508,0,0,1-1.4,1.132,5.914,5.914,0,0,1-3.267-.186c-1.984-.516-3.751-1.055-5.22-1.546s-2.643-.933-3.449-1.253c-.4-.162-.712-.291-.921-.385a1.168,1.168,0,0,1-.311-.161" transform="translate(166.992 148.619)" fill="#7c5142"/>
    <path id="Path_4941" data-name="Path 4941" d="M309.7,437.144l-4.346-1.229-13.811-1.289-3.862-5.134,2.691-11.079,17.257-4.1c7.971,5.669,5.819,15.117,2.07,22.834" transform="translate(105.534 135.962)" fill="#af7e69"/>
    <path id="Path_4942" data-name="Path 4942" d="M260.892,407.756a11.893,11.893,0,0,0-4.848.38,6.434,6.434,0,0,0-3.839,5.029c-.447,3.553-.587,6.434-.841,9.741a3.112,3.112,0,0,0,.9,2.337c1.086,1.109,3.06.739,4.182-.335a10.365,10.365,0,0,0,2.167-4.072c.54-1.455,1.113-4.939,1.957-5.243,2.4-.866,5.675,3.274,7.484,1.243l3.28-8c-5.081-.5-5.364-.583-10.444-1.081" transform="translate(114.179 137.54)" fill="#af7e69"/>
    <path id="Path_4943" data-name="Path 4943" d="M260.835,407.736a.662.662,0,0,1,.187,0l.543.034,2.083.172,7.646.734.193.018-.073.181c-.943,2.329-2.042,5.042-3.246,8.012l-.011.027-.021.024a1.869,1.869,0,0,1-1.574.614,4.979,4.979,0,0,1-1.622-.49,17.71,17.71,0,0,0-3.076-1.337l-.406-.065-.4,0a3.138,3.138,0,0,0-.39.08c-.14.026-.171.081-.268.178a5.373,5.373,0,0,0-.679,1.564c-.358,1.141-.587,2.345-1.02,3.539a14.428,14.428,0,0,1-1.413,3.107,4.838,4.838,0,0,1-1.177,1.246,3.952,3.952,0,0,1-1.565.657,3.024,3.024,0,0,1-1.677-.146,2.7,2.7,0,0,1-1.237-1.1,3.273,3.273,0,0,1-.507-1.529c-.012-.558.064-1.017.09-1.521.147-1.967.276-3.841.448-5.592q.127-1.312.279-2.529a6.8,6.8,0,0,1,.6-2.3,6.15,6.15,0,0,1,5.7-3.706,14.342,14.342,0,0,1,1.929.037c.219.019.386.038.5.056a.537.537,0,0,1,.168.035,5.587,5.587,0,0,1-.671-.011,17.82,17.82,0,0,0-1.915.037,6.557,6.557,0,0,0-2.87.77,6.374,6.374,0,0,0-2.589,2.9,6.55,6.55,0,0,0-.55,2.219q-.139,1.213-.255,2.524c-.157,1.746-.274,3.617-.411,5.588-.023.482-.1,1.017-.082,1.471a2.914,2.914,0,0,0,.455,1.35,2.324,2.324,0,0,0,1.063.947,2.631,2.631,0,0,0,1.462.118,3.77,3.77,0,0,0,2.483-1.74,14.193,14.193,0,0,0,1.369-3.024c.415-1.144.649-2.358,1.014-3.518a5.58,5.58,0,0,1,.757-1.7.932.932,0,0,1,.2-.187.653.653,0,0,1,.254-.114,3.529,3.529,0,0,1,.471-.094c.159,0,.317-.008.473,0l.456.074a17.618,17.618,0,0,1,3.149,1.374,4.672,4.672,0,0,0,1.492.464,1.5,1.5,0,0,0,1.279-.486l-.032.051,3.312-7.986.12.2c-3.227-.329-5.833-.653-7.635-.863l-2.074-.249-.539-.074a.62.62,0,0,1-.182-.039" transform="translate(114.235 137.561)" fill="#7c5142"/>
    <path id="Path_4944" data-name="Path 4944" d="M291.507,407.772s-1.712-.534-4.028,1.153c0,0-.866-3.81-3.908-4.559-2.208-.544-5.016,1.721-5.016,1.721s-1.906-3.812-6.988-2.224c-4.2,1.314-13.024,27.388-13.782,29.137-.867,2,2.7,4.508,4.666,2.489,2.062-2.118,8.991-13.7,8.991-13.7l-4.607,16.244a3.116,3.116,0,0,0,.046,1.6,3.387,3.387,0,0,0,6.044.475c2.859-3.873,5.772-11.855,5.772-11.855l2.809-6.125s-5.244,16.229-3.338,17.707,4.353.907,6.1-2.906,8.1-15.882,8.1-15.882l3.018-1.588-1.112,3.812s-5.779,3.018-4.478,5.717,4.026,1.9,6.7.636,5.006-7.532,6.435-10.112c1.279-2.306,1.4-9.092-4.079-9.351a4.186,4.186,0,0,0-3.137,1.25l-.274.274s-.9-3.38-3.934-3.92" transform="translate(112.681 138.54)" fill="#af7e69"/>
    <path id="Path_4945" data-name="Path 4945" d="M291.456,407.738s.123.019.363.072a2.205,2.205,0,0,1,.441.135,3.358,3.358,0,0,1,.587.267,5.878,5.878,0,0,1,2.6,3.43l-.1-.028a4.5,4.5,0,0,1,2.809-1.534,5.1,5.1,0,0,1,3.72,1.139,6.12,6.12,0,0,1,1.81,4.182,9.573,9.573,0,0,1-.162,2.557,6.163,6.163,0,0,1-.4,1.289c-.187.429-.418.8-.614,1.224-.812,1.654-1.593,3.444-2.595,5.233a17.172,17.172,0,0,1-1.75,2.623,6.286,6.286,0,0,1-1.2,1.13,9.777,9.777,0,0,1-1.508.737,7.355,7.355,0,0,1-3.369.7,2.866,2.866,0,0,1-1.656-.733,3.515,3.515,0,0,1-.588-.713l-.226-.4c-.055-.149-.1-.306-.152-.459a2.6,2.6,0,0,1,.369-1.841,6.511,6.511,0,0,1,1.2-1.446,15.8,15.8,0,0,1,3.114-2.195l-.082.1c.341-1.172.722-2.483,1.107-3.813l.24.2-3.016,1.591.072-.072-4.672,9.012-2.393,4.748-1.179,2.446a8.384,8.384,0,0,1-1.6,2.3,3.623,3.623,0,0,1-2.621,1.135,3.32,3.32,0,0,1-1.42-.409,3.634,3.634,0,0,1-.622-.412,1.343,1.343,0,0,1-.364-.728,9.525,9.525,0,0,1,.056-2.9c.128-.954.306-1.9.5-2.85.815-3.787,1.9-7.578,3.106-11.4l.367.142-2.809,6.125.006-.014c-.64,1.723-1.39,3.543-2.2,5.352-.6,1.333-1.24,2.645-1.942,3.917q-.529.953-1.119,1.868a7.4,7.4,0,0,1-1.41,1.694,3.487,3.487,0,0,1-2.077.806,3.747,3.747,0,0,1-2.12-.642,3.162,3.162,0,0,1-1.351-1.748,3.312,3.312,0,0,1-.091-1.111,5.336,5.336,0,0,1,.24-1.053l4.451-15.671.345.149q-2.646,4.389-5.3,8.512c-.892,1.369-1.784,2.714-2.733,4a5.849,5.849,0,0,1-1.707,1.727,2.857,2.857,0,0,1-2.409.021,3.442,3.442,0,0,1-1.759-1.6,2.15,2.15,0,0,1-.189-1.212c.11-.427.261-.734.388-1.1l1.529-4.165c1.009-2.73,2.008-5.362,3.015-7.878s2.015-4.918,3.048-7.186a56.76,56.76,0,0,1,3.289-6.324,10.046,10.046,0,0,1,2.1-2.565,2.306,2.306,0,0,1,.729-.392l.765-.2a8,8,0,0,1,1.535-.164,5.36,5.36,0,0,1,4.74,2.673l-.153-.034a9.384,9.384,0,0,1,3.327-1.685,3.8,3.8,0,0,1,1.682-.054,4.232,4.232,0,0,1,1.423.616,5.793,5.793,0,0,1,1.792,2,8.441,8.441,0,0,1,.813,2.028l-.081-.03a5.943,5.943,0,0,1,3.018-1.2,2.557,2.557,0,0,1,1.04.091s-.083-.017-.254-.037a3.8,3.8,0,0,0-.783,0,5.994,5.994,0,0,0-2.961,1.233l-.061.045-.02-.075a8.409,8.409,0,0,0-.825-1.987,5.68,5.68,0,0,0-1.765-1.936,4.094,4.094,0,0,0-1.373-.581,3.641,3.641,0,0,0-1.607.064,9.249,9.249,0,0,0-3.242,1.669l-.094.072-.059-.1a5.151,5.151,0,0,0-4.56-2.531,7.778,7.778,0,0,0-1.487.166l-.745.194a2.062,2.062,0,0,0-.652.357,9.877,9.877,0,0,0-2.025,2.506,56.916,56.916,0,0,0-3.248,6.3c-1.022,2.265-2.024,4.666-3.02,7.182s-1.99,5.147-2.993,7.878l-1.519,4.169c-.123.347-.293.727-.369,1.036a1.807,1.807,0,0,0,.163,1,3.106,3.106,0,0,0,1.581,1.426,2.5,2.5,0,0,0,2.114-.014,5.6,5.6,0,0,0,1.579-1.625c.937-1.275,1.827-2.619,2.714-3.985,1.769-2.739,3.523-5.584,5.281-8.507l.732-1.218-.387,1.366c-1.432,5.056-2.914,10.292-4.436,15.667a5.167,5.167,0,0,0-.229.988,2.919,2.919,0,0,0,.081.978,2.78,2.78,0,0,0,1.189,1.519,3.361,3.361,0,0,0,1.891.575,3.09,3.09,0,0,0,1.839-.719,7.024,7.024,0,0,0,1.329-1.6q.579-.9,1.1-1.842c.695-1.26,1.327-2.563,1.928-3.889.808-1.8,1.558-3.616,2.193-5.323l0-.008,0-.006,2.81-6.125.367.143c-1.2,3.809-2.289,7.6-3.1,11.359-.2.942-.374,1.882-.5,2.822a9.262,9.262,0,0,0-.064,2.768,1.007,1.007,0,0,0,.242.524,3.243,3.243,0,0,0,.551.365,2.929,2.929,0,0,0,1.256.366,3.25,3.25,0,0,0,2.343-1.027c1.3-1.257,1.862-3.055,2.7-4.641l2.4-4.749,4.689-9.008.025-.047.047-.025,3.019-1.584.351-.184-.111.38-1.116,3.81-.019.065-.062.034a15.564,15.564,0,0,0-3.048,2.137A6.2,6.2,0,0,0,290.1,426.9a2.3,2.3,0,0,0-.34,1.616,2.788,2.788,0,0,0,2.355,2.08,7.105,7.105,0,0,0,3.228-.665,9.687,9.687,0,0,0,1.459-.7,6.032,6.032,0,0,0,1.15-1.075,17.051,17.051,0,0,0,1.73-2.574c1-1.771,1.787-3.552,2.61-5.21.194-.415.444-.821.617-1.215a5.941,5.941,0,0,0,.394-1.238,9.338,9.338,0,0,0,.171-2.495,5.935,5.935,0,0,0-1.721-4.06,4.944,4.944,0,0,0-3.58-1.123,4.383,4.383,0,0,0-2.739,1.468l-.071.078-.033-.106a5.161,5.161,0,0,0-3.874-3.935" transform="translate(112.731 138.574)" fill="#7c5142"/>
    <path id="Path_4946" data-name="Path 4946" d="M291.582,417.553a18.84,18.84,0,0,1-1.454,5.082c-.527,1.362-1.046,2.575-1.43,3.449a6.371,6.371,0,0,1-.691,1.388,33.352,33.352,0,0,1,1.752-4.979c.524-1.356.975-2.589,1.281-3.49a7.494,7.494,0,0,1,.543-1.449" transform="translate(105.458 135.189)" fill="#7c5142"/>
    <path id="Path_4947" data-name="Path 4947" d="M279.606,415.408c.1.051-.863,2.185-1.933,4.863a32.3,32.3,0,0,1-2.1,4.8,6.339,6.339,0,0,1,.439-1.475c.314-.894.752-2.128,1.293-3.473s1.089-2.54,1.52-3.386a5.656,5.656,0,0,1,.781-1.329" transform="translate(108.417 135.7)" fill="#7c5142"/>
    <rect id="Rectangle_3007" data-name="Rectangle 3007" width="298.112" height="399.435" transform="translate(174 234.565)" fill="none"/>
    <rect id="Rectangle_3008" data-name="Rectangle 3008" width="298.112" height="399.435" transform="translate(174 234.565)" fill="none"/>
  </g>
</svg>
