<svg xmlns="http://www.w3.org/2000/svg" width="21.108" height="17.634" viewBox="0 0 21.108 17.634">
  <g id="Icon_feather-camera" data-name="Icon feather-camera" transform="translate(-0.5 -3.5)">
    <path id="Path_2282" data-name="Path 2282" d="M20.608,18.4a1.737,1.737,0,0,1-1.737,1.737H3.237A1.737,1.737,0,0,1,1.5,18.4V8.843A1.737,1.737,0,0,1,3.237,7.106H6.711L8.448,4.5H13.66L15.4,7.106h3.474a1.737,1.737,0,0,1,1.737,1.737Z" fill="none" stroke="#47d7ac" stroke-linecap="round" stroke-linejoin="round" stroke-width="2"/>
    <path id="Path_2283" data-name="Path 2283" d="M18.948,16.974A3.474,3.474,0,1,1,15.474,13.5a3.474,3.474,0,0,1,3.474,3.474Z" transform="translate(-4.42 -3.789)" fill="none" stroke="#47d7ac" stroke-linecap="round" stroke-linejoin="round" stroke-width="2"/>
  </g>
</svg>
