<svg xmlns="http://www.w3.org/2000/svg" xmlns:xlink="http://www.w3.org/1999/xlink" width="387.445" height="435.023" viewBox="0 0 387.445 435.023">
  <defs>
    <clipPath id="clip-path">
      <rect id="Rectangle_3045" data-name="Rectangle 3045" width="343.921" height="435.023" fill="none"/>
    </clipPath>
    <clipPath id="clip-path-4">
      <rect id="Rectangle_3050" data-name="Rectangle 3050" width="28.371" height="3" fill="none" stroke="#f8485e" stroke-width="1"/>
    </clipPath>
    <clipPath id="clip-path-5">
      <rect id="Rectangle_3050-2" data-name="Rectangle 3050" width="44.075" height="3" fill="none"/>
    </clipPath>
    <clipPath id="clip-path-9">
      <rect id="Rectangle_3050-6" data-name="Rectangle 3050" width="22.927" height="3" fill="none"/>
    </clipPath>
    <clipPath id="clip-path-14">
      <rect id="Rectangle_3050-11" data-name="Rectangle 3050" width="22.038" height="3" fill="none"/>
    </clipPath>
    <clipPath id="clip-path-20">
      <rect id="Rectangle_3036" data-name="Rectangle 3036" width="3.399" height="3.384" transform="translate(230.159 415.129)" fill="none"/>
    </clipPath>
    <clipPath id="clip-path-21">
      <rect id="Rectangle_3037" data-name="Rectangle 3037" width="43.536" height="3.526" transform="translate(196.431 425.832)" fill="none"/>
    </clipPath>
    <clipPath id="clip-path-22">
      <rect id="Rectangle_3038" data-name="Rectangle 3038" width="21.638" height="4.441" transform="translate(217.658 399.079)" fill="none"/>
    </clipPath>
    <clipPath id="clip-path-23">
      <rect id="Rectangle_3039" data-name="Rectangle 3039" width="3.419" height="3.356" transform="translate(292.961 410.761)" fill="none"/>
    </clipPath>
    <clipPath id="clip-path-24">
      <rect id="Rectangle_3040" data-name="Rectangle 3040" width="41.828" height="16.363" transform="translate(264.313 418.66)" fill="none"/>
    </clipPath>
    <clipPath id="clip-path-25">
      <rect id="Rectangle_3041" data-name="Rectangle 3041" width="21.595" height="10.579" transform="translate(275.966 393.317)" fill="none"/>
    </clipPath>
    <clipPath id="clip-path-26">
      <rect id="Rectangle_3042" data-name="Rectangle 3042" width="45.535" height="58.542" transform="translate(210.114 153.818)" fill="none"/>
    </clipPath>
    <clipPath id="clip-path-27">
      <rect id="Rectangle_3043" data-name="Rectangle 3043" width="27.237" height="5.672" transform="translate(225.897 121.659)" fill="none"/>
    </clipPath>
    <clipPath id="clip-path-28">
      <rect id="Rectangle_3033" data-name="Rectangle 3033" width="87.048" height="147.614" fill="none"/>
    </clipPath>
  </defs>
  <g id="Group_90349" data-name="Group 90349" transform="translate(-141.956 -166.734)">
    <g id="Group_90071" data-name="Group 90071" transform="translate(185.479 166.734)">
      <g id="Group_90070" data-name="Group 90070" clip-path="url(#clip-path)">
        <g id="Group_90041" data-name="Group 90041">
          <g id="Group_90040" data-name="Group 90040" clip-path="url(#clip-path)">
            <path id="Path_5236" data-name="Path 5236" d="M343.921,429.358c0,.144-76.995.26-171.952.26C76.979,429.618,0,429.5,0,429.358s76.979-.26,171.969-.26c94.957,0,171.952.116,171.952.26" fill="#263238"/>
          </g>
        </g>
        <g id="Group_90043" data-name="Group 90043">
          <g id="Group_90042" data-name="Group 90042" clip-path="url(#clip-path)">
            <path id="Path_5237" data-name="Path 5237" d="M195.292.1l-30.42.016A6.629,6.629,0,0,0,158.5,4.881l-2.484,8.528a7.42,7.42,0,0,1-7.13,5.333l-67.4.036a7.423,7.423,0,0,1-7.137-5.326L71.864,4.927A6.629,6.629,0,0,0,65.491.171L35.071.187A24.162,24.162,0,0,0,10.859,24.3l.2,380.974A24.162,24.162,0,0,0,35.3,429.358l160.222-.085a24.162,24.162,0,0,0,24.211-24.111l-.2-380.975A24.161,24.161,0,0,0,195.292.1" fill="#fff"/>
            <path id="Path_5238" data-name="Path 5238" d="M219.529,24.188A24.161,24.161,0,0,0,195.292.1l-30.42.016A6.628,6.628,0,0,0,158.5,4.882l-2.483,8.528a7.424,7.424,0,0,1-7.131,5.333l-67.4.036a7.423,7.423,0,0,1-7.136-5.326L71.865,4.928A6.633,6.633,0,0,0,65.491.171L35.071.188A24.16,24.16,0,0,0,10.86,24.3l.2,53.2H219.731Z" fill="#ebebeb"/>
            <path id="Path_5239" data-name="Path 5239" d="M36.064,60.951a.5.5,0,0,1-.325-.12l-5.322-4.55a.5.5,0,0,1,0-.756l5.533-4.851a.5.5,0,1,1,.659.752L31.5,55.9l4.884,4.175a.5.5,0,0,1-.325.88" fill="#263238"/>
            <path id="Path_5241" data-name="Path 5241" d="M221.364,390.731c0,.144-46.3.26-103.4.26-57.12,0-103.409-.116-103.409-.26s46.289-.26,103.409-.26c57.1,0,103.4.116,103.4.26" fill="#e0e0e0"/>
            <path id="Path_5242" data-name="Path 5242" d="M182.179,405.243c0,.144-30.379.26-67.844.26s-67.851-.116-67.851-.26,30.373-.26,67.851-.26,67.844.116,67.844.26" fill="#e0e0e0"/>
            <path id="Path_5243" data-name="Path 5243" d="M195.292.1s.274.005.817.027l1.014.044.656.03.748.11A22.855,22.855,0,0,1,207.5,3.339l1.386.835,1.376,1.018a14.052,14.052,0,0,1,1.377,1.163,13.367,13.367,0,0,1,1.358,1.32,23.761,23.761,0,0,1,4.667,7.037,24.108,24.108,0,0,1,1.959,9.645q.007,5.283.017,11.245c.037,31.786.089,77.773.155,134.6.046,56.827.1,124.491.161,199.623q.011,14.088.02,28.518c-.008,2.407.024,4.813-.016,7.238a24.806,24.806,0,0,1-1.219,7.217,24.332,24.332,0,0,1-8.545,11.822,23.085,23.085,0,0,1-6.559,3.5,23.635,23.635,0,0,1-7.348,1.366c-4.98.079-9.963.027-14.982.047l-30.382.019-62.352.038-31.89.017-16.107.009c-2.693-.024-5.383.091-8.114-.172a23.96,23.96,0,0,1-7.836-2.282,25.028,25.028,0,0,1-6.674-4.705,24.7,24.7,0,0,1-4.7-6.645,23.95,23.95,0,0,1-2.274-7.789c-.253-2.717-.144-5.388-.17-8.066q-.009-16.061-.016-31.9-.015-31.674-.029-62.368c-.017-40.889-.033-80.331-.048-117.9s-.022-73.275-.032-106.688q-.006-25.061-.011-48.35,0-2.908,0-5.787a44.048,44.048,0,0,1,.216-5.742A24.235,24.235,0,0,1,33.27.094C35.061-.035,36.821.013,38.576,0h25.5a17.689,17.689,0,0,1,2.481.086,6.808,6.808,0,0,1,5.4,4.6q1.356,4.6,2.672,9.073A7.231,7.231,0,0,0,77.317,17.3,7.337,7.337,0,0,0,81.5,18.622H99.014l31.457.005,13.869,0h3.267a11.626,11.626,0,0,0,3.137-.239,7.319,7.319,0,0,0,4.609-3.629,13.7,13.7,0,0,0,.969-2.743l.8-2.739c.552-1.8.976-3.553,1.59-5.226A6.683,6.683,0,0,1,162.33.537c1.564-.678,3.223-.463,4.729-.5l15.475.016,9.516.021c2.144.008,3.242.025,3.242.025s-1.1.018-3.242.028l-9.516.031L167.06.194c-1.521.038-3.153-.168-4.667.5a6.515,6.515,0,0,0-3.516,3.437c-.6,1.632-1.026,3.421-1.571,5.208l-.795,2.741a13.89,13.89,0,0,1-.979,2.784A7.527,7.527,0,0,1,150.8,18.6a11.8,11.8,0,0,1-3.191.251l-3.267,0-13.869.018-31.457.038-17.509.02a7.643,7.643,0,0,1-4.369-1.371,7.541,7.541,0,0,1-2.811-3.7Q73,9.39,71.642,4.787A6.474,6.474,0,0,0,66.509.421,17.544,17.544,0,0,0,64.08.342l-10,.01L43.808.362,38.577.367C36.824.378,35.05.332,33.3.461A23.855,23.855,0,0,0,11.269,21.266a43.672,43.672,0,0,0-.209,5.693q0,2.879,0,5.786.02,23.265.04,48.35c.026,33.414.053,69.117.081,106.689s.051,77.013.078,117.9q.018,30.667.037,62.368.009,15.837.018,31.9c.026,2.673-.08,5.375.167,8.008a23.421,23.421,0,0,0,2.226,7.621,24.167,24.167,0,0,0,4.6,6.5,24.523,24.523,0,0,0,6.532,4.6,23.449,23.449,0,0,0,7.669,2.233c2.649.258,5.366.147,8.055.17l16.107-.009,31.89-.016,62.352-.029,30.382-.013c5.012-.019,10.017.034,14.967-.044a23.124,23.124,0,0,0,7.2-1.336,22.581,22.581,0,0,0,6.426-3.428,23.837,23.837,0,0,0,8.374-11.579,24.306,24.306,0,0,0,1.2-7.07c.041-2.409.009-4.827.018-7.229q-.006-14.429-.011-28.519c-.018-75.132-.035-142.8-.05-199.623.005-56.824.009-102.812.012-134.6q0-5.958,0-11.245a23.923,23.923,0,0,0-1.922-9.584A23.619,23.619,0,0,0,212.9,7.765a13.362,13.362,0,0,0-1.346-1.319,14.037,14.037,0,0,0-1.366-1.161L208.82,4.266l-1.377-.837A22.976,22.976,0,0,0,198.52.366l-.746-.117L197.12.213,196.108.156c-.542-.031-.816-.054-.816-.054" fill="#263238"/>
            <path id="Rectangle_3047" data-name="Rectangle 3047" d="M10,0H142a10,10,0,0,1,10,10V38a0,0,0,0,1,0,0H0a0,0,0,0,1,0,0V10A10,10,0,0,1,10,0Z" transform="translate(39.521 120.266)" fill="#47d7ac"/>
            <path id="Rectangle_3048" data-name="Rectangle 3048" d="M10,0H142a10,10,0,0,1,10,10V49a0,0,0,0,1,0,0H0a0,0,0,0,1,0,0V10A10,10,0,0,1,10,0Z" transform="translate(191.521 272.266) rotate(180)" fill="#ececec"/>
            <rect id="Rectangle_3049" data-name="Rectangle 3049" width="68" height="65" transform="translate(107.521 223.266) rotate(180)" fill="#ececec" opacity="0.5"/>
            <g id="Rectangle_3046" data-name="Rectangle 3046" transform="translate(39.521 120.266)" fill="none" stroke="#707070" stroke-width="1">
              <rect width="152" height="152" rx="10" stroke="none"/>
              <rect x="0.5" y="0.5" width="151" height="151" rx="9.5" fill="none"/>
            </g>
            <path id="Icon_awesome-user-alt" data-name="Icon awesome-user-alt" d="M24.827,27.931A13.965,13.965,0,1,0,10.862,13.965,13.969,13.969,0,0,0,24.827,27.931Zm12.414,3.1H31.9a16.882,16.882,0,0,1-14.14,0H12.414A12.413,12.413,0,0,0,0,43.448V45a4.656,4.656,0,0,0,4.655,4.655H45A4.656,4.656,0,0,0,49.654,45V43.448A12.413,12.413,0,0,0,37.241,31.034Z" transform="translate(46.484 167.857)" fill="rgba(203,191,226,0.5)"/>
            <g id="Group_90074" data-name="Group 90074" transform="translate(115.521 173.266)">
              <g id="Group_90073" data-name="Group 90073" clip-path="url(#clip-path-4)">
                <path id="Path_5296" data-name="Path 5296" d="M28.371,2.74c0,.144-6.351.26-14.185.26S0,2.884,0,2.74s6.35-.26,14.186-.26,14.185.116,14.185.26" fill="#263238" stroke="#f8485e" stroke-width="1"/>
              </g>
            </g>
            <g id="Group_90075" data-name="Group 90075" transform="translate(115.521 179.266)">
              <g id="Group_90073-2" data-name="Group 90073" clip-path="url(#clip-path-5)">
                <path id="Path_5296-2" data-name="Path 5296" d="M44.075,2.74c0,.144-9.867.26-22.036.26S0,2.884,0,2.74s9.865-.26,22.039-.26,22.036.116,22.036.26" fill="#263238"/>
              </g>
            </g>
            <g id="Group_90076" data-name="Group 90076" transform="translate(115.521 184.266)">
              <g id="Group_90073-3" data-name="Group 90073" clip-path="url(#clip-path-4)">
                <path id="Path_5296-3" data-name="Path 5296" d="M28.371,2.74c0,.144-6.351.26-14.185.26S0,2.884,0,2.74s6.35-.26,14.186-.26,14.185.116,14.185.26" fill="#263238" stroke="#f8485e" stroke-width="1"/>
              </g>
            </g>
            <g id="Group_90077" data-name="Group 90077" transform="translate(115.521 190.266)">
              <g id="Group_90073-4" data-name="Group 90073" clip-path="url(#clip-path-5)">
                <path id="Path_5296-4" data-name="Path 5296" d="M44.075,2.74c0,.144-9.867.26-22.036.26S0,2.884,0,2.74s9.865-.26,22.039-.26,22.036.116,22.036.26" fill="#263238"/>
              </g>
            </g>
            <g id="Group_90078" data-name="Group 90078" transform="translate(115.521 197.266)">
              <g id="Group_90073-5" data-name="Group 90073" clip-path="url(#clip-path-4)">
                <path id="Path_5296-5" data-name="Path 5296" d="M28.371,2.74c0,.144-6.351.26-14.185.26S0,2.884,0,2.74s6.35-.26,14.186-.26,14.185.116,14.185.26" fill="#263238" stroke="#f8485e" stroke-width="1"/>
              </g>
            </g>
            <g id="Group_90079" data-name="Group 90079" transform="translate(52.063 230.266)">
              <g id="Group_90073-6" data-name="Group 90073" clip-path="url(#clip-path-9)">
                <path id="Path_5296-6" data-name="Path 5296" d="M22.927,2.74c0,.144-5.133.26-11.463.26S0,2.884,0,2.74s5.132-.26,11.464-.26,11.463.116,11.463.26" fill="#263238"/>
              </g>
            </g>
            <g id="Group_90080" data-name="Group 90080" transform="translate(52.063 236.266)">
              <g id="Group_90073-7" data-name="Group 90073" clip-path="url(#clip-path-5)">
                <path id="Path_5296-7" data-name="Path 5296" d="M44.075,2.74c0,.144-9.867.26-22.036.26S0,2.884,0,2.74s9.865-.26,22.039-.26,22.036.116,22.036.26" fill="#263238"/>
              </g>
            </g>
            <g id="Group_90081" data-name="Group 90081" transform="translate(52.063 241.266)">
              <g id="Group_90073-8" data-name="Group 90073" clip-path="url(#clip-path-5)">
                <path id="Path_5296-8" data-name="Path 5296" d="M44.075,2.74c0,.144-9.867.26-22.036.26S0,2.884,0,2.74s9.865-.26,22.039-.26,22.036.116,22.036.26" fill="#263238"/>
              </g>
            </g>
            <g id="Group_90082" data-name="Group 90082" transform="translate(52.063 247.266)">
              <g id="Group_90073-9" data-name="Group 90073" clip-path="url(#clip-path-5)">
                <path id="Path_5296-9" data-name="Path 5296" d="M44.075,2.74c0,.144-9.867.26-22.036.26S0,2.884,0,2.74s9.865-.26,22.039-.26,22.036.116,22.036.26" fill="#263238"/>
              </g>
            </g>
            <g id="Group_90083" data-name="Group 90083" transform="translate(52.063 254.266)">
              <g id="Group_90073-10" data-name="Group 90073" clip-path="url(#clip-path-5)">
                <path id="Path_5296-10" data-name="Path 5296" d="M44.075,2.74c0,.144-9.867.26-22.036.26S0,2.884,0,2.74s9.865-.26,22.039-.26,22.036.116,22.036.26" fill="#263238"/>
              </g>
            </g>
            <g id="Group_90084" data-name="Group 90084" transform="translate(125.063 230.266)">
              <g id="Group_90073-11" data-name="Group 90073" clip-path="url(#clip-path-14)">
                <path id="Path_5296-11" data-name="Path 5296" d="M22.038,2.74c0,.144-4.934.26-11.018.26S0,2.884,0,2.74s4.933-.26,11.019-.26,11.018.116,11.018.26" fill="#263238"/>
              </g>
            </g>
            <g id="Group_90085" data-name="Group 90085" transform="translate(125.063 236.266)">
              <g id="Group_90073-12" data-name="Group 90073" clip-path="url(#clip-path-5)">
                <path id="Path_5296-12" data-name="Path 5296" d="M44.075,2.74c0,.144-9.867.26-22.036.26S0,2.884,0,2.74s9.865-.26,22.039-.26,22.036.116,22.036.26" fill="#263238"/>
              </g>
            </g>
            <g id="Group_90086" data-name="Group 90086" transform="translate(125.063 241.266)">
              <g id="Group_90073-13" data-name="Group 90073" clip-path="url(#clip-path-5)">
                <path id="Path_5296-13" data-name="Path 5296" d="M44.075,2.74c0,.144-9.867.26-22.036.26S0,2.884,0,2.74s9.865-.26,22.039-.26,22.036.116,22.036.26" fill="#263238"/>
              </g>
            </g>
            <g id="Group_90087" data-name="Group 90087" transform="translate(125.063 247.266)">
              <g id="Group_90073-14" data-name="Group 90073" clip-path="url(#clip-path-5)">
                <path id="Path_5296-14" data-name="Path 5296" d="M44.075,2.74c0,.144-9.867.26-22.036.26S0,2.884,0,2.74s9.865-.26,22.039-.26,22.036.116,22.036.26" fill="#263238"/>
              </g>
            </g>
            <g id="Group_90088" data-name="Group 90088" transform="translate(125.063 254.266)">
              <g id="Group_90073-15" data-name="Group 90073" clip-path="url(#clip-path-5)">
                <path id="Path_5296-15" data-name="Path 5296" d="M44.075,2.74c0,.144-9.867.26-22.036.26S0,2.884,0,2.74s9.865-.26,22.039-.26,22.036.116,22.036.26" fill="#263238"/>
              </g>
            </g>
          </g>
        </g>
        <g id="Group_90069" data-name="Group 90069">
          <g id="Group_90068" data-name="Group 90068" clip-path="url(#clip-path)">
            <path id="Path_5244" data-name="Path 5244" d="M176.213,169.666a23.081,23.081,0,0,0-9.11-4.579c-5.282-1.206-16.18-.756-16.18-.756s-12.388,2.809-12.646,3.941.457,2.168,2.272,1.868,10.034-.489,10.034-.489-.76,2.287.443,3.276a4.116,4.116,0,0,0,2.089,1.046s-.538,2.245.068,3.415a6.314,6.314,0,0,0,1.408,1.83,1.788,1.788,0,0,0,.457,2.168,9.325,9.325,0,0,0,2.383,1.734s5.759-.194,7.149-1.067,3.174-2.1,3.174-2.1l2.27.105,3.854,3.168Z" fill="#ffbe9d"/>
            <path id="Path_5245" data-name="Path 5245" d="M217.359,395.1l1.483,22.387s-22.282,7.395-22.411,11.559l43.536.315-.88-34.977Z" fill="#455a64"/>
            <g id="Group_90046" data-name="Group 90046" opacity="0.6">
              <g id="Group_90045" data-name="Group 90045">
                <g id="Group_90044" data-name="Group 90044" clip-path="url(#clip-path-20)">
                  <path id="Path_5246" data-name="Path 5246" d="M232.239,415.192a1.778,1.778,0,0,1,1.29,1.991,1.71,1.71,0,0,1-1.962,1.3,1.876,1.876,0,0,1-1.355-2.116,1.774,1.774,0,0,1,2.19-1.122" fill="#fff"/>
                </g>
              </g>
            </g>
            <g id="Group_90049" data-name="Group 90049" opacity="0.6">
              <g id="Group_90048" data-name="Group 90048">
                <g id="Group_90047" data-name="Group 90047" clip-path="url(#clip-path-21)">
                  <path id="Path_5247" data-name="Path 5247" d="M239.967,429.358l-.089-3.526-41.494.719a3.408,3.408,0,0,0-1.953,2.491Z" fill="#fff"/>
                </g>
              </g>
            </g>
            <path id="Path_5248" data-name="Path 5248" d="M218.13,417.284c.013.212,1.079.277,2.145.928,1.083.624,1.65,1.528,1.843,1.438.194-.047-.161-1.308-1.466-2.074s-2.574-.485-2.522-.292" fill="#263238"/>
            <path id="Path_5249" data-name="Path 5249" d="M213.624,419.31c-.043.207.889.541,1.637,1.418.775.854.986,1.821,1.2,1.8.2.027.31-1.222-.642-2.294s-2.2-1.132-2.193-.929" fill="#263238"/>
            <path id="Path_5250" data-name="Path 5250" d="M211.2,424.851c.195.039.458-1.031-.123-2.178s-1.588-1.58-1.673-1.4c-.114.179.549.784,1.012,1.733.484.937.572,1.831.784,1.846" fill="#263238"/>
            <path id="Path_5251" data-name="Path 5251" d="M218.358,412.145c.1.191,1.061-.132,2.264-.087,1.2.021,2.151.4,2.256.211.119-.158-.817-.917-2.236-.95s-2.394.662-2.284.826" fill="#263238"/>
            <g id="Group_90052" data-name="Group 90052" opacity="0.3">
              <g id="Group_90051" data-name="Group 90051">
                <g id="Group_90050" data-name="Group 90050" clip-path="url(#clip-path-22)">
                  <path id="Path_5252" data-name="Path 5252" d="M217.658,399.53l.259,3.99,21.379-.842-.082-3.6Z"/>
                </g>
              </g>
            </g>
            <path id="Path_5253" data-name="Path 5253" d="M218.142,407.622a4.084,4.084,0,0,0,2.179-.077,9.837,9.837,0,0,0,2.259-.769,10.326,10.326,0,0,0,1.231-.7,2.694,2.694,0,0,0,.643-.532.929.929,0,0,0,.063-1.134,1.167,1.167,0,0,0-.946-.457,2.83,2.83,0,0,0-.814.137,7.846,7.846,0,0,0-1.341.506,7.675,7.675,0,0,0-1.969,1.38c-.981.965-1.3,1.769-1.228,1.808.1.067.569-.613,1.573-1.415a8.652,8.652,0,0,1,1.911-1.154,8.045,8.045,0,0,1,1.239-.424c.457-.135.849-.15.974.051.045.077.052.108-.041.246a2.2,2.2,0,0,1-.472.389,11.751,11.751,0,0,1-1.131.693,12.178,12.178,0,0,1-2.082.871,15.015,15.015,0,0,0-2.048.583" fill="#263238"/>
            <path id="Path_5254" data-name="Path 5254" d="M218.428,407.919a3.472,3.472,0,0,0,.511-2.122,7.032,7.032,0,0,0-.965-3.683,1.8,1.8,0,0,0-1.423-1.058,1.016,1.016,0,0,0-.891.635,2.926,2.926,0,0,0-.2.806,4.83,4.83,0,0,0,.043,1.467,5.008,5.008,0,0,0,1,2.223c.884,1.1,1.778,1.329,1.794,1.257.068-.109-.685-.5-1.369-1.561a5.029,5.029,0,0,1-.751-2.027,4.508,4.508,0,0,1,0-1.26c.054-.465.216-.843.391-.8.216-.01.594.327.784.691a7.184,7.184,0,0,1,.575,1.165,7.825,7.825,0,0,1,.488,2.161c.1,1.276-.1,2.078.012,2.107" fill="#263238"/>
            <path id="Path_5255" data-name="Path 5255" d="M274.361,396.02l8.079,20.932s-19.072,13.69-17.956,17.7L306.141,422l-11.25-33.131Z" fill="#455a64"/>
            <g id="Group_90055" data-name="Group 90055" opacity="0.6">
              <g id="Group_90054" data-name="Group 90054">
                <g id="Group_90053" data-name="Group 90053" clip-path="url(#clip-path-23)">
                  <path id="Path_5256" data-name="Path 5256" d="M294.548,410.775a1.778,1.778,0,0,1,1.824,1.516,1.71,1.71,0,0,1-1.487,1.822,1.875,1.875,0,0,1-1.923-1.616c0-.874.894-1.862,1.756-1.723" fill="#fff"/>
                </g>
              </g>
            </g>
            <g id="Group_90058" data-name="Group 90058" opacity="0.6">
              <g id="Group_90057" data-name="Group 90057">
                <g id="Group_90056" data-name="Group 90056" clip-path="url(#clip-path-24)">
                  <path id="Path_5257" data-name="Path 5257" d="M306.141,422l-1.134-3.34-39.8,13.623a3.01,3.01,0,0,0-.843,2.74Z" fill="#fff"/>
                </g>
              </g>
            </g>
            <path id="Path_5258" data-name="Path 5258" d="M281.7,416.972c.075.2,1.112-.057,2.324.248,1.22.273,2.03.967,2.186.824.173-.1-.542-1.2-2.016-1.544s-2.6.3-2.494.472" fill="#263238"/>
            <path id="Path_5259" data-name="Path 5259" d="M278,420.247c.021.211,1.009.252,1.985.866.994.585,1.484,1.445,1.68,1.367.2-.034-.067-1.258-1.295-2s-2.432-.427-2.37-.234" fill="#263238"/>
            <path id="Path_5260" data-name="Path 5260" d="M277.333,426.259c.2-.02.13-1.121-.766-2.043s-1.986-1.036-2.014-.839c-.056.2.758.584,1.482,1.353.741.751,1.091,1.578,1.3,1.529" fill="#263238"/>
            <path id="Path_5261" data-name="Path 5261" d="M280.389,412c.147.154.973-.441,2.136-.757,1.156-.338,2.171-.262,2.216-.47.066-.186-1.053-.632-2.417-.241s-2.089,1.344-1.935,1.468" fill="#263238"/>
            <g id="Group_90061" data-name="Group 90061" opacity="0.3">
              <g id="Group_90060" data-name="Group 90060">
                <g id="Group_90059" data-name="Group 90059" clip-path="url(#clip-path-25)">
                  <path id="Path_5262" data-name="Path 5262" d="M275.966,400.163,277.4,403.9l20.16-7.166-1.15-3.412Z"/>
                </g>
              </g>
            </g>
            <path id="Path_5263" data-name="Path 5263" d="M278.837,407.745a4.084,4.084,0,0,0,2.057-.722,9.746,9.746,0,0,0,1.927-1.407,10.286,10.286,0,0,0,.967-1.036,2.673,2.673,0,0,0,.455-.7.928.928,0,0,0-.277-1.1,1.167,1.167,0,0,0-1.039-.155,2.839,2.839,0,0,0-.736.374,7.7,7.7,0,0,0-2.6,2.785,3.634,3.634,0,0,0-.634,2.092c.114.035.361-.755,1.081-1.82a8.715,8.715,0,0,1,1.48-1.67,8.08,8.08,0,0,1,1.057-.773c.4-.265.766-.4.945-.241.066.06.082.087.035.246a2.168,2.168,0,0,1-.336.512,11.4,11.4,0,0,1-.874,1,12.092,12.092,0,0,1-1.728,1.452,14.9,14.9,0,0,0-1.781,1.166" fill="#263238"/>
            <path id="Path_5264" data-name="Path 5264" d="M279.2,407.942a3.469,3.469,0,0,0-.144-2.178,7.052,7.052,0,0,0-2.017-3.229,1.8,1.8,0,0,0-1.673-.587,1.02,1.02,0,0,0-.663.872,2.952,2.952,0,0,0,.05.829,4.822,4.822,0,0,0,.478,1.388,5.016,5.016,0,0,0,1.615,1.825c1.172.789,2.093.739,2.087.665a17.805,17.805,0,0,1-1.771-1.082,5.019,5.019,0,0,1-1.321-1.711,4.521,4.521,0,0,1-.373-1.2c-.087-.46-.045-.869.135-.881a1.247,1.247,0,0,1,.954.426,7.226,7.226,0,0,1,.9.941,7.855,7.855,0,0,1,1.11,1.918c.473,1.189.518,2.015.638,2.008" fill="#263238"/>
            <path id="Path_5265" data-name="Path 5265" d="M205.992,63.6c-1.761-2.917-.859-6.939,1.526-9.373a13.093,13.093,0,0,1,9.333-3.469,38.877,38.877,0,0,1,10.042,1.735A10.874,10.874,0,0,1,246.08,55.47a6.91,6.91,0,0,1,9.542,7.64L241.44,70.847l-11.718,31.58A13.318,13.318,0,0,1,207.53,88.105a11.442,11.442,0,0,1-2.774-2.479,11.666,11.666,0,0,1-6.478-6.253c-2.465-6.121,1.37-13.962,7.714-15.775" fill="#263238"/>
            <path id="Path_5266" data-name="Path 5266" d="M225.776,122.233c.167-4.857.293-8.185.289-8.15,0,0-9.434-2.008-10.843-14.5-.7-6.211.067-16.309.961-24.551.805-7.418,6.147-16.324,13.524-15.2l22.883,6.9c2.241.34,2.94,2.279,2.793,4.541l.139,1.068L252.839,107.8l-1,15.818a13.053,13.053,0,0,1-26.065-1.387" fill="#ffbe9d"/>
            <path id="Path_5267" data-name="Path 5267" d="M218.915,86.263a1.592,1.592,0,0,0,1.461,1.674,1.521,1.521,0,0,0,1.7-1.36A1.592,1.592,0,0,0,220.62,84.9a1.523,1.523,0,0,0-1.705,1.361" fill="#263238"/>
            <path id="Path_5268" data-name="Path 5268" d="M218.479,81.638c.188.216,1.433-.621,3.144-.539,1.711.057,2.927.994,3.122.793.1-.089-.089-.472-.617-.895a4.373,4.373,0,0,0-2.488-.892,4.191,4.191,0,0,0-2.514.689c-.545.38-.74.747-.647.844" fill="#263238"/>
            <path id="Path_5269" data-name="Path 5269" d="M233.654,86.639a1.592,1.592,0,0,0,1.461,1.674,1.523,1.523,0,0,0,1.7-1.36,1.593,1.593,0,0,0-1.459-1.675,1.524,1.524,0,0,0-1.706,1.361" fill="#263238"/>
            <path id="Path_5270" data-name="Path 5270" d="M234.836,82.049c.188.216,1.435-.621,3.145-.539,1.71.057,2.927.994,3.122.793.1-.089-.087-.472-.618-.9A4.367,4.367,0,0,0,238,80.516a4.2,4.2,0,0,0-2.515.688c-.543.38-.739.748-.647.845" fill="#263238"/>
            <path id="Path_5271" data-name="Path 5271" d="M228.163,93.884a11.325,11.325,0,0,0-2.757-.627c-.435-.065-.845-.171-.9-.472a2.221,2.221,0,0,1,.35-1.282l1.443-3.269c2.009-4.657,3.484-8.494,3.3-8.574s-1.97,3.631-3.978,8.288q-.728,1.724-1.39,3.292a2.534,2.534,0,0,0-.3,1.705,1.1,1.1,0,0,0,.69.671,2.988,2.988,0,0,0,.737.137,11.128,11.128,0,0,0,2.818.131" fill="#263238"/>
            <path id="Path_5272" data-name="Path 5272" d="M226.065,114.083a31.576,31.576,0,0,0,16.808-3.68s-4.585,8.564-16.944,6.843Z" fill="#eb996e"/>
            <path id="Path_5273" data-name="Path 5273" d="M235.033,77.4c.188.459,1.888.169,3.906.33,2.021.12,3.664.643,3.914.215.111-.2-.189-.631-.862-1.055a6.814,6.814,0,0,0-5.958-.415c-.725.326-1.081.707-1,.925" fill="#263238"/>
            <path id="Path_5274" data-name="Path 5274" d="M218.653,76.641c.339.4,1.752.065,3.43.121,1.679.007,3.086.4,3.431.01.152-.191-.054-.591-.658-.987a5.414,5.414,0,0,0-2.758-.763,5.321,5.321,0,0,0-2.77.658c-.611.373-.823.764-.675.961" fill="#263238"/>
            <path id="Path_5275" data-name="Path 5275" d="M246.077,59.6a8.494,8.494,0,0,1-10.371,7.949c-1.88-.428-3.915-1.475-5.6-.536-1.771.988-1.954,3.585-3.541,4.847-2.268,1.8-5.668-.126-8.479.578-2.17.544-3.6,2.535-5.1,4.2s-3.7,3.209-5.818,2.481a25.207,25.207,0,0,1,1.1-5.682,8.467,8.467,0,0,1,3.448-4.52,31.641,31.641,0,0,0,2.81-1.477c1.841-1.36,2.36-3.842,3.545-5.8a9.31,9.31,0,0,1,7.287-4.4c2.45-.145,4.933.7,7.337.2,1.777-.367,3.361-1.442,5.157-1.7,3.5-.511,6.614,2.117,9.022,4.7" fill="#263238"/>
            <path id="Path_5276" data-name="Path 5276" d="M234.764,64.063c1.574-.378,4.8-1.248,5.691-2.561a9.515,9.515,0,0,1,8.471-4.4,7.853,7.853,0,0,1,6.8,6.5,11.29,11.29,0,0,1,9.426,6.657,13.086,13.086,0,0,1-.874,12.145,23.482,23.482,0,0,0-1.4,2.943,19.211,19.211,0,0,1,2.471,2.679c3.461,5.216-3.092,8.5-3.092,8.5.6,3.788-2.892,4.339-5.133,4.693-2.154.34-2.506,6.524-4.285,6.576L251.6,89.08a2.313,2.313,0,0,1-.792.281c-4.207.763-4.407-7.4-3.378-9.686a24.265,24.265,0,0,1-3.992-4.575,17.5,17.5,0,0,1-1.556-8.507c-1.5.023-7.812-2.364-7.121-2.53" fill="#263238"/>
            <path id="Path_5277" data-name="Path 5277" d="M251.132,90.159a3.62,3.62,0,0,1,5.425-2.85c1.225.779,2.123,2.28,1.887,5.077-.629,7.457-7.986,5.288-7.981,5.073,0-.133.382-4.217.669-7.3" fill="#ffbe9d"/>
            <path id="Path_5278" data-name="Path 5278" d="M252.979,94.826c.035-.021.122.1.334.221a1.3,1.3,0,0,0,.969.1,3.224,3.224,0,0,0,1.73-2.759,4.291,4.291,0,0,0-.206-1.889,1.511,1.511,0,0,0-.893-1.081.666.666,0,0,0-.8.292c-.118.2-.083.353-.123.362-.023.018-.15-.138-.064-.44a.833.833,0,0,1,.333-.443.99.99,0,0,1,.734-.13,1.832,1.832,0,0,1,1.26,1.271,4.421,4.421,0,0,1,.275,2.117c-.175,1.5-1.062,2.84-2.167,3.061a1.4,1.4,0,0,1-1.171-.3c-.216-.2-.241-.374-.214-.385" fill="#eb996e"/>
            <path id="Path_5279" data-name="Path 5279" d="M211.069,86.417c.035-.061-.73-.394-1.827-1.363a10.68,10.68,0,0,1-3.144-5.2,10.387,10.387,0,0,1-.274-4.192,8.976,8.976,0,0,1,1.9-4.368,10.6,10.6,0,0,1,9.906-3.66c.353.053.69.17,1.029.249.33.11.646.242.956.355l.482.176-.074-.492a3.662,3.662,0,0,1,.519-2.485,5.836,5.836,0,0,1,1.816-1.8,7.7,7.7,0,0,1,4.721-1.128c3.185.2,6.02,1.176,8.527,1.058a7.972,7.972,0,0,0,5.369-2.021,4.616,4.616,0,0,0,.908-1.291,1.971,1.971,0,0,0,.168-.521,6.49,6.49,0,0,1-1.227,1.654,7.942,7.942,0,0,1-5.229,1.778,19.639,19.639,0,0,1-3.913-.469,34.347,34.347,0,0,0-4.577-.716,9.781,9.781,0,0,0-2.557.159,7.855,7.855,0,0,0-2.5,1.02,6.381,6.381,0,0,0-2.006,1.981,4.249,4.249,0,0,0-.6,2.882l.408-.315c-.33-.123-.668-.264-1.02-.38-.361-.086-.721-.21-1.1-.267a11.081,11.081,0,0,0-10.435,3.9,9.414,9.414,0,0,0-1.96,4.641,10.674,10.674,0,0,0,.356,4.37,10.554,10.554,0,0,0,3.4,5.263,7.49,7.49,0,0,0,1.429.949,2.293,2.293,0,0,0,.547.241" fill="#455a64"/>
            <path id="Path_5280" data-name="Path 5280" d="M208.423,61.02a8.029,8.029,0,0,1,2.177-1.168,6.171,6.171,0,0,1,2.78-.2,5.488,5.488,0,0,1,3.155,1.591l.337.349.094-.472a8.483,8.483,0,0,1,5.967-6.149c2.4-.68,4.809.059,6.834.822a29.225,29.225,0,0,0,5.609,1.834,8.244,8.244,0,0,0,3.991-.179,4.882,4.882,0,0,0,.992-.455c.211-.134.315-.213.3-.23-.027-.049-.472.229-1.36.466a8.625,8.625,0,0,1-3.851-.011,31.629,31.629,0,0,1-5.491-1.93,18.026,18.026,0,0,0-3.367-1.014,8.6,8.6,0,0,0-3.816.131,8.892,8.892,0,0,0-6.308,6.612l.431-.124a5.834,5.834,0,0,0-3.465-1.652,6.231,6.231,0,0,0-2.931.33,5.278,5.278,0,0,0-1.636.95c-.32.3-.463.483-.446.5" fill="#455a64"/>
            <path id="Path_5281" data-name="Path 5281" d="M229.353,97.454a2.452,2.452,0,0,1,1.863-.885,2.9,2.9,0,0,1,2.1,1.063c.012.011.023.024.035.036.023.03.055.052.077.082l-.031-.014a1.394,1.394,0,0,1,.347.807,2.051,2.051,0,0,1-.917,1.694,2.591,2.591,0,0,1-2.985.052,2.115,2.115,0,0,1-.488-2.835" fill="#ff725e"/>
            <path id="Path_5282" data-name="Path 5282" d="M233.723,95.914c-.1-.022-.233.374-.587.9a4.009,4.009,0,0,1-4.2,1.789c-.626-.11-1.005-.287-1.058-.2-.047.066.258.4.933.657a3.792,3.792,0,0,0,4.74-2.019c.285-.662.253-1.116.173-1.128" fill="#263238"/>
            <path id="Path_5283" data-name="Path 5283" d="M261.67,74.462a1.612,1.612,0,0,0,.321-.256,9.029,9.029,0,0,0,.808-.854,8.694,8.694,0,0,0,1.883-3.88,6.84,6.84,0,0,0-.105-3.012,6.18,6.18,0,0,0-1.764-2.979,4.937,4.937,0,0,0-3.58-1.312,4.59,4.59,0,0,0-3.629,1.866l.349.169c.007-.025.016-.053.024-.081a10.242,10.242,0,0,0-.465-7.783,6.735,6.735,0,0,0-5.139-3.663,5.516,5.516,0,0,0-4.091,1.305,4.353,4.353,0,0,0-.774.9,1.68,1.68,0,0,0-.185.37,6.812,6.812,0,0,1,1.058-1.153,5.454,5.454,0,0,1,3.966-1.145,6.486,6.486,0,0,1,4.846,3.557,9.967,9.967,0,0,1,.408,7.5l-.023.079-.34,1.166.689-1a4.225,4.225,0,0,1,3.321-1.7,4.581,4.581,0,0,1,3.322,1.2,5.886,5.886,0,0,1,1.693,2.8,6.626,6.626,0,0,1,.146,2.877,8.914,8.914,0,0,1-1.73,3.834c-.612.8-1.035,1.179-1.009,1.2" fill="#263238"/>
            <path id="Path_5284" data-name="Path 5284" d="M212.044,214.469s-9.6,20.473-9.6,33.546,9.942,152.295,9.942,152.295l34.031-1.231-9.579-184.4Z" fill="#263238"/>
            <path id="Path_5285" data-name="Path 5285" d="M229.008,243.156c0,2.329,10.288,96.672,10.288,96.672l28.532,64.123,31.789-10.711-26.927-62.9s1.527-45.6,2.758-62.412c.924-12.652,2.112-24.522,1.513-29.725a31.192,31.192,0,0,0-5.718-14.842c-3.071-4.029-3.9-3.142-7.063-7.4-4.387-5.9-35.172-1.492-35.172-1.492Z" fill="#263238"/>
            <path id="Path_5286" data-name="Path 5286" d="M267.828,403.951a2,2,0,0,1-.164-.31c-.108-.229-.254-.537-.439-.93-.388-.847-.943-2.057-1.655-3.612l-6.074-13.46c-5.133-11.482-12.29-27.492-20.434-45.707l-.017-.039,0-.044c-.413-4.9-.865-10-1.388-15.207-1.164-11.742-2.443-22.912-3.506-33.084s-1.919-19.343-2.472-27.059c-.569-7.715-.817-13.971-.977-18.293-.045-2.142-.081-3.815-.106-4.979-.006-.551-.011-.98-.014-1.3a2.8,2.8,0,0,1,.013-.441,2.685,2.685,0,0,1,.04.44c.016.315.038.744.066,1.294.047,1.163.116,2.834.2,4.974.222,4.318.525,10.567,1.141,18.273.6,7.708,1.48,16.872,2.582,27.037s2.383,21.334,3.547,33.082c.523,5.208.973,10.312,1.381,15.217l-.021-.083C247.609,357.968,254.71,374,259.8,385.5c2.514,5.731,4.532,10.33,5.933,13.522.678,1.57,1.205,2.793,1.575,3.648.167.4.3.715.4.949a2.1,2.1,0,0,1,.12.329" fill="#455a64"/>
            <path id="Path_5287" data-name="Path 5287" d="M224.88,128.638s-18.939,31.787-19.06,37.31,6.111,23.611,6.111,23.611-4.208,23.226-3.9,26.7a8.427,8.427,0,0,0,1.1,3.844c2.515,2.723,6.782,2.695,10.406,3.468l32.353,5.4c4.228.9,14.341-.065,18.165-2.082,2.116-1.117,4.061-2.581,3.544-4.722-.6-2.487-10.476-25.455-10.476-25.455s2.713-43.347,3.8-51.433-11.275-22.155-11.275-22.155L224.93,129.1" fill="#47d7ac"/>
            <g id="Group_90064" data-name="Group 90064" opacity="0.3">
              <g id="Group_90063" data-name="Group 90063">
                <g id="Group_90062" data-name="Group 90062" clip-path="url(#clip-path-26)">
                  <path id="Path_5288" data-name="Path 5288" d="M210.114,204.156c5.708,8.281,17.742,10.741,25.965,5.307,7.755-5.124,11.049-15.151,13.254-24.525,2.065-8.774,5.2-22.156,6.316-31.12,0,0-18.319,44.835-20.681,47.706s-6.674,9.657-18.6,5.05Z"/>
                </g>
              </g>
            </g>
            <path id="Path_5289" data-name="Path 5289" d="M224.706,127.031l.224,2.066,30.719-5.971-.543-8.608s0-2.4-2.9-2.4c-1.438,0-26.306,6.249-27.273,6.89-2.421,1.6-.224,8.027-.224,8.027" fill="#47d7ac"/>
            <path id="Path_5290" data-name="Path 5290" d="M175.075,167.575s41.262,12.514,41.931,11.988,10.812-34.375,10.812-34.375,4.843-17.167,12.689-17.131c15.768.071,17.449,19.976,17.449,19.976s-15.88,49.986-25.663,59.116-56.275-22.176-56.275-22.176l-3.671-.994Z" fill="#47d7ac"/>
            <path id="Path_5291" data-name="Path 5291" d="M218.8,192.171c-.114.1-1.8-2.451-2.276-6.106a13.257,13.257,0,0,1,.481-6.5c.2.028-.34,2.91.139,6.419.451,3.515,1.834,6.1,1.656,6.189" fill="#263238"/>
            <path id="Path_5292" data-name="Path 5292" d="M240.507,128.057c0,.036-.362.018-1.021.158a6.729,6.729,0,0,0-2.645,1.234c-2.1,1.485-4.313,4.609-6.208,8.794-1.984,4.165-3.3,9.525-5.1,15.366-1.764,5.85-3.711,12.279-5.842,19-.537,1.681-1.069,3.341-1.628,4.97l-.432,1.216c-.077.2-.15.4-.243.608a.859.859,0,0,1-.269.387.552.552,0,0,1-.3.039l-.173-.021c-.867-.144-1.668-.36-2.48-.563-3.225-.838-6.306-1.728-9.244-2.574-5.871-1.7-11.142-3.283-15.565-4.622l-10.462-3.219-2.835-.907-.733-.249a1,1,0,0,1-.245-.1,1.047,1.047,0,0,1,.26.051l.748.2,2.863.814,10.509,3.06,15.593,4.514c2.938.832,6.023,1.712,9.237,2.541.8.2,1.623.415,2.426.548l.141.017h.069c-.027-.029-.027.074.009.138,0,.01.081.116.026.038-.031-.05-.134-.173-.109-.146l0-.014a.058.058,0,0,1,.01-.024,1.237,1.237,0,0,0,.054-.121c.082-.18.155-.38.23-.576l.426-1.2c.554-1.62,1.084-3.28,1.62-4.958,2.13-6.719,4.091-13.144,5.88-18.986,1.826-5.815,3.184-11.19,5.229-15.381,1.952-4.2,4.236-7.335,6.426-8.8a6.547,6.547,0,0,1,2.743-1.171,3.775,3.775,0,0,1,1.04-.055" fill="#263238"/>
            <path id="Path_5293" data-name="Path 5293" d="M208.389,203.347a.777.777,0,0,1,.224.07l.633.252,2.425.992a72.141,72.141,0,0,0,9.11,3.06,25.2,25.2,0,0,0,6.521.868,8.879,8.879,0,0,0,3.509-.745,8.063,8.063,0,0,0,2.809-2.536,47.872,47.872,0,0,0,4.443-7.112c1.364-2.581,2.664-5.316,3.933-8.145,5.046-11.34,8.84-21.937,11.589-29.591,1.332-3.808,2.414-6.905,3.181-9.1q.543-1.563.86-2.475c.093-.257.171-.467.233-.641a.855.855,0,0,1,.1-.213.763.763,0,0,1-.046.23c-.049.178-.109.393-.183.656l-.77,2.507c-.686,2.17-1.7,5.3-3.025,9.155-2.662,7.691-6.4,18.315-11.461,29.684-1.273,2.835-2.58,5.578-3.959,8.17a47.5,47.5,0,0,1-4.517,7.173,8.5,8.5,0,0,1-2.988,2.65,9.27,9.27,0,0,1-3.693.763,25.241,25.241,0,0,1-6.625-.943,65.128,65.128,0,0,1-9.1-3.23c-1.047-.451-1.85-.821-2.39-1.083l-.613-.3a.771.771,0,0,1-.2-.118" fill="#263238"/>
            <path id="Path_5294" data-name="Path 5294" d="M256.371,201.525a3.777,3.777,0,0,1-.654.764c-.441.473-1.12,1.117-1.993,1.876a40.517,40.517,0,0,1-15.855,8.4c-1.118.3-2.032.5-2.671.6a3.77,3.77,0,0,1-1,.113c-.018-.086,1.376-.386,3.568-1.063a47.232,47.232,0,0,0,15.722-8.332c1.79-1.434,2.821-2.419,2.882-2.357" fill="#263238"/>
            <g id="Group_90067" data-name="Group 90067" opacity="0.3">
              <g id="Group_90066" data-name="Group 90066">
                <g id="Group_90065" data-name="Group 90065" clip-path="url(#clip-path-27)">
                  <path id="Path_5295" data-name="Path 5295" d="M226.505,126.885a157.005,157.005,0,0,0,26.629-5.226,45.722,45.722,0,0,1-27.237,5.373"/>
                </g>
              </g>
            </g>
          </g>
        </g>
      </g>
    </g>
    <g id="Group_90072" data-name="Group 90072" transform="translate(141.956 450.386)">
      <g id="Group_90038" data-name="Group 90038" clip-path="url(#clip-path-28)">
        <path id="Path_5227" data-name="Path 5227" d="M91.025,4.891c-7.714,4-13.629,10.875-17.883,18.45s-6.994,15.887-9.71,24.139L61.057,90.04c8.976-15.27,16.18-33.22,18.126-50.825l-5.973-.532c4-.612,7.367-3.513,9.5-6.954s3.24-7.408,4.314-11.314L79.743,21.5A27.008,27.008,0,0,0,91.025,4.891" transform="translate(-17.071 -1.368)" fill="#e0e0e0"/>
        <path id="Path_5228" data-name="Path 5228" d="M51.723,98.644S32.242,75.326,32.466,53.066h7.87s-8.548-5.621-7.872-8.769.9-15.065.9-15.065l7.2,1.8s-5.4-2.7-6.071-6.971S36.064,0,36.064,0s8.769,9.219,11.467,18.663,9.781,20.462,7.7,49.243-3.509,30.738-3.509,30.738" transform="translate(-9.066)" fill="#ebebeb"/>
        <path id="Path_5229" data-name="Path 5229" d="M72.92,110.7s21.106-14.061,25.8-32.007l-6.327-1.722s8.1-2.649,8.247-5.328,2.571-12.309,2.571-12.309l-6.178-.128s4.929-.988,6.407-4.276,4-19.687,4-19.687-9.067,5.493-13.3,12.5-12.34,14.31-16.965,37.9S72.92,110.7,72.92,110.7" transform="translate(-20.386 -9.854)" fill="#ebebeb"/>
        <path id="Path_5230" data-name="Path 5230" d="M44.862,28.222a1.23,1.23,0,0,1,.071.241c.043.181.1.418.17.718.147.656.354,1.583.619,2.767.271,1.2.585,2.675.926,4.39S47.4,40,47.794,42.168c.835,4.323,1.715,9.492,2.622,15.243.879,5.755,1.756,12.1,2.536,18.769.764,6.677,1.357,13.052,1.814,18.857.429,5.806.751,11.041.925,15.44.109,2.2.16,4.19.213,5.938s.089,3.254.1,4.485c.012,1.213.022,2.163.028,2.835,0,.308,0,.552,0,.737a1.243,1.243,0,0,1-.013.251,1.228,1.228,0,0,1-.025-.251c-.009-.185-.02-.429-.035-.736-.023-.671-.056-1.621-.1-2.833-.033-1.23-.084-2.735-.164-4.481s-.143-3.736-.269-5.933c-.207-4.4-.557-9.625-1-15.426-.476-5.8-1.078-12.168-1.842-18.841-.779-6.669-1.645-13.006-2.5-18.76-.888-5.75-1.74-10.921-2.542-15.247-.378-2.168-.764-4.121-1.091-5.837s-.615-3.2-.863-4.4c-.235-1.19-.42-2.122-.55-2.781-.056-.3-.1-.543-.134-.725a1.249,1.249,0,0,1-.033-.25" transform="translate(-12.543 -7.891)" fill="#e0e0e0"/>
        <path id="Path_5231" data-name="Path 5231" d="M39.954,135.634S22.126,115.405,16.59,103.177l4.179-1.786a10.829,10.829,0,0,1-8.481-2.779,32.07,32.07,0,0,1-5.765-7.14l5.5-.93A20.467,20.467,0,0,1,0,81.225c6.5,1.068,12.374,4.637,17.216,9.1A85.621,85.621,0,0,1,27.649,102.41a41.141,41.141,0,0,1,4.052,6.661c3,6.194,8.264,19.135,8.254,26.563" transform="translate(0 -22.71)" fill="#ebebeb"/>
        <path id="Path_5232" data-name="Path 5232" d="M97.164,51.586a1.007,1.007,0,0,1-.081.206l-.274.589-1.084,2.245c-.956,1.942-2.309,4.767-3.947,8.273S88.243,70.6,86.211,75.3c-2.015,4.7-4.162,9.9-6.3,15.406s-4.034,10.8-5.706,15.639c-1.655,4.841-3.084,9.223-4.224,12.92s-2.046,6.7-2.646,8.776c-.3,1.019-.538,1.819-.707,2.39l-.193.619a.964.964,0,0,1-.079.207.971.971,0,0,1,.041-.218c.04-.161.092-.369.158-.629.153-.576.367-1.383.64-2.41.557-2.093,1.418-5.106,2.532-8.814s2.513-8.1,4.152-12.955c1.656-4.845,3.558-10.145,5.683-15.662s4.3-10.709,6.329-15.408c2.051-4.691,3.969-8.885,5.644-12.377s3.06-6.3,4.056-8.226l1.148-2.214.307-.571a1,1,0,0,1,.116-.189" transform="translate(-18.553 -14.423)" fill="#e0e0e0"/>
        <path id="Path_5233" data-name="Path 5233" d="M52.493,155.362a1.455,1.455,0,0,1-.086-.372c-.047-.287-.105-.642-.175-1.073-.136-.934-.37-2.28-.7-3.934s-.779-3.611-1.364-5.761c-.6-2.145-1.342-4.482-2.243-6.89s-1.905-4.647-2.871-6.655c-.983-2-1.931-3.771-2.784-5.225s-1.563-2.622-2.078-3.413l-.578-.921a1.46,1.46,0,0,1-.181-.336,1.462,1.462,0,0,1,.243.293l.638.883c.553.767,1.3,1.913,2.184,3.358s1.862,3.207,2.866,5.208c.987,2.009,1.991,4.26,2.911,6.675s1.639,4.772,2.226,6.932c.568,2.165,1,4.135,1.291,5.8s.488,3.022.58,3.964c.042.436.077.794.105,1.084a1.442,1.442,0,0,1,.012.38" transform="translate(-11.026 -33.77)" fill="#e0e0e0"/>
        <rect id="Rectangle_3032" data-name="Rectangle 3032" width="39.02" height="7.96" transform="translate(25.972 116.834)" fill="#e0e0e0"/>
        <path id="Path_5234" data-name="Path 5234" d="M41.213,173.227l4,22.821H68.794l4.152-22.821Z" transform="translate(-11.523 -48.434)" fill="#e0e0e0"/>
        <path id="Path_5235" data-name="Path 5235" d="M74.1,173.154c0,.1-7.382.187-16.486.187s-16.486-.084-16.486-.187,7.381-.187,16.486-.187,16.486.084,16.486.187" transform="translate(-11.498 -48.361)" fill="#ebebeb"/>
      </g>
    </g>
  </g>
</svg>
