<svg xmlns="http://www.w3.org/2000/svg" xmlns:xlink="http://www.w3.org/1999/xlink" width="389.826" height="376.836" viewBox="0 0 389.826 376.836">
  <defs>
    <clipPath id="clip-path">
      <rect id="Rectangle_2794" data-name="Rectangle 2794" width="389.826" height="376.836" fill="none"/>
    </clipPath>
    <clipPath id="clip-path-3">
      <rect id="Rectangle_2799" data-name="Rectangle 2799" width="34.245" height="41.723" fill="#16b988"/>
    </clipPath>
    <clipPath id="clip-path-4">
      <rect id="Rectangle_2802" data-name="Rectangle 2802" width="7.351" height="7.324" fill="none"/>
    </clipPath>
    <clipPath id="clip-path-5">
      <rect id="Rectangle_2803" data-name="Rectangle 2803" width="56.933" height="4.148" fill="none"/>
    </clipPath>
    <clipPath id="clip-path-6">
      <rect id="Rectangle_2804" data-name="Rectangle 2804" width="8.706" height="78.521" fill="none"/>
    </clipPath>
    <clipPath id="clip-path-7">
      <rect id="Rectangle_2805" data-name="Rectangle 2805" width="65.512" height="15.672" fill="none"/>
    </clipPath>
  </defs>
  <g id="Group_89727" data-name="Group 89727" transform="translate(12520 16838)">
    <rect id="Rectangle_2788" data-name="Rectangle 2788" width="191.468" height="269.571" transform="translate(-12343.425 -16781.574)" fill="#ebebeb"/>
    <path id="Path_3795" data-name="Path 3795" d="M330.553,389.546a16.808,16.808,0,0,1,4.093-1.779l.843-4.052,6.846-.12.985,4.019a16.769,16.769,0,0,1,4.154,1.634l3.46-2.268,4.925,4.755-2.145,3.537a16.747,16.747,0,0,1,1.779,4.094l4.052.843.12,6.846-4.02.985a16.745,16.745,0,0,1-1.634,4.153l2.268,3.46-4.755,4.926-3.536-2.145a16.773,16.773,0,0,1-4.095,1.779l-.843,4.052-6.845.12-.986-4.019a16.78,16.78,0,0,1-4.153-1.634L327.606,421l-4.925-4.756,2.144-3.536a16.781,16.781,0,0,1-1.779-4.094L319,407.771l-.12-6.846,4.019-.986a16.76,16.76,0,0,1,1.634-4.152l-2.268-3.46,4.755-4.926Zm3.649,9.119a7.344,7.344,0,1,0,10.385-.182,7.345,7.345,0,0,0-10.385.182" transform="translate(-12564.57 -16891.617)" fill="#f5f5f5"/>
    <g id="Group_89707" data-name="Group 89707" transform="translate(-12520 -16838)">
      <g id="Group_89706" data-name="Group 89706" clip-path="url(#clip-path)">
        <path id="Path_3796" data-name="Path 3796" d="M384.848,437.771s.406-.016,1.231-.025l3.747-.024v.1c-19.355.1-98.18.175-192.415.175l-139.6-.065-42.3-.071-11.5-.041-2.991-.022C.345,437.786,0,437.771,0,437.771s.345-.015,1.019-.023l2.991-.022,11.5-.042,42.3-.071,139.6-.065c94.235,0,173.06.075,192.415.175v.1l-3.747-.024c-.825-.009-1.231-.025-1.231-.025" transform="translate(0 -61.158)" fill="#263238"/>
      </g>
    </g>
    <rect id="Rectangle_2795" data-name="Rectangle 2795" width="192.806" height="272.047" transform="translate(-12360.138 -16795.625)" fill="#fff"/>
    <g id="Group_89709" data-name="Group 89709" transform="translate(-12520 -16838)">
      <g id="Group_89708" data-name="Group 89708" clip-path="url(#clip-path)">
        <path id="Path_3797" data-name="Path 3797" d="M378.608,321.273c0-1.809-.083-111.332-.2-272.047l.2.2-192.783.021H185.8l.224-.224c-.016,101.946-.031,196.217-.044,272.047l-.18-.181,192.8.181-192.8.181h-.182v-.181c-.012-75.831-.027-170.1-.043-272.047V49h.246l192.783.021h.2v.2c-.121,160.715-.2,270.239-.2,272.047" transform="translate(-25.939 -6.849)" fill="#263238"/>
        <path id="Path_3798" data-name="Path 3798" d="M277.492,278.1h-70.8a5.753,5.753,0,0,1-5.752-5.753v-7.365a5.752,5.752,0,0,1,5.752-5.752h70.8a5.753,5.753,0,0,1,5.753,5.752v7.365a5.753,5.753,0,0,1-5.753,5.753" transform="translate(-28.086 -36.234)" fill="#f5f5f5"/>
        <path id="Path_3799" data-name="Path 3799" d="M377.621,278.1H308.645a5.753,5.753,0,0,1-5.753-5.753v-7.365a5.753,5.753,0,0,1,5.753-5.752h68.975a5.753,5.753,0,0,1,5.753,5.752v7.365a5.753,5.753,0,0,1-5.753,5.753" transform="translate(-42.337 -36.234)" fill="#f5f5f5"/>
        <path id="Path_3800" data-name="Path 3800" d="M364.447,323.072H206.238a5.753,5.753,0,0,1-5.753-5.753v-7.365a5.753,5.753,0,0,1,5.753-5.752H364.447a5.753,5.753,0,0,1,5.753,5.752v7.365a5.753,5.753,0,0,1-5.753,5.753" transform="translate(-28.023 -42.52)" fill="#f5f5f5"/>
        <path id="Path_3801" data-name="Path 3801" d="M239.094,250.371c0,.124-7.955.224-17.766.224s-17.767-.1-17.767-.224,7.954-.224,17.767-.224,17.766.1,17.766.224" transform="translate(-28.453 -34.964)" fill="#263238"/>
        <path id="Path_3802" data-name="Path 3802" d="M338.037,250.371c0,.124-6.264.224-13.988.224s-13.99-.1-13.99-.224,6.262-.224,13.99-.224,13.988.1,13.988.224" transform="translate(-43.338 -34.964)" fill="#263238"/>
        <path id="Path_3803" data-name="Path 3803" d="M261.717,295.11c0,.124-12.9.224-28.818.224s-28.819-.1-28.819-.224,12.9-.224,28.819-.224,28.818.1,28.818.224" transform="translate(-28.525 -41.218)" fill="#263238"/>
        <path id="Path_3804" data-name="Path 3804" d="M364.108,230.06H202.56a5.6,5.6,0,0,1-5.6-5.6v-9.432a5.6,5.6,0,0,1,5.6-5.6H364.108a5.6,5.6,0,0,1,5.6,5.6v9.432a5.6,5.6,0,0,1-5.6,5.6" transform="translate(-27.53 -29.273)" fill="#e0e0e0"/>
        <path id="Path_3805" data-name="Path 3805" d="M329.018,221.385c0,.124-15.326.224-34.228.224s-34.233-.1-34.233-.224,15.323-.224,34.233-.224,34.228.1,34.228.224" transform="translate(-36.419 -30.913)" fill="#263238"/>
        <path id="Path_3806" data-name="Path 3806" d="M364.108,84.252H202.56a5.6,5.6,0,0,1-5.6-5.6V69.221a5.6,5.6,0,0,1,5.6-5.6H364.108a5.6,5.6,0,0,1,5.6,5.6v9.432a5.6,5.6,0,0,1-5.6,5.6" transform="translate(-27.53 -8.893)" fill="#e0e0e0"/>
        <path id="Path_3807" data-name="Path 3807" d="M329.018,75.577c0,.124-15.326.224-34.228.224s-34.233-.1-34.233-.224,15.323-.224,34.233-.224,34.228.1,34.228.224" transform="translate(-36.419 -10.532)" fill="#263238"/>
        <path id="Path_3808" data-name="Path 3808" d="M378.616,93.375c0,.124-43.2.224-96.485.224-53.3,0-96.494-.1-96.494-.224s43.194-.224,96.494-.224c53.282,0,96.485.1,96.485.224" transform="translate(-25.947 -13.02)" fill="#ebebeb"/>
        <path id="Path_3809" data-name="Path 3809" d="M378.616,199.463c0,.124-43.2.225-96.485.225-53.3,0-96.494-.1-96.494-.225s43.194-.224,96.494-.224c53.282,0,96.485.1,96.485.224" transform="translate(-25.947 -27.849)" fill="#ebebeb"/>
        <path id="Path_3810" data-name="Path 3810" d="M277.492,136.324h-70.8a5.753,5.753,0,0,1-5.752-5.753v-7.365a5.752,5.752,0,0,1,5.752-5.752h70.8a5.753,5.753,0,0,1,5.753,5.752v7.365a5.753,5.753,0,0,1-5.753,5.753" transform="translate(-28.086 -16.417)" fill="#f5f5f5"/>
        <path id="Path_3811" data-name="Path 3811" d="M377.621,136.324H308.645a5.753,5.753,0,0,1-5.753-5.753v-7.365a5.753,5.753,0,0,1,5.753-5.752h68.975a5.753,5.753,0,0,1,5.753,5.752v7.365a5.753,5.753,0,0,1-5.753,5.753" transform="translate(-42.337 -16.417)" fill="#f5f5f5"/>
        <path id="Path_3812" data-name="Path 3812" d="M364.447,181.292H206.238a5.753,5.753,0,0,1-5.753-5.753v-7.365a5.753,5.753,0,0,1,5.753-5.752H364.447a5.753,5.753,0,0,1,5.753,5.752v7.365a5.753,5.753,0,0,1-5.753,5.753" transform="translate(-28.023 -22.702)" fill="#f5f5f5"/>
        <path id="Path_3813" data-name="Path 3813" d="M239.094,108.59c0,.124-7.955.224-17.766.224s-17.767-.1-17.767-.224,7.954-.224,17.767-.224,17.766.1,17.766.224" transform="translate(-28.453 -15.147)" fill="#263238"/>
        <path id="Path_3814" data-name="Path 3814" d="M338.037,108.59c0,.124-6.264.224-13.988.224s-13.99-.1-13.99-.224,6.262-.224,13.99-.224,13.988.1,13.988.224" transform="translate(-43.338 -15.147)" fill="#263238"/>
        <path id="Path_3815" data-name="Path 3815" d="M261.717,153.33c0,.124-12.9.224-28.818.224s-28.819-.1-28.819-.224,12.9-.224,28.819-.224,28.818.1,28.818.224" transform="translate(-28.525 -21.4)" fill="#263238"/>
        <path id="Path_3816" data-name="Path 3816" d="M381.719,339.434c0,.124-12.586.224-28.109.224s-28.11-.1-28.11-.224,12.583-.224,28.11-.224,28.109.1,28.109.224" transform="translate(-45.497 -47.413)" fill="#263238"/>
        <path id="Path_3817" data-name="Path 3817" d="M271.824,129.593a10.043,10.043,0,0,1-1.332.334,15.762,15.762,0,0,1-9.932-1.423,5.734,5.734,0,0,1-1.528-1.155,3.642,3.642,0,0,1-.919-1.835,2.712,2.712,0,0,1,.443-2.133,2.07,2.07,0,0,1,2.175-.692,1.564,1.564,0,0,1,.955.807,2.008,2.008,0,0,1,.163,1.255,4.506,4.506,0,0,1-1.191,2.207,10.8,10.8,0,0,1-4.316,2.949,10.417,10.417,0,0,1-5.574.506,6.216,6.216,0,0,1-2.724-1.2,3.238,3.238,0,0,1-1.326-2.757,3.028,3.028,0,0,1,.594-1.5,2.348,2.348,0,0,1,1.355-.946,1.687,1.687,0,0,1,1.609.53,2.408,2.408,0,0,1,.577,1.59,3.263,3.263,0,0,1-.4,1.638,3.673,3.673,0,0,1-1.168,1.226,10.6,10.6,0,0,1-3.079,1.235c-2.089.594-4.373,1.234-6.7.712a6.307,6.307,0,0,1-3.08-1.671,4.414,4.414,0,0,1-1.335-3.289,2.918,2.918,0,0,1,.931-2.09,2.139,2.139,0,0,1,2.271-.242,1.755,1.755,0,0,1,.858.835,1.8,1.8,0,0,1,.1,1.188,3.392,3.392,0,0,1-1.344,1.773,17.4,17.4,0,0,1-7.743,2.943,7.851,7.851,0,0,1-4.032-.354A4.061,4.061,0,0,1,223.664,127a2.769,2.769,0,0,1,2.051-3.094,1.919,1.919,0,0,1,1.836.659,2.927,2.927,0,0,1,.645,1.788,3.565,3.565,0,0,1-.394,1.813,4.25,4.25,0,0,1-1.222,1.336,9.39,9.39,0,0,1-3.157,1.322c-2.108.561-4.331.952-6.3.228a5.415,5.415,0,0,1-2.393-1.743,3.882,3.882,0,0,1-.847-2.653,3.715,3.715,0,0,1,1.148-2.336,2.53,2.53,0,0,1,2.3-.686l.093.024,0,.092a6.652,6.652,0,0,1-1.687,4.575,6.962,6.962,0,0,1-3.014,2.054,5.71,5.71,0,0,1-2.258.289,6.448,6.448,0,0,1-.772-.145,5.975,5.975,0,0,0,2.987-.27,6.886,6.886,0,0,0,2.91-2.054,6.466,6.466,0,0,0,1.584-4.436l.1.116a2.27,2.27,0,0,0-2.049.642,3.436,3.436,0,0,0-1.043,2.161,4.329,4.329,0,0,0,3.063,4.06c1.849.673,4,.3,6.089-.27a9.067,9.067,0,0,0,3.025-1.276,3.881,3.881,0,0,0,1.1-1.212,3.169,3.169,0,0,0,.342-1.612,2.537,2.537,0,0,0-.555-1.544,1.512,1.512,0,0,0-1.455-.521,2.365,2.365,0,0,0-1.715,2.637,3.648,3.648,0,0,0,2.232,2.7,7.447,7.447,0,0,0,3.813.315,17.015,17.015,0,0,0,7.529-2.867,2.968,2.968,0,0,0,1.178-1.523,1.276,1.276,0,0,0-.72-1.514,1.7,1.7,0,0,0-1.786.179,2.471,2.471,0,0,0-.775,1.771,3.97,3.97,0,0,0,1.207,2.954,5.866,5.866,0,0,0,2.862,1.55c2.167.493,4.389-.106,6.472-.7a10.239,10.239,0,0,0,2.956-1.173,3.257,3.257,0,0,0,1.036-1.075,2.848,2.848,0,0,0,.346-1.42,1.988,1.988,0,0,0-.463-1.313,1.262,1.262,0,0,0-1.208-.405,2.411,2.411,0,0,0-1.627,2.078,2.845,2.845,0,0,0,1.17,2.4,5.854,5.854,0,0,0,2.545,1.124,10.05,10.05,0,0,0,5.37-.468,10.467,10.467,0,0,0,4.188-2.831,4.187,4.187,0,0,0,1.12-2.032,1.42,1.42,0,0,0-.884-1.7,1.767,1.767,0,0,0-1.843.575,2.433,2.433,0,0,0-.4,1.9,4.121,4.121,0,0,0,2.286,2.819,15.639,15.639,0,0,0,5.894,1.69,16.581,16.581,0,0,0,3.9-.138c.442-.073.779-.134,1-.185a2,2,0,0,1,.344-.059" transform="translate(-29.31 -17.138)" fill="#47d7ac"/>
        <path id="Path_3818" data-name="Path 3818" d="M371.131,128.467a5.779,5.779,0,0,1-1.081.538,9.873,9.873,0,0,1-3.388.711,10.4,10.4,0,0,1-5.315-1.242,6.622,6.622,0,0,1-2.588-2.274,3.082,3.082,0,0,1-.464-1.869,2.614,2.614,0,0,1,1-1.773,1.688,1.688,0,0,1,1.048-.347,1.6,1.6,0,0,1,1.043.444,2.552,2.552,0,0,1,.7,2.12A3.748,3.748,0,0,1,361,126.82a8.963,8.963,0,0,1-1.883,1.437,11.211,11.211,0,0,1-4.7,1.5,8.97,8.97,0,0,1-5.138-.959,5.031,5.031,0,0,1-1.992-1.927,3.764,3.764,0,0,1-.456-1.372,3.318,3.318,0,0,1,.212-1.454,3.376,3.376,0,0,1,2.049-2.068,1.972,1.972,0,0,1,1.546.155,2.4,2.4,0,0,1,1.036,1.158,3.566,3.566,0,0,1-.114,3.012,6.234,6.234,0,0,1-2.048,2.255,11.245,11.245,0,0,1-5.773,2,11.485,11.485,0,0,1-5.974-1.283,9.029,9.029,0,0,1-2.429-1.811,4.109,4.109,0,0,1-1.206-2.763,2.728,2.728,0,0,1,1.657-2.452,1.677,1.677,0,0,1,1.545.185,2.255,2.255,0,0,1,.853,1.256,3.241,3.241,0,0,1-.581,2.783,8.6,8.6,0,0,1-1.98,1.909,12.113,12.113,0,0,1-9.718,2.078,6.56,6.56,0,0,1-3.941-2.36,3.636,3.636,0,0,1-.73-2.092,3.967,3.967,0,0,1,.519-2.059,2.618,2.618,0,0,1,1.588-1.266,2.256,2.256,0,0,1,1.881.42,3.455,3.455,0,0,1,1.269,3.154,4.253,4.253,0,0,1-1.519,2.574,5.712,5.712,0,0,1-2.247,1.14,11.062,11.062,0,0,1-3.456.216l-.9-.079a1.591,1.591,0,0,1-.3-.045,1.573,1.573,0,0,1,.307,0l.9.034a11.575,11.575,0,0,0,3.406-.294,5.553,5.553,0,0,0,2.154-1.134,4.033,4.033,0,0,0,1.41-2.447,3.2,3.2,0,0,0-1.191-2.89,1.961,1.961,0,0,0-1.639-.356,2.315,2.315,0,0,0-1.387,1.133,3.459,3.459,0,0,0,.219,3.789,6.219,6.219,0,0,0,3.743,2.2,11.745,11.745,0,0,0,9.392-2.049,8.237,8.237,0,0,0,1.878-1.816,2.815,2.815,0,0,0,.515-2.425,1.842,1.842,0,0,0-.685-1.018,1.238,1.238,0,0,0-1.153-.133,2.3,2.3,0,0,0-1.368,2.052,3.68,3.68,0,0,0,1.094,2.458,8.617,8.617,0,0,0,2.311,1.715,11.064,11.064,0,0,0,5.739,1.231,10.818,10.818,0,0,0,5.541-1.912,5.815,5.815,0,0,0,1.91-2.087,3.131,3.131,0,0,0,.11-2.638,1.716,1.716,0,0,0-2.058-1.074,2.958,2.958,0,0,0-1.772,1.8,2.9,2.9,0,0,0-.189,1.261,3.347,3.347,0,0,0,.4,1.211,4.619,4.619,0,0,0,1.827,1.77,8.587,8.587,0,0,0,4.9.925,10.852,10.852,0,0,0,4.545-1.431,8.672,8.672,0,0,0,1.812-1.365,3.4,3.4,0,0,0,1-1.841,2.226,2.226,0,0,0-.581-1.836,1.271,1.271,0,0,0-1.677-.083,2.316,2.316,0,0,0-.886,1.554,2.8,2.8,0,0,0,.41,1.689,6.4,6.4,0,0,0,2.464,2.2,10.376,10.376,0,0,0,8.55.667c.741-.265,1.1-.482,1.113-.453" transform="translate(-44.458 -17.037)" fill="#47d7ac"/>
        <path id="Path_3819" data-name="Path 3819" d="M275.732,172.968a2.207,2.207,0,0,1-.33.167l-.988.448c-.871.385-2.16.95-3.857,1.587a31.36,31.36,0,0,1-6.383,1.7,24.589,24.589,0,0,1-4.127.25,13.971,13.971,0,0,1-4.594-.694,5.468,5.468,0,0,1-3.489-3.634,3.551,3.551,0,0,1,.338-2.743,3.1,3.1,0,0,1,2.379-1.6,2.631,2.631,0,0,1,2.469,1.594,4.054,4.054,0,0,1,.218,3.06,6,6,0,0,1-1.8,2.585,11.7,11.7,0,0,1-2.7,1.742,9.255,9.255,0,0,1-6.531.763,6.617,6.617,0,0,1-4.538-5,5.459,5.459,0,0,1-.012-1.821,3.5,3.5,0,0,1,.74-1.7,2.315,2.315,0,0,1,1.657-.956,1.667,1.667,0,0,1,1.59,1.109,4.453,4.453,0,0,1-.635,3.657,11.076,11.076,0,0,1-2.411,2.857,10.176,10.176,0,0,1-13.481-.207,5.754,5.754,0,0,1-1.747-3.077,3.528,3.528,0,0,1,.115-1.792,3.614,3.614,0,0,1,1.008-1.467,3,3,0,0,1,1.6-.754,2.122,2.122,0,0,1,1.695.529,3.275,3.275,0,0,1,.769,3.224,6.028,6.028,0,0,1-1.784,2.7,14.5,14.5,0,0,1-8.12,3.777,12.613,12.613,0,0,1-5.521-.495,6.161,6.161,0,0,1-2.271-1.361,4.252,4.252,0,0,1-1.23-2.222,3.867,3.867,0,0,1,.224-2.415,2.386,2.386,0,0,1,1.806-1.408,2.7,2.7,0,0,1,2.1.576,1.988,1.988,0,0,1,.668,1.916,3.016,3.016,0,0,1-.993,1.625,6.358,6.358,0,0,1-1.457.966,16.723,16.723,0,0,1-2.826,1.08,16.046,16.046,0,0,1-4.127.613,10.338,10.338,0,0,1-1.454-.062,2.366,2.366,0,0,1,.37-.008c.243,0,.606,0,1.081-.021a16.992,16.992,0,0,0,6.86-1.794,6.13,6.13,0,0,0,1.4-.946,2.782,2.782,0,0,0,.9-1.5,1.725,1.725,0,0,0-.594-1.665,2.436,2.436,0,0,0-1.883-.5,2.086,2.086,0,0,0-1.577,1.253,3.569,3.569,0,0,0-.187,2.221,4.685,4.685,0,0,0,3.307,3.324,12.3,12.3,0,0,0,5.36.452,14.15,14.15,0,0,0,7.887-3.7,5.639,5.639,0,0,0,1.664-2.519,2.87,2.87,0,0,0-.653-2.8,2.033,2.033,0,0,0-2.733.234,3.194,3.194,0,0,0-.883,1.288,3.1,3.1,0,0,0-.094,1.574,5.331,5.331,0,0,0,1.625,2.836,9.739,9.739,0,0,0,12.887.179,10.607,10.607,0,0,0,2.314-2.74,5.076,5.076,0,0,0,.659-1.611,3.022,3.022,0,0,0-.053-1.657,1.22,1.22,0,0,0-1.161-.828,1.887,1.887,0,0,0-1.325.79,3.985,3.985,0,0,0-.641,3.168,6.194,6.194,0,0,0,4.227,4.67,8.853,8.853,0,0,0,6.233-.727c1.868-.9,3.671-2.2,4.306-4.077a3.668,3.668,0,0,0-.187-2.766,2.252,2.252,0,0,0-2.1-1.394,2.743,2.743,0,0,0-2.091,1.413,3.191,3.191,0,0,0-.312,2.476,5.14,5.14,0,0,0,3.267,3.424,13.757,13.757,0,0,0,4.487.7,24.532,24.532,0,0,0,4.086-.212,31.984,31.984,0,0,0,6.358-1.615c1.7-.611,3-1.149,3.881-1.507l1-.407a2.264,2.264,0,0,1,.348-.125" transform="translate(-29.031 -23.544)" fill="#47d7ac"/>
      </g>
    </g>
    <path id="Path_3820" data-name="Path 3820" d="M376.418,383.031s-19.795-22.782-27.265-45.565-3.921-20.168-3.921-20.168,10.084,22.131,17.74,32.821,21.289,26.376,21.289,26.376Z" transform="translate(-12568.137 -16882.338)" fill="#455a64"/>
    <path id="Path_3821" data-name="Path 3821" d="M385.857,321.342a1.153,1.153,0,0,0-2.147.734c1.207,8,3.816,26.782,3.714,38.962-.133,15.823,0,21.939,0,21.939h8.239s-1.462-32.709-3.324-42.682c-1.306-6.993-4.076-14.755-6.486-18.953" transform="translate(-12573.631 -16882.832)" fill="#455a64"/>
    <path id="Path_3822" data-name="Path 3822" d="M391.43,379.86a87.254,87.254,0,0,0,6.781-24.6c.679-5.825-.532-13.695-2.332-24.2a65.172,65.172,0,0,1-1.042-11.645,1.965,1.965,0,0,1,3.69-.921c.994,1.774,3.873,7.835,4.6,11.635,1.995,10.372,4.255,15.557,2.526,25.4s-8.111,25-8.111,25Z" transform="translate(-12574.712 -16882.375)" fill="#455a64"/>
    <path id="Path_3823" data-name="Path 3823" d="M400.056,378.476s21.734-46.707,23.24-53.636,6.628-22.9,7.231-21.993,1.506,9.339-2.41,18.98S407.478,379.9,407.478,379.9h-7.422" transform="translate(-12575.917 -16880.326)" fill="#455a64"/>
    <path id="Path_3824" data-name="Path 3824" d="M382.518,378.5a4.387,4.387,0,0,1-.609-.418c-.386-.292-.971-.7-1.683-1.286a76.928,76.928,0,0,1-5.841-5.155A98,98,0,0,1,358.617,351.4a132.631,132.631,0,0,1-10.763-23.315c-1.092-3.1-1.891-5.641-2.408-7.406-.266-.88-.448-1.57-.576-2.037a4.374,4.374,0,0,1-.169-.719,4.467,4.467,0,0,1,.258.692q.245.75.66,2.01c.569,1.745,1.413,4.266,2.544,7.347a140.936,140.936,0,0,0,10.853,23.189,102.306,102.306,0,0,0,15.6,20.241c2.326,2.311,4.317,4.073,5.726,5.25.692.6,1.259,1.035,1.626,1.351a4.434,4.434,0,0,1,.552.492" transform="translate(-12568.18 -16882.438)" fill="#263238"/>
    <path id="Path_3825" data-name="Path 3825" d="M390.521,356.66a7.934,7.934,0,0,1-.2-1.37c-.1-.967-.238-2.227-.4-3.745-.344-3.16-.882-7.517-1.649-12.3s-1.628-9.1-2.291-12.2c-.322-1.491-.588-2.73-.793-3.68a7.927,7.927,0,0,1-.244-1.363,7.961,7.961,0,0,1,.419,1.32c.244.856.566,2.1.939,3.651.747,3.1,1.656,7.4,2.429,12.2s1.256,9.173,1.517,12.347c.131,1.586.216,2.871.254,3.762a7.939,7.939,0,0,1,.015,1.384" transform="translate(-12573.805 -16883.008)" fill="#263238"/>
    <path id="Path_3826" data-name="Path 3826" d="M396.984,318.236a3.341,3.341,0,0,1,.256.594c.165.44.382,1.016.651,1.735.288.752.618,1.68.933,2.78s.742,2.334,1.056,3.74q.258,1.052.538,2.2c.182.765.311,1.573.478,2.4.354,1.659.574,3.456.838,5.344a79.8,79.8,0,0,1-.885,24.689c-.4,1.864-.746,3.641-1.218,5.271-.225.816-.413,1.614-.649,2.364l-.694,2.152c-.415,1.38-.92,2.583-1.321,3.654s-.789,1.977-1.129,2.706l-.774,1.684a3.316,3.316,0,0,1-.3.573,3.425,3.425,0,0,1,.212-.612l.693-1.716c.314-.739.685-1.648,1.053-2.728s.859-2.282,1.252-3.664l.662-2.151c.227-.749.4-1.545.621-2.36.454-1.626.786-3.4,1.171-5.254a82.474,82.474,0,0,0,.88-24.56c-.251-1.879-.454-3.67-.791-5.323-.157-.828-.278-1.635-.45-2.4s-.345-1.493-.507-2.194c-.293-1.406-.688-2.644-.987-3.744s-.594-2.037-.855-2.8c-.236-.73-.424-1.315-.569-1.762a3.464,3.464,0,0,1-.169-.625" transform="translate(-12575.178 -16882.48)" fill="#263238"/>
    <path id="Path_3827" data-name="Path 3827" d="M430.855,303.944a.723.723,0,0,1-.017.209c-.026.164-.058.364-.1.607-.1.532-.216,1.32-.428,2.324-.42,2.009-1.119,4.9-2.207,8.409s-2.567,7.623-4.328,12.143-3.791,9.447-5.72,14.692c-1.96,5.236-3.468,10.346-4.887,14.983s-2.739,8.806-4.028,12.245a78.165,78.165,0,0,1-3.431,7.987c-.445.926-.846,1.616-1.1,2.09l-.3.534c-.071.119-.11.178-.118.174a.741.741,0,0,1,.076-.2c.071-.15.158-.332.263-.555.231-.488.606-1.19,1.024-2.125.876-1.851,2.053-4.573,3.286-8.022s2.544-7.61,3.926-12.256,2.9-9.769,4.861-15.02c1.934-5.257,3.985-10.179,5.758-14.688s3.294-8.6,4.413-12.085,1.87-6.355,2.343-8.348c.239-1,.388-1.778.513-2.3.057-.24.1-.436.142-.6a.717.717,0,0,1,.064-.2" transform="translate(-12576.494 -16880.482)" fill="#263238"/>
    <path id="Path_3828" data-name="Path 3828" d="M356.766,291.863a1.871,1.871,0,0,0-3.08,1.908,53.431,53.431,0,0,0,2.731,7.023c2.988,6.349,11.764,29.132,15.873,41.644s9.9,35.855,9.9,35.855l8.773-1.423s-8.026-38.354-15.869-52.173c-6.3-11.1-12.6-27.15-18.324-32.834" transform="translate(-12569.424 -16878.719)" fill="#455a64"/>
    <path id="Path_3829" data-name="Path 3829" d="M378.117,359.84a5.46,5.46,0,0,1,.452,1.051c.259.688.612,1.693,1.012,2.945.808,2.5,1.8,6,2.792,9.882s1.821,7.419,2.4,9.981l.66,3.04a5.3,5.3,0,0,1,.181,1.129,5.469,5.469,0,0,1-.357-1.087c-.213-.8-.483-1.807-.8-3-.671-2.639-1.553-6.108-2.529-9.943-.994-3.88-1.931-7.382-2.657-9.9-.346-1.19-.637-2.189-.868-2.983a5.421,5.421,0,0,1-.281-1.109" transform="translate(-12572.851 -16888.295)" fill="#263238"/>
    <path id="Path_3830" data-name="Path 3830" d="M386.759,377.644a.92.92,0,0,1-.05-.234c-.026-.182-.059-.41-.1-.691-.092-.606-.175-1.507-.36-2.656-.322-2.305-.9-5.626-1.839-9.678A138.662,138.662,0,0,0,380.3,350.37c-1.8-5.2-4.057-10.814-6.614-16.626-5.161-11.611-10.318-21.909-13.705-29.524-1.713-3.8-3.039-6.9-3.912-9.061-.445-1.077-.764-1.923-.986-2.5l-.244-.654a1,1,0,0,1-.068-.229.874.874,0,0,1,.113.211l.286.637,1.067,2.46c.924,2.138,2.294,5.216,4.044,8.995,3.462,7.574,8.662,17.845,13.832,29.474,2.561,5.82,4.812,11.455,6.594,16.674a131.764,131.764,0,0,1,4.022,14.082,98.072,98.072,0,0,1,1.7,9.727c.158,1.155.212,2.06.274,2.671.021.283.04.512.053.7a.932.932,0,0,1,0,.238" transform="translate(-12569.588 -16878.785)" fill="#263238"/>
    <path id="Path_3831" data-name="Path 3831" d="M395.47,384.78a9.256,9.256,0,0,1-.3-1.474c-.175-1.031-.4-2.39-.683-4.033-.6-3.4-1.528-8.081-2.855-13.177s-2.794-9.638-3.933-12.9c-.558-1.571-1.021-2.87-1.372-3.854a9.335,9.335,0,0,1-.466-1.429,9.306,9.306,0,0,1,.635,1.364c.379.89.907,2.187,1.512,3.807a127.493,127.493,0,0,1,4.074,12.892,134.265,134.265,0,0,1,2.729,13.24c.249,1.712.44,3.1.538,4.061a9.254,9.254,0,0,1,.117,1.5" transform="translate(-12573.934 -16886.629)" fill="#263238"/>
    <rect id="Rectangle_2797" data-name="Rectangle 2797" width="34.245" height="41.723" transform="translate(-12194.701 -16503.109)" fill="#ff725e"/>
    <g id="Group_89712" data-name="Group 89712" transform="translate(-12194.701 -16503.109)">
      <g id="Group_89711" data-name="Group 89711" transform="translate(0 0)">
        <g id="Group_89710" data-name="Group 89710" clip-path="url(#clip-path-3)">
          <rect id="Rectangle_2798" data-name="Rectangle 2798" width="34.245" height="41.723" transform="translate(0 0)" fill="#16b988"/>
        </g>
      </g>
    </g>
    <rect id="Rectangle_2800" data-name="Rectangle 2800" width="30.381" height="41.723" transform="translate(-12201.762 -16503.109)" fill="#47d7ac"/>
    <path id="Path_3832" data-name="Path 3832" d="M81.607,126.032l-.974,78.38c-.165,13.329,2.315,32.943,23.4,32.244,18.249-1.986,23.09-19.261,23.232-31.7.066-5.9.135-10.821.182-11.426,0,0,19.977-1.629,21.663-21.36.815-9.535.894-29.311.758-47.2a36.884,36.884,0,0,0-34.21-36.486l-1.905-.139c-20.634-.3-32.417,17.057-32.146,37.692" transform="translate(-12531.27 -16850.348)" fill="#ffbe9d"/>
    <path id="Path_3833" data-name="Path 3833" d="M130.967,209.082s-12.5-.179-25.158-9.48c0,0,5.219,14.883,25.055,14.543Z" transform="translate(-12534.789 -16865.898)" fill="#eb996e"/>
    <path id="Path_3834" data-name="Path 3834" d="M119.933,139.751c-.392.4-2.67-1.435-5.977-1.523-3.3-.138-5.774,1.533-6.121,1.107-.17-.189.237-.919,1.315-1.675a8.272,8.272,0,0,1,4.914-1.394,7.985,7.985,0,0,1,4.742,1.726c1,.829,1.319,1.582,1.126,1.76" transform="translate(-12535.067 -16857.045)" fill="#263238"/>
    <path id="Path_3835" data-name="Path 3835" d="M120.922,147.843a2.676,2.676,0,0,1-2.769,2.5,2.559,2.559,0,0,1-2.574-2.606,2.676,2.676,0,0,1,2.766-2.506,2.56,2.56,0,0,1,2.576,2.608" transform="translate(-12536.154 -16858.301)" fill="#263238"/>
    <path id="Path_3836" data-name="Path 3836" d="M131.531,162.925c0-.174,1.909-.362,4.994-.529.781-.023,1.526-.124,1.695-.643a3.954,3.954,0,0,0-.349-2.335q-.888-2.893-1.861-6.069c-2.569-8.634-4.368-15.71-4.021-15.811s2.715,6.816,5.284,15.451q.923,3.192,1.763,6.1a4.508,4.508,0,0,1,.179,3.072,1.947,1.947,0,0,1-1.357,1.039,5.273,5.273,0,0,1-1.33.087c-3.088-.059-5-.184-5-.358" transform="translate(-12538.384 -16857.225)" fill="#263238"/>
    <path id="Path_3837" data-name="Path 3837" d="M118.27,125.467c-.319.734-2.966.182-6.135.344-3.172.1-5.774.862-6.141.157-.162-.337.331-1.012,1.408-1.666a10.372,10.372,0,0,1,9.352-.381c1.118.564,1.655,1.2,1.516,1.547" transform="translate(-12534.811 -16855.189)" fill="#263238"/>
    <path id="Path_3838" data-name="Path 3838" d="M154.8,132.574c-.347.6-2.926-.066-6.053-.163-3.126-.153-5.721.3-6.051-.321-.145-.3.371-.834,1.461-1.308a10.916,10.916,0,0,1,4.624-.764,11.273,11.273,0,0,1,4.6,1.132c1.075.562,1.575,1.138,1.422,1.424" transform="translate(-12539.941 -16856.172)" fill="#263238"/>
    <path id="Path_3839" data-name="Path 3839" d="M80.15,149.134c-.326-.17-13.277-5-13.831,8.528s13.146,11.3,13.186,10.912.645-19.44.645-19.44" transform="translate(-12529.268 -16858.709)" fill="#ffbe9d"/>
    <path id="Path_3840" data-name="Path 3840" d="M76.14,163.978c-.058-.046-.243.156-.649.322a2.36,2.36,0,0,1-1.764-.036c-1.408-.583-2.52-2.9-2.484-5.344a7.807,7.807,0,0,1,.8-3.349,2.728,2.728,0,0,1,1.848-1.737,1.2,1.2,0,0,1,1.364.7c.167.386.069.653.14.68.036.034.3-.215.212-.778a1.506,1.506,0,0,0-.5-.871,1.786,1.786,0,0,0-1.289-.4,3.315,3.315,0,0,0-2.55,2,8.014,8.014,0,0,0-.971,3.739c-.025,2.73,1.266,5.339,3.2,5.985a2.528,2.528,0,0,0,2.171-.269c.433-.317.516-.617.471-.643" transform="translate(-12529.826 -16859.408)" fill="#eb996e"/>
    <path id="Path_3841" data-name="Path 3841" d="M126.655,176.527c.148-.341-2.5-1.135-4.367-3.623a15.187,15.187,0,0,1-1.873-3.534c-.395-.982-.694-1.6-.84-1.554s-.1.708.114,1.777a9.989,9.989,0,0,0,1.741,3.959,8.093,8.093,0,0,0,3.457,2.646c1.033.419,1.732.446,1.768.329" transform="translate(-12536.702 -16861.457)" fill="#263238"/>
    <path id="Path_3842" data-name="Path 3842" d="M154.967,141.2c-.392.4-2.67-1.435-5.977-1.523-3.3-.138-5.774,1.533-6.12,1.107-.171-.189.237-.919,1.314-1.675a8.272,8.272,0,0,1,4.914-1.394,7.985,7.985,0,0,1,4.742,1.726c1,.829,1.319,1.582,1.126,1.76" transform="translate(-12539.964 -16857.248)" fill="#263238"/>
    <path id="Path_3843" data-name="Path 3843" d="M155.441,148.959a2.675,2.675,0,0,1-2.769,2.5,2.558,2.558,0,0,1-2.574-2.606,2.676,2.676,0,0,1,2.766-2.506,2.56,2.56,0,0,1,2.576,2.608" transform="translate(-12540.979 -16858.457)" fill="#263238"/>
    <path id="Path_3844" data-name="Path 3844" d="M161.81,96.817A10.678,10.678,0,0,0,148.492,92.6a14.615,14.615,0,0,0-25.175-12.62,5.963,5.963,0,0,0-2.911-4,11.787,11.787,0,0,0-4.858-1.449,23.233,23.233,0,0,0-21.223,9.254A25.288,25.288,0,0,0,72.9,91.6c-6.357,7.041-7.555,23.362-.593,37.459l1.64,8.839c2.183-.006,4.182.151,5.527,1.361,1.83,1.644,2.648,4.738,5.687,3.564,1.547-.6,2.958-3.843,3.476-5.419a77.016,77.016,0,0,0,3.334-32.6,24.751,24.751,0,0,1,7.643-5.517l-.233.211c5.514-1.916,11.752-3.8,16.984-1.211,4.058,2.009,6.444,6.219,9.478,9.58a30.982,30.982,0,0,0,22.08,10.2c.292,5.555-.175,13.408.116,18.965l4.674-8.9,0,.044c.383-.651.7-1.308,1-1.966l.1-.2v-.024l0-.007c.855-.694,1.5-1.966,2.947-3.621a11.658,11.658,0,0,0,1.915-11.928,10.678,10.678,0,0,0,3.121-13.617" transform="translate(-12529.447 -16848.398)" fill="#263238"/>
    <path id="Path_3845" data-name="Path 3845" d="M169.713,130.749l-.018-.015Z" transform="translate(-12543.719 -16856.273)" fill="#263238"/>
    <path id="Path_3846" data-name="Path 3846" d="M163.966,100.7c.014,0,.047.1.1.291a4.009,4.009,0,0,1,.124.875,5.86,5.86,0,0,1-.788,3.172,6.029,6.029,0,0,1-1.511,1.751,5.4,5.4,0,0,1-2.466,1.052,6.1,6.1,0,0,1-5.641-2.124l.335-.288a3.732,3.732,0,0,1,.953,2.654,4.9,4.9,0,0,1-1.512,3.409,5.525,5.525,0,0,1-3.2,1.363,8.6,8.6,0,0,1-5.563-1.531,18.135,18.135,0,0,1-2.974-2.527,7.6,7.6,0,0,1-.947-1.068,10.122,10.122,0,0,1,1.068.943,20.945,20.945,0,0,0,3.023,2.385,8.4,8.4,0,0,0,5.349,1.387,5.146,5.146,0,0,0,2.945-1.271,4.487,4.487,0,0,0,1.364-3.1,3.3,3.3,0,0,0-.828-2.342l.335-.288a5.745,5.745,0,0,0,5.234,2.01,5.3,5.3,0,0,0,3.785-2.564,6,6,0,0,0,.881-3.02c.006-.752-.1-1.16-.064-1.168" transform="translate(-12539.689 -16852.074)" fill="#455a64"/>
    <path id="Path_3847" data-name="Path 3847" d="M145.891,83.456c.008-.013.108.031.291.129a5.911,5.911,0,0,1,.754.509,6.6,6.6,0,0,1,2.041,2.65,5.189,5.189,0,0,1-.465,4.875,4,4,0,0,1-2.466,1.693,4.058,4.058,0,0,1-3.153-.611,3.557,3.557,0,0,1-.751-.748l.387-.218a3.779,3.779,0,0,1-.1,3.041,4.159,4.159,0,0,1-1.968,2.016,5.482,5.482,0,0,1-4.611-.009,7.355,7.355,0,0,1-2.483-1.873,3.548,3.548,0,0,1-.658-.921c.028-.022.271.3.781.806a7.8,7.8,0,0,0,2.483,1.707,5.228,5.228,0,0,0,4.308-.071,3.769,3.769,0,0,0,1.755-1.834,3.366,3.366,0,0,0,.085-2.685l-.715-1.661,1.1,1.443a3.147,3.147,0,0,0,.648.643,3.651,3.651,0,0,0,2.8.545,3.6,3.6,0,0,0,2.218-1.5,4.9,4.9,0,0,0,.508-4.524,6.844,6.844,0,0,0-1.858-2.633c-.577-.518-.955-.737-.933-.772" transform="translate(-12538.55 -16849.664)" fill="#455a64"/>
    <path id="Path_3848" data-name="Path 3848" d="M276.2,197.815l-31.224,23.843a4.044,4.044,0,1,0,4.936,6.408L280.88,204l4.19-8.262Z" transform="translate(-12554.02 -16865.359)" fill="#8b75b8"/>
    <g id="Group_89717" data-name="Group 89717" transform="translate(-12278.099 -16668.682)" opacity="0.5">
      <g id="Group_89716" data-name="Group 89716" transform="translate(0 0)">
        <g id="Group_89715" data-name="Group 89715" clip-path="url(#clip-path-4)">
          <path id="Path_3849" data-name="Path 3849" d="M286.344,196.83l2.214,2.578-2.392,4.745a1.9,1.9,0,0,1-2.082-2.159,1.672,1.672,0,0,1-1.889-2.167s-1.624-.145-.708-1.861Z" transform="translate(-281.207 -196.83)" fill="#fff"/>
        </g>
      </g>
    </g>
    <path id="Path_3850" data-name="Path 3850" d="M245.236,225.63l5.124,6.261,1.72-1.337-4.914-6.4Z" transform="translate(-12554.277 -16869.33)" fill="#263238"/>
    <path id="Path_3851" data-name="Path 3851" d="M242.377,282.087l-1.123-.2,23-40.212-3.637-11.592s-4.215-16.51-.7-20.725c0,0,7.683-9.044,10.175-8.919s4.487.623,4.987,2.492c0,0,4.237-.5,5.358.872a21.6,21.6,0,0,1,1.994,2.991s4.612-.373,5.858,3.615c0,0,4.361,2.243,4.736,5.484s-.872,18.32-2.243,22.184S284.3,250.038,282.808,262s-6.767,19.73-11.452,37.217l-12.726,5.032Z" transform="translate(-12553.722 -16866.016)" fill="#ffbe9d"/>
    <path id="Path_3852" data-name="Path 3852" d="M279.611,203.036a23.377,23.377,0,0,0-2.685,3.109,23.356,23.356,0,0,0-1.638,3.768,7.8,7.8,0,0,1,4.323-6.877" transform="translate(-12558.471 -16866.379)" fill="#eb996e"/>
    <path id="Path_3853" data-name="Path 3853" d="M288.121,207.816a25.1,25.1,0,0,0-2.628,2.783,25.05,25.05,0,0,0-1.729,3.414,7.227,7.227,0,0,1,4.357-6.2" transform="translate(-12559.657 -16867.045)" fill="#eb996e"/>
    <path id="Path_3854" data-name="Path 3854" d="M295.018,211.878c.1.121-1.049,1.123-2.1,2.642s-1.609,2.931-1.757,2.881a8.118,8.118,0,0,1,3.856-5.523" transform="translate(-12560.693 -16867.615)" fill="#eb996e"/>
    <path id="Path_3855" data-name="Path 3855" d="M269.719,213.261a5.513,5.513,0,0,0-5.025.341c-.046-.044.122-.324.54-.635a3.773,3.773,0,0,1,3.863-.262c.456.25.661.506.621.556" transform="translate(-12556.997 -16867.674)" fill="#eb996e"/>
    <path id="Path_3856" data-name="Path 3856" d="M280.454,219.5a6.677,6.677,0,0,0-4.593-3.5c0-.064.354-.147.933-.072a4.585,4.585,0,0,1,3.481,2.655c.225.538.239.9.178.92" transform="translate(-12558.559 -16868.176)" fill="#eb996e"/>
    <path id="Path_3857" data-name="Path 3857" d="M290.813,222a7.476,7.476,0,0,0-6.012-1.628c-.023-.059.3-.269.909-.413a5.138,5.138,0,0,1,4.525,1.226c.451.43.628.776.578.816" transform="translate(-12559.808 -16868.729)" fill="#eb996e"/>
    <path id="Path_3858" data-name="Path 3858" d="M19.808,273.334s-14.1,80.073-13.417,87.56,4.429,19.4,12.934,21.44a37.42,37.42,0,0,0,16.333,0l-10.21-98.352Z" transform="translate(-12520.89 -16876.205)" fill="#47d7ac"/>
    <path id="Path_3859" data-name="Path 3859" d="M63.243,222.776S46.37,234.769,42.641,238.3c-15.6,14.753-18.863,20.79-20.678,25.781S32.792,385,32.792,385l2.562,20.254,118.425.305V302.074l-17.792-72.83-10.948-3.116-2.21-8.681s-13.6-10.044-36.039-10.333c-6.9-.089-16.665,2.623-22.119,6.854Z" transform="translate(-12523.045 -16866.949)" fill="#47d7ac"/>
    <path id="Path_3860" data-name="Path 3860" d="M137.554,233.13s12.17-.548,13.246-.3c3.751.865,14.053,10.309,25.785,21.946,11.193,11.1,33.217,34.2,33.217,34.2s3.96-4,8.473,1.338l17.387-25.291s26.1,3.205,30.2,22.9c0,0-8,15.272-14.55,26.19,0,0-24.254,40.248-43.412,32.96-17.5-6.657-39.44-24.461-42.53-28.264l-25.764-18.384s-17.645-33.649-9.849-50.474Z" transform="translate(-12537.858 -16870.535)" fill="#47d7ac"/>
    <path id="Path_3861" data-name="Path 3861" d="M131.774,228.31a2.932,2.932,0,0,1-.625-.128l-1.757-.463c-1.528-.389-3.748-.921-6.519-1.445a181.681,181.681,0,0,0-21.857-2.694A149.32,149.32,0,0,0,79,223.645c-2.808.241-5.063.591-6.613.872l-1.782.352a2.9,2.9,0,0,1-.631.089,2.918,2.918,0,0,1,.606-.191l1.766-.449a58.276,58.276,0,0,1,6.618-1.041,135.339,135.339,0,0,1,22.083-.219,161.179,161.179,0,0,1,21.9,2.854c2.771.571,4.985,1.161,6.5,1.611l1.734.558a2.871,2.871,0,0,1,.593.229" transform="translate(-12529.781 -16869.131)" fill="#263238"/>
    <path id="Path_3862" data-name="Path 3862" d="M87.983,220.765a19.647,19.647,0,0,1-.879-4.427,19.672,19.672,0,0,1-.361-4.5,19.591,19.591,0,0,1,.879,4.427,19.67,19.67,0,0,1,.361,4.5" transform="translate(-12532.117 -16867.609)" fill="#263238"/>
    <path id="Path_3863" data-name="Path 3863" d="M93.158,220.318a14.11,14.11,0,0,1-.621-8.961c.154.021-.079,2.03.1,4.5.163,2.465.67,4.422.52,4.465" transform="translate(-12532.87 -16867.543)" fill="#263238"/>
    <g id="Group_89720" data-name="Group 89720" transform="translate(-12459.412 -16646.07)" opacity="0.3">
      <g id="Group_89719" data-name="Group 89719" transform="translate(0 0)">
        <g id="Group_89718" data-name="Group 89718" clip-path="url(#clip-path-5)">
          <path id="Path_3864" data-name="Path 3864" d="M70.432,224.911c18.534,3.28,37.321.03,56.933,2.351-18.939-3.92-38.66-5.778-56.933-2.351" transform="translate(-70.432 -223.114)"/>
        </g>
      </g>
    </g>
    <g id="Group_89723" data-name="Group 89723" transform="translate(-12500.641 -16572.24)" opacity="0.3">
      <g id="Group_89722" data-name="Group 89722" transform="translate(0 0)">
        <g id="Group_89721" data-name="Group 89721" clip-path="url(#clip-path-6)">
          <path id="Path_3865" data-name="Path 3865" d="M31.21,387.463c-10.425-24.415-9.192-52.012-7.777-78.521Z" transform="translate(-22.504 -308.942)"/>
        </g>
      </g>
    </g>
    <path id="Path_3866" data-name="Path 3866" d="M21.991,293.628a1.412,1.412,0,0,1,.055.308c.028.232.065.532.109.908.089.834.212,2,.371,3.494.3,3.074.738,7.458,1.273,12.861,1.059,10.861,2.506,25.866,4.231,42.425s3.456,31.539,4.837,42.363c.68,5.413,1.265,9.788,1.676,12.812.2,1.485.35,2.651.46,3.483.044.376.079.675.107.908a1.357,1.357,0,0,1,.018.312,1.418,1.418,0,0,1-.071-.3c-.04-.231-.092-.528-.157-.9-.133-.828-.32-1.991-.557-3.469-.473-3.015-1.114-7.385-1.841-12.793-1.476-10.815-3.261-25.79-4.991-42.357S24.4,322.1,23.431,311.233c-.465-5.41-.843-9.8-1.107-12.877-.117-1.493-.208-2.667-.274-3.5-.023-.378-.042-.678-.058-.913a1.39,1.39,0,0,1,0-.312" transform="translate(-12523.073 -16879.043)" fill="#263238"/>
    <path id="Path_3867" data-name="Path 3867" d="M103.126,278.362a4.133,4.133,0,0,1-.764.04l-2.187.015c-1.9-.008-4.646.021-8.038.1-6.784.153-16.154.65-26.436,1.868s-19.51,2.945-26.141,4.389c-3.315.719-5.992,1.337-7.836,1.789l-2.129.5a4.217,4.217,0,0,1-.752.139,4.263,4.263,0,0,1,.724-.242l2.106-.594c1.83-.514,4.5-1.187,7.807-1.953a247.362,247.362,0,0,1,52.651-6.266c3.4-.032,6.148,0,8.047.066l2.187.083a4.186,4.186,0,0,1,.761.065" transform="translate(-12524.032 -16876.877)" fill="#263238"/>
    <path id="Path_3868" data-name="Path 3868" d="M62.324,300.494c-.145-.005.128-11.093.608-24.763s.986-24.752,1.13-24.747-.128,11.091-.608,24.765-.986,24.75-1.13,24.745" transform="translate(-12528.706 -16873.08)" fill="#263238"/>
    <path id="Path_3869" data-name="Path 3869" d="M130.524,296.34a4.847,4.847,0,0,1-.445-.7q-.444-.763-1.186-2.041c-1.059-1.818-2.546-4.371-4.37-7.505a65.1,65.1,0,0,1-5.481-11.679,38.245,38.245,0,0,1-1.634-7.466,45.1,45.1,0,0,1-.024-8.2,43.6,43.6,0,0,1,3.911-15.285,25.239,25.239,0,0,1,3.854-5.751,21.89,21.89,0,0,1,4.631-3.866,17.638,17.638,0,0,1,8.215-2.753,11.588,11.588,0,0,1,3.185.177,30.025,30.025,0,0,0-3.168.026,17.943,17.943,0,0,0-8.035,2.862A21.809,21.809,0,0,0,125.471,238a25.052,25.052,0,0,0-3.745,5.675,43.694,43.694,0,0,0-3.82,15.121,44.907,44.907,0,0,0,.012,8.1,38.364,38.364,0,0,0,1.582,7.372,67.147,67.147,0,0,0,5.345,11.647l4.225,7.586,1.1,2.09a5.046,5.046,0,0,1,.352.746" transform="translate(-12536.384 -16870.297)" fill="#263238"/>
    <g id="Group_89726" data-name="Group 89726" transform="translate(-12493.715 -16598.281)" opacity="0.3">
      <g id="Group_89725" data-name="Group 89725" transform="translate(0 0)">
        <g id="Group_89724" data-name="Group 89724" clip-path="url(#clip-path-7)">
          <path id="Path_3870" data-name="Path 3870" d="M31,287.215a141.1,141.1,0,0,0,22.254-2.935,33.929,33.929,0,0,0-1.246,9.955,22.838,22.838,0,0,0,4.948-9.105,13.777,13.777,0,0,0,5.614,9.212,30.1,30.1,0,0,0,.5-10.145q16.609-2,33-5.462a223.749,223.749,0,0,0-65.511,8.157" transform="translate(-30.557 -278.67)"/>
        </g>
      </g>
    </g>
    <path id="Path_3871" data-name="Path 3871" d="M188.973,347.1a2.93,2.93,0,0,1-.511-.3l-1.415-.944c-1.223-.828-2.982-2.043-5.142-3.56-4.323-3.034-10.249-7.293-16.709-12.109s-12.235-9.285-16.375-12.563c-2.071-1.639-3.738-2.977-4.879-3.914l-1.308-1.086a3.018,3.018,0,0,1-.437-.4,2.982,2.982,0,0,1,.493.331l1.361,1.021,4.965,3.8c4.189,3.213,9.99,7.636,16.448,12.453s12.35,9.112,16.626,12.212l5.059,3.675,1.366,1.012a2.963,2.963,0,0,1,.459.378" transform="translate(-12539.875 -16881.641)" fill="#263238"/>
    <path id="Path_3872" data-name="Path 3872" d="M229.08,318.561c-.078,0-.028-1.3-.179-3.381a35.5,35.5,0,0,0-4.788-15.406c-1.055-1.8-1.831-2.839-1.769-2.886a3.567,3.567,0,0,1,.606.685,22.493,22.493,0,0,1,1.433,2.037,31.509,31.509,0,0,1,4.834,15.552,22.558,22.558,0,0,1-.026,2.491,3.574,3.574,0,0,1-.111.908" transform="translate(-12551.078 -16879.496)" fill="#263238"/>
    <path id="Path_3873" data-name="Path 3873" d="M236.036,316.932c-.072-.014.092-1.019.217-2.65a33.072,33.072,0,0,0-1.45-12.6c-.491-1.56-.88-2.5-.813-2.531a2.232,2.232,0,0,1,.357.625,18.357,18.357,0,0,1,.756,1.8,27.687,27.687,0,0,1,1.465,12.734,18.7,18.7,0,0,1-.325,1.929,2.24,2.24,0,0,1-.206.69" transform="translate(-12552.704 -16879.814)" fill="#263238"/>
    <path id="Path_3874" data-name="Path 3874" d="M278.5,302.887c-.025.006.012-.166-.2-.323a1.036,1.036,0,0,1-.348-.379c-.1-.179-.166-.4-.291-.608-.229-.431-.8-.765-1.216-1.4a9.15,9.15,0,0,1-1.037-2.271,15.117,15.117,0,0,0-2.952-5.57,24.506,24.506,0,0,0-2.66-2.65,27.834,27.834,0,0,0-3.209-2.451,26.416,26.416,0,0,0-3.433-2.131l-3.406-1.667c-1.089-.514-2.1-1.045-3.087-1.469l-2.755-1.173a12.473,12.473,0,0,1-1.2-.547c-.365-.218-.669-.454-.978-.626l-.892-.474c-.281-.15-.508-.343-.713-.473-.424-.264-.8-.41-1.037-.538a1.2,1.2,0,0,1-.352-.218,1.822,1.822,0,0,1,.389.136,8.135,8.135,0,0,1,1.089.471,11.569,11.569,0,0,0,1.636.877c.333.171.651.4,1,.6s.771.326,1.185.5l2.768,1.119c.993.408,2.026.935,3.128,1.443l3.418,1.644a26.032,26.032,0,0,1,3.486,2.15,27.647,27.647,0,0,1,3.252,2.495,24.214,24.214,0,0,1,2.687,2.717,15.054,15.054,0,0,1,2.936,5.735,9.25,9.25,0,0,0,.945,2.231c.359.6.916.957,1.16,1.455.126.24.175.464.257.634a1,1,0,0,0,.29.371c.221.209.144.407.139.391" transform="translate(-12554.767 -16876.846)" fill="#263238"/>
    <path id="Path_3875" data-name="Path 3875" d="M155.01,419.679c-.124,0-.224-21.765-.224-48.608s.1-48.613.224-48.613.224,21.761.224,48.613-.1,48.608-.224,48.608" transform="translate(-12541.636 -16883.072)" fill="#263238"/>
  </g>
</svg>
