<svg xmlns="http://www.w3.org/2000/svg" xmlns:xlink="http://www.w3.org/1999/xlink" width="307.29" height="392.623" viewBox="0 0 307.29 392.623">
  <defs>
    <clipPath id="clip-path">
      <rect id="Rectangle_3030" data-name="Rectangle 3030" width="39.926" height="22.188" fill="none"/>
    </clipPath>
    <clipPath id="clip-path-2">
      <rect id="Rectangle_3031" data-name="Rectangle 3031" width="44.02" height="3.567" fill="none"/>
    </clipPath>
    <clipPath id="clip-path-3">
      <rect id="Rectangle_3025" data-name="Rectangle 3025" width="307.288" height="392.623" fill="none"/>
    </clipPath>
    <clipPath id="clip-path-5">
      <rect id="Rectangle_3028" data-name="Rectangle 3028" width="2.685" height="6.942" fill="none"/>
    </clipPath>
    <clipPath id="clip-path-6">
      <rect id="Rectangle_3033" data-name="Rectangle 3033" width="87.048" height="147.614" fill="none"/>
    </clipPath>
  </defs>
  <g id="Group_90348" data-name="Group 90348" transform="translate(-170.49 -275.435)">
    <path id="Path_5115" data-name="Path 5115" d="M255.878,259.629H90.649c-3.352,0-6.069-4.29-6.069-9.583V9.994C84.58,4.7,87.3.411,90.649.411H255.878c3.351,0,6.069,4.29,6.069,9.583V250.046c0,5.293-2.718,9.583-6.069,9.583" transform="translate(164.143 275.403)" fill="#fff"/>
    <path id="Path_5117" data-name="Path 5117" d="M128.554,12.31a3.066,3.066,0,1,1-3.066-3.066,3.066,3.066,0,0,1,3.066,3.066" transform="translate(161.303 274.741)" fill="#263238"/>
    <path id="Path_5118" data-name="Path 5118" d="M108.236,12.31a3.066,3.066,0,1,1-3.066-3.066,3.066,3.066,0,0,1,3.066,3.066" transform="translate(162.828 274.741)" fill="#263238"/>
    <path id="Path_5119" data-name="Path 5119" d="M117.918,12.31a3.066,3.066,0,1,1-3.066-3.066,3.066,3.066,0,0,1,3.066,3.066" transform="translate(162.102 274.741)" fill="#263238"/>
    <path id="Path_5120" data-name="Path 5120" d="M261.947,21.944c0,.133-39.708.24-88.679.24-48.987,0-88.687-.107-88.687-.24s39.7-.24,88.687-.24c48.971,0,88.679.107,88.679.24" transform="translate(164.143 273.806)" fill="#263238"/>
    <path id="Path_5155" data-name="Path 5155" d="M33.762,417.505H25.481L22.41,380.227h9.752Z" transform="translate(168.809 246.9)" fill="#263238"/>
    <path id="Path_5156" data-name="Path 5156" d="M112.274,417.505h8.281l3.071-37.278h-9.752Z" transform="translate(162.064 246.9)" fill="#263238"/>
    <path id="Path_5157" data-name="Path 5157" d="M121.787,378.942,15.2,381.444,11.954,312.6a11.824,11.824,0,0,1,11.811-12.381H114.58a11.824,11.824,0,0,1,11.8,12.642Z" transform="translate(169.594 252.904)" fill="#16b988"/>
    <path id="Path_5158" data-name="Path 5158" d="M127.252,313.324a1.363,1.363,0,0,1-.3.025l-.873.027-3.36.05-12.356.044c-10.433.018-24.846-.1-40.756.269-15.918.529-30.342.439-40.774.28-5.217-.082-9.437-.184-12.354-.271l-3.358-.116-.872-.043a1.357,1.357,0,0,1-.3-.031,1.339,1.339,0,0,1,.3-.018l.874-.006,3.359.025,12.353.118c10.433.071,24.843.107,40.758-.421,15.922-.369,30.337-.2,40.77-.129l12.354.109,3.359.04.874.021a1.337,1.337,0,0,1,.3.024" transform="translate(169.594 251.943)" fill="#263238"/>
    <path id="Path_5159" data-name="Path 5159" d="M52.962,301.378a24.779,24.779,0,0,0-6.921,2.077,24.757,24.757,0,0,0-5.743,4.385,6.4,6.4,0,0,1,1.32-1.712,16.01,16.01,0,0,1,9.182-4.686,6.405,6.405,0,0,1,2.162-.064" transform="translate(167.467 252.822)" fill="#263238"/>
    <path id="Path_5160" data-name="Path 5160" d="M100.122,166.053l13.031,23.8,19.087-10.676,9.283,3.063S118.1,207.632,114.3,208.927s-10.995,1.529-15.109-3.618c-3.745-4.688-14.647-29.3-14.647-29.3Z" transform="translate(164.145 262.973)" fill="#ffbe9d"/>
    <path id="Path_5162" data-name="Path 5162" d="M152.424,153.24a.647.647,0,1,0,.059-.774.561.561,0,0,0-.059.774" transform="translate(159.061 264.012)" fill="#fff"/>
    <path id="Path_5163" data-name="Path 5163" d="M157.269,149.637a11.132,11.132,0,0,1-1.755.347l-4.811.746-3.325.487a1.887,1.887,0,0,0-1.4.827l-1.073,1.665-4.814,7.42c-3.429,5.257-6.558,10-8.845,13.417l-2.733,4.032a11.242,11.242,0,0,1-1.065,1.437,11.254,11.254,0,0,1,.887-1.554l2.587-4.126c2.205-3.471,5.283-8.247,8.712-13.5l4.85-7.4q.562-.85,1.1-1.661a2.349,2.349,0,0,1,1.727-1l3.339-.423,4.84-.573a11.2,11.2,0,0,1,1.784-.137" transform="translate(160.926 264.206)" fill="#455a64"/>
    <path id="Path_5169" data-name="Path 5169" d="M152.347,361.892a1.949,1.949,0,0,0-.026-.877,5.822,5.822,0,0,0-.886-2.23,3.135,3.135,0,0,0-.528-.644,1,1,0,0,0-.992-.224.707.707,0,0,0-.438.44.953.953,0,0,0,.02.6,5.993,5.993,0,0,0,.462.894c.344.579.628,1.156,1.067,1.808a1.267,1.267,0,0,0,1.177.53,2.524,2.524,0,0,0,1.138-.5,9.879,9.879,0,0,0,1.671-1.54,10.078,10.078,0,0,0,.658-.858,2.824,2.824,0,0,0,.5-.984.934.934,0,0,0-.5-1.074,1.118,1.118,0,0,0-1.059.24,6.535,6.535,0,0,0-1.116,1.264,8.455,8.455,0,0,0-1.094,2.124,2.178,2.178,0,0,0-.191.854,16.825,16.825,0,0,1,1.583-2.757,6.7,6.7,0,0,1,1.073-1.132.705.705,0,0,1,.629-.166.472.472,0,0,1,.2.552,2.478,2.478,0,0,1-.433.8,10,10,0,0,1-.635.807,9.724,9.724,0,0,1-1.589,1.451,2.073,2.073,0,0,1-.892.412.741.741,0,0,1-.714-.329c-.365-.532-.716-1.188-1.054-1.733a6.253,6.253,0,0,1-.442-.8c-.089-.251-.04-.413.135-.482.4-.166.791.287,1.063.672a8.4,8.4,0,0,1,1.216,2.9" transform="translate(159.275 248.631)" fill="#263238"/>
    <path id="Path_5170" data-name="Path 5170" d="M125.615,361.961l-11.286,24.46-18.213-8.413,11.674-30.274Z" transform="translate(163.277 249.339)" fill="#ffbe9d"/>
    <path id="Path_5171" data-name="Path 5171" d="M115.6,386.959,109,399.534s16.88,17.453,15.294,21.354L84.618,401.863l10.9-25.223Z" transform="translate(164.141 247.17)" fill="#455a64"/>
    <path id="Path_5172" data-name="Path 5172" d="M98.442,393.17a1.8,1.8,0,0,0-2.007,1.312,1.729,1.729,0,0,0,1.283,2,1.9,1.9,0,0,0,2.118-1.4,1.793,1.793,0,0,0-1.565-1.933" transform="translate(163.256 245.931)" fill="#e0e0e0"/>
    <g id="Group_90031" data-name="Group 90031" transform="translate(248.758 645.869)" opacity="0.6">
      <g id="Group_90030" data-name="Group 90030">
        <g id="Group_90029" data-name="Group 90029" clip-path="url(#clip-path)">
          <path id="Path_5173" data-name="Path 5173" d="M84.618,403.652l1.651-3.162L123.7,419.914s1.4,1.615.6,2.764Z" transform="translate(-84.618 -400.49)" fill="#fff"/>
        </g>
      </g>
    </g>
    <path id="Path_5174" data-name="Path 5174" d="M111.4,401.442c-.1.191-1.11-.186-2.362-.019-1.256.132-2.151.736-2.292.574-.16-.124.684-1.143,2.2-1.317s2.579.6,2.451.762" transform="translate(162.48 245.368)" fill="#263238"/>
    <path id="Path_5175" data-name="Path 5175" d="M115.067,405.5c-.045.209-1.042.136-2.094.64-1.066.474-1.657,1.28-1.845,1.178-.2-.056.214-1.255,1.532-1.857s2.492-.148,2.408.039" transform="translate(162.154 245.03)" fill="#263238"/>
    <path id="Path_5176" data-name="Path 5176" d="M115.357,411.917c-.2-.043,0-1.14,1.005-1.963s2.114-.811,2.119-.61c.033.212-.828.5-1.644,1.188-.832.668-1.279,1.459-1.481,1.386" transform="translate(161.838 244.724)" fill="#263238"/>
    <path id="Path_5177" data-name="Path 5177" d="M113.486,396.106c-.166.138-.927-.556-2.058-1.006-1.121-.475-2.15-.515-2.171-.73-.045-.193,1.13-.512,2.455.038s1.942,1.592,1.774,1.7" transform="translate(162.291 245.859)" fill="#263238"/>
    <path id="Path_5178" data-name="Path 5178" d="M114.33,374.488l29.75-74.454s-.669-12.7-3.009-16.716-73.211-27.412-73.211-27.412-18.052-4.346-30.087,0S16.712,275.3,18.384,283.653s8.726,14.5,8.726,14.5L79.226,299.7l28.406,10.363L88.5,364.887Z" transform="translate(169.125 256.375)" fill="#263238"/>
    <path id="Path_5179" data-name="Path 5179" d="M148.932,328.864l.671,26.931-20.056.49-2.89-32.318Z" transform="translate(160.984 251.122)" fill="#ffbe9d"/>
    <path id="Path_5180" data-name="Path 5180" d="M150.924,355.743l-.365,14.194s22.85,8.209,23.15,12.409l-44,.446-1.353-27.444Z" transform="translate(160.857 248.768)" fill="#455a64"/>
    <path id="Path_5181" data-name="Path 5181" d="M137.525,369.2a1.8,1.8,0,0,0-1.222,2.064,1.727,1.727,0,0,0,2.035,1.228,1.894,1.894,0,0,0,1.282-2.191,1.792,1.792,0,0,0-2.258-1.044" transform="translate(160.264 247.733)" fill="#e0e0e0"/>
    <g id="Group_90034" data-name="Group 90034" transform="translate(290.563 627.993)" opacity="0.6">
      <g id="Group_90033" data-name="Group 90033">
        <g id="Group_90032" data-name="Group 90032" clip-path="url(#clip-path-2)">
          <path id="Path_5182" data-name="Path 5182" d="M129.814,384.73l.085-3.567,42.159.906s1.967.832,1.76,2.215Z" transform="translate(-129.814 -381.163)" fill="#fff"/>
        </g>
      </g>
    </g>
    <path id="Path_5183" data-name="Path 5183" d="M152.8,370.855c0,.215-1.079.323-2.128,1.025-1.068.674-1.6,1.61-1.8,1.527-.2-.04.109-1.327,1.395-2.154s2.581-.6,2.536-.4" transform="translate(159.322 247.618)" fill="#263238"/>
    <path id="Path_5184" data-name="Path 5184" d="M157.9,372.877c.051.207-.876.583-1.6,1.5-.747.9-.921,1.88-1.136,1.873-.2.035-.363-1.222.555-2.344s2.171-1.233,2.177-1.028" transform="translate(158.857 247.458)" fill="#263238"/>
    <path id="Path_5185" data-name="Path 5185" d="M161.011,378.526c-.194.047-.505-1.023.035-2.205s1.54-1.661,1.633-1.483c.124.176-.523.813-.951,1.791-.451.967-.5,1.874-.717,1.9" transform="translate(158.428 247.308)" fill="#263238"/>
    <path id="Path_5186" data-name="Path 5186" d="M152.281,365.208c-.088.2-1.077-.09-2.29.006-1.216.069-2.157.487-2.271.3-.126-.154.789-.958,2.22-1.05s2.445.571,2.341.741" transform="translate(159.406 248.084)" fill="#263238"/>
    <path id="Path_5187" data-name="Path 5187" d="M133.11,248.409s12.017-.96,13.354,12.077,2.65,73.882,2.65,73.882l-28.081,2.339-4.346-62.179-44.8-19.055s53.2-8.735,61.219-7.064" transform="translate(165.096 256.809)" fill="#263238"/>
    <path id="Path_5188" data-name="Path 5188" d="M79.175,229.4s7.293,20.447,5.9,22.726-20.143,11.655-20.143,11.655L18.01,281.809a39.325,39.325,0,0,1-4.82-19.443c0-11.776,16.323-32.961,16.323-32.961Z" transform="translate(169.5 258.219)" fill="#263238"/>
    <path id="Path_5189" data-name="Path 5189" d="M69.491,254.935a1.015,1.015,0,0,0,.22.118l.667.308,2.6,1.156,9.754,4.25,33.678,14.5-.152-.214c.425,6.142.886,12.775,1.362,19.639,1.141,16.042,2.194,30.834,3.026,42.538l.016.212.21-.018,20.458-1.8,5.632-.526,1.473-.153a2.939,2.939,0,0,0,.5-.074,3.178,3.178,0,0,0-.507.011l-1.477.092-5.642.413-20.472,1.616.225.193c-.8-11.705-1.818-26.5-2.92-42.546-.483-6.862-.95-13.5-1.383-19.637l-.011-.154-.141-.06L82.856,260.475l-9.812-4.114-2.632-1.08-.684-.268a1.1,1.1,0,0,0-.238-.078" transform="translate(165.275 256.303)" fill="#455a64"/>
    <path id="Path_5190" data-name="Path 5190" d="M29.142,256.706a6.845,6.845,0,0,0,1.317-.36l3.533-1.14a77.2,77.2,0,0,1,11.825-2.988,34.7,34.7,0,0,1,12.106.155,48.7,48.7,0,0,1,4.851,1.406,5.845,5.845,0,0,0-1.221-.618A21.673,21.673,0,0,0,58,252.013a32.544,32.544,0,0,0-12.263-.312,65.8,65.8,0,0,0-11.865,3.155c-1.479.525-2.667.976-3.482,1.3a6.76,6.76,0,0,0-1.25.552" transform="translate(168.303 256.578)" fill="#455a64"/>
    <path id="Path_5191" data-name="Path 5191" d="M36.314,245.461a34.353,34.353,0,0,1,4.1-.023c1.263.088,2.767.282,4.442.475s3.507.425,5.406.784a25.138,25.138,0,0,1,9.195,3.41,28.6,28.6,0,0,1,3.189,2.57,3.591,3.591,0,0,0-.682-.883,14.086,14.086,0,0,0-2.3-1.993,23.541,23.541,0,0,0-9.3-3.618c-1.924-.364-3.774-.576-5.452-.749s-3.191-.324-4.476-.365a16.821,16.821,0,0,0-3.036.135,3.524,3.524,0,0,0-1.086.258" transform="translate(167.766 257.045)" fill="#455a64"/>
    <path id="Path_5192" data-name="Path 5192" d="M56.565,67.829c-5.4-.918-10.146,1.162-14.7,4.2A27.068,27.068,0,0,0,31.9,84.778a26.79,26.79,0,0,0-.99,16.973,21.4,21.4,0,0,0,10.541,13.115c7.024,3.568,16.006,2.323,22.29-2.428S73.62,99.831,73.922,91.959A26.025,26.025,0,0,0,69.8,76.484a19.819,19.819,0,0,0-13.237-8.655" transform="translate(168.242 270.36)" fill="#263238"/>
    <path id="Path_5193" data-name="Path 5193" d="M42.062,86.216c.79-2.066.484-4.372.8-6.562.688-4.821,4.572-8.686,9.065-10.567,4.18-1.748,9.284-1.367,14.319.261a19.219,19.219,0,0,1,9,5.864,15.145,15.145,0,0,1,2.784,13.6L53.36,85.219a27.491,27.491,0,0,1-7.475,4.919,5.1,5.1,0,0,1-2.574.411,2.3,2.3,0,0,1-1.919-1.583c-.225-.934.328-1.853.672-2.75" transform="translate(167.389 270.336)" fill="#263238"/>
    <path id="Path_5194" data-name="Path 5194" d="M66.781,76.824,45.245,81.386a4.021,4.021,0,0,0-3.753,3.937l.259,46.6a14.471,14.471,0,0,0,3.035,8.788l2.054,2.649c4.682,6.039,14.168,5.43,17.745-1.322a5.082,5.082,0,0,0,.495-1.22,9.39,9.39,0,0,0,.2-1.053l.41-4.543c.21-4.149.239-8.365.24-8.327,0,0,8.813-1.114,11.071-12.468,1.123-5.647,1.2-14.974,1.015-22.608-.166-6.871-4.381-15.457-11.238-15" transform="translate(167.377 269.671)" fill="#ffbe9d"/>
    <path id="Path_5195" data-name="Path 5195" d="M77.2,102.385a1.466,1.466,0,0,1-1.47,1.424,1.4,1.4,0,0,1-1.46-1.38A1.467,1.467,0,0,1,75.743,101a1.4,1.4,0,0,1,1.461,1.38" transform="translate(164.916 267.854)" fill="#263238"/>
    <path id="Path_5196" data-name="Path 5196" d="M78.125,98.063c-.189.184-1.267-.681-2.844-.739-1.574-.079-2.763.688-2.927.488-.08-.09.118-.426.635-.774a4.039,4.039,0,0,1,2.352-.627,3.859,3.859,0,0,1,2.255.827c.47.391.621.743.528.825" transform="translate(165.063 268.199)" fill="#263238"/>
    <path id="Path_5197" data-name="Path 5197" d="M61.924,102a1.466,1.466,0,0,1-1.47,1.424,1.4,1.4,0,0,1-1.46-1.379,1.466,1.466,0,0,1,1.469-1.424A1.4,1.4,0,0,1,61.924,102" transform="translate(166.063 267.884)" fill="#263238"/>
    <path id="Path_5198" data-name="Path 5198" d="M61.938,97.647c-.191.184-1.27-.681-2.845-.737-1.573-.08-2.763.686-2.927.487-.08-.089.117-.426.635-.773A4.028,4.028,0,0,1,59.155,96a3.87,3.87,0,0,1,2.254.826c.469.391.621.743.529.825" transform="translate(166.277 268.23)" fill="#263238"/>
    <path id="Path_5199" data-name="Path 5199" d="M67.5,109.678a10.46,10.46,0,0,1,2.579-.363c.4-.026.788-.092.867-.364a2.048,2.048,0,0,0-.222-1.2q-.512-1.485-1.072-3.112c-1.484-4.429-2.542-8.065-2.362-8.123S68.819,100,70.3,104.427l1.021,3.128a2.333,2.333,0,0,1,.147,1.588,1.01,1.01,0,0,1-.684.563,2.731,2.731,0,0,1-.688.068,10.27,10.27,0,0,1-2.6-.1" transform="translate(165.441 268.191)" fill="#263238"/>
    <path id="Path_5200" data-name="Path 5200" d="M66.687,130.585a29.088,29.088,0,0,1-15.142-4.676s3.54,8.058,15.017,7.433Z" transform="translate(166.621 265.985)" fill="#eb996e"/>
    <path id="Path_5201" data-name="Path 5201" d="M66.257,114.733a2.845,2.845,0,0,0-2.506-1.154,2.6,2.6,0,0,0-1.829.892,1.644,1.644,0,0,0-.2,1.874,1.907,1.907,0,0,0,2.047.6,5.98,5.98,0,0,0,2.062-1.124,1.719,1.719,0,0,0,.467-.45.523.523,0,0,0,.021-.586" transform="translate(165.873 266.911)" fill="#eb996e"/>
    <path id="Path_5202" data-name="Path 5202" d="M62.435,111.731c.257,0,.193,1.707,1.611,2.978S67.3,115.864,67.3,116.1c.02.108-.419.316-1.19.307a4.256,4.256,0,0,1-2.716-1.066,3.707,3.707,0,0,1-1.243-2.493c-.036-.718.17-1.135.287-1.12" transform="translate(165.826 267.05)" fill="#263238"/>
    <path id="Path_5203" data-name="Path 5203" d="M61.726,92.615c-.172.423-1.739.158-3.6.31-1.863.114-3.375.6-3.605.2-.1-.188.173-.581.793-.973a6.28,6.28,0,0,1,5.487-.39c.668.3,1,.65.922.851" transform="translate(166.4 268.582)" fill="#263238"/>
    <path id="Path_5204" data-name="Path 5204" d="M77.955,90.582c-.291.347-1.362-.067-2.669-.135-1.3-.114-2.422.147-2.661-.238-.105-.186.083-.537.579-.858a3.872,3.872,0,0,1,4.3.3c.447.387.584.761.455.931" transform="translate(165.043 268.768)" fill="#263238"/>
    <path id="Path_5205" data-name="Path 5205" d="M37.741,82.894c2.233-6.558,11.981-15.493,18.88-14.872l10.9,6.836a10.652,10.652,0,0,1-7.387,8c-1.962.555-4.315.672-5.508,2.326-1.219,1.689-.576,4.2-1.714,5.943-1.576,2.418-5.75,2.218-6.95,4.844-.524,1.148-.29,2.535-.834,3.673-.725,1.516-4.636,3.378-6.227,2.839s-1.542-3.267-2.038-4.706a7.566,7.566,0,0,1-.13-5.075c.762-3.216-.059-6.68,1.006-9.809" transform="translate(167.762 270.332)" fill="#263238"/>
    <path id="Path_5206" data-name="Path 5206" d="M43.519,106.582c.031-.851-.875-2.9-1.71-3.059-2.23-.437-6.281-.413-6.54,5.283-.353,7.788,7.538,6.537,7.562,6.314.019-.174.581-5.6.688-8.538" transform="translate(167.844 267.678)" fill="#ffbe9d"/>
    <path id="Path_5207" data-name="Path 5207" d="M40.745,112.263c-.033-.026-.141.09-.374.183a1.354,1.354,0,0,1-1.016-.025c-.808-.339-1.442-1.677-1.416-3.082a4.483,4.483,0,0,1,.468-1.926,1.562,1.562,0,0,1,1.067-.993.692.692,0,0,1,.784.407c.094.223.038.376.079.391.02.02.173-.123.125-.447a.865.865,0,0,0-.285-.5,1.028,1.028,0,0,0-.741-.233,1.909,1.909,0,0,0-1.473,1.143,4.615,4.615,0,0,0-.569,2.15c-.021,1.572.716,3.076,1.827,3.453a1.458,1.458,0,0,0,1.251-.15c.25-.181.3-.353.272-.369" transform="translate(167.684 267.478)" fill="#eb996e"/>
    <path id="Path_5208" data-name="Path 5208" d="M34.764,81.532h0c.025-2.436-3.017-4.03-5.391-4.582a10.134,10.134,0,0,0-7.02,1.341,4.991,4.991,0,0,0-2.789,3.057c-.279,1.4,1.066,3.063,2.4,2.563a4.826,4.826,0,0,0-2.522,6.643,4.826,4.826,0,0,0,6.994,1.254,10.313,10.313,0,0,1-4.049,5.528,11.585,11.585,0,0,0,12.377-15.8" transform="translate(169.07 269.674)" fill="#263238"/>
    <path id="Path_5209" data-name="Path 5209" d="M30.181,94.121a6.993,6.993,0,0,1-.291-2.337,17.16,17.16,0,0,1,3.584-10.639,6.96,6.96,0,0,1,1.646-1.684,25.9,25.9,0,0,0-3.844,6.867,25.967,25.967,0,0,0-1.1,7.794" transform="translate(168.248 269.472)" fill="#ff725e"/>
    <path id="Path_5210" data-name="Path 5210" d="M67.605,72.86c.717,3.171,5.536,7.237,7.651,9.706,4.037,4.711,4.832,6.275,4.793,16.8,1.905-3.636,3.365-7.2,3.219-11.3A17,17,0,0,0,78.757,76.9a13.232,13.232,0,0,0-11.152-4.04" transform="translate(165.416 269.976)" fill="#263238"/>
    <path id="Path_5211" data-name="Path 5211" d="M96.153,164.259s-8.394-14-10.723-16.827a18.7,18.7,0,0,0-6.876-5.042,14.212,14.212,0,0,0-3.268-.966l-12.072-2.673s-.021,8.24-8.655,8.749-15.9-11.516-15.9-11.516-13.946,2.157-17.284,3.873-8.582,3.9-11.468,18.347L7.881,172.342l24.048,2.223,2.3,35.735,11.926,8.306s33.063,8.6,35.176,9.164,2.813-53.2,2.813-53.2,8.493-5.491,12.008-10.306" transform="translate(169.898 265.229)" fill="#263238"/>
    <path id="Path_5212" data-name="Path 5212" d="M86.2,160.056a5.006,5.006,0,0,1,.464,1.031c.275.672.625,1.666,1.016,2.906a56.9,56.9,0,0,1,2.459,20.085c-.079,1.3-.179,2.347-.284,3.066a5.055,5.055,0,0,1-.2,1.112,5.144,5.144,0,0,1,.016-1.129c.046-.723.1-1.77.13-3.063a66.9,66.9,0,0,0-2.445-19.975c-.347-1.246-.647-2.25-.866-2.94a5.1,5.1,0,0,1-.288-1.093" transform="translate(164.021 263.423)" fill="#455a64"/>
    <path id="Path_5213" data-name="Path 5213" d="M79.617,219.764l-45.278-9.856-2.092-32.363-20.135-1.861s.745,22.124,1.519,28.7c1.115,9.46,6.706,22.369,9.977,24.948s58.044,1.416,58.044,1.416Z" transform="translate(169.582 262.25)" fill="#ffbe9d"/>
    <path id="Path_5214" data-name="Path 5214" d="M110.76,228.367a1.748,1.748,0,0,1-1.685.982,2.061,2.061,0,0,1-.438-.089c-1-.321-.907-2.36-.907-2.36l-4.8-.783s-6.24,4.024-8.46,6.691-7.883.506-7.883.506l-1.963-10.227,8.832-7.987s-.543.476.066-1.018,3.385-.929,3.385-.929c.432-.739,2.245-1,2.245-1l7.746.893a5.31,5.31,0,0,1,3.882,2.439l3.276,5.186s1.731,3.733,1.452,4.6a1.55,1.55,0,0,1-1.806,1.018s-.381,2.455-1.026,2.54a5.293,5.293,0,0,1-1.917-.46" transform="translate(164.139 259.514)" fill="#ffbe9d"/>
    <path id="Path_5215" data-name="Path 5215" d="M95.055,221.717c.008.081,1.039-.014,2.693.057a23.474,23.474,0,0,1,6.322,1.184,22.478,22.478,0,0,1,3.26,1.393c.936.527,1.913.961,2.213,1.643a.942.942,0,0,1-.084.923,1.316,1.316,0,0,1-.585.494,2.044,2.044,0,0,1-.68.1c-.019.011.24.214.743.081a1.439,1.439,0,0,0,.747-.516,1.238,1.238,0,0,0,.183-1.213,2.48,2.48,0,0,0-.965-1.089c-.421-.277-.863-.559-1.356-.824a20.312,20.312,0,0,0-9.791-2.525,8.933,8.933,0,0,0-2.7.291" transform="translate(163.357 258.817)" fill="#eb996e"/>
    <path id="Path_5216" data-name="Path 5216" d="M94.468,227.055c.01.146,3.161.015,7.036.242s6.991.7,7.017.556a7.739,7.739,0,0,0-2.017-.49,45.343,45.343,0,0,0-9.976-.566,7.733,7.733,0,0,0-2.06.258" transform="translate(163.4 258.42)" fill="#eb996e"/>
    <path id="Path_5217" data-name="Path 5217" d="M111.7,228.519a3.5,3.5,0,0,0,.1-.826,18.159,18.159,0,0,0,.006-2.268,9.777,9.777,0,0,0-.216-1.572,4.808,4.808,0,0,0-.761-1.688,10.6,10.6,0,0,0-2.9-2.973,14.574,14.574,0,0,0-3.706-1.872,13.329,13.329,0,0,0-3.346-.51c-.958-.034-1.73-.013-2.262.007a2.714,2.714,0,0,0-.828.083,25.068,25.068,0,0,0,3.068.258,14.508,14.508,0,0,1,3.233.595,15.223,15.223,0,0,1,3.56,1.845,10.629,10.629,0,0,1,2.809,2.824,5.882,5.882,0,0,1,1,3.032c.187,1.876.139,3.066.246,3.063" transform="translate(163.152 259.165)" fill="#eb996e"/>
    <path id="Path_5218" data-name="Path 5218" d="M100.734,214.268c0,.074,1.159.1,3.011.317,1.782.274,4.635.4,6.259,2.861a26.309,26.309,0,0,1,3.91,6.077,15.685,15.685,0,0,1,.733,2.9,2.119,2.119,0,0,0,.045-.821,7.772,7.772,0,0,0-.45-2.2,23.053,23.053,0,0,0-3.852-6.265,8.439,8.439,0,0,0-1.506-1.522,5.487,5.487,0,0,0-1.823-.857,16.586,16.586,0,0,0-3.284-.522,11.742,11.742,0,0,0-3.043.031" transform="translate(162.93 259.361)" fill="#eb996e"/>
    <path id="Path_5219" data-name="Path 5219" d="M96.2,231.138a2.789,2.789,0,0,0,.46-.351l1.3-1.042a53.812,53.812,0,0,1,5.092-3.507l-.11.021,4.793.816-.165-.2a5.3,5.3,0,0,0,.09,1.172,2.179,2.179,0,0,0,.544,1.153,1.2,1.2,0,0,0,.636.292,1.685,1.685,0,0,0,.675.04,1.966,1.966,0,0,0,1.193-.66,2.035,2.035,0,0,0,.208-.284l.044-.077.021-.039.01-.019,0,0c.062-.023-.536.2-.281.1l0,0,.01,0,.152.061q.3.121.62.22a5.585,5.585,0,0,0,.657.164,2.425,2.425,0,0,0,.357.039.813.813,0,0,0,.444-.086,1.431,1.431,0,0,0,.47-.635,5.269,5.269,0,0,0,.239-.659,11.525,11.525,0,0,0,.308-1.358l-.28.194a1.822,1.822,0,0,0,1.787-.61,1.485,1.485,0,0,0,.33-.966,4.336,4.336,0,0,0-.17-.929,25.856,25.856,0,0,0-1.323-3.45l-.006-.013-.009-.015-1.746-2.767L111.445,216a9.5,9.5,0,0,0-1.215-1.7,5.148,5.148,0,0,0-1.739-1.154,6.7,6.7,0,0,0-1.976-.411l-7.3-.821-.031,0-.026,0a6.739,6.739,0,0,0-1.281.338,2.171,2.171,0,0,0-1.112.778l.268-.084a2.677,2.677,0,0,0-2.488.139,3.131,3.131,0,0,0-1.231,1.962l.058-.1-6.086,5.474-1.64,1.51a4.226,4.226,0,0,0-.549.554,4.241,4.241,0,0,0,.618-.475l1.7-1.437,6.194-5.352.042-.036.018-.066a2.769,2.769,0,0,1,1.085-1.7,2.281,2.281,0,0,1,2.1-.091l.169.07.1-.154a1.831,1.831,0,0,1,.9-.587,6.391,6.391,0,0,1,1.193-.3h-.056l7.3.861a6.263,6.263,0,0,1,1.849.385,4.686,4.686,0,0,1,1.571,1.049,9.088,9.088,0,0,1,1.148,1.617q.548.87,1.107,1.754l1.748,2.766-.015-.028a25.713,25.713,0,0,1,1.3,3.371,3.913,3.913,0,0,1,.156.819,1,1,0,0,1-.228.658,1.354,1.354,0,0,1-1.313.44l-.241-.04-.039.233a11.309,11.309,0,0,1-.288,1.3,2.34,2.34,0,0,1-.5,1.036.453.453,0,0,1-.2.021,1.924,1.924,0,0,1-.293-.031,4.859,4.859,0,0,1-.6-.146c-.2-.06-.4-.129-.589-.2l-.143-.057-.008,0,0,0c.253-.092-.347.125-.285.1v0l-.008.015-.018.031-.033.06a1.719,1.719,0,0,1-.163.225,1.532,1.532,0,0,1-.925.524,1.288,1.288,0,0,1-.527-.03.786.786,0,0,1-.438-.184,3.007,3.007,0,0,1-.525-2v-.178l-.164-.025-4.8-.751-.062-.009-.048.031a46.185,46.185,0,0,0-5.036,3.649c-.555.47-.972.847-1.246,1.111a2.871,2.871,0,0,0-.4.42" transform="translate(164.104 259.532)" fill="#eb996e"/>
    <path id="Path_5220" data-name="Path 5220" d="M168.058,197.516l-59.64.485c-1.934,0-3.783.93-4.073,2.842l-6.518,43.468H67.109a1.791,1.791,0,1,0,0,3.581h98.113l6.706-45.877a3.914,3.914,0,0,0-3.869-4.5" transform="translate(165.588 260.612)" fill="#e0e0e0"/>
    <path id="Path_5221" data-name="Path 5221" d="M168.039,197.514a3.145,3.145,0,0,1,.94.088,3.945,3.945,0,0,1,3.015,3.415,11.011,11.011,0,0,1-.219,2.453c-.25,1.756-.537,3.779-.86,6.054-1.313,9.113-3.2,22.247-5.53,38.394l-.022.157h-.16l-95.185.056H67.455a2.482,2.482,0,0,1-1.356-.257,2.033,2.033,0,0,1,.009-3.554,2.482,2.482,0,0,1,1.344-.252h1.262l9.969,0,19.124.006-.229.2c2.346-15.567,4.535-30.089,6.5-43.117a3.378,3.378,0,0,1,1.1-2.271,4.438,4.438,0,0,1,2.281-1.006,19.835,19.835,0,0,1,2.4-.085l2.341-.016,8.979-.06,15.956-.1,22.717-.117,6.078-.01,1.569.007c.352,0,.533.016.533.016s-.179.016-.533.025l-1.569.032-6.077.088-22.717.253-15.956.158-8.979.086-2.342.022a19.652,19.652,0,0,0-2.346.085,4.054,4.054,0,0,0-2.079.918,2.971,2.971,0,0,0-.97,2.037c-1.943,13.03-4.111,27.555-6.433,43.126l-.03.2h-.2l-19.124.006H67.453a2,2,0,0,0-1.112.192,1.551,1.551,0,0,0-.006,2.711,2,2,0,0,0,1.121.2h2.561l95.185.056-.182.157c2.394-16.137,4.34-29.263,5.69-38.371l.908-6.046a11.073,11.073,0,0,0,.243-2.417,3.812,3.812,0,0,0-.692-1.854,3.9,3.9,0,0,0-2.2-1.521,7.766,7.766,0,0,0-.927-.142" transform="translate(165.607 260.614)" fill="#263238"/>
    <path id="Path_5222" data-name="Path 5222" d="M137.383,223.848a3.734,3.734,0,1,0,3.734-3.734,3.734,3.734,0,0,0-3.734,3.734" transform="translate(160.18 258.916)" fill="#fff"/>
    <path id="Path_5223" data-name="Path 5223" d="M103.078,247.531c.084.014,1.983-11.055,4.239-24.719s4.019-24.757,3.935-24.771-1.982,11.052-4.24,24.721-4.018,24.755-3.934,24.769" transform="translate(162.756 260.572)" fill="#263238"/>
    <path id="Icon_awesome-user-alt" data-name="Icon awesome-user-alt" d="M39.275,44.185A22.092,22.092,0,1,0,17.183,22.092,22.1,22.1,0,0,0,39.275,44.185Zm19.638,4.909H50.46a26.707,26.707,0,0,1-22.369,0H19.638A19.636,19.636,0,0,0,0,68.732v2.455a7.366,7.366,0,0,0,7.364,7.364H71.187a7.366,7.366,0,0,0,7.364-7.364V68.732A19.636,19.636,0,0,0,58.913,49.094Z" transform="translate(300.611 365.671)" fill="rgba(203,191,226,0.5)"/>
    <path id="Path_5161" data-name="Path 5161" d="M156.842,149.209a1.539,1.539,0,0,0-1.408-.558l-9.077,1.249a2.829,2.829,0,0,0-1.941,1.253l-18.85,28.971,1.45.81,10.037-.315,20.075-31.056Z" transform="translate(161.066 264.28)" fill="#263238"/>
    <path id="Path_5164" data-name="Path 5164" d="M147.319,160.828s-.809-.145-1.252,2.068-1.869,8.561-1.869,8.561l-4.239-2.252-5.3.691s-1.157,1.068-.308,1.649a18.754,18.754,0,0,0,4.2,1.179l2.472,3.555-7.1-3.42s-2.367.617-1.674,2.062,5.478,5.965,5.478,5.965l-3.555-.269-4.227-2.567s-1.3.059-.813,1.164,4.88,5.1,4.88,5.1l5.33,2.587s2.91-.228,3.189-1.083a10.013,10.013,0,0,0,.351-2.074s1.545-.416,1.833-1.165a4.652,4.652,0,0,0,.1-1.935s2.425.426,2.726-.926a15.376,15.376,0,0,0-.2-5.054c-.244-1.04,1.033-10.7.934-10.995s.558-3.475-.963-2.836" transform="translate(160.809 263.371)" fill="#ffbe9d"/>
    <path id="Path_5165" data-name="Path 5165" d="M143.086,187.681a2.925,2.925,0,0,1-1.39.432,9.406,9.406,0,0,1-6.723-1.6c-.733-.53-1.091-.964-1.047-1.012a19.423,19.423,0,0,0,4.382,1.92,19.491,19.491,0,0,0,4.777.259" transform="translate(160.439 261.515)" fill="#eb996e"/>
    <path id="Path_5166" data-name="Path 5166" d="M142.17,185.551c-.083.123-1.028-.372-2.036-1.2s-1.681-1.657-1.576-1.762.933.53,1.922,1.339,1.776,1.5,1.69,1.622" transform="translate(160.094 261.733)" fill="#eb996e"/>
    <path id="Path_5167" data-name="Path 5167" d="M145.222,180.568c-.08.123-1.018-.36-1.964-1.236s-1.5-1.769-1.387-1.86.844.618,1.758,1.459,1.68,1.51,1.593,1.637" transform="translate(159.844 262.117)" fill="#eb996e"/>
    <path id="Path_5168" data-name="Path 5168" d="M148.433,176.486c-.145.062-.681-.939-1.526-2.028s-1.665-1.871-1.569-2,1.114.5,2,1.663a4.112,4.112,0,0,1,1.093,2.361" transform="translate(159.584 262.493)" fill="#eb996e"/>
    <path id="Path_5224" data-name="Path 5224" d="M-19322.8-12970.716v25.658h-23.822" transform="translate(19702.396 13408.414)" fill="none" stroke="#e5dff0" stroke-linecap="round" stroke-width="2"/>
    <path id="Path_5225" data-name="Path 5225" d="M-19346.627-12945.058v-25.658h23.822" transform="translate(19640.383 13328.568)" fill="none" stroke="#e5dff0" stroke-linecap="round" stroke-width="2"/>
    <path id="Path_5226" data-name="Path 5226" d="M-19322.8-12945.058v-25.658h-23.822" transform="translate(19702.396 13328.568)" fill="none" stroke="#e5dff0" stroke-linecap="round" stroke-width="2"/>
    <g id="Group_90021" data-name="Group 90021" transform="translate(170.49 275.435)">
      <g id="Group_90020" data-name="Group 90020" clip-path="url(#clip-path-3)">
        <path id="Path_5114" data-name="Path 5114" d="M302.917,421.108c0,.133-67.816.241-151.451.241C67.8,421.349,0,421.242,0,421.108s67.8-.24,151.466-.24c83.635,0,151.451.107,151.451.24" transform="translate(0 -31.584)" fill="#263238"/>
      </g>
    </g>
    <path id="Path_5116" data-name="Path 5116" d="M255.858,259.6s.147-.025.437-.055a4.2,4.2,0,0,0,1.269-.376,5.809,5.809,0,0,0,1.887-1.513,9.734,9.734,0,0,0,1.837-3.555,17.618,17.618,0,0,0,.578-5.756q0-3.276-.011-7.157c-.006-5.173-.014-11.141-.022-17.859-.018-26.884-.044-65.768-.077-113.814-.008-24.028-.019-50.344-.029-78.6q-.012-10.585-.025-21.526c-.107-3.539-1.653-6.868-3.8-8.09a5.8,5.8,0,0,0-3.414-.59l-3.561,0-29.4.017L90.645.76a4.882,4.882,0,0,0-3.828,2.253,11.3,11.3,0,0,0-1.95,5.644c-.1,1.066-.057,2.217-.066,3.355V22.223q0,13.58,0,26.974,0,26.784,0,52.738c0,34.576-.009,67.927-.014,99.7q-.006,23.828-.01,46.426c0,.935-.016,1.9.026,2.786a14.192,14.192,0,0,0,.4,2.624,9.818,9.818,0,0,0,2.1,4.151,4.6,4.6,0,0,0,3.174,1.636l3.475.015,13.646.01,49.773.046,72.069.121,19.594.071,5.1.038c1.148.013,1.736.039,1.736.039s-.588.026-1.736.039l-5.1.038-19.594.071-72.069.121-49.773.046-13.646.01-3.486-.011a4.928,4.928,0,0,1-3.4-1.749,10.5,10.5,0,0,1-2.251-4.445,15.145,15.145,0,0,1-.429-2.813c-.046-.982-.023-1.9-.03-2.845q0-22.576-.01-46.426c0-31.771-.009-65.122-.014-99.7q0-25.933,0-52.738,0-13.391,0-26.974V12.012c.009-1.132-.033-2.27.07-3.462A12.236,12.236,0,0,1,86.5,2.439,5.28,5.28,0,0,1,90.645,0L221.534.03l29.4.016,3.561,0a6.066,6.066,0,0,1,3.56.635c2.3,1.313,3.949,4.88,4.061,8.669q.007,10.958.013,21.565c-.01,28.251-.02,54.568-.029,78.6-.032,48.046-.059,86.93-.077,113.814-.008,6.718-.016,12.686-.022,17.859q-.007,3.879-.011,7.157a17.826,17.826,0,0,1-.611,5.822,9.728,9.728,0,0,1-1.881,3.581,5.7,5.7,0,0,1-1.916,1.5,3.91,3.91,0,0,1-1.281.34c-.291.017-.438.016-.438.016" transform="translate(164.162 275.435)" fill="#263238"/>
    <rect id="Rectangle_3027" data-name="Rectangle 3027" width="104.572" height="143.293" transform="translate(373.207 336.716)" fill="#455a64"/>
    <path id="Path_5121" data-name="Path 5121" d="M320.308,201.493H228.577V72.515h91.731V201.493Z" transform="translate(153.336 269.993)" fill="#e0e0e0"/>
    <path id="Path_5122" data-name="Path 5122" d="M318.808,198.962H227.9V70.67h90.9V198.962Z" transform="translate(153.387 270.131)" fill="#ebebeb"/>
    <path id="Path_5123" data-name="Path 5123" d="M308.9,189l-10.47,8.525H226.069V71.022H317.8v110.77Z" transform="translate(153.525 270.104)" fill="#fafafa"/>
    <g id="Group_90027" data-name="Group 90027" transform="translate(170.49 275.435)" clip-path="url(#clip-path-3)">
      <path id="Path_5124" data-name="Path 5124" d="M308.893,189s.185-.158.559-.465l1.678-1.372,6.638-5.4-.013.028c-.011-18.2-.035-58.626-.066-110.77l.1.1-90.93.011h-.8l.112-.113c-.008,47.561-.016,91.436-.022,126.508l-.09-.09,72.363.052-.024.008,7.863-6.378,1.97-1.592c.438-.352.661-.525.661-.525s-.215.183-.648.541l-1.958,1.607-7.84,6.407-.01.009h-.014l-72.363.052h-.09v-.091c-.006-35.072-.014-78.947-.022-126.508V70.9h.913l90.93.01h.1v.1c-.031,52.143-.055,92.574-.066,110.77v.017l-.013.011-6.661,5.377-1.689,1.358c-.377.3-.571.45-.571.45" transform="translate(-16.956 -5.321)" fill="#263238"/>
      <path id="Path_5125" data-name="Path 5125" d="M292.939,74.334H255.4V67.827a6.363,6.363,0,0,1,6.364-6.363h25.076a6.1,6.1,0,0,1,6.1,6.1Z" transform="translate(-19.166 -4.613)" fill="#16b988"/>
      <path id="Path_5126" data-name="Path 5126" d="M265.226,60.9l-1.373-6.942H285.47l-1.2,6.942Z" transform="translate(-19.801 -4.049)" fill="#16b988"/>
      <path id="Path_5127" data-name="Path 5127" d="M251.9,108.266H236.442V92.812H251.9Zm-15.023-.431h14.592V93.243H236.873Z" transform="translate(-17.744 -6.965)" fill="#16b988"/>
      <path id="Path_5128" data-name="Path 5128" d="M308.292,96.838c0,.062-10.757.112-24.024.112s-24.026-.05-24.026-.112,10.754-.112,24.026-.112,24.024.05,24.024.112" transform="translate(-19.53 -7.259)" fill="#263238"/>
      <path id="Path_5129" data-name="Path 5129" d="M308.292,100.31c0,.062-10.757.112-24.024.112s-24.026-.05-24.026-.112S271,100.2,284.268,100.2s24.024.05,24.024.112" transform="translate(-19.53 -7.519)" fill="#263238"/>
      <path id="Path_5130" data-name="Path 5130" d="M308.292,103.782c0,.062-10.757.112-24.024.112s-24.026-.05-24.026-.112,10.754-.112,24.026-.112,24.024.05,24.024.112" transform="translate(-19.53 -7.78)" fill="#263238"/>
      <path id="Path_5131" data-name="Path 5131" d="M308.292,107.253c0,.062-10.757.112-24.024.112s-24.026-.05-24.026-.112,10.754-.112,24.026-.112,24.024.05,24.024.112" transform="translate(-19.53 -8.04)" fill="#263238"/>
      <path id="Path_5132" data-name="Path 5132" d="M251.9,134.015H236.442V118.561H251.9Zm-15.023-.431h14.592V118.993H236.873Z" transform="translate(-17.744 -8.897)" fill="#16b988"/>
      <path id="Path_5133" data-name="Path 5133" d="M239.764,126.686l2.052-2.2,3.42,2.735,7.826-7.6,1.875,2.21-9.854,9.72Z" transform="translate(-17.993 -8.977)" fill="#cbbfe2"/>
      <path id="Path_5134" data-name="Path 5134" d="M308.292,122.587c0,.062-10.757.112-24.024.112s-24.026-.05-24.026-.112,10.754-.112,24.026-.112,24.024.051,24.024.112" transform="translate(-19.53 -9.191)" fill="#263238"/>
      <path id="Path_5135" data-name="Path 5135" d="M308.292,126.059c0,.062-10.757.112-24.024.112s-24.026-.05-24.026-.112,10.754-.112,24.026-.112,24.024.05,24.024.112" transform="translate(-19.53 -9.452)" fill="#263238"/>
      <path id="Path_5136" data-name="Path 5136" d="M308.292,129.531c0,.062-10.757.112-24.024.112s-24.026-.05-24.026-.112,10.754-.112,24.026-.112,24.024.05,24.024.112" transform="translate(-19.53 -9.712)" fill="#263238"/>
      <path id="Path_5137" data-name="Path 5137" d="M308.292,133c0,.062-10.757.112-24.024.112s-24.026-.05-24.026-.112,10.754-.112,24.026-.112,24.024.05,24.024.112" transform="translate(-19.53 -9.973)" fill="#263238"/>
      <path id="Path_5138" data-name="Path 5138" d="M251.9,158.933H236.442V143.479H251.9Zm-15.023-.431h14.592V143.91H236.873Z" transform="translate(-17.744 -10.767)" fill="#16b988"/>
      <path id="Path_5139" data-name="Path 5139" d="M239.764,151.6l2.052-2.2,3.42,2.735,7.826-7.6,1.875,2.21-9.854,9.72Z" transform="translate(-17.993 -10.847)" fill="#cbbfe2"/>
      <path id="Path_5140" data-name="Path 5140" d="M308.292,147.5c0,.062-10.757.112-24.024.112s-24.026-.05-24.026-.112,10.754-.112,24.026-.112,24.024.05,24.024.112" transform="translate(-19.53 -11.061)" fill="#263238"/>
      <path id="Path_5141" data-name="Path 5141" d="M308.292,150.977c0,.062-10.757.112-24.024.112s-24.026-.05-24.026-.112,10.754-.112,24.026-.112,24.024.05,24.024.112" transform="translate(-19.53 -11.322)" fill="#263238"/>
      <path id="Path_5142" data-name="Path 5142" d="M308.292,154.449c0,.062-10.757.112-24.024.112s-24.026-.05-24.026-.112,10.754-.112,24.026-.112,24.024.05,24.024.112" transform="translate(-19.53 -11.582)" fill="#263238"/>
      <path id="Path_5143" data-name="Path 5143" d="M308.292,157.92c0,.062-10.757.112-24.024.112s-24.026-.05-24.026-.112,10.754-.112,24.026-.112,24.024.05,24.024.112" transform="translate(-19.53 -11.843)" fill="#263238"/>
      <path id="Path_5144" data-name="Path 5144" d="M251.9,182.991H236.442V167.537H251.9Zm-15.023-.431h14.592V167.968H236.873Z" transform="translate(-17.744 -12.573)" fill="#16b988"/>
      <path id="Path_5145" data-name="Path 5145" d="M239.764,175.662l2.052-2.2,3.42,2.735,7.826-7.6,1.875,2.21-9.854,9.72Z" transform="translate(-17.993 -12.652)" fill="#cbbfe2"/>
      <path id="Path_5146" data-name="Path 5146" d="M308.292,171.563c0,.062-10.757.112-24.024.112s-24.026-.05-24.026-.112,10.754-.112,24.026-.112,24.024.05,24.024.112" transform="translate(-19.53 -12.867)" fill="#263238"/>
      <path id="Path_5147" data-name="Path 5147" d="M308.292,175.035c0,.062-10.757.112-24.024.112s-24.026-.05-24.026-.112,10.754-.112,24.026-.112,24.024.05,24.024.112" transform="translate(-19.53 -13.127)" fill="#263238"/>
      <path id="Path_5148" data-name="Path 5148" d="M308.292,178.507c0,.062-10.757.112-24.024.112s-24.026-.05-24.026-.112S271,178.4,284.268,178.4s24.024.05,24.024.112" transform="translate(-19.53 -13.388)" fill="#263238"/>
      <path id="Path_5149" data-name="Path 5149" d="M308.292,181.979c0,.062-10.757.112-24.024.112s-24.026-.05-24.026-.112,10.754-.112,24.026-.112,24.024.05,24.024.112" transform="translate(-19.53 -13.648)" fill="#263238"/>
      <path id="Path_5150" data-name="Path 5150" d="M306.6,185.149,296.54,205.978h7.18Z" transform="translate(-22.254 -13.895)" fill="#e0e0e0"/>
      <path id="Path_5151" data-name="Path 5151" d="M304.3,206.1l2.877-20.828,16.491,5.09Z" transform="translate(-22.836 -13.904)" fill="#fafafa"/>
      <path id="Path_5152" data-name="Path 5152" d="M304.3,206.093l5.546-4.565L323.6,190.27l.037.19-6.366-1.962-10.124-3.131.136-.087c-.862,6.05-1.6,11.232-2.125,14.916-.521,3.581-.789,5.43-.857,5.9a.775.775,0,0,1,.009-.092c.009-.074.021-.169.036-.289.036-.269.085-.648.149-1.134.133-1.011.326-2.466.566-4.293.5-3.714,1.2-8.937,2.012-15.034l.016-.124.12.037,10.126,3.119,6.366,1.966.2.061-.16.129-13.92,11.228-4.064,3.266-1.084.869-.278.22c-.062.049-.093.072-.091.069" transform="translate(-22.836 -13.893)" fill="#263238"/>
      <g id="Group_90026" data-name="Group 90026" transform="translate(262.984 49.909)" opacity="0.3">
        <g id="Group_90025" data-name="Group 90025">
          <g id="Group_90024" data-name="Group 90024" clip-path="url(#clip-path-5)">
            <path id="Path_5153" data-name="Path 5153" d="M285.513,53.958,284.32,60.9H285.8l1.2-6.942h-1.891" transform="translate(-284.321 -53.958)"/>
          </g>
        </g>
      </g>
      <path id="Path_5154" data-name="Path 5154" d="M240.214,101.831l2.052-2.2,3.42,2.735,7.826-7.6,1.875,2.21-9.854,9.72Z" transform="translate(-18.027 -7.112)" fill="#cbbfe2"/>
    </g>
    <text id="KYC" transform="translate(316.707 339.93)" fill="#16b988" font-size="24" font-family="Lato-Bold, Lato" font-weight="700"><tspan x="0" y="0">KYC</tspan></text>
    <g id="Group_90039" data-name="Group 90039" transform="translate(390.732 517.441)">
      <g id="Group_90038" data-name="Group 90038" clip-path="url(#clip-path-6)">
        <path id="Path_5227" data-name="Path 5227" d="M91.025,4.891c-7.714,4-13.629,10.875-17.883,18.45s-6.994,15.887-9.71,24.139L61.057,90.04c8.976-15.27,16.18-33.22,18.126-50.825l-5.973-.532c4-.612,7.367-3.513,9.5-6.954s3.24-7.408,4.314-11.314L79.743,21.5A27.008,27.008,0,0,0,91.025,4.891" transform="translate(-17.071 -1.368)" fill="#e0e0e0"/>
        <path id="Path_5228" data-name="Path 5228" d="M51.723,98.644S32.242,75.326,32.466,53.066h7.87s-8.548-5.621-7.872-8.769.9-15.065.9-15.065l7.2,1.8s-5.4-2.7-6.071-6.971S36.064,0,36.064,0s8.769,9.219,11.467,18.663,9.781,20.462,7.7,49.243-3.509,30.738-3.509,30.738" transform="translate(-9.066)" fill="#ebebeb"/>
        <path id="Path_5229" data-name="Path 5229" d="M72.92,110.7s21.106-14.061,25.8-32.007l-6.327-1.722s8.1-2.649,8.247-5.328,2.571-12.309,2.571-12.309l-6.178-.128s4.929-.988,6.407-4.276,4-19.687,4-19.687-9.067,5.493-13.3,12.5-12.34,14.31-16.965,37.9S72.92,110.7,72.92,110.7" transform="translate(-20.386 -9.854)" fill="#ebebeb"/>
        <path id="Path_5230" data-name="Path 5230" d="M44.862,28.222a1.23,1.23,0,0,1,.071.241c.043.181.1.418.17.718.147.656.354,1.583.619,2.767.271,1.2.585,2.675.926,4.39S47.4,40,47.794,42.168c.835,4.323,1.715,9.492,2.622,15.243.879,5.755,1.756,12.1,2.536,18.769.764,6.677,1.357,13.052,1.814,18.857.429,5.806.751,11.041.925,15.44.109,2.2.16,4.19.213,5.938s.089,3.254.1,4.485c.012,1.213.022,2.163.028,2.835,0,.308,0,.552,0,.737a1.243,1.243,0,0,1-.013.251,1.228,1.228,0,0,1-.025-.251c-.009-.185-.02-.429-.035-.736-.023-.671-.056-1.621-.1-2.833-.033-1.23-.084-2.735-.164-4.481s-.143-3.736-.269-5.933c-.207-4.4-.557-9.625-1-15.426-.476-5.8-1.078-12.168-1.842-18.841-.779-6.669-1.645-13.006-2.5-18.76-.888-5.75-1.74-10.921-2.542-15.247-.378-2.168-.764-4.121-1.091-5.837s-.615-3.2-.863-4.4c-.235-1.19-.42-2.122-.55-2.781-.056-.3-.1-.543-.134-.725a1.249,1.249,0,0,1-.033-.25" transform="translate(-12.543 -7.891)" fill="#e0e0e0"/>
        <path id="Path_5231" data-name="Path 5231" d="M39.954,135.634S22.126,115.405,16.59,103.177l4.179-1.786a10.829,10.829,0,0,1-8.481-2.779,32.07,32.07,0,0,1-5.765-7.14l5.5-.93A20.467,20.467,0,0,1,0,81.225c6.5,1.068,12.374,4.637,17.216,9.1A85.621,85.621,0,0,1,27.649,102.41a41.141,41.141,0,0,1,4.052,6.661c3,6.194,8.264,19.135,8.254,26.563" transform="translate(0 -22.71)" fill="#ebebeb"/>
        <path id="Path_5232" data-name="Path 5232" d="M97.164,51.586a1.007,1.007,0,0,1-.081.206l-.274.589-1.084,2.245c-.956,1.942-2.309,4.767-3.947,8.273S88.243,70.6,86.211,75.3c-2.015,4.7-4.162,9.9-6.3,15.406s-4.034,10.8-5.706,15.639c-1.655,4.841-3.084,9.223-4.224,12.92s-2.046,6.7-2.646,8.776c-.3,1.019-.538,1.819-.707,2.39l-.193.619a.964.964,0,0,1-.079.207.971.971,0,0,1,.041-.218c.04-.161.092-.369.158-.629.153-.576.367-1.383.64-2.41.557-2.093,1.418-5.106,2.532-8.814s2.513-8.1,4.152-12.955c1.656-4.845,3.558-10.145,5.683-15.662s4.3-10.709,6.329-15.408c2.051-4.691,3.969-8.885,5.644-12.377s3.06-6.3,4.056-8.226l1.148-2.214.307-.571a1,1,0,0,1,.116-.189" transform="translate(-18.553 -14.423)" fill="#e0e0e0"/>
        <path id="Path_5233" data-name="Path 5233" d="M52.493,155.362a1.455,1.455,0,0,1-.086-.372c-.047-.287-.105-.642-.175-1.073-.136-.934-.37-2.28-.7-3.934s-.779-3.611-1.364-5.761c-.6-2.145-1.342-4.482-2.243-6.89s-1.905-4.647-2.871-6.655c-.983-2-1.931-3.771-2.784-5.225s-1.563-2.622-2.078-3.413l-.578-.921a1.46,1.46,0,0,1-.181-.336,1.462,1.462,0,0,1,.243.293l.638.883c.553.767,1.3,1.913,2.184,3.358s1.862,3.207,2.866,5.208c.987,2.009,1.991,4.26,2.911,6.675s1.639,4.772,2.226,6.932c.568,2.165,1,4.135,1.291,5.8s.488,3.022.58,3.964c.042.436.077.794.105,1.084a1.442,1.442,0,0,1,.012.38" transform="translate(-11.026 -33.77)" fill="#e0e0e0"/>
        <rect id="Rectangle_3032" data-name="Rectangle 3032" width="39.02" height="7.96" transform="translate(25.972 116.834)" fill="#e0e0e0"/>
        <path id="Path_5234" data-name="Path 5234" d="M41.213,173.227l4,22.821H68.794l4.152-22.821Z" transform="translate(-11.523 -48.434)" fill="#e0e0e0"/>
        <path id="Path_5235" data-name="Path 5235" d="M74.1,173.154c0,.1-7.382.187-16.486.187s-16.486-.084-16.486-.187,7.381-.187,16.486-.187,16.486.084,16.486.187" transform="translate(-11.498 -48.361)" fill="#ebebeb"/>
      </g>
    </g>
  </g>
</svg>
