<svg xmlns="http://www.w3.org/2000/svg" width="42.828" height="45.901" viewBox="0 0 42.828 45.901">
  <g id="Group_90233" data-name="Group 90233" transform="translate(16159 15587)">
    <g id="noun-tax-5023027" transform="translate(-16159 -15587)">
      <path id="Path_5302" data-name="Path 5302" d="M251.59,198.689H269.8a.82.82,0,1,0,0-1.639H251.59a.82.82,0,1,0,0,1.639Z" transform="translate(-238.641 -181.873)" fill="#47d7ac"/>
      <path id="Path_5303" data-name="Path 5303" d="M251.59,246.639H269.8a.82.82,0,1,0,0-1.639H251.59a.82.82,0,0,0-.82.82A.836.836,0,0,0,251.59,246.639Z" transform="translate(-238.641 -225.332)" fill="#47d7ac"/>
      <path id="Path_5304" data-name="Path 5304" d="M251.59,295.819H269.8a.82.82,0,1,0,0-1.639H251.59a.836.836,0,0,0-.82.82.819.819,0,0,0,.82.82Z" transform="translate(-238.641 -269.905)" fill="#47d7ac"/>
      <path id="Path_5305" data-name="Path 5305" d="M260.7,342.82h-9.113a.836.836,0,0,0-.82.819.819.819,0,0,0,.82.82H260.7a.82.82,0,1,0,0-1.639Z" transform="translate(-238.64 -313.99)" fill="#47d7ac"/>
      <path id="Path_5306" data-name="Path 5306" d="M260.7,391.48h-9.113a.82.82,0,0,0,0,1.639H260.7a.82.82,0,0,0,0-1.639Z" transform="translate(-238.64 -358.092)" fill="#47d7ac"/>
      <path id="Path_5307" data-name="Path 5307" d="M251.59,150.039h4.557a.82.82,0,1,0,0-1.639H251.59a.836.836,0,0,0-.82.82.819.819,0,0,0,.82.82Z" transform="translate(-238.641 -137.779)" fill="#47d7ac"/>
      <path id="Path_5308" data-name="Path 5308" d="M475.713,416.316a.836.836,0,0,0-1.164,0l-4,4.016A.819.819,0,0,0,471.7,421.5l4.016-4.016a.819.819,0,0,0,0-1.163Z" transform="translate(-437.653 -380.388)" fill="#47d7ac"/>
      <path id="Path_5309" data-name="Path 5309" d="M513.255,458.4a.95.95,0,1,1-.95-.951.95.95,0,0,1,.95.951" transform="translate(-474.818 -417.881)" fill="#47d7ac"/>
      <path id="Path_5310" data-name="Path 5310" d="M470.18,416.294a.951.951,0,0,0,0-1.327.934.934,0,0,0-1.344,0,.951.951,0,0,0,0,1.327.934.934,0,0,0,1.344,0Z" transform="translate(-436.037 -379.12)" fill="#47d7ac"/>
      <path id="Path_5311" data-name="Path 5311" d="M157.8,66.263V48.593a2.345,2.345,0,0,0-.672-1.639l-6.7-6.7a2.644,2.644,0,0,0-.246-.2,5.36,5.36,0,0,0-5.343-5.048H126.627a5.376,5.376,0,0,0-5.36,5.376V67.688a5.376,5.376,0,0,0,5.36,5.376h2.311a5.36,5.36,0,0,0,5.278,4.556h16.391a7.36,7.36,0,1,0,7.179-11.359ZM155,47.151h-4.114a.7.7,0,0,1-.672-.672V42.365ZM122.907,67.688V40.381a3.737,3.737,0,0,1,3.721-3.737h18.211a3.72,3.72,0,0,1,3.639,2.917h-14.26a5.393,5.393,0,0,0-5.376,5.376V71.425h-2.213a3.737,3.737,0,0,1-3.721-3.737Zm11.31,8.294a3.753,3.753,0,0,1-3.737-3.721V44.938a3.754,3.754,0,0,1,3.737-3.737h14.358v5.278a2.344,2.344,0,0,0,2.311,2.311h5.245V66.147a7.36,7.36,0,0,0-6.8,7.31,7.2,7.2,0,0,0,.459,2.459Zm22.521,3.278h0a5.737,5.737,0,1,1,4.056-1.68,5.737,5.737,0,0,1-4.056,1.68Z" transform="translate(-121.267 -35.005)" fill="#47d7ac"/>
    </g>
  </g>
</svg>
