<svg xmlns="http://www.w3.org/2000/svg" width="44.478" height="44.652" viewBox="0 0 44.478 44.652">
  <g id="Group_90093" data-name="Group 90093" transform="translate(18045.328 15447)">
    <path id="Path_5371" data-name="Path 5371" d="M75.715,44.655h26.861c2.6,0,4.709-2.739,4.709-6.1V6.631H114a1.564,1.564,0,0,0,1.2-.555,1.584,1.584,0,0,0,.352-1.288C115.072,1.971,113.181,0,110.949,0h-31.4c-2.6,0-4.709,2.739-4.709,6.1V38.027h-2.18a1.564,1.564,0,0,0-1.2.555,1.584,1.584,0,0,0-.352,1.288c.476,2.817,2.367,4.785,4.6,4.785ZM110.949,1.049c1.684,0,3.185,1.645,3.568,3.913a.537.537,0,0,1-.119.438.512.512,0,0,1-.4.184h-6.695c.189-2.544,1.751-4.535,3.643-4.535ZM75.89,6.107c0-2.789,1.643-5.058,3.663-5.058h28.762a6.74,6.74,0,0,0-2.076,5.058V38.55c0,2.791-1.643,5.058-3.663,5.058-1.762,0-3.314-1.809-3.611-4.207a1.567,1.567,0,0,0-1.554-1.375H75.89Zm-3.623,33.15a.513.513,0,0,1,.4-.184H97.412a.521.521,0,0,1,.516.456,6.431,6.431,0,0,0,2,4.079H75.716c-1.684,0-3.185-1.646-3.568-3.913a.537.537,0,0,1,.119-.438Z" transform="translate(-18116.422 -15447.003)" fill="#47d7ac"/>
    <path id="Path_5372" data-name="Path 5372" d="M194.066,134.218h17.791a1.572,1.572,0,0,0,1.57-1.57v-1.4a1.566,1.566,0,0,0-1.4-1.552v-7.188a1.566,1.566,0,0,0,1.4-1.552v-1.809a1.565,1.565,0,0,0-.837-1.389l-8.41-4.425a2.616,2.616,0,0,0-2.437,0l-8.41,4.425a1.565,1.565,0,0,0-.837,1.389v1.81a1.567,1.567,0,0,0,1.4,1.551V129.7a1.566,1.566,0,0,0-1.4,1.552v1.4a1.572,1.572,0,0,0,1.57,1.572Zm-.523-13.256v-1.81a.524.524,0,0,1,.279-.463l8.407-4.426a1.572,1.572,0,0,1,1.463,0l8.409,4.426a.524.524,0,0,1,.279.463v1.81a.523.523,0,0,1-.523.523H194.066a.523.523,0,0,1-.523-.523Zm17.442,1.57v7.151h-2.093v-7.151Zm-3.14,0v7.151h-2.791v-7.151Zm-3.837,0v7.151h-2.093v-7.151Zm-3.14,0v7.151h-2.791v-7.151Zm-3.837,0v7.151h-2.093v-7.151Zm-3.488,8.721a.523.523,0,0,1,.523-.523h17.791a.523.523,0,0,1,.523.523v1.4a.523.523,0,0,1-.523.523H194.066a.523.523,0,0,1-.523-.523Z" transform="translate(-18228.145 -15551.024)" fill="#47d7ac"/>
    <path id="Path_5373" data-name="Path 5373" d="M305.632,154.314a1.572,1.572,0,1,0-1.109-.46,1.569,1.569,0,0,0,1.109.46Zm0-2.093a.523.523,0,1,1-.523.523A.523.523,0,0,1,305.632,152.221Z" transform="translate(-18330.814 -15586.121)" fill="#47d7ac"/>
    <path id="Path_5374" data-name="Path 5374" d="M385.521,36.047h7.326a.523.523,0,0,0,0-1.047h-7.326a.523.523,0,0,0,0,1.047Z" transform="translate(-18405.297 -15479.209)" fill="#47d7ac"/>
    <path id="Path_5375" data-name="Path 5375" d="M425.061,70h-4.535a.523.523,0,0,0,0,1.047h4.535a.523.523,0,0,0,0-1.047Z" transform="translate(-18437.51 -15511.419)" fill="#47d7ac"/>
    <path id="Path_5376" data-name="Path 5376" d="M165.351,446.25h-7.326a.523.523,0,1,0,0,1.047h7.326a.523.523,0,1,0,0-1.047Z" transform="translate(-18195.941 -15857.669)" fill="#47d7ac"/>
    <path id="Path_5377" data-name="Path 5377" d="M158.021,412.3h4.535a.523.523,0,1,0,0-1.047h-4.535a.523.523,0,1,0,0,1.047Z" transform="translate(-18195.938 -15825.464)" fill="#47d7ac"/>
  </g>
</svg>
