<svg xmlns="http://www.w3.org/2000/svg" xmlns:xlink="http://www.w3.org/1999/xlink" width="389.469" height="342.176" viewBox="0 0 389.469 342.176">
  <defs>
    <clipPath id="clip-path">
      <rect id="Rectangle_2953" data-name="Rectangle 2953" width="389.469" height="279.535" fill="none"/>
    </clipPath>
    <clipPath id="clip-path-2">
      <rect id="Rectangle_2949" data-name="Rectangle 2949" width="98.082" height="61.238" fill="none"/>
    </clipPath>
    <clipPath id="clip-path-3">
      <rect id="Rectangle_2950" data-name="Rectangle 2950" width="36.788" height="22.587" fill="none"/>
    </clipPath>
    <clipPath id="clip-path-4">
      <rect id="Rectangle_2951" data-name="Rectangle 2951" width="9.089" height="30.618" fill="none"/>
    </clipPath>
    <clipPath id="clip-path-5">
      <rect id="Rectangle_2952" data-name="Rectangle 2952" width="21.014" height="3.14" fill="none"/>
    </clipPath>
    <clipPath id="clip-path-6">
      <rect id="Rectangle_2928" data-name="Rectangle 2928" width="43.228" height="6.108" fill="none"/>
    </clipPath>
    <clipPath id="clip-path-7">
      <rect id="Rectangle_2930" data-name="Rectangle 2930" width="22.694" height="26.884" fill="#0b7655"/>
    </clipPath>
    <clipPath id="clip-path-8">
      <rect id="Rectangle_2932" data-name="Rectangle 2932" width="4.544" height="4.544" fill="none"/>
    </clipPath>
    <clipPath id="clip-path-10">
      <rect id="Rectangle_2937" data-name="Rectangle 2937" width="5.294" height="8.337" fill="none"/>
    </clipPath>
    <clipPath id="clip-path-11">
      <rect id="Rectangle_2940" data-name="Rectangle 2940" width="10.988" height="5.674" fill="none"/>
    </clipPath>
    <clipPath id="clip-path-12">
      <rect id="Rectangle_2944" data-name="Rectangle 2944" width="45.812" height="6.722" fill="none"/>
    </clipPath>
    <clipPath id="clip-path-13">
      <rect id="Rectangle_2945" data-name="Rectangle 2945" width="1.3" height="2.015" fill="none"/>
    </clipPath>
  </defs>
  <g id="Group_89925" data-name="Group 89925" transform="translate(-103.188 -261.247)">
    <path id="Path_4651" data-name="Path 4651" d="M303.773,380.174c0,.129-68.007.232-151.879.232-83.9,0-151.894-.1-151.894-.232s67.993-.232,151.894-.232c83.872,0,151.879.1,151.879.232" transform="translate(139.339 222.24)" fill="#263238"/>
    <g id="Group_89922" data-name="Group 89922" transform="translate(103.188 323.888)" clip-path="url(#clip-path)">
      <path id="Path_4652" data-name="Path 4652" d="M295.083,33.142a26.945,26.945,0,0,1,8.879,23.3c-.529,4.17-1.917,8.891.649,12.22,2.54,3.295,7.838,3.463,10.263,6.845,2.854,3.981.028,9.559.883,14.382a9.7,9.7,0,0,0,9.948,7.7,37.836,37.836,0,0,1-19.137,7.214l-4.914-6.989c1.872,2.454,1.16,6.185-.883,8.5s-5.078,3.48-8.062,4.268a48.016,48.016,0,0,1-41.7-8.889" transform="translate(-66.664 -8.802)" fill="#263238"/>
      <path id="Path_4653" data-name="Path 4653" d="M201.093,57.473c1.205-3.158,3.11-6.046,3.978-9.312,1.864-7.022-1.2-15.178,2.554-21.4,2.673-4.427,8-6.4,13.012-7.675s10.371-2.308,14.229-5.751c2.83-2.525,4.545-6.109,7.365-8.643C246.251,1.082,251.975.071,257.378,0c5.549-.069,11.244.742,16.1,3.428s8.765,7.473,9.384,12.988c.3,2.689-.162,5.468.553,8.079.787,2.869,2.9,5.175,4.135,7.881a14.233,14.233,0,0,1-4.388,16.866l-40.386,47.2c-8.127,2.623-27.282-1.968-33.161-8.163s-11.566-22.836-8.521-30.815" transform="translate(-53.182 0)" fill="#263238"/>
      <path id="Path_4654" data-name="Path 4654" d="M290.339,50.034c-1.021-11.216-8.847-24.795-20.01-23.3l-34.712,9.808a6.59,6.59,0,0,0-5.709,6.845l6.085,84.193-.24.059s8.571,23.573,31.49,15.718c4.545-1.558,6.508-6.622,7.284-11.8l.058-13.322c-.109-6.807-.188-9.6-.181-9.535,0,0,14.288-2.783,16.741-21.593,1.221-9.355.328-24.613-.806-37.074" transform="translate(-61.058 -7.07)" fill="#ffbe9d"/>
      <path id="Path_4655" data-name="Path 4655" d="M268.74,81.194a2.4,2.4,0,0,1-2.249,2.487,2.3,2.3,0,0,1-2.536-2.1A2.4,2.4,0,0,1,266.2,79.1a2.3,2.3,0,0,1,2.539,2.1" transform="translate(-70.101 -21.004)" fill="#263238"/>
      <path id="Path_4656" data-name="Path 4656" d="M302.6,80.082a2.4,2.4,0,0,1-2.249,2.487,2.3,2.3,0,0,1-2.536-2.1,2.4,2.4,0,0,1,2.246-2.489,2.3,2.3,0,0,1,2.539,2.1" transform="translate(-79.094 -20.709)" fill="#263238"/>
      <path id="Path_4657" data-name="Path 4657" d="M305.594,68.851c-.281.426-2.439-1.091-5.246-.822-2.808.223-4.689,2.094-5.037,1.722-.169-.163.085-.908.9-1.751a6.445,6.445,0,0,1,3.98-1.868,6.377,6.377,0,0,1,4.228,1.148c.946.69,1.315,1.378,1.174,1.57" transform="translate(-78.417 -17.558)" fill="#263238"/>
      <path id="Path_4658" data-name="Path 4658" d="M269.921,71.025c-.349.387-2.462-1.31-5.465-1.329-3-.065-5.213,1.571-5.538,1.174-.159-.176.192-.877,1.158-1.617a7.278,7.278,0,0,1,4.434-1.424,7.09,7.09,0,0,1,4.348,1.546c.919.768,1.232,1.477,1.063,1.65" transform="translate(-68.755 -18.014)" fill="#263238"/>
      <path id="Path_4659" data-name="Path 4659" d="M286.255,89.03c-.017-.147,1.583-.469,4.177-.874.659-.087,1.279-.235,1.377-.689a3.355,3.355,0,0,0-.494-1.944q-1-2.37-2.092-4.971c-2.909-7.08-5.034-12.909-4.749-13.023s2.877,5.531,5.786,12.611q1.051,2.62,2.01,5a3.82,3.82,0,0,1,.414,2.581,1.658,1.658,0,0,1-1.059,1,4.491,4.491,0,0,1-1.116.187c-2.617.214-4.241.271-4.255.124" transform="translate(-75.545 -17.934)" fill="#263238"/>
      <path id="Path_4660" data-name="Path 4660" d="M281.359,136.216a47.665,47.665,0,0,1-25.268-5.994s6.67,12.969,25.366,10.7Z" transform="translate(-68.014 -34.585)" fill="#eb996e"/>
      <path id="Path_4661" data-name="Path 4661" d="M282.883,104.729a4.66,4.66,0,0,0-4.224-1.614,4.253,4.253,0,0,0-2.892,1.657,2.694,2.694,0,0,0-.119,3.086,3.126,3.126,0,0,0,3.412.762,9.776,9.776,0,0,0,3.248-2.063,2.833,2.833,0,0,0,.717-.785.862.862,0,0,0-.03-.961" transform="translate(-73.093 -27.374)" fill="#ff725e"/>
      <path id="Path_4662" data-name="Path 4662" d="M276.48,99.528c.42-.036.5,2.769,2.96,4.694s5.435,1.533,5.467,1.925c.044.175-.65.563-1.911.633a6.994,6.994,0,0,1-4.56-1.448,6.086,6.086,0,0,1-2.3-3.941c-.14-1.169.154-1.873.346-1.862" transform="translate(-73.327 -26.433)" fill="#263238"/>
      <path id="Path_4663" data-name="Path 4663" d="M269.908,62.037c-.235.709-2.825.449-5.847.9-3.032.389-5.452,1.345-5.872.726-.188-.3.22-.969,1.19-1.677a10.287,10.287,0,0,1,8.928-1.237c1.126.418,1.7.955,1.6,1.291" transform="translate(-68.559 -15.997)" fill="#263238"/>
      <path id="Path_4664" data-name="Path 4664" d="M302.753,54.632c-.5.6-2.555.048-5,.088-2.449-.036-4.508.52-5-.081-.217-.292.093-.889.983-1.47A7.667,7.667,0,0,1,297.77,52.1a7.575,7.575,0,0,1,4.022,1.069c.881.579,1.182,1.176.961,1.469" transform="translate(-77.732 -13.836)" fill="#263238"/>
      <path id="Path_4665" data-name="Path 4665" d="M226.5,38.611c1.852-2.568,5.016-3.78,8.021-4.774A172.158,172.158,0,0,1,274.572,25.7c1.548,2.858-.193,6.56-2.833,8.456s-5.945,2.534-9.041,3.523-6.3,2.588-7.7,5.522c-1.489,3.121-.549,6.948-1.879,10.139-2.287,5.49-10.176,6.912-12.431,12.415-1.706,4.163.526,8.792.922,13.273a16.072,16.072,0,0,1-16.662,17.506q-.21-24.124-.421-48.25c-.03-3.35.018-6.955,1.977-9.672" transform="translate(-59.63 -6.825)" fill="#263238"/>
      <path id="Path_4666" data-name="Path 4666" d="M179.126,81.055c2.644-2.146,5.916-3.954,7.085-7.152,1.7-4.659-1.826-10.4.832-14.594,2.424-3.82,8.988-3.3,11.26-7.213,1.773-3.055.048-5.921.8-8.644s4.777-4.947,7.562-4.481l20.349,32.817c1.513,10.748,3.281,16.517.69,22.635-1.421,3.356-3.22,6.606-3.887,10.189s.053,7.714,2.9,9.992c-13.146.386-25.083-7.069-36.1-14.252l-11.66-7.6a8.776,8.776,0,0,1-3.163-2.909c-1.616-3,.691-6.64,3.335-8.786" transform="translate(-46.545 -10.334)" fill="#263238"/>
      <path id="Path_4667" data-name="Path 4667" d="M195.936,89.249a6.281,6.281,0,0,0,1.387.337,11.932,11.932,0,0,0,4.093-.09,12.651,12.651,0,0,0,5.84-2.784,12.439,12.439,0,0,0,4.12-7.472,12.822,12.822,0,0,0-.184-5.043A20.5,20.5,0,0,0,209,69.211a19.29,19.29,0,0,1-2.262-5.172,6.516,6.516,0,0,1,.973-5.518c1.27-1.538,3.5-1.82,5.595-2.547a6,6,0,0,0,2.894-1.932,5.866,5.866,0,0,0,1.069-3.39c.089-2.4-.825-4.642-1.155-6.894a7.456,7.456,0,0,1,.142-3.346,4.673,4.673,0,0,1,2.02-2.564c1.956-1.257,4.379-1.355,6.711-1.445a14.217,14.217,0,0,0,6.847-1.655,12.735,12.735,0,0,0,4.865-4.782,20.978,20.978,0,0,0,2.012-6.193,29.345,29.345,0,0,1,1.572-5.825,13.1,13.1,0,0,1,3.307-4.492,14.724,14.724,0,0,1,17.29-1.572,17.962,17.962,0,0,1,4.856,4.089,23.741,23.741,0,0,1,2.9,4.62,1.331,1.331,0,0,0-.109-.346c-.091-.221-.2-.564-.406-.983a17.208,17.208,0,0,0-2.154-3.48,17.846,17.846,0,0,0-4.871-4.27,15.381,15.381,0,0,0-8.26-2.258,15.627,15.627,0,0,0-9.661,3.721,13.719,13.719,0,0,0-3.507,4.7,29.824,29.824,0,0,0-1.646,5.949,20.394,20.394,0,0,1-1.956,5.975,12.019,12.019,0,0,1-4.594,4.488,13.48,13.48,0,0,1-6.519,1.551c-2.308.094-4.9.163-7.09,1.562a5.446,5.446,0,0,0-2.334,2.975,8.191,8.191,0,0,0-.167,3.687c.365,2.386,1.247,4.556,1.159,6.762a5.132,5.132,0,0,1-.911,2.966,5.278,5.278,0,0,1-2.551,1.691c-1,.365-2.064.6-3.1.978a6.227,6.227,0,0,0-2.787,1.8,7.174,7.174,0,0,0-1.091,6.111,19.8,19.8,0,0,0,2.366,5.341,20.055,20.055,0,0,1,2.175,4.821,12.331,12.331,0,0,1,.221,4.816,12.04,12.04,0,0,1-3.867,7.233,12.506,12.506,0,0,1-5.619,2.815,14.179,14.179,0,0,1-5.42.044" transform="translate(-52.038 -2.458)" fill="#455a64"/>
      <path id="Path_4668" data-name="Path 4668" d="M173.43,65.571a2.758,2.758,0,0,0-.484,1.049,4.7,4.7,0,0,0,.4,3.275,4.984,4.984,0,0,0,1.589,1.844,5.223,5.223,0,0,0,2.761.882,6.548,6.548,0,0,0,5.914-3.361,8.778,8.778,0,0,0,1.129-3.947,12.229,12.229,0,0,0-.709-4.373c-.9-2.885-2.651-5.739-2.531-9.052a6.06,6.06,0,0,1,1.741-4.429c1.225-1.125,3.042-1.326,4.833-1.254,1.8.027,3.742.353,5.7-.31a4.936,4.936,0,0,0,2.427-1.849,7.044,7.044,0,0,0,1.1-2.843,23.185,23.185,0,0,0-.189-5.846,12.81,12.81,0,0,1,.568-5.381,13.638,13.638,0,0,1,6.486-7.7c2.922-1.572,6.216-1.6,9.183-1.629a26.827,26.827,0,0,0,8.354-.9,17.62,17.62,0,0,0,9.465-7.374,12.442,12.442,0,0,0,1.762-4.08,24.049,24.049,0,0,1-2.012,3.918,17.484,17.484,0,0,1-3.442,3.805,17.1,17.1,0,0,1-5.934,3.215,26.681,26.681,0,0,1-8.2.784c-2.966.01-6.38-.012-9.506,1.638a14.31,14.31,0,0,0-6.871,8.088,13.54,13.54,0,0,0-.615,5.681,22.837,22.837,0,0,1,.192,5.655,4.888,4.888,0,0,1-3.029,4.1c-1.686.588-3.58.313-5.423.277-1.818-.068-3.9.127-5.342,1.461A6.747,6.747,0,0,0,180.8,51.87a12.88,12.88,0,0,0,.96,4.937c.562,1.516,1.2,2.928,1.673,4.332a11.694,11.694,0,0,1,.722,4.149,8.254,8.254,0,0,1-1.008,3.7,6.1,6.1,0,0,1-5.432,3.2,4.869,4.869,0,0,1-2.572-.758,4.732,4.732,0,0,1-1.528-1.679,4.674,4.674,0,0,1-.516-3.1c.149-.725.372-1.066.333-1.084" transform="translate(-45.896 -2.202)" fill="#263238"/>
      <path id="Path_4669" data-name="Path 4669" d="M347.887,86.49a5.188,5.188,0,0,1-.211,3.422,4.516,4.516,0,0,1-2.857,2.627,4.738,4.738,0,0,1-4.743-1.548,4.354,4.354,0,0,1-.991-2.8,9.057,9.057,0,0,1,.663-3.29c.8-2.183,2.341-4.526,2.265-7.427a10.579,10.579,0,0,0-3.613-7.764,12.4,12.4,0,0,0-3.976-2.349,18.167,18.167,0,0,0-4.631-.9,24.492,24.492,0,0,1-4.5-.7,6.027,6.027,0,0,1-3.417-2.363,7.415,7.415,0,0,1-1.084-3.937,14.754,14.754,0,0,1,.537-4.022c.664-2.591,1.572-5.1,1.549-7.6a11.628,11.628,0,0,0-2.028-6.478,15.014,15.014,0,0,0-4.091-3.815,28.205,28.205,0,0,1-3.3-2.524,8.784,8.784,0,0,1-2.011-2.862c-.013,0,0,.082.045.232a3.735,3.735,0,0,0,.23.654,7.017,7.017,0,0,0,1.527,2.187A26.067,26.067,0,0,0,316.5,37.9a14.845,14.845,0,0,1,3.893,3.769,11.147,11.147,0,0,1,1.843,6.174c0,2.363-.9,4.792-1.6,7.432a15.392,15.392,0,0,0-.584,4.21,8.114,8.114,0,0,0,1.189,4.337,6.771,6.771,0,0,0,3.823,2.678,24.893,24.893,0,0,0,4.648.728,17.616,17.616,0,0,1,4.448.853,11.707,11.707,0,0,1,3.739,2.194,9.9,9.9,0,0,1,3.406,7.213c.1,2.654-1.325,4.9-2.156,7.2a9.571,9.571,0,0,0-.658,3.525,4.9,4.9,0,0,0,1.17,3.132,5.184,5.184,0,0,0,5.272,1.608,5,5,0,0,0,3.27-5.585,2.742,2.742,0,0,0-.322-.875" transform="translate(-82.714 -8.542)" fill="#263238"/>
      <path id="Path_4670" data-name="Path 4670" d="M216.53,31.939c-1.257,4.158-4.935,7.053-7.346,10.666-3.4,5.095-4.182,11.483-4.257,17.608.174-2.886-.983-5.663-1.547-8.5a20.966,20.966,0,0,1,14.084-24.036" transform="translate(-53.91 -7.351)" fill="#263238"/>
      <path id="Path_4671" data-name="Path 4671" d="M227.844,155.1c2.464-.69-12.181,4.906-12.481,5l13.077,21.3,50.7,10.788L298.219,161.2l-38.552-11.5Z" transform="translate(-57.197 -39.758)" fill="#ffbe9d"/>
      <path id="Path_4672" data-name="Path 4672" d="M284.311,228.849l30.9-13.285s-11.74-40.782-14.83-45.107S265.4,156.235,265.4,156.235s-11.023,18.385-29.869,19.621-25.992-.72-29.7-17.095c0,0-31.56,7.285-34.031,10.065s-19.1,48.591-19.1,48.591,32.749,9.268,33.984,9.886,3.4,49.124,3.4,49.124-14.628,37.8-15.219,44.6l119.982-.308L282.457,249.24Z" transform="translate(-40.554 -41.494)" fill="#455a64"/>
      <path id="Path_4673" data-name="Path 4673" d="M186.421,205.023a10.121,10.121,0,0,1,.492,1.456c.3,1.017.7,2.371,1.179,4.011.978,3.392,2.3,8.084,3.728,13.274l2,7.324c.3,1.127.607,2.193.859,3.207s.444,1.961.614,2.828c.336,1.735.568,3.145.727,4.119a10.46,10.46,0,0,1,.2,1.522,1.35,1.35,0,0,1-.12-.38l-.254-1.109c-.22-1.036-.511-2.415-.865-4.087-.189-.861-.4-1.8-.665-2.8l-.9-3.182-2.035-7.318c-1.431-5.193-2.7-9.9-3.6-13.316l-1.042-4.048a10.008,10.008,0,0,1-.323-1.5" transform="translate(-49.509 -54.451)" fill="#263238"/>
      <path id="Path_4674" data-name="Path 4674" d="M271.282,291.734a2.05,2.05,0,0,1-.353.342l-1.067.916c-.929.793-2.308,1.9-4.044,3.224a140.414,140.414,0,0,1-29.4,17.185c-2.007.861-3.646,1.52-4.793,1.94l-1.321.48a2.105,2.105,0,0,1-.471.14,2,2,0,0,1,.438-.223l1.29-.558c1.125-.469,2.744-1.172,4.73-2.068a160.359,160.359,0,0,0,29.343-17.149c1.755-1.291,3.162-2.356,4.123-3.107l1.119-.849a2.079,2.079,0,0,1,.41-.273" transform="translate(-61.039 -77.48)" fill="#263238"/>
      <g id="Group_89912" data-name="Group 89912" transform="translate(149.196 178.239)" opacity="0.2">
        <g id="Group_89911" data-name="Group 89911">
          <g id="Group_89910" data-name="Group 89910" clip-path="url(#clip-path-2)">
            <path id="Path_4675" data-name="Path 4675" d="M288.469,262.5c-5.837-6.944-13.992-11.557-22.382-15.007-8.513-3.5-17.857-5.977-26.89-4.205-8.332,1.633-15.528,6.688-22.4,11.681a28.009,28.009,0,0,0-6.2,5.538,26.79,26.79,0,0,0-3.7,8.178c-2.346,7.43-2.131,16.077-3.754,23.7l.065,1.356c1.572.478,2.274-.251,3.718-1.036,8.61-4.672,12.1-16.885,21.6-19.259a44.75,44.75,0,0,1,5.286-.707,30.023,30.023,0,0,0,12.834-4.914c1.556-1.042,3.138-2.259,5.006-2.392,1.972-.14,3.79.961,5.511,1.933a56.6,56.6,0,0,0,16,6.063,5.152,5.152,0,0,1,2.135.785,5.055,5.055,0,0,1,1.422,2.471c2.1,6.038,4.765,11.965,8.772,16.944s9.475,8.975,15.726,10.31c-1.25-14.642-3.308-30.19-12.764-41.438" transform="translate(-203.15 -242.695)"/>
          </g>
        </g>
      </g>
      <g id="Group_89915" data-name="Group 89915" transform="translate(176.095 220.832)" opacity="0.2">
        <g id="Group_89914" data-name="Group 89914">
          <g id="Group_89913" data-name="Group 89913" clip-path="url(#clip-path-3)">
            <path id="Path_4676" data-name="Path 4676" d="M239.777,322.47c6.632,2.3,17.67-.712,23.8-4.13s11.456-10.8,12.985-17.649c-10.332,6.716-25.525,16.776-36.787,21.78" transform="translate(-239.776 -300.69)"/>
          </g>
        </g>
      </g>
      <g id="Group_89918" data-name="Group 89918" transform="translate(137.041 154.627)" opacity="0.2">
        <g id="Group_89917" data-name="Group 89917">
          <g id="Group_89916" data-name="Group 89916" clip-path="url(#clip-path-4)">
            <path id="Path_4677" data-name="Path 4677" d="M191.436,224.217c-1.428-4.455-2.493-9.217-3.92-13.672h-.164a44.35,44.35,0,0,0,.043,16.5,25.883,25.883,0,0,0,8.294,14.119,127.784,127.784,0,0,0-4.252-16.945" transform="translate(-186.599 -210.545)"/>
          </g>
        </g>
      </g>
      <path id="Path_4678" data-name="Path 4678" d="M184.473,184.805a31.717,31.717,0,0,1-3.179-10.458c.128-.025.684,2.357,1.564,5.237s1.735,5.171,1.615,5.221" transform="translate(-48.144 -46.304)" fill="#263238"/>
      <path id="Path_4679" data-name="Path 4679" d="M340.6,188.1c.122.018-1.4,10.57-3.391,23.565s-3.711,23.518-3.833,23.5,1.4-10.568,3.391-23.567,3.711-23.515,3.833-23.5" transform="translate(-88.538 -49.955)" fill="#263238"/>
      <path id="Path_4680" data-name="Path 4680" d="M271.834,157.336c-14.468-8.444-41.3-4.176-41.3-4.176a17.371,17.371,0,0,0-17.121-6.212,2.234,2.234,0,0,0-1.821,2.241l.182,11.008c-10.991,4.522-13.578,18.668-13.578,18.668l-4.95,1.388a4.094,4.094,0,0,0-2.988,4.011l.176,10.655a4.1,4.1,0,0,0,3.231,3.935l4.88,1.053c5.791,9.017,11.47,13.89,19.121,16.444l.187,9.491,15.619-.259L237.09,219l17.619-.463L257.6,225.7l16.225-.785.167-11.16c11.133-9.081,14.156-14.9,14.408-27.053s-2.562-21.194-16.563-29.366" transform="translate(-50.53 -38.942)" fill="#16b988"/>
      <path id="Path_4681" data-name="Path 4681" d="M213.073,186.382a2.406,2.406,0,1,0,.587-.175" transform="translate(-56.232 -49.447)" fill="#263238"/>
      <path id="Path_4682" data-name="Path 4682" d="M224.2,161.423a14.853,14.853,0,0,1-.228-1.937,29.458,29.458,0,0,0-2.453-8.989,14.961,14.961,0,0,1-.787-1.785,7.471,7.471,0,0,1,1.031,1.667,23.009,23.009,0,0,1,2.479,9.084,7.424,7.424,0,0,1-.041,1.959" transform="translate(-58.623 -39.496)" fill="#263238"/>
      <g id="Group_89921" data-name="Group 89921" transform="translate(184.832 118.451)" opacity="0.3">
        <g id="Group_89920" data-name="Group 89920">
          <g id="Group_89919" data-name="Group 89919" clip-path="url(#clip-path-5)">
            <path id="Path_4683" data-name="Path 4683" d="M251.673,162.56l1.019,1.866a60.483,60.483,0,0,1,20-.331l-1.937-2.12a47.954,47.954,0,0,0-19.076.585" transform="translate(-251.673 -161.286)"/>
          </g>
        </g>
      </g>
      <path id="Path_4684" data-name="Path 4684" d="M195.594,204.232c.018,1.107-.386,2.012-.9,2.02s-.952-.881-.97-1.989.386-2.012.9-2.02.952.882.97,1.989" transform="translate(-51.449 -53.713)" fill="#263238"/>
      <path id="Path_4685" data-name="Path 4685" d="M193.185,209.682a5.4,5.4,0,0,0,.886.145,2.8,2.8,0,0,0,2.167-.837,5.726,5.726,0,0,0,.976-1.354,8.467,8.467,0,0,0,.6-1.833,17.411,17.411,0,0,0,.538-4.429,16.626,16.626,0,0,0-.576-4.415,5.068,5.068,0,0,0-2.043-2.852,3.894,3.894,0,0,0-2.3-.631c-.575.038-.876.184-.889.148-.005-.012.066-.052.209-.119a2.707,2.707,0,0,1,.665-.177,3.863,3.863,0,0,1,2.454.547,5.257,5.257,0,0,1,2.237,2.974,16.122,16.122,0,0,1,.624,4.521,16.927,16.927,0,0,1-.579,4.52,8.432,8.432,0,0,1-.661,1.9,5.85,5.85,0,0,1-1.066,1.4,2.573,2.573,0,0,1-1.273.717,3.265,3.265,0,0,1-1.094.076,2.254,2.254,0,0,1-.67-.168c-.145-.064-.212-.115-.206-.125" transform="translate(-51.137 -51.337)" fill="#263238"/>
      <path id="Path_4686" data-name="Path 4686" d="M280.119,240.219a2.54,2.54,0,0,1-.492.141l-1.428.331c-1.24.288-3.049.643-5.294,1.025s-4.932.756-7.926,1.073c-3,.3-6.3.529-9.776.622s-6.788.01-9.8-.138c-3.007-.169-5.71-.4-7.97-.681s-4.085-.535-5.337-.762l-1.442-.261a2.519,2.519,0,0,1-.5-.116,2.581,2.581,0,0,1,.511.04l1.452.189c1.258.181,3.085.405,5.344.64s4.958.449,7.957.6c3,.129,6.3.187,9.77.109,3.465-.093,6.76-.314,9.751-.59,2.988-.3,5.673-.637,7.918-.99s4.058-.66,5.306-.9l1.442-.261a2.576,2.576,0,0,1,.508-.065" transform="translate(-61.127 -63.797)" fill="#263238"/>
      <path id="Path_4687" data-name="Path 4687" d="M239.684,155.413a2.781,2.781,0,0,1-.106.783,12.335,12.335,0,0,1-.638,2.059,14.1,14.1,0,0,1-10.639,8.621,12.381,12.381,0,0,1-2.146.2,2.8,2.8,0,0,1-.788-.059c0-.073,1.127-.031,2.882-.4a14.665,14.665,0,0,0,10.443-8.463c.729-1.639.923-2.753.994-2.735" transform="translate(-59.854 -41.275)" fill="#263238"/>
      <path id="Path_4688" data-name="Path 4688" d="M214.418,166.934c.037.056-.867.671-2.2,1.815a29.66,29.66,0,0,0-8.014,10.975c-.685,1.618-1,2.667-1.06,2.648a2.97,2.97,0,0,1,.156-.755,18.751,18.751,0,0,1,.652-1.994,26.358,26.358,0,0,1,8.093-11.082,18.5,18.5,0,0,1,1.7-1.229,2.978,2.978,0,0,1,.671-.379" transform="translate(-53.951 -44.335)" fill="#fff"/>
      <path id="Path_4689" data-name="Path 4689" d="M194.617,192.435a22.819,22.819,0,0,1,3.964-.983,7.306,7.306,0,0,1-3.964.983" transform="translate(-51.687 -50.84)" fill="#fff"/>
      <path id="Path_4690" data-name="Path 4690" d="M191.212,206.988a6.5,6.5,0,0,1-.328-1.669,33.113,33.113,0,0,1,.009-8.189,6.511,6.511,0,0,1,.332-1.669c.114.016-.212,2.583-.208,5.764s.309,5.748.195,5.763" transform="translate(-50.63 -51.911)" fill="#fff"/>
      <path id="Path_4691" data-name="Path 4691" d="M220.059,149.284c.115.013-.143,2.523-.084,5.623s.385,5.6.271,5.618a6.214,6.214,0,0,1-.345-1.622,32.378,32.378,0,0,1-.308-3.989,32.013,32.013,0,0,1,.177-4,6.294,6.294,0,0,1,.29-1.633" transform="translate(-58.319 -39.648)" fill="#fff"/>
      <path id="Path_4692" data-name="Path 4692" d="M234.247,150.2a22.421,22.421,0,0,0-12.382-2.353,6.43,6.43,0,0,1,1.862-.333,17.1,17.1,0,0,1,8.906,1.692,6.452,6.452,0,0,1,1.613.994" transform="translate(-58.924 -39.161)" fill="#fff"/>
      <path id="Path_4693" data-name="Path 4693" d="M273.113,166.127c-.013.06-1.123-.142-2.93-.368a54.051,54.051,0,0,0-14.17.072c-1.8.245-2.913.458-2.925.4a3.179,3.179,0,0,1,.762-.231c.5-.127,1.221-.278,2.122-.435a43.951,43.951,0,0,1,14.249-.073c.9.148,1.63.292,2.127.413a3.2,3.2,0,0,1,.765.223" transform="translate(-67.216 -43.807)" fill="#fff"/>
      <path id="Path_4694" data-name="Path 4694" d="M276.289,156.805a6.4,6.4,0,0,1-1.113-.191c-.709-.153-1.738-.353-3.013-.576a69.044,69.044,0,0,0-20.144-.56c-1.285.151-2.324.294-3.04.407a6.391,6.391,0,0,1-1.121.129,6.357,6.357,0,0,1,1.1-.275c.709-.159,1.745-.343,3.032-.529a60.351,60.351,0,0,1,20.227.562c1.274.258,2.3.5,3,.7a6.357,6.357,0,0,1,1.078.336" transform="translate(-65.827 -41.064)" fill="#fff"/>
      <path id="Path_4695" data-name="Path 4695" d="M224.348,233.532a2.7,2.7,0,0,1-.725-.09,17.17,17.17,0,0,1-1.932-.473,24.072,24.072,0,0,1-10.962-6.979,17.209,17.209,0,0,1-1.247-1.55,2.714,2.714,0,0,1-.388-.619c.054-.04.68.785,1.833,1.985a27.149,27.149,0,0,0,10.847,6.9c1.575.537,2.588.755,2.574.82" transform="translate(-55.532 -59.443)" fill="#fff"/>
      <path id="Path_4696" data-name="Path 4696" d="M306.934,220.593a7.384,7.384,0,0,1-.626,1.038,11.648,11.648,0,0,1-.822,1.16c-.343.436-.709.954-1.19,1.461a21.456,21.456,0,0,1-1.58,1.652c-.576.59-1.261,1.141-1.968,1.738a29.273,29.273,0,0,1-10.67,5.408c-.9.217-1.749.444-2.565.56a21.312,21.312,0,0,1-2.267.3c-.694.089-1.329.077-1.882.1a11.607,11.607,0,0,1-1.422-.023,7.478,7.478,0,0,1-1.207-.109,7.316,7.316,0,0,1,1.21-.04,13.933,13.933,0,0,0,1.412-.041c.549-.04,1.177-.047,1.862-.152.688-.079,1.441-.17,2.238-.341.8-.128,1.642-.364,2.529-.588a30.391,30.391,0,0,0,10.545-5.344c.7-.582,1.389-1.119,1.968-1.692.608-.541,1.127-1.094,1.6-1.6.49-.491.867-.993,1.224-1.412a13.773,13.773,0,0,0,.868-1.114,7.4,7.4,0,0,1,.748-.952" transform="translate(-74.559 -58.586)" fill="#fff"/>
      <path id="Path_4697" data-name="Path 4697" d="M159.286,242.124c-.02-.006-5.958,34.474-6.729,40.336s.814,19.21,5.6,23.221,8.8,5.021,12.2,4.4,14.038-11.724,18.049-16.2,24.148-40.7,24.148-40.7l-18.595-8.268L183.083,258.1l2.452-8.353Z" transform="translate(-40.467 -64.304)" fill="#ffbe9d"/>
      <path id="Path_4698" data-name="Path 4698" d="M186.184,263.313a7.223,7.223,0,0,1-.724,1.058l-2.089,2.8c-.893,1.173-1.967,2.562-3.215,4.064a48.311,48.311,0,0,1-4.33,4.659,30.239,30.239,0,0,1-5.213,3.657c-1.674,1-3.174,1.9-4.355,2.762a23.19,23.19,0,0,0-3.5,3.184c-.012-.01.046-.108.17-.287a7.578,7.578,0,0,1,.58-.757,15.949,15.949,0,0,1,2.564-2.393,49.408,49.408,0,0,1,4.33-2.861,31.56,31.56,0,0,0,5.125-3.635,52.428,52.428,0,0,0,4.316-4.594c1.259-1.481,2.357-2.847,3.281-3.993l2.2-2.709a6.868,6.868,0,0,1,.861-.95" transform="translate(-43.225 -69.932)" fill="#eb996e"/>
      <path id="Path_4699" data-name="Path 4699" d="M210.576,234.785s5.8-4.875,7.628-3.457,1.935,2.728,1.172,3.71-5.149,6.552-5.149,6.552l3.241,3.061,5.767-1.882,2.474-.59s5.93.14,4.669,4.124c0,0,6.135-1.955,7.244-2.047,1.7-.14,5.965-.566,5.357,1.644a4.823,4.823,0,0,1-2.982,3s2.731.873,1.094,3.273a7.17,7.17,0,0,1-3.889,2.923l-9.664,3.872a5.224,5.224,0,0,1-3.692.073l-3.051-1.085-6,2.619s-12.113-3.491-13.858-14.077l1.577-3.28,1.032-1.937s-1.428-9.032-1.445-10.254c-.011-.853-1.735-4.761-2.774-7.039a1.386,1.386,0,0,1,1.477-1.943,9.019,9.019,0,0,1,4.337,2.258c4.166,3.525,4.681,7.136,4.681,7.136l.881,3.552" transform="translate(-52.903 -58.967)" fill="#ffbe9d"/>
      <path id="Path_4700" data-name="Path 4700" d="M208.623,242.1c-.021-.029.405-.328,1.1-.959s1.622-1.615,2.815-2.809c.6-.6,1.305-1.2,2.069-1.83a12.663,12.663,0,0,1,2.657-1.772,4.72,4.72,0,0,1,1.71-.451,3.318,3.318,0,0,1,.929.078,1.882,1.882,0,0,1,.472.149,3.393,3.393,0,0,1,.411.251,2.6,2.6,0,0,1,.7.7,1.532,1.532,0,0,1,.173.489l.131.444a1.843,1.843,0,0,1,.089,1.041,7.734,7.734,0,0,1-.327.925,14.262,14.262,0,0,1-2.043,3.19,27.2,27.2,0,0,1-2.358,2.6,16.4,16.4,0,0,1-4.81,3.478,4.771,4.771,0,0,1-3.956-.059,3.014,3.014,0,0,1-.876-.661.986.986,0,0,1-.223-.309,4.239,4.239,0,0,0,4.945.754,16.679,16.679,0,0,0,4.65-3.48,27.853,27.853,0,0,0,2.306-2.579,14.139,14.139,0,0,0,1.979-3.1,7.538,7.538,0,0,0,.311-.877,1.489,1.489,0,0,0-.087-.809l-.132-.452a1.134,1.134,0,0,0-.125-.381,2.234,2.234,0,0,0-.588-.58,2.916,2.916,0,0,0-.357-.221,1.5,1.5,0,0,0-.378-.117,2.891,2.891,0,0,0-.82-.073,4.366,4.366,0,0,0-1.572.4,12.64,12.64,0,0,0-2.6,1.691c-.772.616-1.479,1.193-2.081,1.773-1.21,1.157-2.172,2.131-2.914,2.719a10.766,10.766,0,0,1-.872.65,1.3,1.3,0,0,1-.331.186" transform="translate(-55.052 -62.221)" fill="#eb996e"/>
      <path id="Path_4701" data-name="Path 4701" d="M213.118,239.6a13.94,13.94,0,0,1-4.818,0,13.943,13.943,0,0,1,4.818,0" transform="translate(-55.321 -63.578)" fill="#eb996e"/>
      <path id="Path_4702" data-name="Path 4702" d="M217.1,253.678a2.08,2.08,0,0,1,.43-.213l1.263-.534,4.676-1.892c.989-.39,2.067-.848,3.286-1.2a9.187,9.187,0,0,1,4.03-.343,5.842,5.842,0,0,1,2.093.75,2.691,2.691,0,0,1,1.431,1.871,2.578,2.578,0,0,1-1.043,2.205,8.159,8.159,0,0,1-2.194,1.11l-8.532,3.336a25.118,25.118,0,0,1-3.82,1.26,7.774,7.774,0,0,1-3.525.029,3.615,3.615,0,0,1-2.333-1.715,5.337,5.337,0,0,1-.612-2.108,10.168,10.168,0,0,1-.036-1.378,1.906,1.906,0,0,1,.047-.478c.043,0,0,.664.151,1.836a5.33,5.33,0,0,0,.652,2.01,3.377,3.377,0,0,0,2.2,1.545,7.565,7.565,0,0,0,3.378-.081,25.543,25.543,0,0,0,3.753-1.279l8.52-3.367A7.879,7.879,0,0,0,233,254a2.18,2.18,0,0,0,.9-1.835,2.306,2.306,0,0,0-1.232-1.574,5.477,5.477,0,0,0-1.948-.711,8.924,8.924,0,0,0-3.873.3c-1.194.329-2.274.767-3.272,1.141l-4.724,1.768-1.293.461a2.091,2.091,0,0,1-.46.134" transform="translate(-56.358 -66.237)" fill="#eb996e"/>
      <path id="Path_4703" data-name="Path 4703" d="M236.59,254.288a1.852,1.852,0,0,1,.411-.2l1.208-.485a29.453,29.453,0,0,1,4.582-1.422,14.578,14.578,0,0,1,3.317-.311,9.775,9.775,0,0,1,1.869.2,1.721,1.721,0,0,1,.908.544,1.662,1.662,0,0,1,.359,1.035,2.527,2.527,0,0,1-.95,1.926,12.334,12.334,0,0,1-1.8,1.227,31.139,31.139,0,0,1-4.058,2,80.655,80.655,0,0,1-8.272,2.713l-3.644,1.047a32.609,32.609,0,0,1-3.214.825,6.148,6.148,0,0,1-2.76-.082,4.015,4.015,0,0,1-1.78-1.088,2.739,2.739,0,0,1-.659-1.139,1.314,1.314,0,0,1-.064-.454,3.274,3.274,0,0,0,.84,1.48,3.939,3.939,0,0,0,1.727.975,6.014,6.014,0,0,0,2.643.015c.979-.182,2.028-.532,3.168-.867l3.633-1.083c2.557-.766,5.382-1.567,8.221-2.731a31.492,31.492,0,0,0,4.009-1.961,12.158,12.158,0,0,0,1.737-1.171,2.135,2.135,0,0,0,.831-1.621,1.216,1.216,0,0,0-.98-1.23,9.723,9.723,0,0,0-1.781-.211,14.589,14.589,0,0,0-3.249.255,34.124,34.124,0,0,0-4.583,1.284l-1.235.41a1.875,1.875,0,0,1-.44.117" transform="translate(-58.972 -66.892)" fill="#eb996e"/>
      <path id="Path_4704" data-name="Path 4704" d="M301.324,256.212s21.2,53.512,33.178,54.914c12.756,1.495,25.131-9.81,22.808-29.326-.891-7.488-6.113-42.744-6.113-42.744l-26.55,11.416L331.7,265.1l-10.461-16.33Z" transform="translate(-80.027 -63.49)" fill="#ffbe9d"/>
      <path id="Path_4705" data-name="Path 4705" d="M357.414,297.167c-.044,0-.018-.685-.082-1.915a21.312,21.312,0,0,0-.819-5.117,13.49,13.49,0,0,0-4.031-6.38c-1.058-.953-2.429-1.72-3.6-2.823a37.374,37.374,0,0,1-3.469-3.519,118.862,118.862,0,0,1-10.066-14.033c-1.178-1.868-2.109-3.393-2.749-4.45l-.728-1.221a2.089,2.089,0,0,1-.228-.442,2.021,2.021,0,0,1,.3.394l.8,1.177,2.868,4.372a134.494,134.494,0,0,0,10.136,13.909,37.911,37.911,0,0,0,3.422,3.486c1.141,1.085,2.476,1.837,3.585,2.844a13.619,13.619,0,0,1,4.061,6.6,19.692,19.692,0,0,1,.69,5.2c.006.62-.013,1.1-.038,1.425a2.071,2.071,0,0,1-.054.495" transform="translate(-88.079 -68.326)" fill="#eb996e"/>
      <path id="Path_4706" data-name="Path 4706" d="M304.99,224.429c1.133,1.888,3.706,7.705,3.706,7.705s6.9,9.886,6.563,16.41c-.065,1.266-4.045,3.857-4.045,3.857s-12.589,9.442-15.61,10.071-7.553-2.266-8.057-2.392-17.5-10.955-17.587-12.484A3.2,3.2,0,0,1,271.8,244.3l19.275-1.092,9.163-7.176-.406-5.327" transform="translate(-71.695 -59.605)" fill="#ffbe9d"/>
      <path id="Path_4707" data-name="Path 4707" d="M307.178,250.215a7.63,7.63,0,0,1-1.037.771l-2.91,1.97c-1.247.824-2.675,1.8-4.373,2.876a3.469,3.469,0,0,1-1.561.225c-.511.009-1.033.032-1.563.06-1.062.057-2.161.151-3.289.245a57.819,57.819,0,0,1-6.4.285,6.592,6.592,0,0,1-2.781-.6,2.455,2.455,0,0,1-1.421-2.024,2.881,2.881,0,0,1,.662-1.945,3.918,3.918,0,0,1,1.207-.958,5.018,5.018,0,0,1,.894-.366.928.928,0,0,1,.33-.068c.014.037-.437.162-1.143.576a3.976,3.976,0,0,0-1.1.962,2.664,2.664,0,0,0-.55,1.779,2.144,2.144,0,0,0,1.285,1.735,6.359,6.359,0,0,0,2.628.527c1.953.032,4.1-.121,6.353-.317,1.127-.095,2.232-.185,3.3-.237.535-.026,1.062-.045,1.578-.05a3.17,3.17,0,0,0,1.4-.17l4.383-2.779,2.985-1.86a7.508,7.508,0,0,1,1.124-.633" transform="translate(-74.853 -66.453)" fill="#eb996e"/>
      <path id="Path_4708" data-name="Path 4708" d="M305.093,259.816a1.407,1.407,0,0,1-.38.108l-1.1.23-4.073.766L293.487,262l-3.574.626c-.622.1-1.241.236-1.913.3a3.281,3.281,0,0,1-2.027-.4c-.608-.355-1.1-.776-1.641-1.138s-1.06-.723-1.591-1.052a21.3,21.3,0,0,0-3.193-1.643c-1.054-.435-2.128-.694-3.093-1.105a8.478,8.478,0,0,1-2.43-1.582c-.656-.6-1.214-1.145-1.7-1.665a2.559,2.559,0,0,1-.765-1.641,1.475,1.475,0,0,1,.4-1.073.694.694,0,0,1,.344-.2c.01.018-.121.072-.283.261a1.444,1.444,0,0,0-.3,1.011c.013.994,1.225,1.937,2.49,3.087a8.338,8.338,0,0,0,2.369,1.484c.935.383,2.013.631,3.1,1.068a21.117,21.117,0,0,1,3.265,1.652c.541.331,1.08.686,1.616,1.06s1.06.8,1.607,1.114c1.1.682,2.436.23,3.665.058l3.579-.6,6.065-1,4.1-.635,1.117-.151a1.434,1.434,0,0,1,.394-.025" transform="translate(-72.123 -66.776)" fill="#eb996e"/>
      <path id="Path_4709" data-name="Path 4709" d="M305.646,271.028a6.91,6.91,0,0,1-1.738.521,38.855,38.855,0,0,1-4.315.722,34.857,34.857,0,0,1-4.374.236,2.642,2.642,0,0,1-1.756-.493,7.318,7.318,0,0,0,1.759.2c1.1-.05,2.641-.171,4.324-.357s3.2-.422,4.305-.6a8.939,8.939,0,0,1,1.795-.23" transform="translate(-77.939 -71.977)" fill="#eb996e"/>
      <path id="Path_4710" data-name="Path 4710" d="M319.216,259.7c.015,0,0,.1-.038.292a3.88,3.88,0,0,1-.294.791A5.852,5.852,0,0,1,316.733,263a9.542,9.542,0,0,1-1.942.907c-.35.124-.667.279-.762.6s-.118.794-.272,1.211a4.57,4.57,0,0,1-1.622,2.241,7.286,7.286,0,0,1-2.739,1.081,12.164,12.164,0,0,0-2.7.8c-.776.425-1.553.934-2.28,1.363-.37.22-.7.441-1.1.639a3.576,3.576,0,0,1-1.2.309,6.179,6.179,0,0,1-2.148-.236,17.3,17.3,0,0,1-2.864-1.126,5.435,5.435,0,0,1-.992-.531,5.4,5.4,0,0,1,1.062.372,22.038,22.038,0,0,0,2.872.979,6.017,6.017,0,0,0,2.034.173,3.239,3.239,0,0,0,1.065-.3c.326-.168.687-.408,1.047-.63.738-.449,1.456-.934,2.306-1.408a12.109,12.109,0,0,1,2.8-.844,6.977,6.977,0,0,0,2.58-1,4.191,4.191,0,0,0,1.489-2.017c.151-.387.151-.76.293-1.215a1.433,1.433,0,0,1,1.01-.812,9.675,9.675,0,0,0,1.9-.828,6.051,6.051,0,0,0,2.162-2.028c.357-.613.444-1.011.485-1" transform="translate(-78.643 -68.973)" fill="#eb996e"/>
      <path id="Path_4711" data-name="Path 4711" d="M310.144,237.593a59.76,59.76,0,0,1-5.579,4.732,60.044,60.044,0,0,1-5.858,4.383,119.734,119.734,0,0,1,11.436-9.115" transform="translate(-79.332 -63.1)" fill="#eb996e"/>
    </g>
    <path id="Path_4583" data-name="Path 4583" d="M69.1,34.551A34.551,34.551,0,1,1,34.551,0,34.551,34.551,0,0,1,69.1,34.551" transform="translate(356.702 398.112) rotate(-45)" fill="#f5f5f5"/>
    <path id="Path_4584" data-name="Path 4584" d="M69.23,34.657s-.014-.19-.027-.56-.01-.922-.076-1.642a34.937,34.937,0,0,0-.989-6.231,34.365,34.365,0,0,0-1.419-4.333,33.387,33.387,0,0,0-2.405-4.858,34.91,34.91,0,0,0-8.766-9.794A34.389,34.389,0,0,0,41.038.807a35.018,35.018,0,0,0-13.5.159,36.736,36.736,0,0,0-4.6,1.314A34.534,34.534,0,0,0,6.928,14.288a33.959,33.959,0,0,0-2.807,4.519,32.157,32.157,0,0,0-2.105,4.978,34.426,34.426,0,0,0,0,21.737c.274.868.617,1.706.949,2.545.371.822.732,1.646,1.156,2.435a33.934,33.934,0,0,0,2.807,4.521,34.533,34.533,0,0,0,16.01,12.012,36.828,36.828,0,0,0,4.6,1.314,35.035,35.035,0,0,0,13.5.158A34.387,34.387,0,0,0,55.55,62.074a34.909,34.909,0,0,0,8.764-9.794,33.324,33.324,0,0,0,2.4-4.858,34.272,34.272,0,0,0,1.419-4.333,34.922,34.922,0,0,0,.989-6.23c.065-.72.053-1.272.076-1.642s.027-.56.027-.56.02.76-.052,2.2a33.732,33.732,0,0,1-2.347,10.605,33.319,33.319,0,0,1-2.4,4.886,34.97,34.97,0,0,1-8.777,9.864,34.541,34.541,0,0,1-14.58,6.5,35.208,35.208,0,0,1-13.585-.141,36.927,36.927,0,0,1-4.638-1.318A34.746,34.746,0,0,1,6.725,55.17,34.036,34.036,0,0,1,3.9,50.618c-.427-.795-.792-1.624-1.165-2.453-.335-.845-.681-1.69-.957-2.563a34.651,34.651,0,0,1,0-21.9A32.291,32.291,0,0,1,3.9,18.691a34.132,34.132,0,0,1,2.829-4.55A34.745,34.745,0,0,1,22.856,2.059,36.922,36.922,0,0,1,27.493.741,35.209,35.209,0,0,1,41.076.6,34.539,34.539,0,0,1,55.657,7.1a34.967,34.967,0,0,1,8.778,9.863,33.265,33.265,0,0,1,2.4,4.886,33.731,33.731,0,0,1,2.348,10.607c.071,1.445.052,2.205.052,2.205" transform="translate(356.536 398.126) rotate(-45)" fill="#263238"/>
    <path id="Path_4585" data-name="Path 4585" d="M39.68,29.145H3.549A3.548,3.548,0,0,1,0,25.6V3.548A3.548,3.548,0,0,1,3.549,0H39.68a3.548,3.548,0,0,1,3.549,3.548V25.6a3.548,3.548,0,0,1-3.549,3.549" transform="translate(381.969 402.252) rotate(-45)" fill="#16b988"/>
    <g id="Group_89873" data-name="Group 89873" transform="translate(386.422 406.703) rotate(-45)" opacity="0.3">
      <g id="Group_89872" data-name="Group 89872">
        <g id="Group_89871" data-name="Group 89871" clip-path="url(#clip-path-6)">
          <rect id="Rectangle_2927" data-name="Rectangle 2927" width="43.228" height="6.108" fill="#fff"/>
        </g>
      </g>
    </g>
    <path id="Path_4586" data-name="Path 4586" d="M15.74.127c0,.07-3.524.127-7.87.127S0,.2,0,.127,3.523,0,7.871,0s7.87.057,7.87.127" transform="translate(400.233 415.81) rotate(-45)" fill="#263238"/>
    <path id="Path_4587" data-name="Path 4587" d="M19.056.127c0,.07-4.266.127-9.527.127S0,.2,0,.127,4.265,0,9.528,0s9.527.057,9.527.127" transform="translate(399.247 414.823) rotate(-45)" fill="#263238"/>
    <path id="Path_4588" data-name="Path 4588" d="M5.07,2.539A2.535,2.535,0,1,1,2.535,0,2.537,2.537,0,0,1,5.07,2.539" transform="translate(414.911 390.665) rotate(-45)" fill="#fff"/>
    <path id="Path_4589" data-name="Path 4589" d="M2.561,5.13A2.565,2.565,0,1,1,5.123,2.565,2.566,2.566,0,0,1,2.561,5.13m0-4.643A2.078,2.078,0,1,0,4.636,2.565,2.078,2.078,0,0,0,2.561.487" transform="translate(417.298 388.304) rotate(-45)" fill="#fff"/>
    <path id="Path_4590" data-name="Path 4590" d="M33.331.127c0,.07-7.462.127-16.665.127S0,.2,0,.127,7.46,0,16.666,0,33.331.057,33.331.127" transform="translate(358.579 446.476) rotate(-45)" fill="#263238"/>
    <path id="Path_4591" data-name="Path 4591" d="M487.7,27.372A27.155,27.155,0,1,1,460.541.217,27.155,27.155,0,0,1,487.7,27.372" transform="translate(-80.142 261.112)" fill="#f5f5f5"/>
    <path id="Path_4592" data-name="Path 4592" d="M487.536,27.239s-.011-.149-.021-.44-.008-.725-.059-1.291a27.408,27.408,0,0,0-.777-4.9,27,27,0,0,0-1.116-3.406,26.2,26.2,0,0,0-1.89-3.818,27.436,27.436,0,0,0-6.889-7.7,27.022,27.022,0,0,0-11.4-5.055A27.522,27.522,0,0,0,454.77.759a28.871,28.871,0,0,0-3.619,1.032A27.142,27.142,0,0,0,438.57,11.23a26.652,26.652,0,0,0-2.206,3.552,25.3,25.3,0,0,0-1.655,3.913,27.057,27.057,0,0,0,0,17.084c.215.682.485,1.341.746,2,.292.646.575,1.294.909,1.914a26.62,26.62,0,0,0,2.206,3.552,27.14,27.14,0,0,0,12.583,9.441,28.879,28.879,0,0,0,3.619,1.033,27.536,27.536,0,0,0,10.61.124,27.022,27.022,0,0,0,11.4-5.056,27.437,27.437,0,0,0,6.888-7.7,26.19,26.19,0,0,0,1.89-3.818,26.925,26.925,0,0,0,1.115-3.405,27.4,27.4,0,0,0,.777-4.9c.051-.566.041-1,.059-1.29s.021-.44.021-.44.015.6-.041,1.733a26.508,26.508,0,0,1-1.844,8.335,26.185,26.185,0,0,1-1.883,3.84,27.48,27.48,0,0,1-6.9,7.752,27.148,27.148,0,0,1-11.459,5.107,27.672,27.672,0,0,1-10.677-.111,29.041,29.041,0,0,1-3.645-1.036,27.31,27.31,0,0,1-12.678-9.5,26.777,26.777,0,0,1-2.224-3.578c-.336-.624-.622-1.276-.916-1.928-.263-.664-.535-1.328-.752-2.015a27.233,27.233,0,0,1,0-17.209,25.468,25.468,0,0,1,1.668-3.941,26.825,26.825,0,0,1,2.224-3.576,27.307,27.307,0,0,1,12.676-9.5A29.083,29.083,0,0,1,454.733.583,27.664,27.664,0,0,1,465.409.472a27.139,27.139,0,0,1,11.46,5.106,27.482,27.482,0,0,1,6.9,7.752,26.186,26.186,0,0,1,1.883,3.84,26.514,26.514,0,0,1,1.845,8.336c.056,1.136.041,1.733.041,1.733" transform="translate(-79.98 261.246)" fill="#263238"/>
    <path id="Path_4593" data-name="Path 4593" d="M498.25,38.345l-10.625.037v.072l-1.558,26.775,22.693-.079L508.7,48.773Z" transform="translate(-112.64 237.592)" fill="#ff725e"/>
    <g id="Group_89878" data-name="Group 89878" transform="translate(373.426 275.936)">
      <g id="Group_89877" data-name="Group 89877">
        <g id="Group_89876" data-name="Group 89876" clip-path="url(#clip-path-7)">
          <path id="Path_4594" data-name="Path 4594" d="M498.25,38.345l-10.625.037v.072l-1.558,26.775,22.693-.079L508.7,48.773Z" transform="translate(-486.067 -38.345)" fill="#0b7655"/>
        </g>
      </g>
    </g>
    <path id="Path_4595" data-name="Path 4595" d="M473.08,38.441l-10.59,9.978.059,16.9,21.25-.074L483.74,48.7Z" transform="translate(-98.096 237.532)" fill="#16b988"/>
    <g id="Group_89881" data-name="Group 89881" transform="translate(377.977 287.758)" opacity="0.3">
      <g id="Group_89880" data-name="Group 89880">
        <g id="Group_89879" data-name="Group 89879" clip-path="url(#clip-path-8)">
          <rect id="Rectangle_2931" data-name="Rectangle 2931" width="4.528" height="4.528" transform="matrix(1, -0.003, 0.003, 1, 0, 0.016)" fill="#fff"/>
        </g>
      </g>
    </g>
    <g id="Group_89884" data-name="Group 89884" transform="translate(366.929 287.795)" opacity="0.3">
      <g id="Group_89883" data-name="Group 89883">
        <g id="Group_89882" data-name="Group 89882" clip-path="url(#clip-path-8)">
          <rect id="Rectangle_2933" data-name="Rectangle 2933" width="4.528" height="4.528" transform="matrix(1, -0.003, 0.003, 1, 0, 0.016)" fill="#fff"/>
        </g>
      </g>
    </g>
    <rect id="Rectangle_2935" data-name="Rectangle 2935" width="2.264" height="6.717" transform="translate(366.896 277.81) rotate(-0.194)" fill="#16b988"/>
    <g id="Group_89887" data-name="Group 89887" transform="translate(371.481 294.491)" opacity="0.3">
      <g id="Group_89886" data-name="Group 89886">
        <g id="Group_89885" data-name="Group 89885" clip-path="url(#clip-path-10)">
          <rect id="Rectangle_2936" data-name="Rectangle 2936" width="5.265" height="8.319" transform="translate(0 0.018) rotate(-0.198)"/>
        </g>
      </g>
    </g>
    <path id="Path_4596" data-name="Path 4596" d="M482.651,38.2a.269.269,0,0,1,.054.044l.149.139.573.553,2.151,2.11,7.589,7.519.154.153-.218,0L482.686,48.6h-.039l-.028-.028-1.825-1.756-8.829-8.515h.123l-8.153,7.637-2.316,2.15-.618.564-.161.142a.251.251,0,0,1-.058.044.286.286,0,0,1,.048-.055l.151-.152.6-.583,2.282-2.186,8.1-7.69.062-.059.062.059,8.844,8.5,1.824,1.757-.068-.028,10.418.139-.063.151-7.539-7.57-2.116-2.145-.554-.572-.139-.149a.268.268,0,0,1-.044-.054" transform="translate(-97.043 237.732)" fill="#fd9020"/>
    <path id="Path_4597" data-name="Path 4597" d="M486.143,94.964a.594.594,0,0,1-.017-.161c0-.126-.01-.279-.016-.465-.007-.432-.017-1.016-.029-1.735-.009-1.5-.021-3.57-.035-5.94l.1.1-2.627,0-2.609,0,.1-.1c-.014,2.374-.026,4.445-.035,5.953-.012.721-.022,1.306-.029,1.739-.006.187-.012.34-.016.466a.6.6,0,0,1-.017.161.581.581,0,0,1-.017-.161c0-.126-.01-.28-.016-.466-.007-.433-.017-1.018-.029-1.739-.009-1.508-.021-3.579-.035-5.953v-.1h.1l2.609,0,2.627,0h.1v.1c-.014,2.369-.026,4.435-.035,5.94-.012.719-.021,1.3-.029,1.735-.007.186-.012.339-.016.465a.594.594,0,0,1-.017.161" transform="translate(-109.396 207.845)" fill="#263238"/>
    <path id="Path_4598" data-name="Path 4598" d="M432.978,131.108c.047.028-4.579,7.8-10.332,17.36s-10.457,17.288-10.5,17.259,4.578-7.8,10.333-17.362,10.456-17.286,10.5-17.257" transform="translate(-67.035 180.366)" fill="#263238"/>
    <path id="Path_4599" data-name="Path 4599" d="M130.117,30.066a27.55,27.55,0,1,1-27.55-27.549,27.55,27.55,0,0,1,27.55,27.549" transform="translate(117.51 258.896)" fill="#f5f5f5"/>
    <path id="Path_4600" data-name="Path 4600" d="M129.959,29.934s-.011-.151-.022-.447-.008-.735-.06-1.309a27.861,27.861,0,0,0-.789-4.969,27.4,27.4,0,0,0-1.132-3.455,26.618,26.618,0,0,0-1.918-3.873,27.835,27.835,0,0,0-6.989-7.809,27.42,27.42,0,0,0-11.57-5.128,27.922,27.922,0,0,0-10.763.127,29.291,29.291,0,0,0-3.671,1.047,27.536,27.536,0,0,0-12.764,9.575,27.035,27.035,0,0,0-2.238,3.6,25.641,25.641,0,0,0-1.679,3.969,27.449,27.449,0,0,0,0,17.332c.218.692.492,1.36.757,2.03.3.656.583,1.312.922,1.941a27.01,27.01,0,0,0,2.238,3.6A27.535,27.535,0,0,0,93.045,55.75,29.3,29.3,0,0,0,96.717,56.8a27.922,27.922,0,0,0,10.764.126,27.414,27.414,0,0,0,11.57-5.13,27.836,27.836,0,0,0,6.988-7.809,26.577,26.577,0,0,0,1.917-3.873,27.323,27.323,0,0,0,1.131-3.455,27.814,27.814,0,0,0,.789-4.968c.052-.574.042-1.014.06-1.309s.022-.447.022-.447.016.606-.041,1.758a26.895,26.895,0,0,1-1.871,8.456,26.524,26.524,0,0,1-1.91,3.9,27.883,27.883,0,0,1-7,7.865,27.542,27.542,0,0,1-11.626,5.181,28.073,28.073,0,0,1-10.832-.113,29.461,29.461,0,0,1-3.7-1.051A27.705,27.705,0,0,1,80.12,46.29a27.164,27.164,0,0,1-2.256-3.629c-.341-.634-.631-1.3-.929-1.956-.267-.674-.543-1.347-.763-2.044a27.636,27.636,0,0,1,0-17.459,25.821,25.821,0,0,1,1.692-4,27.215,27.215,0,0,1,2.256-3.628,27.7,27.7,0,0,1,12.86-9.633,29.439,29.439,0,0,1,3.7-1.051,28.075,28.075,0,0,1,10.831-.113,27.541,27.541,0,0,1,11.626,5.18,27.881,27.881,0,0,1,7,7.865,26.524,26.524,0,0,1,1.91,3.9,26.9,26.9,0,0,1,1.872,8.457c.057,1.152.041,1.758.041,1.758" transform="translate(117.669 259.028)" fill="#263238"/>
    <path id="Path_4601" data-name="Path 4601" d="M114.485,27.591V60.763H137.3a3.916,3.916,0,0,0,3.917-3.917V33.588l-8.071-8.071H116.559a2.074,2.074,0,0,0-2.074,2.074" transform="translate(93.384 244.835)" fill="#fff"/>
    <path id="Path_4602" data-name="Path 4602" d="M114.341,27.471s0-.03,0-.089a1.537,1.537,0,0,1,.022-.263,2.038,2.038,0,0,1,.408-.944,2.105,2.105,0,0,1,1.443-.8c.667-.024,1.426-.012,2.287-.02l14.507-.033h.031l.022.023,8.08,8.061.026.026v.037c0,3.991.005,8.3.009,12.842q0,3.406,0,6.973c0,1.189.008,2.382-.007,3.6a4.03,4.03,0,0,1-.491,1.784,4.17,4.17,0,0,1-1.256,1.381,4,4,0,0,1-1.6.639,11.784,11.784,0,0,1-1.693.059h-3.319l-6.458,0-12.013-.007h-.091v-.091c.015-9.832.028-18.124.037-23.963.011-2.913.019-5.213.026-6.792.006-.782.011-1.385.014-1.8,0-.2.005-.353.007-.462s.007-.156.007-.156.005.053.007.156,0,.263.007.462c0,.414.008,1.016.014,1.8.006,1.579.015,3.879.026,6.792.009,5.84.022,14.131.037,23.963l-.091-.091,12.013-.007,6.458,0h3.319a11.733,11.733,0,0,0,1.66-.057,3.786,3.786,0,0,0,1.517-.606,3.964,3.964,0,0,0,1.193-1.311,3.828,3.828,0,0,0,.467-1.694c.015-1.2,0-2.406.008-3.591q0-3.562,0-6.973c0-4.54.006-8.851.009-12.842l.026.063-8.061-8.08.054.022L118.5,25.439c-.857,0-1.625-.016-2.28,0a2.064,2.064,0,0,0-1.835,1.684c-.043.227-.033.349-.043.348" transform="translate(93.528 244.955)" fill="#263238"/>
    <path id="Path_4603" data-name="Path 4603" d="M162.508,25.517l8.071,8.071h-6.711a1.359,1.359,0,0,1-1.359-1.359Z" transform="translate(64.026 244.835)" fill="#e0e0e0"/>
    <path id="Path_4604" data-name="Path 4604" d="M103.53,103.737h0a4.846,4.846,0,0,0,4.845,4.845h22.339A5.249,5.249,0,0,1,127.757,104l-.007-.261Z" transform="translate(100.08 197.017)" fill="#e0e0e0"/>
    <path id="Path_4605" data-name="Path 4605" d="M128.53,43.911a20.656,20.656,0,0,1-2.885.1,20.659,20.659,0,0,1-2.886-.1,20.663,20.663,0,0,1,2.886-.1,20.66,20.66,0,0,1,2.885.1" transform="translate(88.324 233.652)" fill="#263238"/>
    <path id="Path_4606" data-name="Path 4606" d="M141.875,53.268c0,.056-3.87.1-8.642.1s-8.643-.045-8.643-.1,3.869-.1,8.643-.1,8.642.045,8.642.1" transform="translate(87.205 227.932)" fill="#263238"/>
    <path id="Path_4607" data-name="Path 4607" d="M141.875,61.508c0,.056-3.87.1-8.642.1s-8.643-.045-8.643-.1,3.869-.1,8.643-.1,8.642.045,8.642.1" transform="translate(87.205 222.894)" fill="#263238"/>
    <path id="Path_4608" data-name="Path 4608" d="M141.875,69.748c0,.056-3.87.1-8.642.1s-8.643-.045-8.643-.1,3.869-.1,8.643-.1,8.642.045,8.642.1" transform="translate(87.205 217.857)" fill="#263238"/>
    <path id="Path_4609" data-name="Path 4609" d="M141.875,77.988c0,.056-3.87.1-8.642.1s-8.643-.045-8.643-.1,3.869-.1,8.643-.1,8.642.045,8.642.1" transform="translate(87.205 212.82)" fill="#263238"/>
    <path id="Path_4610" data-name="Path 4610" d="M141.875,86.228c0,.056-3.87.1-8.642.1s-8.643-.045-8.643-.1,3.869-.1,8.643-.1,8.642.045,8.642.1" transform="translate(87.205 207.782)" fill="#263238"/>
    <path id="Path_4611" data-name="Path 4611" d="M141.875,94.468c0,.056-3.87.1-8.642.1s-8.643-.045-8.643-.1,3.869-.1,8.643-.1,8.642.045,8.642.1" transform="translate(87.205 202.744)" fill="#263238"/>
    <path id="Path_4612" data-name="Path 4612" d="M173.034,63.974a7.148,7.148,0,1,1-6.964-7.312,7.14,7.14,0,0,1,6.964,7.312" transform="translate(66.329 225.797)" fill="#16b988"/>
    <g id="Group_89895" data-name="Group 89895" transform="translate(226.684 283.505)" opacity="0.3">
      <g id="Group_89894" data-name="Group 89894">
        <g id="Group_89893" data-name="Group 89893" clip-path="url(#clip-path-11)">
          <path id="Path_4614" data-name="Path 4614" d="M173.841,64.967a3.22,3.22,0,0,1-.127-.658,5.777,5.777,0,0,0-.586-1.685,5.572,5.572,0,0,0-.7-1.008,5.468,5.468,0,0,0-1.049-.927,5.334,5.334,0,0,0-1.388-.67,5.292,5.292,0,0,0-.795-.185,5.8,5.8,0,0,0-.838-.062,5.894,5.894,0,0,0-.838.071,5.321,5.321,0,0,0-.793.194,5.335,5.335,0,0,0-1.38.687,5.442,5.442,0,0,0-1.038.939,5.589,5.589,0,0,0-.684,1.016,5.792,5.792,0,0,0-.565,1.692,3.206,3.206,0,0,1-.119.66,1.6,1.6,0,0,1-.042-.679,5.031,5.031,0,0,1,.461-1.8,5.454,5.454,0,0,1,1.764-2.138,5.545,5.545,0,0,1,1.473-.761,5.574,5.574,0,0,1,.854-.216,5.6,5.6,0,0,1,1.808-.01,5.6,5.6,0,0,1,.857.206,5.311,5.311,0,0,1,.785.325,5.236,5.236,0,0,1,.7.419,5.454,5.454,0,0,1,1.789,2.117,5.041,5.041,0,0,1,.483,1.8,1.6,1.6,0,0,1-.034.679" transform="translate(-162.898 -59.356)"/>
        </g>
      </g>
    </g>
    <path id="Path_4615" data-name="Path 4615" d="M173.91,66.09A.431.431,0,0,1,173.9,66c0-.066-.008-.152-.013-.261a2.854,2.854,0,0,0-.037-.422,4.2,4.2,0,0,0-.1-.569,5.361,5.361,0,0,0-.562-1.471,5.455,5.455,0,0,0-1.331-1.594,5.308,5.308,0,0,0-5.109-.917,4.842,4.842,0,0,0-1.384.718,5.147,5.147,0,0,0-1.163,1.137,5.406,5.406,0,0,0-.8,1.483,5.516,5.516,0,0,0-.088,3.426,5.389,5.389,0,0,0,.722,1.522,5.144,5.144,0,0,0,1.1,1.2,5.835,5.835,0,0,0,.649.453,5.728,5.728,0,0,0,.7.335,5.309,5.309,0,0,0,5.149-.655,5.456,5.456,0,0,0,1.41-1.523,5.353,5.353,0,0,0,.636-1.44,4.107,4.107,0,0,0,.129-.562,2.794,2.794,0,0,0,.059-.419c.011-.108.02-.194.026-.26a.435.435,0,0,1,.014-.089.441.441,0,0,1,0,.089c0,.066-.007.153-.013.262a2.634,2.634,0,0,1-.046.423,4.054,4.054,0,0,1-.117.57,5.313,5.313,0,0,1-.623,1.466,5.484,5.484,0,0,1-1.418,1.56,5.4,5.4,0,0,1-5.254.695,5.9,5.9,0,0,1-.714-.341,6.018,6.018,0,0,1-.666-.462,5.279,5.279,0,0,1-1.132-1.222,5.531,5.531,0,0,1-.742-1.559,5.639,5.639,0,0,1,.09-3.51,5.528,5.528,0,0,1,.821-1.519,5.264,5.264,0,0,1,1.193-1.162,5.979,5.979,0,0,1,.688-.427,5.864,5.864,0,0,1,.731-.3,5.454,5.454,0,0,1,6.547,2.594,5.313,5.313,0,0,1,.547,1.5,4.008,4.008,0,0,1,.088.575,2.612,2.612,0,0,1,.024.425c0,.109,0,.2,0,.262a.446.446,0,0,1-.005.089" transform="translate(63.753 223.535)" fill="#263238"/>
    <path id="Path_4616" data-name="Path 4616" d="M165.5,86.206a.694.694,0,0,1-.216-.04,4.394,4.394,0,0,1-.568-.192,6.226,6.226,0,0,1-2.967-2.537,4.375,4.375,0,0,1-.278-.532.685.685,0,0,1-.073-.208c.021-.01.157.271.433.688a7,7,0,0,0,2.923,2.5c.454.208.753.3.746.321" transform="translate(64.707 209.877)" fill="#fff"/>
    <path id="Path_4617" data-name="Path 4617" d="M173.986,92.306c-.008.037-.152.037-.321,0s-.3-.1-.291-.134.152-.037.321,0,.3.1.291.134" transform="translate(57.383 204.104)" fill="#fff"/>
    <path id="Path_4618" data-name="Path 4618" d="M130.715,108.423a.376.376,0,0,1-.1-.041l-.283-.143-.207-.109-.233-.158c-.083-.058-.176-.117-.27-.187l-.283-.244a4.923,4.923,0,0,1-1.14-1.525,5.357,5.357,0,0,1-.531-2.445l.08.087-9.1.021-10.691-.03-3.24-.032-.881-.019a1.773,1.773,0,0,1-.307-.02,1.738,1.738,0,0,1,.307-.021l.881-.019,3.24-.032,10.691-.03,9.1.021h.083l0,.087a5.3,5.3,0,0,0,.488,2.377,4.931,4.931,0,0,0,1.085,1.513,8.6,8.6,0,0,0,1.313.949" transform="translate(100.08 197.176)" fill="#263238"/>
    <path id="Path_4619" data-name="Path 4619" d="M162.349,25.517a3.545,3.545,0,0,1,.039.611c.009.43.019.991.032,1.667.006.716.014,1.551.022,2.473,0,.466,0,.955.006,1.46a5.219,5.219,0,0,0,.027.751,1.262,1.262,0,0,0,.983.984,5.278,5.278,0,0,0,.751.026l1.46.006,2.473.022,1.667.032a3.546,3.546,0,0,1,.611.039,3.515,3.515,0,0,1-.611.04l-1.667.032-2.473.022-1.46.006a5.066,5.066,0,0,1-.791-.028,1.458,1.458,0,0,1-1.14-1.141,5.106,5.106,0,0,1-.028-.791c0-.505,0-.993.006-1.46.008-.922.016-1.757.022-2.473.013-.676.024-1.237.032-1.667a3.552,3.552,0,0,1,.039-.611" transform="translate(64.184 244.835)" fill="#263238"/>
    <path id="Path_4620" data-name="Path 4620" d="M204.315,164.793c-.046.031-4.793-6.919-10.6-15.521s-10.481-15.6-10.435-15.635,4.793,6.917,10.6,15.523,10.48,15.6,10.434,15.633" transform="translate(51.326 178.737)" fill="#263238"/>
    <g id="Group_89923" data-name="Group 89923" transform="matrix(0.966, 0.259, -0.259, 0.966, 166.224, 398.155)">
      <path id="Path_4621" data-name="Path 4621" d="M57.77,28.885A28.885,28.885,0,1,1,28.885,0,28.885,28.885,0,0,1,57.77,28.885" transform="translate(0.107 0.088)" fill="#f5f5f5"/>
      <path id="Path_4622" data-name="Path 4622" d="M57.876,28.973s-.011-.159-.023-.468-.009-.771-.063-1.373a29.2,29.2,0,0,0-.827-5.209A28.7,28.7,0,0,0,55.777,18.3a27.912,27.912,0,0,0-2.011-4.061,29.183,29.183,0,0,0-7.328-8.187A28.742,28.742,0,0,0,34.308.674,29.275,29.275,0,0,0,23.023.807a30.716,30.716,0,0,0-3.849,1.1A28.871,28.871,0,0,0,5.792,11.945a28.347,28.347,0,0,0-2.346,3.778,26.9,26.9,0,0,0-1.76,4.162,28.78,28.78,0,0,0,0,18.172c.229.725.516,1.426.793,2.128.31.687.612,1.376.967,2.036A28.314,28.314,0,0,0,5.79,46,28.87,28.87,0,0,0,19.174,56.041a30.792,30.792,0,0,0,3.85,1.1,29.291,29.291,0,0,0,11.285.132A28.741,28.741,0,0,0,46.44,51.894a29.185,29.185,0,0,0,7.327-8.188,27.862,27.862,0,0,0,2.01-4.061,28.649,28.649,0,0,0,1.186-3.622,29.158,29.158,0,0,0,.827-5.209c.055-.6.044-1.064.063-1.372s.023-.468.023-.468.016.635-.043,1.843a28.2,28.2,0,0,1-1.962,8.866,27.811,27.811,0,0,1-2,4.084,29.23,29.23,0,0,1-7.338,8.246,28.871,28.871,0,0,1-12.189,5.432,29.437,29.437,0,0,1-11.358-.118,30.892,30.892,0,0,1-3.877-1.1,29.05,29.05,0,0,1-13.485-10.1,28.486,28.486,0,0,1-2.365-3.806c-.357-.664-.662-1.358-.974-2.051-.28-.707-.569-1.412-.8-2.143a28.969,28.969,0,0,1,0-18.305,27.091,27.091,0,0,1,1.774-4.192,28.532,28.532,0,0,1,2.365-3.8,29.047,29.047,0,0,1,13.483-10.1A30.956,30.956,0,0,1,22.984.62,29.435,29.435,0,0,1,34.34.5,28.875,28.875,0,0,1,46.529,5.932a29.233,29.233,0,0,1,7.339,8.246,27.9,27.9,0,0,1,2,4.084,28.219,28.219,0,0,1,1.962,8.867c.059,1.208.043,1.844.043,1.844" transform="translate(0 0)" fill="#263238"/>
      <rect id="Rectangle_2942" data-name="Rectangle 2942" width="45.812" height="6.722" transform="translate(4.896 28.348)" fill="#ff725e"/>
      <g id="Group_89900" data-name="Group 89900" transform="translate(4.896 28.348)" opacity="0.5">
        <g id="Group_89899" data-name="Group 89899">
          <g id="Group_89898" data-name="Group 89898" clip-path="url(#clip-path-12)">
            <rect id="Rectangle_2943" data-name="Rectangle 2943" width="45.812" height="6.722" transform="translate(0 0)"/>
          </g>
        </g>
      </g>
      <path id="Path_4623" data-name="Path 4623" d="M0,4.354A4.418,4.418,0,1,0,4.481,0,4.417,4.417,0,0,0,0,4.354" transform="translate(6.633 30.607)" fill="#263238"/>
      <path id="Path_4624" data-name="Path 4624" d="M0,0V.011A4.418,4.418,0,0,0,8.835.139V.128Z" transform="translate(6.633 34.95)" fill="#263238"/>
      <path id="Path_4625" data-name="Path 4625" d="M0,3.057A3.1,3.1,0,1,0,3.146,0,3.1,3.1,0,0,0,0,3.057" transform="translate(7.951 31.924)" fill="#fafafa"/>
      <path id="Path_4626" data-name="Path 4626" d="M3.146,0A3.1,3.1,0,0,0,0,3.057l6.2.09A3.1,3.1,0,0,0,3.146,0" transform="translate(7.951 31.924)" fill="#e0e0e0"/>
      <path id="Path_4627" data-name="Path 4627" d="M0,1.862A1.889,1.889,0,1,0,1.916,0,1.889,1.889,0,0,0,0,1.862" transform="translate(9.163 33.136)" fill="#263238"/>
      <path id="Path_4628" data-name="Path 4628" d="M0,4.354A4.418,4.418,0,1,0,4.481,0,4.417,4.417,0,0,0,0,4.354" transform="translate(40.414 30.607)" fill="#263238"/>
      <path id="Path_4629" data-name="Path 4629" d="M0,0V.011A4.418,4.418,0,0,0,8.835.139V.128Z" transform="translate(40.414 34.95)" fill="#263238"/>
      <path id="Path_4630" data-name="Path 4630" d="M0,3.057A3.1,3.1,0,1,0,3.146,0,3.1,3.1,0,0,0,0,3.057" transform="translate(41.731 31.924)" fill="#fafafa"/>
      <path id="Path_4631" data-name="Path 4631" d="M3.146,0A3.1,3.1,0,0,0,0,3.057l6.2.09A3.1,3.1,0,0,0,3.146,0" transform="translate(41.731 31.924)" fill="#e0e0e0"/>
      <path id="Path_4632" data-name="Path 4632" d="M0,1.862A1.889,1.889,0,1,0,1.916,0,1.889,1.889,0,0,0,0,1.862" transform="translate(42.943 33.136)" fill="#263238"/>
      <path id="Path_4633" data-name="Path 4633" d="M14.817,5.24s-6.5.48-8.916,1.02C4.2,6.642.925,7.3.965,9.361l.26,1.478A2.225,2.225,0,0,0,.009,12.811c0,1.416-.3,3.614,2.54,3.7.468.014,1.356,0,1.356,0S3.36,10.47,8.911,10.293c5.647-.18,5.272,6.163,5.272,6.163H37.751s-.967-6.18,5.112-6.189,5.154,6.23,5.154,6.23a3.575,3.575,0,0,0,3.277-1.686,5.119,5.119,0,0,0,.77-3.217l-.035-1.188a.769.769,0,0,0-.739-.746s.406-2.991-.217-3.509-4.04-3.641-4.04-3.641l.163-.1a.383.383,0,0,0-.079-.687c-1.3-.446-3.861-1.328-4.465-1.54a1.1,1.1,0,0,0-.28-.059C42.012.1,40.993.031,39.123.011,36.845-.014,27.8.011,27.8.011a19.382,19.382,0,0,0-4.847,1.02c-1.824.8-8.136,4.21-8.136,4.21" transform="translate(2.024 19.327)" fill="#16b988"/>
      <g id="Group_89903" data-name="Group 89903" transform="translate(2.692 31.943)" opacity="0.4">
        <g id="Group_89902" data-name="Group 89902">
          <g id="Group_89901" data-name="Group 89901" clip-path="url(#clip-path-13)">
            <path id="Path_4634" data-name="Path 4634" d="M.991.029A1,1,0,0,0,.213.137.745.745,0,0,0,.024.625a2.084,2.084,0,0,0,.016.732.894.894,0,0,0,.413.584.577.577,0,0,0,.679-.082A.886.886,0,0,0,1.3,1.226a5.119,5.119,0,0,0-.039-.9A.439.439,0,0,0,1.18.142.246.246,0,0,0,.991.029" transform="translate(0 0)"/>
          </g>
        </g>
      </g>
      <path id="Path_4635" data-name="Path 4635" d="M.26,1.666c.691,0,1.36-.038,2.049-.084a.332.332,0,0,0,.21-.064.338.338,0,0,0,.072-.251A1.3,1.3,0,0,0,2.3.235,1.11,1.11,0,0,0,1.663.021,4.086,4.086,0,0,0,0,.188Z" transform="translate(2.99 28.5)" fill="#fafafa"/>
      <path id="Path_4636" data-name="Path 4636" d="M.21,15.574s0-.017,0-.049,0-.083-.005-.147c0-.13-.01-.321-.018-.571-.014-.5-.035-1.233-.062-2.165S.066,10.578.031,9.281q-.013-.487-.027-1a3.353,3.353,0,0,1,.023-.525q.018-.132.037-.266C.082,7.4.1,7.31.119,7.221A5.392,5.392,0,0,1,.486,6.163a5.316,5.316,0,0,1,.6-1l0,0,0,0L5.177,2.583l1.1-.694a8.655,8.655,0,0,1,1.167-.651A11.911,11.911,0,0,1,8.713.732c.217-.076.439-.139.661-.2s.449-.121.678-.166a15.39,15.39,0,0,1,2.63-.332,24.659,24.659,0,0,1,2.547.009h.024l-.005.024-1.1,4.906v0l0,0a5.363,5.363,0,0,0-.492,1.054,2.887,2.887,0,0,0-.167,1.09c.028.363.038.717.047,1.062s.013.679.02,1c.019,1.3.024,2.427.027,3.359s0,1.663,0,2.164c0,.249,0,.44,0,.57,0,.064,0,.113,0,.146s0,.049,0,.049,0-.017,0-.049,0-.082,0-.146c0-.13,0-.322,0-.57,0-.5-.007-1.233-.013-2.163s-.015-2.062-.036-3.359q-.01-.486-.022-1c-.01-.344-.02-.7-.049-1.06a2.913,2.913,0,0,1,.167-1.1,5.377,5.377,0,0,1,.495-1.063l0,.006L15.207.053l.019.025A24.907,24.907,0,0,0,12.684.071,15.358,15.358,0,0,0,10.061.4c-.229.046-.452.109-.675.166s-.443.128-.659.2a11.877,11.877,0,0,0-1.262.5A8.612,8.612,0,0,0,6.3,1.924l-1.1.694L1.115,5.186l0,0a5.264,5.264,0,0,0-.6,1,5.364,5.364,0,0,0-.367,1.05,7.67,7.67,0,0,0-.09,2.053c.032,1.3.06,2.428.083,3.361s.04,1.664.051,2.165c.005.249.009.441.012.571,0,.064,0,.113,0,.146s0,.05,0,.05" transform="translate(17.628 20.122)" fill="#263238"/>
      <path id="Path_4637" data-name="Path 4637" d="M2.3.958s.023,0,.066-.01A.452.452,0,0,0,2.539.879.445.445,0,0,0,2.716.65.5.5,0,0,0,2.738.468a.448.448,0,0,0-.051-.2A.438.438,0,0,0,2.307.04l-.557,0L.474.043A.432.432,0,0,0,.045.427.483.483,0,0,0,.1.718.434.434,0,0,0,.309.905.664.664,0,0,0,.584.939h.27l.485,0,.7.007.191,0a.386.386,0,0,1,.066,0,.382.382,0,0,1-.066,0l-.191,0-.7.007-.485,0H.584c-.047,0-.093,0-.143,0A.465.465,0,0,1,.294.942a.477.477,0,0,1-.232-.2A.527.527,0,0,1,0,.422.475.475,0,0,1,.474,0L1.75,0l.557,0a.467.467,0,0,1,.458.463.515.515,0,0,1-.027.19.456.456,0,0,1-.19.236.43.43,0,0,1-.181.064.277.277,0,0,1-.067,0" transform="translate(27.763 26.631)" fill="#263238"/>
      <path id="Path_4638" data-name="Path 4638" d="M2.3.958s.023,0,.066-.01A.455.455,0,0,0,2.539.879.445.445,0,0,0,2.716.65.5.5,0,0,0,2.738.468a.448.448,0,0,0-.051-.2A.438.438,0,0,0,2.307.04l-.557,0L.474.043A.432.432,0,0,0,.045.427.483.483,0,0,0,.1.718.434.434,0,0,0,.309.905.663.663,0,0,0,.584.939h.27l.485,0,.7.007.191,0a.386.386,0,0,1,.066,0,.382.382,0,0,1-.066,0l-.191,0-.7.007-.485,0H.584c-.047,0-.093,0-.143,0A.465.465,0,0,1,.294.942a.477.477,0,0,1-.232-.2A.527.527,0,0,1,0,.422.475.475,0,0,1,.474,0L1.75,0l.557,0a.467.467,0,0,1,.458.463.515.515,0,0,1-.027.19.456.456,0,0,1-.19.236.43.43,0,0,1-.181.064.277.277,0,0,1-.067,0" transform="translate(39.978 26.631)" fill="#263238"/>
      <path id="Path_4639" data-name="Path 4639" d="M3.346,0H.9A.9.9,0,0,0,.076,1.265l.959,2.177,2.447-.024S4,.659,3.346,0" transform="translate(49.642 25.595)" fill="#fafafa"/>
      <path id="Path_4640" data-name="Path 4640" d="M0,5.23,12.611,5l8.208-.151,2.707-1.562a.42.42,0,0,0,.124-.618L21.966.453a.939.939,0,0,0-.739-.37L12.047.009A12.876,12.876,0,0,0,5.866,1.333,58.317,58.317,0,0,0,0,5.23" transform="translate(19.044 20.056)" fill="#263238"/>
      <path id="Path_4641" data-name="Path 4641" d="M8.049,0s.632.289.221.555-6.8,4.3-6.8,4.3L0,4.186C2.6,2.736,5.23,1.328,8.049,0" transform="translate(16.774 20.294)" fill="#455a64"/>
      <path id="Path_4642" data-name="Path 4642" d="M.393,0S-.17.63.052,1.093A16.367,16.367,0,0,0,2.561,3.176l1.661.311Z" transform="translate(48.596 21.749)" fill="#455a64"/>
      <path id="Path_4643" data-name="Path 4643" d="M.374,0,0,4.032l6.682-.19L9.375,2.276,7.631,0Z" transform="translate(32.83 20.621)" fill="#455a64"/>
      <path id="Path_4644" data-name="Path 4644" d="M0,4.247A40.586,40.586,0,0,1,5.622.757,10.152,10.152,0,0,1,9.4.018c1.378-.04,2.218,0,2.218,0l-1.065,4.1Z" transform="translate(20.627 20.613)" fill="#455a64"/>
      <path id="Path_4645" data-name="Path 4645" d="M0,1.363H0A.707.707,0,0,1,.36.747l.926-.52A1.765,1.765,0,0,1,2.151,0,1.785,1.785,0,0,1,2.7.088a1,1,0,0,1,.675.922,1.021,1.021,0,0,1-1.02,1.059H.706A.706.706,0,0,1,0,1.363" transform="translate(20.036 23.511)" fill="#0a6f51"/>
      <path id="Path_4646" data-name="Path 4646" d="M0,1.382s0,.031.011.089a.7.7,0,0,0,.365.522.682.682,0,0,0,.238.075A2.7,2.7,0,0,0,.9,2.073l1.412,0A1.067,1.067,0,0,0,2.706,2a1.006,1.006,0,0,0,.585-.579A1.022,1.022,0,0,0,3.352.987,1,1,0,0,0,2.936.249,1.055,1.055,0,0,0,2.553.087,1.742,1.742,0,0,0,1.428.2c-.107.047-.2.107-.3.16L.852.509.377.771a.7.7,0,0,0-.283.28.724.724,0,0,0-.082.241C0,1.351,0,1.382,0,1.382a.448.448,0,0,1,0-.09.69.69,0,0,1,.076-.249A.714.714,0,0,1,.366.75L.837.482,1.111.326c.1-.053.193-.114.3-.163A1.784,1.784,0,0,1,2.153,0a1.819,1.819,0,0,1,.41.047,1.109,1.109,0,0,1,.4.167A1.041,1.041,0,0,1,3.4.984a1.063,1.063,0,0,1-.065.456,1.036,1.036,0,0,1-.246.373,1.047,1.047,0,0,1-.364.23,1.119,1.119,0,0,1-.408.065L.9,2.1a2.47,2.47,0,0,1-.289-.009.718.718,0,0,1-.246-.081.736.736,0,0,1-.287-.293A.689.689,0,0,1,0,1.473a.523.523,0,0,1,0-.09" transform="translate(20.034 23.492)" fill="#263238"/>
      <path id="Path_4647" data-name="Path 4647" d="M1.447.022A6.1,6.1,0,0,1,.723.043,6.094,6.094,0,0,1,0,.022,6.1,6.1,0,0,1,.723,0a6.106,6.106,0,0,1,.723.022" transform="translate(28.46 26.507)" fill="#fff"/>
      <path id="Path_4648" data-name="Path 4648" d="M2.238.013c0,.012-.5.026-1.119.032S0,.046,0,.034.5.008,1.119,0,2.238,0,2.238.013" transform="translate(39.807 26.446)" fill="#fff"/>
      <path id="Path_4649" data-name="Path 4649" d="M2.465.226S2.44.194,2.385.149a.549.549,0,0,0-.273-.11,1.191,1.191,0,0,0-.44.048,3.327,3.327,0,0,0-.52.177A3.4,3.4,0,0,0,.307.789c-.2.165-.3.286-.306.281A.571.571,0,0,1,.07.982,2.665,2.665,0,0,1,.287.766,3.143,3.143,0,0,1,1.135.224,3.179,3.179,0,0,1,1.663.048,1.177,1.177,0,0,1,2.117.009.539.539,0,0,1,2.4.136.358.358,0,0,1,2.451.2c.01.016.015.025.013.026" transform="translate(20.13 23.675)" fill="#fff"/>
      <path id="Path_4650" data-name="Path 4650" d="M26.342.106c0,.059-5.9.106-13.17.106S0,.165,0,.106,5.9,0,13.172,0s13.17.047,13.17.106" transform="translate(57.931 25.988)" fill="#263238"/>
    </g>
    <g id="Group_89924" data-name="Group 89924" transform="translate(389.102 534.659)">
      <path id="Path_4468" data-name="Path 4468" d="M488.247,388.233,453.494,384.9a1.837,1.837,0,0,1-1.727-1.974l6.019-54.314a2.705,2.705,0,0,1,3.016-2.28l33.135,3.173a2.609,2.609,0,0,1,2.452,2.8l-6.019,54.314a1.9,1.9,0,0,1-2.123,1.605" transform="translate(-448.25 -325.988)" fill="#e0e0e0"/>
      <path id="Path_4469" data-name="Path 4469" d="M482.566,387.689l-34.753-3.328a1.837,1.837,0,0,1-1.727-1.974l6.019-54.314a2.7,2.7,0,0,1,3.016-2.28l33.135,3.173a2.609,2.609,0,0,1,2.452,2.8l-6.019,54.314a1.9,1.9,0,0,1-2.123,1.605" transform="translate(-446.076 -325.78)" fill="#f5f5f5"/>
      <path id="Path_4470" data-name="Path 4470" d="M467,406.716l-10.116-.969a1.386,1.386,0,0,1-1.3-1.489l.294-2.648a1.436,1.436,0,0,1,1.6-1.211l10.116.969a1.386,1.386,0,0,1,1.3,1.489l-.293,2.648a1.437,1.437,0,0,1-1.6,1.211" transform="translate(-449.711 -354.333)" fill="#e0e0e0"/>
      <path id="Path_4471" data-name="Path 4471" d="M490.607,350.833l-33-3.161,1.333-12.035,33,3.161Z" transform="translate(-450.487 -329.552)" fill="#fafafa"/>
      <path id="Path_4472" data-name="Path 4472" d="M490.571,350.8s.006-.074.02-.215l.065-.623c.059-.548.144-1.353.256-2.391.225-2.075.551-5.08.955-8.809l.035.04-33-3.144h0l.062-.046c-.467,4.209-.919,8.275-1.336,12.035l-.048-.055,23.65,2.288,6.868.672,1.84.183.476.049c.107.011.164.019.164.019l-.157-.012-.471-.042-1.829-.169-6.859-.643-23.692-2.245-.054,0,.006-.05c.416-3.759.865-7.826,1.331-12.035l.006-.052.056,0h0l33,3.176.039,0,0,.036c-.423,3.737-.764,6.748-1,8.827-.118,1.034-.21,1.836-.273,2.382-.031.269-.056.475-.072.616s-.027.207-.027.207" transform="translate(-450.451 -329.517)" fill="#e0e0e0"/>
      <path id="Path_4473" data-name="Path 4473" d="M463.231,368.9l-3.112-.3a1.191,1.191,0,0,1-1.12-1.28l.32-2.893a1.236,1.236,0,0,1,1.378-1.041l3.111.3a1.192,1.192,0,0,1,1.12,1.28l-.32,2.893a1.236,1.236,0,0,1-1.378,1.041" transform="translate(-451.02 -340.168)" fill="#e0e0e0"/>
      <path id="Path_4474" data-name="Path 4474" d="M461.828,368.761l-3.112-.3a1.193,1.193,0,0,1-1.12-1.28l.321-2.893a1.235,1.235,0,0,1,1.378-1.041l3.111.3a1.192,1.192,0,0,1,1.12,1.28l-.32,2.893a1.236,1.236,0,0,1-1.378,1.041" transform="translate(-450.482 -340.116)" fill="#ebebeb"/>
      <path id="Path_4475" data-name="Path 4475" d="M462.591,365.92l-.241,2.174-.541-.052.2-1.77-.467-.045.044-.4Z" transform="translate(-451.992 -341.104)" fill="#fff"/>
      <path id="Path_4476" data-name="Path 4476" d="M475.9,370.109l-3.111-.3a1.192,1.192,0,0,1-1.12-1.28l.32-2.893a1.236,1.236,0,0,1,1.378-1.041l3.111.3a1.192,1.192,0,0,1,1.12,1.28l-.32,2.893a1.235,1.235,0,0,1-1.378,1.041" transform="translate(-455.869 -340.632)" fill="#e0e0e0"/>
      <path id="Path_4477" data-name="Path 4477" d="M474.5,369.975l-3.111-.3a1.192,1.192,0,0,1-1.12-1.28l.32-2.893a1.236,1.236,0,0,1,1.378-1.041l3.111.3a1.192,1.192,0,0,1,1.12,1.28l-.32,2.893a1.236,1.236,0,0,1-1.378,1.041" transform="translate(-455.331 -340.581)" fill="#ebebeb"/>
      <path id="Path_4478" data-name="Path 4478" d="M475.843,369l-.046.41-1.767-.169.036-.326.99-.706c.227-.164.277-.272.288-.377.018-.17-.1-.282-.344-.306a.6.6,0,0,0-.508.171l-.368-.274a1.139,1.139,0,0,1,.972-.315c.521.05.841.332.8.726-.024.211-.109.4-.467.649l-.59.42Z" transform="translate(-456.773 -341.595)" fill="#fff"/>
      <path id="Path_4479" data-name="Path 4479" d="M489.04,371.367l-3.111-.3a1.192,1.192,0,0,1-1.12-1.28l.32-2.893a1.236,1.236,0,0,1,1.378-1.041l3.111.3a1.192,1.192,0,0,1,1.12,1.28l-.32,2.893a1.236,1.236,0,0,1-1.378,1.041" transform="translate(-460.895 -341.113)" fill="#e0e0e0"/>
      <path id="Path_4480" data-name="Path 4480" d="M487.636,371.233l-3.111-.3a1.192,1.192,0,0,1-1.12-1.28l.32-2.893a1.236,1.236,0,0,1,1.378-1.041l3.111.3a1.192,1.192,0,0,1,1.12,1.28l-.32,2.893a1.236,1.236,0,0,1-1.378,1.041" transform="translate(-460.357 -341.062)" fill="#ebebeb"/>
      <path id="Path_4481" data-name="Path 4481" d="M488.931,369.984c-.041.366-.382.672-1.046.609a1.687,1.687,0,0,1-.867-.318l.253-.365a1.19,1.19,0,0,0,.646.259c.27.026.449-.06.469-.237s-.1-.28-.408-.309l-.247-.023.037-.332.537-.461-1-.1.044-.4,1.637.157-.036.326-.59.509c.414.1.6.365.565.685" transform="translate(-461.743 -342.054)" fill="#fff"/>
      <path id="Path_4482" data-name="Path 4482" d="M502.176,372.625l-3.112-.3a1.191,1.191,0,0,1-1.12-1.28l.32-2.893a1.236,1.236,0,0,1,1.378-1.041l3.111.3a1.193,1.193,0,0,1,1.12,1.281l-.32,2.893a1.236,1.236,0,0,1-1.378,1.041" transform="translate(-465.923 -341.595)" fill="#e0e0e0"/>
      <path id="Path_4483" data-name="Path 4483" d="M500.8,372.491l-3.111-.3a1.192,1.192,0,0,1-1.12-1.28l.32-2.893a1.235,1.235,0,0,1,1.378-1.041l3.111.3a1.193,1.193,0,0,1,1.12,1.281l-.32,2.893a1.236,1.236,0,0,1-1.378,1.041" transform="translate(-465.397 -341.543)" fill="#ebebeb"/>
      <path id="Path_4484" data-name="Path 4484" d="M501.8,371.391l-2.505-.24.022-.2,2.5.24Z" transform="translate(-466.441 -343.066)" fill="#fff"/>
      <path id="Path_4485" data-name="Path 4485" d="M501.675,369.466a.4.4,0,0,1-.448.338.387.387,0,0,1-.364-.416.4.4,0,0,1,.448-.338.387.387,0,0,1,.364.416" transform="translate(-467.04 -342.338)" fill="#fff"/>
      <path id="Path_4486" data-name="Path 4486" d="M501.31,372.756a.4.4,0,0,1-.448.338.387.387,0,0,1-.364-.416.4.4,0,0,1,.448-.338.387.387,0,0,1,.364.416" transform="translate(-466.902 -343.597)" fill="#fff"/>
      <path id="Path_4487" data-name="Path 4487" d="M461.859,381.27l-3.111-.3a1.192,1.192,0,0,1-1.12-1.281l.32-2.892a1.236,1.236,0,0,1,1.378-1.041l3.111.3a1.192,1.192,0,0,1,1.12,1.281l-.32,2.893a1.236,1.236,0,0,1-1.378,1.041" transform="translate(-450.494 -344.903)" fill="#e0e0e0"/>
      <path id="Path_4488" data-name="Path 4488" d="M460.457,381.136l-3.111-.3a1.192,1.192,0,0,1-1.12-1.28l.32-2.893a1.236,1.236,0,0,1,1.378-1.041l3.111.3a1.192,1.192,0,0,1,1.12,1.28l-.32,2.893a1.236,1.236,0,0,1-1.378,1.041" transform="translate(-449.956 -344.852)" fill="#ebebeb"/>
      <path id="Path_4489" data-name="Path 4489" d="M461.326,380.114l-.381-.036-.051.456-.528-.051.051-.456-1.259-.12.037-.338,1.255-1.273.568.054-1.167,1.209.628.06.045-.407.51.049-.044.407.381.036Z" transform="translate(-451.083 -345.877)" fill="#fff"/>
      <path id="Path_4490" data-name="Path 4490" d="M474.532,382.484l-3.111-.3a1.192,1.192,0,0,1-1.12-1.28l.32-2.893A1.236,1.236,0,0,1,472,376.971l3.111.3a1.192,1.192,0,0,1,1.12,1.28l-.32,2.893a1.236,1.236,0,0,1-1.378,1.041" transform="translate(-455.343 -345.368)" fill="#e0e0e0"/>
      <path id="Path_4491" data-name="Path 4491" d="M473.129,382.349l-3.111-.3a1.192,1.192,0,0,1-1.12-1.28l.32-2.893a1.236,1.236,0,0,1,1.378-1.041l3.111.3a1.192,1.192,0,0,1,1.12,1.28l-.32,2.893a1.235,1.235,0,0,1-1.378,1.041" transform="translate(-454.807 -345.316)" fill="#ebebeb"/>
      <path id="Path_4492" data-name="Path 4492" d="M474.038,381.056c-.043.385-.384.691-1.052.627a1.689,1.689,0,0,1-.865-.319l.256-.364a1.174,1.174,0,0,0,.643.259c.271.026.449-.064.469-.241s-.089-.294-.513-.335l-.6-.057.256-1.212,1.426.137-.044.4-.975-.093-.083.409.191.018c.691.066.933.381.89.766" transform="translate(-456.043 -346.305)" fill="#fff"/>
      <path id="Path_4493" data-name="Path 4493" d="M487.668,383.742l-3.111-.3a1.192,1.192,0,0,1-1.12-1.28l.32-2.893a1.236,1.236,0,0,1,1.378-1.041l3.111.3a1.193,1.193,0,0,1,1.12,1.281l-.32,2.893a1.236,1.236,0,0,1-1.378,1.041" transform="translate(-460.371 -345.849)" fill="#e0e0e0"/>
      <path id="Path_4494" data-name="Path 4494" d="M486.265,383.607l-3.111-.3a1.192,1.192,0,0,1-1.12-1.281l.32-2.892a1.236,1.236,0,0,1,1.378-1.041l3.111.3a1.193,1.193,0,0,1,1.12,1.281l-.32,2.893a1.236,1.236,0,0,1-1.378,1.041" transform="translate(-459.833 -345.797)" fill="#ebebeb"/>
      <path id="Path_4495" data-name="Path 4495" d="M487.45,382.357a.8.8,0,0,1-.965.639.956.956,0,0,1-.925-1.177,1.121,1.121,0,0,1,1.322-1.057,1.33,1.33,0,0,1,.635.212l-.241.35a.812.812,0,0,0-.425-.151.613.613,0,0,0-.728.567.836.836,0,0,1,.6-.137.714.714,0,0,1,.73.754m-.527-.025c.022-.2-.121-.341-.362-.364a.366.366,0,0,0-.44.288c-.02.186.115.337.375.362.23.022.4-.086.427-.285" transform="translate(-461.181 -346.818)" fill="#fff"/>
      <path id="Path_4496" data-name="Path 4496" d="M500.8,385l-3.111-.3a1.192,1.192,0,0,1-1.12-1.28l.32-2.893a1.236,1.236,0,0,1,1.378-1.041l3.111.3a1.192,1.192,0,0,1,1.12,1.28l-.32,2.893A1.236,1.236,0,0,1,500.8,385" transform="translate(-465.397 -346.33)" fill="#e0e0e0"/>
      <path id="Path_4497" data-name="Path 4497" d="M499.4,384.865l-3.111-.3a1.192,1.192,0,0,1-1.12-1.28l.32-2.893a1.236,1.236,0,0,1,1.378-1.041l3.111.3a1.192,1.192,0,0,1,1.12,1.28l-.32,2.893a1.236,1.236,0,0,1-1.378,1.041" transform="translate(-464.86 -346.279)" fill="#ebebeb"/>
      <path id="Path_4498" data-name="Path 4498" d="M498.4,384.126l-.133-.157,1.978-1.449.133.157Z" transform="translate(-466.049 -347.493)" fill="#fff"/>
      <path id="Path_4499" data-name="Path 4499" d="M500.143,384.191l-1.589-1.816.167-.126,1.589,1.816Z" transform="translate(-466.158 -347.389)" fill="#fff"/>
      <path id="Path_4500" data-name="Path 4500" d="M460.5,393.544l-3.111-.3a1.191,1.191,0,0,1-1.12-1.28l.32-2.893a1.236,1.236,0,0,1,1.378-1.041l3.111.3a1.192,1.192,0,0,1,1.12,1.28l-.32,2.893a1.236,1.236,0,0,1-1.378,1.041" transform="translate(-449.973 -349.6)" fill="#e0e0e0"/>
      <path id="Path_4501" data-name="Path 4501" d="M459.1,393.41l-3.111-.3a1.192,1.192,0,0,1-1.12-1.28l.32-2.893a1.236,1.236,0,0,1,1.378-1.041l3.111.3a1.192,1.192,0,0,1,1.12,1.28l-.32,2.893a1.236,1.236,0,0,1-1.378,1.041" transform="translate(-449.437 -349.548)" fill="#ebebeb"/>
      <path id="Path_4502" data-name="Path 4502" d="M459.9,390.574l-.036.326-1.073,1.764-.588-.056,1.033-1.683-.775-.074-.039.354-.481-.046.085-.764Z" transform="translate(-450.617 -350.507)" fill="#fff"/>
      <path id="Path_4503" data-name="Path 4503" d="M473.172,394.758l-3.111-.3a1.192,1.192,0,0,1-1.12-1.28l.32-2.893a1.235,1.235,0,0,1,1.378-1.041l3.111.3a1.192,1.192,0,0,1,1.12,1.28l-.32,2.893a1.236,1.236,0,0,1-1.378,1.041" transform="translate(-454.822 -350.064)" fill="#e0e0e0"/>
      <path id="Path_4504" data-name="Path 4504" d="M471.768,394.623l-3.112-.3a1.193,1.193,0,0,1-1.12-1.28l.321-2.893a1.235,1.235,0,0,1,1.378-1.041l3.111.3a1.193,1.193,0,0,1,1.12,1.281l-.32,2.893a1.236,1.236,0,0,1-1.378,1.041" transform="translate(-454.286 -350.013)" fill="#ebebeb"/>
      <path id="Path_4505" data-name="Path 4505" d="M472.941,393.418c-.045.41-.468.63-1.062.573s-.953-.352-.907-.761a.564.564,0,0,1,.41-.478.491.491,0,0,1-.221-.473c.042-.382.436-.586.967-.535s.878.326.836.707a.512.512,0,0,1-.323.421.542.542,0,0,1,.3.546m-.546-.068c.022-.193-.136-.327-.406-.353s-.448.077-.469.269.132.33.4.356.455-.079.476-.272m-.7-1c-.019.164.111.28.331.3s.378-.067.4-.231-.116-.287-.337-.309-.372.068-.391.239" transform="translate(-455.602 -351.02)" fill="#fff"/>
      <path id="Path_4506" data-name="Path 4506" d="M486.308,396.016l-3.111-.3a1.192,1.192,0,0,1-1.12-1.28l.32-2.893a1.236,1.236,0,0,1,1.378-1.041l3.111.3a1.192,1.192,0,0,1,1.12,1.281l-.32,2.893a1.236,1.236,0,0,1-1.378,1.041" transform="translate(-459.85 -350.546)" fill="#e0e0e0"/>
      <path id="Path_4507" data-name="Path 4507" d="M484.9,395.881l-3.111-.3a1.192,1.192,0,0,1-1.12-1.28l.32-2.893a1.235,1.235,0,0,1,1.378-1.041l3.111.3a1.193,1.193,0,0,1,1.12,1.281l-.32,2.893a1.236,1.236,0,0,1-1.378,1.041" transform="translate(-459.312 -350.494)" fill="#ebebeb"/>
      <path id="Path_4508" data-name="Path 4508" d="M486.035,394.157a1.12,1.12,0,0,1-1.322,1.056,1.324,1.324,0,0,1-.632-.211l.241-.351a.791.791,0,0,0,.425.151.615.615,0,0,0,.728-.57.847.847,0,0,1-.6.14.713.713,0,0,1-.73-.754.8.8,0,0,1,.965-.639.955.955,0,0,1,.926,1.178m-.562-.437c.02-.186-.115-.337-.372-.362-.23-.022-.4.086-.427.285s.121.341.361.364a.362.362,0,0,0,.437-.288" transform="translate(-460.621 -351.494)" fill="#fff"/>
      <path id="Path_4509" data-name="Path 4509" d="M499.445,397.274l-3.111-.3a1.192,1.192,0,0,1-1.12-1.28l.32-2.893a1.236,1.236,0,0,1,1.378-1.041l3.111.3a1.192,1.192,0,0,1,1.12,1.28l-.32,2.893a1.236,1.236,0,0,1-1.378,1.041" transform="translate(-464.876 -351.027)" fill="#e0e0e0"/>
      <path id="Path_4510" data-name="Path 4510" d="M498.04,397.139l-3.111-.3a1.192,1.192,0,0,1-1.12-1.28l.32-2.893a1.236,1.236,0,0,1,1.378-1.041l3.111.3a1.192,1.192,0,0,1,1.12,1.28l-.32,2.893a1.236,1.236,0,0,1-1.378,1.041" transform="translate(-464.34 -350.975)" fill="#ebebeb"/>
      <path id="Path_4511" data-name="Path 4511" d="M499.074,396.179l-2.505-.24.022-.2,2.505.24Z" transform="translate(-465.399 -352.552)" fill="#fff"/>
      <path id="Path_4512" data-name="Path 4512" d="M484.936,408.4l-3.111-.3a1.192,1.192,0,0,1-1.12-1.28l.32-2.893a1.236,1.236,0,0,1,1.378-1.041l3.111.3a1.193,1.193,0,0,1,1.12,1.281l-.32,2.893a1.236,1.236,0,0,1-1.378,1.041" transform="translate(-459.325 -355.284)" fill="#e0e0e0"/>
      <path id="Path_4513" data-name="Path 4513" d="M483.533,408.263l-3.111-.3a1.192,1.192,0,0,1-1.12-1.28l.32-2.893A1.236,1.236,0,0,1,481,402.75l3.111.3a1.192,1.192,0,0,1,1.12,1.281l-.32,2.893a1.236,1.236,0,0,1-1.378,1.041" transform="translate(-458.789 -355.233)" fill="#ebebeb"/>
      <path id="Path_4514" data-name="Path 4514" d="M498.072,409.655l-3.111-.3a1.192,1.192,0,0,1-1.12-1.28l.32-2.893a1.236,1.236,0,0,1,1.378-1.041l3.111.3a1.193,1.193,0,0,1,1.121,1.281l-.321,2.893a1.236,1.236,0,0,1-1.378,1.041" transform="translate(-464.351 -355.765)" fill="#e0e0e0"/>
      <path id="Path_4515" data-name="Path 4515" d="M496.669,409.521l-3.111-.3a1.192,1.192,0,0,1-1.12-1.28l.32-2.893a1.236,1.236,0,0,1,1.378-1.041l3.111.3a1.193,1.193,0,0,1,1.12,1.281l-.32,2.893a1.236,1.236,0,0,1-1.378,1.041" transform="translate(-463.815 -355.714)" fill="#ebebeb"/>
      <path id="Path_4516" data-name="Path 4516" d="M497.754,408.095l-2.505-.24.022-.2,2.5.24Z" transform="translate(-464.893 -357.112)" fill="#fff"/>
      <path id="Path_4517" data-name="Path 4517" d="M497.595,409.531l-2.505-.24.022-.2,2.5.24Z" transform="translate(-464.833 -357.662)" fill="#fff"/>
      <path id="Path_4518" data-name="Path 4518" d="M464.93,406.52l-10.54-1.009a1.433,1.433,0,0,1-1.346-1.538l.283-2.558a1.485,1.485,0,0,1,1.655-1.251l10.54,1.009a1.432,1.432,0,0,1,1.346,1.538l-.284,2.557a1.484,1.484,0,0,1-1.655,1.251" transform="translate(-448.739 -354.242)" fill="#ebebeb"/>
      <path id="Path_4519" data-name="Path 4519" d="M463.426,404.429a1.024,1.024,0,0,1,1.126-1.028.988.988,0,0,1,.878,1.22,1.022,1.022,0,0,1-1.127,1.028.989.989,0,0,1-.877-1.219m1.459.139c.055-.494-.11-.717-.38-.743s-.477.162-.532.655.11.717.377.742.48-.161.535-.654" transform="translate(-452.711 -355.482)" fill="#fff"/>
      <path id="Path_4520" data-name="Path 4520" d="M483.908,407.665l-.214-.023.3-2.325.214.023Z" transform="translate(-460.471 -356.217)" fill="#fff"/>
      <path id="Path_4521" data-name="Path 4521" d="M484.566,407.3l-2.505-.24.022-.2,2.505.24Z" transform="translate(-459.846 -356.809)" fill="#fff"/>
    </g>
    <rect id="Rectangle_2917" data-name="Rectangle 2917" width="38.523" height="48.525" transform="translate(168.442 384.16) rotate(-75.845)" fill="#fff"/>
    <rect id="Rectangle_2918" data-name="Rectangle 2918" width="10.083" height="48.525" transform="translate(175.397 356.582) rotate(-75.845)" fill="#ebebeb"/>
    <path id="Path_4450" data-name="Path 4450" d="M154.227,177.069a4.17,4.17,0,0,1,.1-.517c.082-.362.187-.824.315-1.39.274-1.187.666-2.86,1.155-4.853l.1.159-6.732-1.676.183-.109v.005l0,.007,0,.014-.007.029-.014.058-.029.115-.058.229-.116.456-.228.9q-.226.89-.442,1.738l-.816,3.17-.095-.159c1.987.514,3.645.963,4.821,1.285l1.373.382a4.058,4.058,0,0,1,.5.158,2.665,2.665,0,0,1-.465-.086l-1.361-.308c-1.179-.272-2.885-.673-4.935-1.176l-.127-.031.032-.128c.243-.983.507-2.049.786-3.178q.212-.849.435-1.74l.226-.9.115-.456.058-.23.029-.115.014-.058.007-.029,0-.014,0-.007v-.005l.185-.111,6.723,1.717.128.032-.033.127c-.528,2.042-.986,3.734-1.305,4.9l-.374,1.345a2.7,2.7,0,0,1-.145.45" transform="translate(27.817 190.094)" fill="#e0e0e0"/>
    <path id="Path_4451" data-name="Path 4451" d="M171.895,181.525a4.177,4.177,0,0,1,.1-.517c.082-.362.186-.824.315-1.39.274-1.187.666-2.86,1.155-4.853l.095.159-6.732-1.677.183-.109v.005l0,.007,0,.014-.007.029-.014.058-.029.115-.058.23-.116.456-.228.9-.442,1.738-.816,3.17-.095-.159c1.987.514,3.645.963,4.821,1.285l1.373.382a4.052,4.052,0,0,1,.5.158,2.666,2.666,0,0,1-.465-.086l-1.361-.308c-1.179-.272-2.885-.672-4.935-1.176l-.127-.031.032-.128c.243-.983.507-2.049.786-3.178l.435-1.74.226-.9.115-.456.058-.23.029-.115.014-.058.007-.029,0-.014v-.013l.185-.111,6.723,1.717.128.032-.033.127c-.528,2.042-.986,3.734-1.305,4.9l-.374,1.344a2.7,2.7,0,0,1-.145.45" transform="translate(18.956 187.86)" fill="#e0e0e0"/>
    <path id="Path_4452" data-name="Path 4452" d="M189.562,185.981a4.173,4.173,0,0,1,.1-.517c.082-.362.187-.824.315-1.39.274-1.188.666-2.86,1.155-4.853l.1.159-6.733-1.676.183-.109v.005l0,.007,0,.014-.007.029-.014.058-.029.115-.058.229-.116.456q-.114.455-.228.9-.226.89-.442,1.738c-.29,1.126-.563,2.189-.815,3.17l-.1-.159c1.987.514,3.645.963,4.821,1.285l1.373.382a4.051,4.051,0,0,1,.5.158,2.744,2.744,0,0,1-.465-.086l-1.361-.308c-1.179-.273-2.885-.672-4.935-1.176l-.127-.031.032-.128c.243-.983.506-2.049.786-3.178l.435-1.74.226-.9.115-.456.058-.23.029-.115.014-.058.007-.029,0-.014,0-.007v-.005l.185-.111,6.723,1.717.128.032-.033.127c-.528,2.042-.986,3.734-1.305,4.9l-.374,1.344a2.7,2.7,0,0,1-.145.45" transform="translate(10.096 185.624)" fill="#e0e0e0"/>
    <path id="Path_4453" data-name="Path 4453" d="M207.23,190.437a4.163,4.163,0,0,1,.1-.517c.082-.362.187-.824.315-1.39.274-1.187.666-2.86,1.155-4.853l.1.159-6.732-1.677.183-.109v.005l0,.007,0,.014-.007.029-.014.058-.029.115-.058.229-.116.456q-.114.455-.228.9l-.442,1.738-.816,3.17-.095-.159c1.987.514,3.645.963,4.821,1.285l1.373.382a4.054,4.054,0,0,1,.5.158,2.73,2.73,0,0,1-.465-.086l-1.361-.308c-1.179-.272-2.885-.672-4.935-1.176l-.127-.031.032-.128c.243-.983.507-2.049.786-3.178q.212-.849.435-1.74l.226-.9.115-.456.058-.23.029-.115.014-.058.007-.029,0-.014v-.012l.185-.111,6.723,1.717.128.032-.033.127c-.528,2.042-.986,3.734-1.305,4.9l-.374,1.344a2.768,2.768,0,0,1-.145.45" transform="translate(1.236 183.39)" fill="#e0e0e0"/>
    <path id="Path_4454" data-name="Path 4454" d="M224.9,194.893a4.213,4.213,0,0,1,.1-.517l.316-1.39c.274-1.187.666-2.86,1.155-4.853l.1.159-6.732-1.677.183-.109v.005l0,.007,0,.014-.007.029-.014.058-.029.115-.058.229-.115.456-.228.9-.443,1.738c-.289,1.126-.563,2.189-.815,3.17l-.095-.159c1.987.514,3.645.963,4.821,1.285l1.373.382a4.086,4.086,0,0,1,.5.158,2.666,2.666,0,0,1-.465-.086l-1.361-.308c-1.18-.272-2.885-.672-4.935-1.176l-.127-.031.032-.128c.243-.983.507-2.049.786-3.178q.212-.849.435-1.74l.226-.9.115-.456.058-.23.029-.115.014-.058.007-.029,0-.014v-.013c-.165.1.224-.136.185-.111l6.723,1.717.128.032-.033.127c-.528,2.043-.986,3.734-1.305,4.9l-.374,1.344a2.769,2.769,0,0,1-.145.45" transform="translate(-7.624 181.156)" fill="#e0e0e0"/>
    <path id="Path_4455" data-name="Path 4455" d="M149.85,194.426a4.18,4.18,0,0,1,.1-.517c.082-.362.186-.824.315-1.39.274-1.187.666-2.86,1.155-4.853l.1.159-6.733-1.677.183-.109v.005l0,.007,0,.014-.007.029-.014.058-.029.115-.058.229-.116.456-.228.9q-.226.89-.442,1.738l-.816,3.17-.095-.159c1.987.514,3.645.963,4.821,1.285l1.373.382a4.048,4.048,0,0,1,.5.158,2.666,2.666,0,0,1-.465-.086l-1.361-.308c-1.18-.273-2.885-.672-4.935-1.176l-.127-.031.032-.128c.243-.983.506-2.049.786-3.178q.212-.849.435-1.74l.226-.9.115-.456.058-.23.029-.115.014-.058.007-.029,0-.014v-.013l.185-.111,6.723,1.717.128.032-.033.127c-.528,2.042-.986,3.734-1.305,4.9l-.374,1.344a2.7,2.7,0,0,1-.145.45" transform="translate(30.013 181.389)" fill="#e0e0e0"/>
    <path id="Path_4456" data-name="Path 4456" d="M167.517,198.882a4.167,4.167,0,0,1,.1-.517c.082-.362.187-.825.315-1.39.274-1.188.666-2.86,1.155-4.853l.1.159-6.732-1.677c-.041.023.348-.208.183-.109v.005l0,.007,0,.014-.007.029-.014.058-.029.115-.058.229-.116.456q-.114.454-.228.9-.226.89-.442,1.738l-.816,3.17-.095-.159c1.987.514,3.645.963,4.821,1.285l1.373.381a4.093,4.093,0,0,1,.5.158,2.732,2.732,0,0,1-.465-.086l-1.361-.308c-1.179-.272-2.885-.672-4.935-1.175l-.127-.031.032-.129.786-3.177q.212-.849.435-1.74l.226-.9.115-.457.058-.229.029-.115.014-.058.007-.029,0-.014,0-.007v-.005l.185-.111,6.723,1.717.128.032-.033.127c-.528,2.042-.986,3.734-1.305,4.9-.153.547-.277.994-.374,1.344a2.7,2.7,0,0,1-.145.45" transform="translate(21.152 179.155)" fill="#e0e0e0"/>
    <path id="Path_4457" data-name="Path 4457" d="M185.185,203.338a4.171,4.171,0,0,1,.1-.517c.082-.362.186-.824.315-1.39.274-1.187.666-2.86,1.155-4.853l.095.159-6.732-1.677.183-.109v.005l0,.007,0,.014-.007.029-.014.058-.029.115-.058.229-.116.456-.228.9q-.226.89-.442,1.738c-.29,1.126-.563,2.189-.815,3.17l-.1-.159c1.987.514,3.645.963,4.821,1.285l1.373.382a4.059,4.059,0,0,1,.5.158,2.728,2.728,0,0,1-.465-.086l-1.361-.308c-1.179-.273-2.885-.673-4.935-1.176l-.127-.031.032-.129.786-3.177.435-1.74.226-.9.115-.456.058-.23.029-.115.014-.058L180,194.9l0-.014,0-.007v-.005c-.165.1.224-.136.185-.111l6.723,1.717.128.032-.033.127c-.528,2.042-.986,3.734-1.305,4.9l-.374,1.344a2.7,2.7,0,0,1-.145.45" transform="translate(12.292 176.92)" fill="#e0e0e0"/>
    <path id="Path_4458" data-name="Path 4458" d="M202.853,207.793a4.18,4.18,0,0,1,.1-.517c.082-.362.187-.824.315-1.39.274-1.187.666-2.86,1.155-4.853l.095.159-6.732-1.677.183-.109v.005l0,.007,0,.014-.007.029-.014.058-.029.115-.058.229-.116.456-.228.9q-.226.89-.442,1.738c-.29,1.126-.563,2.189-.815,3.17l-.1-.159c1.987.514,3.645.963,4.821,1.285l1.373.382a4.047,4.047,0,0,1,.5.158,2.666,2.666,0,0,1-.465-.086l-1.361-.308c-1.179-.273-2.885-.672-4.935-1.176l-.127-.031.032-.128c.243-.983.506-2.049.786-3.178l.435-1.74.226-.9.115-.456.058-.23.029-.115.014-.058.007-.029,0-.014,0-.007v-.005l.185-.111,6.722,1.717.128.032-.033.127c-.528,2.042-.986,3.734-1.305,4.9L203,207.342a2.7,2.7,0,0,1-.145.45" transform="translate(3.43 174.686)" fill="#e0e0e0"/>
    <path id="Path_4459" data-name="Path 4459" d="M220.52,212.249a4.17,4.17,0,0,1,.1-.517c.082-.362.187-.824.315-1.39.274-1.187.666-2.86,1.155-4.853l.1.159-6.732-1.677.183-.109v.005l0,.007,0,.014-.007.029-.014.058-.029.115-.058.229-.116.457-.228.9q-.226.89-.442,1.738l-.816,3.17-.095-.159c1.987.514,3.645.963,4.821,1.285l1.373.382a4.056,4.056,0,0,1,.5.158,2.663,2.663,0,0,1-.465-.086l-1.361-.308c-1.179-.272-2.885-.672-4.935-1.176l-.127-.031.032-.128c.243-.983.507-2.049.786-3.178l.435-1.74.226-.9.115-.456.058-.23.029-.115.014-.058.007-.029,0-.014,0-.007v-.005l.185-.111,6.723,1.717.128.032-.033.127c-.528,2.042-.986,3.734-1.305,4.9l-.374,1.344a2.707,2.707,0,0,1-.145.45" transform="translate(-5.428 172.451)" fill="#e0e0e0"/>
    <rect id="Rectangle_2919" data-name="Rectangle 2919" width="6.939" height="6.939" transform="matrix(0.245, -0.97, 0.97, 0.245, 171.096, 382.193)" fill="#e0e0e0"/>
    <path id="Path_4460" data-name="Path 4460" d="M163.432,215.08a4.109,4.109,0,0,1,.1-.517l.316-1.39c.274-1.187.666-2.86,1.155-4.853l.1.159-6.732-1.676.183-.109v.005l0,.007,0,.014-.007.029-.014.058-.029.115-.058.229-.115.457-.228.9-.443,1.738c-.289,1.126-.563,2.189-.815,3.17l-.1-.159c1.987.514,3.645.963,4.821,1.285l1.373.382a4.082,4.082,0,0,1,.5.158,2.679,2.679,0,0,1-.465-.086l-1.36-.308c-1.179-.272-2.885-.672-4.935-1.176l-.127-.031.032-.128c.243-.983.506-2.049.786-3.178q.212-.849.435-1.74l.226-.9.115-.456.057-.23.029-.115.014-.058.007-.029,0-.014v-.013c-.164.1.224-.136.185-.111l6.723,1.717.128.032-.033.127c-.528,2.042-.986,3.734-1.305,4.9-.153.547-.277.994-.374,1.345a2.764,2.764,0,0,1-.145.45" transform="translate(23.202 171.032)" fill="#e0e0e0"/>
    <path id="Path_4461" data-name="Path 4461" d="M181.1,219.535a4.171,4.171,0,0,1,.1-.517c.082-.362.187-.824.315-1.39.274-1.187.666-2.86,1.155-4.853l.1.16-6.732-1.677.183-.109v.005l0,.007,0,.014-.007.029-.014.058-.029.115-.058.229-.116.457q-.114.454-.228.9l-.442,1.738-.816,3.17-.095-.159c1.987.514,3.645.963,4.821,1.285l1.373.382a4.053,4.053,0,0,1,.5.158,2.664,2.664,0,0,1-.465-.086l-1.361-.308c-1.18-.272-2.885-.672-4.935-1.176l-.127-.031.032-.128c.243-.983.507-2.049.786-3.178q.212-.849.435-1.74l.226-.9.115-.456.058-.23.029-.115.014-.058.007-.029,0-.014,0-.007v0h0c-.165.1.225-.136.185-.112l6.723,1.717.128.032-.033.127c-.528,2.043-.986,3.734-1.305,4.9l-.374,1.344a2.7,2.7,0,0,1-.145.45" transform="translate(14.342 168.798)" fill="#e0e0e0"/>
    <path id="Path_4462" data-name="Path 4462" d="M198.768,223.991a4.177,4.177,0,0,1,.1-.517c.082-.362.186-.824.315-1.39.274-1.187.666-2.86,1.155-4.853l.1.159-6.733-1.676.183-.109v.005l0,.007,0,.014-.007.029-.014.058-.029.115-.058.229-.116.456q-.114.455-.228.9l-.442,1.738-.816,3.17-.095-.159c1.987.514,3.645.963,4.821,1.285l1.373.382a4.053,4.053,0,0,1,.5.158,2.728,2.728,0,0,1-.465-.086l-1.361-.308c-1.18-.272-2.885-.672-4.935-1.176l-.127-.031.032-.128c.243-.983.507-2.049.786-3.178q.212-.849.435-1.74l.226-.9.115-.456.057-.23.029-.115.014-.058.007-.029,0-.014v-.012c-.165.1.224-.136.185-.111l6.723,1.717.128.032-.033.127c-.528,2.042-.986,3.734-1.305,4.9l-.374,1.344a2.7,2.7,0,0,1-.145.45" transform="translate(5.482 166.563)" fill="#e0e0e0"/>
    <path id="Path_4463" data-name="Path 4463" d="M216.435,228.447a4.176,4.176,0,0,1,.1-.517c.082-.362.187-.824.315-1.39.274-1.187.666-2.86,1.155-4.853l.1.159-6.732-1.676.183-.109v.005l0,.007,0,.014-.007.029-.014.058-.029.115-.058.229-.115.456q-.114.455-.228.9l-.442,1.738-.816,3.17-.095-.159c1.987.514,3.645.963,4.821,1.285l1.373.382a4.045,4.045,0,0,1,.5.158,2.736,2.736,0,0,1-.465-.086l-1.361-.308c-1.179-.272-2.885-.673-4.935-1.176l-.127-.031.032-.128c.243-.983.507-2.049.786-3.178q.212-.849.435-1.74l.226-.9.115-.456.057-.23.029-.115.014-.058.007-.029,0-.014,0-.007v-.006l.185-.111,6.723,1.717.128.032-.033.127c-.528,2.042-.986,3.734-1.305,4.9L216.579,228a2.7,2.7,0,0,1-.145.45" transform="translate(-3.378 164.329)" fill="#e0e0e0"/>
    <path id="Path_4464" data-name="Path 4464" d="M170.3,149.791l-.66-.167a.731.731,0,0,1-.53-.889l1.2-4.753a.732.732,0,0,1,.889-.53l.66.166a.732.732,0,0,1,.531.888l-1.2,4.753a.732.732,0,0,1-.889.531" transform="translate(16.911 202.663)" fill="#e0e0e0"/>
    <path id="Path_4465" data-name="Path 4465" d="M197.417,156.631l-.66-.167a.732.732,0,0,1-.531-.889l1.2-4.752a.732.732,0,0,1,.889-.531l.66.166a.732.732,0,0,1,.531.889l-1.2,4.753a.732.732,0,0,1-.889.531" transform="translate(3.312 199.233)" fill="#e0e0e0"/>
    <path id="Path_4466" data-name="Path 4466" d="M224.537,163.471l-.659-.166a.733.733,0,0,1-.531-.889l1.2-4.752a.732.732,0,0,1,.889-.531l.66.166a.733.733,0,0,1,.531.889l-1.2,4.753a.732.732,0,0,1-.889.531" transform="translate(-10.288 195.803)" fill="#e0e0e0"/>
    <path id="Path_4467" data-name="Path 4467" d="M180.42,194.562s.053-.247.165-.71.282-1.151.5-2.038L183,184.1c1.659-6.642,4.031-16.137,6.89-27.587l.092.154-47.055-11.841h0l.184-.11-9.6,38.017-.1-.165,33.962,8.635,9.621,2.464,2.551.66.658.174c.149.04.227.065.227.065s-.071-.012-.215-.046l-.648-.155-2.533-.623-9.609-2.386-34.08-8.525-.132-.033.033-.132,9.573-38.025.037-.148.147.037h0l47.042,11.89.123.031-.031.123c-2.921,11.469-5.342,20.979-7.037,27.632-.847,3.3-1.513,5.9-1.969,7.674l-.521,2.008c-.119.452-.185.676-.185.676" transform="translate(34.906 202.132)" fill="#e0e0e0"/>
  </g>
</svg>
