<svg xmlns="http://www.w3.org/2000/svg" width="36.065" height="45.9" viewBox="0 0 36.065 45.9">
  <g id="noun-balance-sheet-180803" transform="translate(-175 -35)">
    <path id="Path_5312" data-name="Path 5312" d="M209.425,35H179.918a1.639,1.639,0,0,0-1.639,1.639v1.639h-1.639A1.639,1.639,0,0,0,175,39.918V79.261a1.639,1.639,0,0,0,1.639,1.639h29.507a1.639,1.639,0,0,0,1.639-1.639V77.622h1.639a1.639,1.639,0,0,0,1.639-1.639V36.639A1.639,1.639,0,0,0,209.425,35ZM176.639,79.261V39.918h22.95v4.918a1.639,1.639,0,0,0,1.639,1.639h4.918V79.261ZM201.229,40.6l4.239,4.239h-4.239Zm8.2,35.385h-1.639V44.836l-6.557-6.557H179.918V36.639h29.507Z" fill="#47d7ac"/>
    <path id="Path_5313" data-name="Path 5313" d="M254.836,212.172a9.836,9.836,0,1,1,9.836-9.836A9.846,9.846,0,0,1,254.836,212.172Zm0-18.032a8.2,8.2,0,1,0,8.2,8.2A8.206,8.206,0,0,0,254.836,194.139Z" transform="translate(-63.443 -142.746)" fill="#47d7ac"/>
    <path id="Path_5314" data-name="Path 5314" d="M292.295,264.139H280.82a.82.82,0,1,1,0-1.639h11.475a.82.82,0,1,1,0,1.639Z" transform="translate(-95.164 -206.189)" fill="#47d7ac"/>
    <path id="Path_5315" data-name="Path 5315" d="M318.28,281.639l1.639,3.279H316.64l1.639-3.279m0-1.639a1.639,1.639,0,0,0-1.466.906l-1.639,3.279a1.639,1.639,0,0,0,1.466,2.373h3.279a1.639,1.639,0,0,0,1.466-2.373l-1.639-3.279A1.64,1.64,0,0,0,318.28,280Z" transform="translate(-126.887 -222.05)" fill="#47d7ac"/>
  </g>
</svg>
