<svg xmlns="http://www.w3.org/2000/svg" width="42.814" height="42.813" viewBox="0 0 42.814 42.813">
  <g id="Group_90094" data-name="Group 90094" transform="translate(15560.926 15643)">
    <path id="Path_5316" data-name="Path 5316" d="M171.5,61.6H143.132a5.4,5.4,0,0,0-5.39,5.39v28.8l-1.4,1.4-2.152-2.148-2.586,2.6v3.853a2.925,2.925,0,0,0,2.921,2.921h30.835a2.926,2.926,0,0,0,2.921-2.921V83.456H171.5a2.926,2.926,0,0,0,2.921-2.921V64.518A2.926,2.926,0,0,0,171.5,61.6Zm-4.119,2.921V101.49a2.018,2.018,0,0,1-2.017,2.017h-1.2a2.018,2.018,0,0,1-2.017-2.017V97.823a.206.206,0,0,0-.014-.059.636.636,0,0,0-.018-.095.449.449,0,0,0-.045-.081.325.325,0,0,0-.027-.054l-2.1-2.523-2.175,2.17-2.139-2.139-2.143,2.139-2.143-2.139L149.2,97.181l-2.143-2.139-2.139,2.139-2.144-2.139-2.143,2.139-1.98-1.976V66.988a4.491,4.491,0,0,1,4.485-4.485h25.061a2.907,2.907,0,0,0-.814,2.016Z" transform="translate(-15692.531 -15704.597)" fill="#47d7ac"/>
    <path id="Path_5317" data-name="Path 5317" d="M297.476,96.711v2.822a.514.514,0,0,0,.11.36.37.37,0,0,0,.285.119.365.365,0,0,0,.281-.118.519.519,0,0,0,.109-.362V96.71h.858a.442.442,0,0,0,.3-.089.3.3,0,0,0,.1-.234.3.3,0,0,0-.1-.236.438.438,0,0,0-.3-.09h-2.5a.441.441,0,0,0-.3.087.3.3,0,0,0-.1.238.3.3,0,0,0,.1.234.434.434,0,0,0,.3.089h.859Z" transform="translate(-15841.009 -15735.684)" fill="#47d7ac"/>
    <path id="Path_5318" data-name="Path 5318" d="M328.34,99.056a.383.383,0,0,0,.376.355.3.3,0,0,0,.252-.1,1.77,1.77,0,0,0,.186-.394l.186-.5h1.579l.186.487a1.467,1.467,0,0,0,.186.383.34.34,0,0,0,.27.123.37.37,0,0,0,.272-.113.344.344,0,0,0,.113-.248,1.255,1.255,0,0,0-.119-.416l-1.015-2.506a2.351,2.351,0,0,0-.232-.512.537.537,0,0,0-.452-.222.527.527,0,0,0-.449.225,2.719,2.719,0,0,0-.229.514c0,.008-.994,2.522-.994,2.522a1.1,1.1,0,0,0-.115.4Zm1.78-2.832.586,1.6h-1.161Z" transform="translate(-15869.981 -15735.082)" fill="#47d7ac"/>
    <path id="Path_5319" data-name="Path 5319" d="M367.57,99.066a.331.331,0,0,0,.094.254.334.334,0,0,0,.237.087.414.414,0,0,0,.161-.029c.156-.066.242-.238.326-.368l.726-1.108.683,1.076c.123.188.231.429.49.429a.378.378,0,0,0,.186-.045.331.331,0,0,0,.128-.122c.126-.215-.052-.477-.167-.654l-.824-1.269.766-1.144c.123-.184.319-.5.11-.693a.337.337,0,0,0-.243-.089.348.348,0,0,0-.144.028c-.159.071-.257.289-.348.428l-.623.943-.583-.943c-.119-.194-.248-.456-.509-.456a.352.352,0,0,0-.243.089c-.219.2-.017.516.107.709l.731,1.128-.869,1.269a.908.908,0,0,0-.193.479Z" transform="translate(-15905.367 -15735.079)" fill="#47d7ac"/>
    <path id="Path_5320" data-name="Path 5320" d="M225.658,157.61h-4.239a.452.452,0,1,0,0,.9h4.239a.452.452,0,0,0,0-.9Z" transform="translate(-15773.133 -15791.199)" fill="#47d7ac"/>
    <path id="Path_5321" data-name="Path 5321" d="M315.363,157.61H298.689a.452.452,0,0,0,0,.9h16.674a.452.452,0,1,0,0-.9Z" transform="translate(-15842.829 -15791.199)" fill="#47d7ac"/>
    <path id="Path_5322" data-name="Path 5322" d="M225.658,193.36h-4.239a.452.452,0,1,0,0,.9h4.239a.452.452,0,0,0,0-.9Z" transform="translate(-15773.133 -15823.444)" fill="#47d7ac"/>
    <path id="Path_5323" data-name="Path 5323" d="M315.363,193.36H298.689a.452.452,0,0,0,0,.9h16.674a.452.452,0,1,0,0-.9Z" transform="translate(-15842.829 -15823.444)" fill="#47d7ac"/>
    <path id="Path_5324" data-name="Path 5324" d="M225.658,229.11h-4.239a.452.452,0,1,0,0,.9h4.239a.452.452,0,0,0,0-.9Z" transform="translate(-15773.133 -15855.691)" fill="#47d7ac"/>
    <path id="Path_5325" data-name="Path 5325" d="M315.363,229.11H298.689a.452.452,0,0,0,0,.9h16.674a.452.452,0,1,0,0-.9Z" transform="translate(-15842.829 -15855.691)" fill="#47d7ac"/>
    <path id="Path_5326" data-name="Path 5326" d="M225.658,264.87h-4.239a.452.452,0,1,0,0,.9h4.239a.452.452,0,0,0,0-.9Z" transform="translate(-15773.133 -15887.946)" fill="#47d7ac"/>
    <path id="Path_5327" data-name="Path 5327" d="M225.658,300.62h-4.239a.452.452,0,1,0,0,.9h4.239a.452.452,0,0,0,0-.9Z" transform="translate(-15773.133 -15920.192)" fill="#47d7ac"/>
    <path id="Path_5328" data-name="Path 5328" d="M225.658,336.38h-4.239a.452.452,0,0,0,0,.9h4.239a.452.452,0,0,0,0-.9Z" transform="translate(-15773.133 -15952.447)" fill="#47d7ac"/>
    <path id="Path_5329" data-name="Path 5329" d="M225.658,372.13h-4.239a.452.452,0,1,0,0,.9h4.239a.452.452,0,0,0,0-.9Z" transform="translate(-15773.133 -15984.692)" fill="#47d7ac"/>
    <path id="Path_5330" data-name="Path 5330" d="M315.363,264.87H298.689a.452.452,0,0,0,0,.9h16.674a.452.452,0,1,0,0-.9Z" transform="translate(-15842.829 -15887.946)" fill="#47d7ac"/>
    <path id="Path_5331" data-name="Path 5331" d="M307.024,300.62h-8.337a.452.452,0,1,0,0,.9h8.337a.452.452,0,0,0,0-.9Z" transform="translate(-15842.827 -15920.192)" fill="#47d7ac"/>
    <path id="Path_5332" data-name="Path 5332" d="M304.539,336.38h-5.856a.452.452,0,0,0,0,.9h5.856a.452.452,0,0,0,0-.9Z" transform="translate(-15842.823 -15952.447)" fill="#47d7ac"/>
    <path id="Path_5333" data-name="Path 5333" d="M302.983,372.13h-4.3a.452.452,0,0,0,0,.9h4.3a.452.452,0,0,0,0-.9Z" transform="translate(-15842.827 -15984.692)" fill="#47d7ac"/>
    <path id="Path_5334" data-name="Path 5334" d="M422.909,291.137a1.143,1.143,0,0,1,1.141,1.141.452.452,0,0,0,.9,0,2.042,2.042,0,0,0-1.486-1.958v-.939a.452.452,0,0,0-.9,0v.886a2.042,2.042,0,0,0,.345,4.056,1.141,1.141,0,1,1-1.142,1.141.452.452,0,0,0-.9,0,2.044,2.044,0,0,0,1.7,2.011v.887a.452.452,0,1,0,.9,0v-.94a2.04,2.04,0,0,0-.56-4,1.141,1.141,0,1,1,0-2.281Z" transform="translate(-15953.436 -15909.646)" fill="#47d7ac"/>
  </g>
</svg>
