<svg id="Group_90231" data-name="Group 90231" xmlns="http://www.w3.org/2000/svg" xmlns:xlink="http://www.w3.org/1999/xlink" width="302.875" height="341.84" viewBox="0 0 302.875 341.84">
  <defs>
    <clipPath id="clip-path">
      <rect id="Rectangle_3063" data-name="Rectangle 3063" width="302.875" height="341.84" fill="none"/>
    </clipPath>
    <clipPath id="clip-path-5">
      <rect id="Rectangle_3057" data-name="Rectangle 3057" width="70.592" height="67.577" fill="#16b988"/>
    </clipPath>
    <clipPath id="clip-path-6">
      <rect id="Rectangle_3058" data-name="Rectangle 3058" width="56.396" height="112.822" fill="#16b988"/>
    </clipPath>
    <clipPath id="clip-path-7">
      <rect id="Rectangle_3059" data-name="Rectangle 3059" width="7.571" height="13.262" fill="none"/>
    </clipPath>
    <clipPath id="clip-path-8">
      <rect id="Rectangle_3060" data-name="Rectangle 3060" width="45.82" height="94.275" fill="none"/>
    </clipPath>
    <clipPath id="clip-path-9">
      <rect id="Rectangle_3061" data-name="Rectangle 3061" width="35.525" height="32.697" fill="none"/>
    </clipPath>
  </defs>
  <g id="Group_90230" data-name="Group 90230" clip-path="url(#clip-path)">
    <path id="Path_5499" data-name="Path 5499" d="M130.407,0l-3.594,6.572-6.572,3.595,6.572,3.593,3.594,6.572L134,13.76l6.572-3.593L134,6.572Z" transform="translate(-28.114 0)" fill="#f5f5f5"/>
    <g id="Group_90210" data-name="Group 90210">
      <g id="Group_90209" data-name="Group 90209" clip-path="url(#clip-path)">
        <path id="Path_5500" data-name="Path 5500" d="M293.944,445.375c0,.11-57.122.2-127.569.2-70.472,0-127.582-.089-127.582-.2s57.11-.2,127.582-.2c70.447,0,127.569.089,127.569.2" transform="translate(-9.07 -104.09)" fill="#263238"/>
      </g>
    </g>
    <g id="Group_90212" data-name="Group 90212">
      <g id="Group_90211" data-name="Group 90211" clip-path="url(#clip-path)">
        <path id="Path_5501" data-name="Path 5501" d="M240.3,351.268,134.654,351.2a23.011,23.011,0,0,1-23-23.017l.051-264.858a23.015,23.015,0,0,1,23.027-23.009l105.647.062a23.013,23.013,0,0,1,23,23.018l-.052,264.859A23.012,23.012,0,0,1,240.3,351.268" transform="translate(-26.107 -9.428)" fill="#263238"/>
        <path id="Path_5502" data-name="Path 5502" d="M242.4,52.61,221.921,52.6a5.088,5.088,0,0,0-4.974,5.2l0,3.715a5.088,5.088,0,0,1-4.975,5.2l-39.926-.024a5.092,5.092,0,0,1-4.973-5.2V57.766a5.093,5.093,0,0,0-4.973-5.2l-7.2,0-17.928-.011a16.117,16.117,0,0,0-16.126,16.114l-.051,258.521A16.116,16.116,0,0,0,136.9,343.3l105.435.062a16.117,16.117,0,0,0,16.127-16.114l.051-258.522A16.117,16.117,0,0,0,242.4,52.61" transform="translate(-28.243 -12.287)" fill="#fff"/>
        <path id="Path_5503" data-name="Path 5503" d="M277.9,80.014c0,.07-2.663.148-5.949.175S266,80.182,266,80.112s2.663-.147,5.949-.175,5.95.008,5.951.077" transform="translate(-62.195 -18.689)" fill="#263238"/>
        <path id="Path_5504" data-name="Path 5504" d="M277.932,83.988c0,.069-2.663.148-5.949.175s-5.951-.007-5.951-.077,2.662-.147,5.949-.175,5.95.008,5.951.077" transform="translate(-62.203 -19.618)" fill="#263238"/>
        <path id="Path_5505" data-name="Path 5505" d="M277.964,87.962c0,.07-2.663.148-5.949.175s-5.951-.007-5.951-.077,2.663-.147,5.949-.175,5.95.008,5.951.077" transform="translate(-62.21 -20.547)" fill="#263238"/>
        <path id="Path_5506" data-name="Path 5506" d="M135.26,88.033a2.445,2.445,0,0,1,.312-.021l.867-.029,3.2-.076-.089.09c-.011-.709-.024-1.485-.038-2.322,0-.431-.037-.838.005-1.337a1.231,1.231,0,0,1,1.074-.987c.516-.01.971-.034,1.53-.008a1.244,1.244,0,0,1,1.05,1.237c.012,1.083.025,2.214.038,3.387l-.149-.146,4.039-.041-.153.156c-.015-1.627-.03-3.31-.045-5.033q-.006-.646-.011-1.282a1.308,1.308,0,0,0-.568-.955l-1.766-1.741-1.7-1.681-.825-.815c-.284-.274-.506-.556-.836-.624a1.084,1.084,0,0,0-.926.177c-.244.207-.506.5-.752.739l-1.45,1.462c-.912.947-1.862,1.812-2.551,2.63a2.863,2.863,0,0,0-.2,1.507q0,.752,0,1.424-.008,1.309-.014,2.292c-.007.586-.012,1.07-.017,1.466a5.1,5.1,0,0,1-.019.529,3.656,3.656,0,0,1-.028-.486c-.011-.391-.025-.867-.041-1.443q-.023-.991-.052-2.312-.013-.685-.027-1.451c0-.258-.008-.523-.012-.794a1.665,1.665,0,0,1,.223-.846c.747-.916,1.639-1.726,2.558-2.7l1.438-1.473c.259-.254.471-.507.779-.772a1.375,1.375,0,0,1,1.171-.231,2.181,2.181,0,0,1,.97.693l.829.812,1.709,1.676,1.77,1.737a3.322,3.322,0,0,1,.451.489,1.315,1.315,0,0,1,.212.681q.006.64.011,1.288c.013,1.724.026,3.406.038,5.033v.156h-.155l-4.039.026h-.148V87.97c-.006-1.173-.012-2.3-.018-3.387a.974.974,0,0,0-.816-.981c-.465-.025-1.013-.008-1.466,0a.991.991,0,0,0-.87.785c-.039.406-.009.88-.018,1.291q0,1.255,0,2.322v.09h-.089l-3.256-.022-.848-.015a1.575,1.575,0,0,1-.279-.016" transform="translate(-31.589 -17.649)" fill="#263238"/>
        <path id="Path_5507" data-name="Path 5507" d="M217.672,355.459a5.922,5.922,0,0,1-1.107.077l-3.019.064c-2.549.036-6.07.058-9.959.058s-7.412-.022-9.961-.058l-3.019-.064a5.908,5.908,0,0,1-1.106-.077,5.908,5.908,0,0,1,1.106-.077l3.019-.064c2.549-.036,6.07-.058,9.961-.058s7.41.022,9.959.058l3.019.064a5.922,5.922,0,0,1,1.107.077" transform="translate(-44.309 -83.066)" fill="#455a64"/>
        <path id="Path_5508" data-name="Path 5508" d="M261.951,364.505c0,.11-16.22.2-36.224.2s-36.227-.089-36.227-.2,16.216-.2,36.227-.2,36.224.089,36.224.2" transform="translate(-44.309 -85.181)" fill="#455a64"/>
        <path id="Path_5509" data-name="Path 5509" d="M239.311,373.014c0,.11-11.151.2-24.9.2s-24.906-.089-24.906-.2,11.149-.2,24.906-.2,24.9.089,24.9.2" transform="translate(-44.309 -87.171)" fill="#455a64"/>
        <path id="Path_5510" data-name="Path 5510" d="M284.588,387.63l-2.25-2.257-2.144,2.137.01-6.462,4.394.007Zm-2.25-2.538.07.07,1.981,1.989.009-5.9-4-.006-.008,5.784Z" transform="translate(-65.514 -89.096)" fill="#263238"/>
        <path id="Path_5511" data-name="Path 5511" d="M206.463,387.184l-.795-.354a2.176,2.176,0,1,1,1.16-1.912,2.193,2.193,0,0,1-.549,1.471Zm-1.857-4.3a2.055,2.055,0,1,0,.033,4.111,2.134,2.134,0,0,0,.99-.312l.033-.019.585.262-.133-.576.027-.029a2.053,2.053,0,0,0-1.535-3.436" transform="translate(-47.328 -89.489)" fill="#263238"/>
        <path id="Path_5512" data-name="Path 5512" d="M213.564,386.935l-.91-2.223-1.708-1.555,4.141-.034Zm-2.231-3.63,1.454,1.335.775,1.892,1.3-3.255Z" transform="translate(-49.323 -89.581)" fill="#263238"/>
        <path id="Path_5513" data-name="Path 5513" d="M213.378,384.719l-.083-.126,2.259-1.469.082.127Z" transform="translate(-49.872 -89.581)" fill="#263238"/>
        <path id="Path_5514" data-name="Path 5514" d="M197.645,383.459a1.281,1.281,0,0,0-2.526.084,1.28,1.28,0,0,0-2.526-.044,1.728,1.728,0,0,0,.314,1.247,5.148,5.148,0,0,0,.907.951c.461.408.887.791,1.348,1.2.455-.414.842-.8,1.3-1.22a5.089,5.089,0,0,0,.891-.965,1.726,1.726,0,0,0,.295-1.251" transform="translate(-45.026 -89.419)" fill="#e8505b"/>
        <path id="Path_5515" data-name="Path 5515" d="M254.5,384.515s-.009-.248-.014-.721-.008-1.179-.014-2.1c-.007-1.849-.018-4.567-.032-8.089-.017-7.042-.041-17.287-.072-30.137l.132.131-122.525.068h-.008l.2-.2c0,14.263,0,28.1-.007,41.044l-.193-.193,87.677.09,25.6.054,6.868.025,1.781.012c.4,0,.612.012.612.012s-.195.008-.588.012l-1.757.012-6.827.025-25.551.054-87.81.09h-.193v-.193c0-12.943,0-26.78-.006-41.044v-.2h.208l122.525.068h.132v.132c-.03,12.884-.054,23.156-.071,30.216-.015,3.509-.025,6.218-.032,8.059q-.009,1.361-.015,2.073c0,.465-.013.695-.013.695" transform="translate(-30.809 -80.263)" fill="#263238"/>
        <rect id="Rectangle_3052" data-name="Rectangle 3052" width="27.136" height="33.942" transform="translate(106.097 297.201) rotate(-89.675)" fill="#ebebeb"/>
        <path id="Path_5516" data-name="Path 5516" d="M172.508,352.62a1.182,1.182,0,0,1-.17.009l-.482.008-1.853.011-6.958.008-24.48-.05.18-.177c-.04,8.079-.085,17.336-.134,27.132.043.048-.371-.378-.192-.2H139l.588,0,1.17.007,2.323.014,4.573.028,8.8.057,15.9.115-.167.165c.081-8.148.15-14.908.2-19.653.033-2.361.057-4.219.074-5.51.011-.624.021-1.109.028-1.459.008-.333.021-.513.021-.513s.011.156.015.477c0,.343.006.818.01,1.428,0,1.283.008,3.128.013,5.473-.007,4.771-.016,11.566-.027,19.758v.165h-.168l-15.9-.065-8.807-.044-4.573-.025-2.323-.012-1.17-.007-.588,0-.293,0h-.287c.175.179-.248-.243-.2-.2.064-9.8.123-19.053.175-27.132v-.179l.178,0,24.594.229,6.919.087,1.818.032.46.012a.741.741,0,0,1,.15.012" transform="translate(-32.316 -82.362)" fill="#263238"/>
        <rect id="Rectangle_3053" data-name="Rectangle 3053" width="23.719" height="31.557" transform="translate(107.276 295.499) rotate(-89.674)" fill="#e0e0e0"/>
        <path id="Path_5517" data-name="Path 5517" d="M140.014,381.2l11.106-14.681,6.775,9.263,4.659-4.905,9.017,10.5Z" transform="translate(-32.738 -85.698)" fill="#f5f5f5"/>
        <path id="Path_5518" data-name="Path 5518" d="M165.7,363.47a2.485,2.485,0,1,1-2.471-2.5,2.485,2.485,0,0,1,2.471,2.5" transform="translate(-37.581 -84.401)" fill="#f5f5f5"/>
        <path id="Path_5519" data-name="Path 5519" d="M202.49,122.925a1.276,1.276,0,0,1-.362.04l-1.039.038-3.823.064c-3.227.036-7.686.058-12.611.058s-9.386-.022-12.614-.058L168.218,123l-1.039-.038a1.276,1.276,0,0,1-.362-.04,1.241,1.241,0,0,1,.362-.04l1.039-.038,3.822-.064c3.228-.036,7.687-.058,12.614-.058s9.384.022,12.611.058l3.823.064,1.039.038a1.241,1.241,0,0,1,.362.04" transform="translate(-39.005 -28.695)" fill="#263238"/>
        <path id="Path_5520" data-name="Path 5520" d="M276.829,315.781l-3.345-3.355L270.3,315.6l.015-9.6,6.53.01Zm-3.344-3.773.1.1,2.944,2.955.014-8.764-5.939-.009-.013,8.6Z" transform="translate(-63.201 -71.548)" fill="#263238"/>
        <path id="Path_5521" data-name="Path 5521" d="M165.533,314.773l-1.564-.7a4.283,4.283,0,1,1,2.283-3.762,4.324,4.324,0,0,1-1.081,2.9Zm-3.655-8.469a4.045,4.045,0,1,0,.065,8.09,4.177,4.177,0,0,0,1.948-.614l.065-.037,1.152.515-.261-1.133.053-.057a4.041,4.041,0,0,0-3.022-6.765" transform="translate(-36.842 -71.55)" fill="#263238"/>
        <path id="Path_5522" data-name="Path 5522" d="M179.511,314.283l-1.792-4.373-3.36-3.062,8.151-.066Zm-4.392-7.145,2.862,2.627,1.526,3.725,2.561-6.408Z" transform="translate(-40.768 -71.731)" fill="#263238"/>
        <rect id="Rectangle_3054" data-name="Rectangle 3054" width="5.302" height="0.298" transform="translate(137.134 237.941) rotate(-33.037)" fill="#263238"/>
        <path id="Path_5523" data-name="Path 5523" d="M148.175,307.441a2.521,2.521,0,0,0-4.972.166,2.521,2.521,0,0,0-4.973-.087,3.4,3.4,0,0,0,.619,2.453,10.1,10.1,0,0,0,1.785,1.873c.908.8,1.747,1.556,2.655,2.359.895-.817,1.656-1.584,2.551-2.4a10.085,10.085,0,0,0,1.755-1.9,3.4,3.4,0,0,0,.58-2.463" transform="translate(-32.311 -71.411)" fill="#e8505b"/>
        <path id="Path_5524" data-name="Path 5524" d="M154.094,121.3a5.529,5.529,0,1,1-5.529-5.529,5.529,5.529,0,0,1,5.529,5.529" transform="translate(-33.444 -27.069)" fill="#ebebeb"/>
        <path id="Path_5525" data-name="Path 5525" d="M244.492,277.307c0,.11-23.185.2-51.778.2s-51.782-.089-51.782-.2,23.179-.2,51.782-.2,51.778.089,51.778.2" transform="translate(-32.952 -64.793)" fill="#455a64"/>
        <path id="Path_5526" data-name="Path 5526" d="M244.492,266.052c0,.11-23.185.2-51.778.2s-51.782-.089-51.782-.2,23.179-.2,51.782-.2,51.778.089,51.778.2" transform="translate(-32.952 -62.161)" fill="#455a64"/>
        <path id="Path_5527" data-name="Path 5527" d="M197.3,288.713c0,.11-12.62.2-28.183.2s-28.186-.089-28.186-.2,12.617-.2,28.186-.2,28.183.089,28.183.2" transform="translate(-32.952 -67.46)" fill="#455a64"/>
        <path id="Path_5528" data-name="Path 5528" d="M204.082,410.72a2.2,2.2,0,1,1-2.191-2.243,2.216,2.216,0,0,1,2.191,2.243" transform="translate(-46.689 -95.509)" fill="#263238"/>
        <path id="Path_5529" data-name="Path 5529" d="M212.98,410.76a2.2,2.2,0,1,1-2.191-2.243,2.217,2.217,0,0,1,2.191,2.243" transform="translate(-48.77 -95.518)" fill="#263238"/>
        <path id="Path_5530" data-name="Path 5530" d="M221.878,410.8a2.2,2.2,0,1,1-2.19-2.243,2.215,2.215,0,0,1,2.19,2.243" transform="translate(-50.85 -95.528)" fill="#263238"/>
        <rect id="Rectangle_3055" data-name="Rectangle 3055" width="122.533" height="74.936" transform="translate(101.889 105.172)" fill="#e0e0e0"/>
        <path id="Path_5531" data-name="Path 5531" d="M147.747,220.747l35.113-47,21.767,29.39,14.754-15.719,28.936,33.3Z" transform="translate(-34.546 -40.626)" fill="#f5f5f5"/>
        <path id="Path_5532" data-name="Path 5532" d="M229.194,163.811a7.919,7.919,0,1,1-7.921-7.916,7.918,7.918,0,0,1,7.921,7.916" transform="translate(-49.887 -36.451)" fill="#f5f5f5"/>
        <path id="Path_5533" data-name="Path 5533" d="M255.024,274.176c0-1.6-.074-69.3-.181-169.51l.181.181-122.519.018h-.014l.2-.2c-.014,63.393-.027,122.061-.038,169.51l-.162-.162,122.533.162-122.533.162h-.162v-.162c-.011-47.449-.024-106.117-.038-169.51v-.2h.214l122.519.018h.181v.181c-.037,50.156-.067,92.552-.09,122.415-.02,14.91-.036,26.69-.048,34.749-.009,4.018-.017,7.106-.021,9.2-.006,1.037-.009,1.825-.011,2.359s-.011.791-.011.791" transform="translate(-30.932 -24.426)" fill="#263238"/>
      </g>
    </g>
    <g id="Group_90229" data-name="Group 90229">
      <g id="Group_90228" data-name="Group 90228" clip-path="url(#clip-path)">
        <path id="Path_5534" data-name="Path 5534" d="M202.184,340.717l2.711-9.108c.473-1.974,1.1-4.3,1.946-6.963a18.781,18.781,0,0,1,4.487-6.709c2.767-2.814,4.083-2.833,5.943-4.327.169-.109.359-.264.519-.35a2.934,2.934,0,0,0,.9-.783c1.6-1.733.064-4.416-3.192-4.161-2.45.192-6.447.893-12.945,7.6-.08.1-.166.187-.246.291-3.41,4.433-6.613-8.223-7.191-12.933a4.935,4.935,0,0,0-6.672-3.829l-15.83,7.4a7.386,7.386,0,0,0-4.622.156,4.705,4.705,0,0,0-3.016,5.584l6.421,25.63-18.857,62.745h40.644Z" transform="translate(-35.667 -69.94)" fill="#ffbe9d"/>
        <path id="Path_5535" data-name="Path 5535" d="M236.316,275.495l-12.564,24.62-6.282-1.745-31.579,25.687a6.4,6.4,0,0,1-8.885-.79l-12.023-13.971s24.243-10.443,28.726-19.088-.7-10.605-.7-10.605l11.41-12.965Z" transform="translate(-38.576 -62.344)" fill="#47d7ac"/>
        <path id="Path_5536" data-name="Path 5536" d="M192.269,186.045S173.878,181.978,148,157.09s-38.041-57.936-41.208-57.776-17-6.26-43.308,50.966S47.535,220.8,52.77,220.69s40.781-10.013,62.983-7.489,50.741,14.1,50.741,14.1Z" transform="translate(-10.825 -23.188)" fill="#47d7ac"/>
        <path id="Path_5537" data-name="Path 5537" d="M266.814,240.458l-6.274,11.929-2.811,5.344a15.569,15.569,0,0,1-20.295,6.894l-39.419-13.735,22.957-52.41,39.383,20.988a15.571,15.571,0,0,1,6.459,20.989" transform="translate(-46.299 -46.408)" fill="#e8505b"/>
        <g id="Group_90215" data-name="Group 90215" transform="translate(151.715 152.073)">
          <g id="Group_90214" data-name="Group 90214">
            <g id="Group_90213" data-name="Group 90213" clip-path="url(#clip-path-5)">
              <path id="Path_5538" data-name="Path 5538" d="M266.814,240.458l-6.274,11.929-2.811,5.344a15.569,15.569,0,0,1-20.295,6.894l-39.419-13.735,22.957-52.41,39.383,20.988a15.571,15.571,0,0,1,6.459,20.989" transform="translate(-198.014 -198.481)" fill="#16b988"/>
            </g>
          </g>
        </g>
        <path id="Path_5539" data-name="Path 5539" d="M66.657,151.722c-14,31-19.83,58.625-13.017,61.7s23.683-19.561,37.684-50.561,19.829-58.624,13.018-61.7-23.683,19.56-37.685,50.56" transform="translate(-11.876 -23.588)" fill="#e8505b"/>
        <g id="Group_90218" data-name="Group 90218" transform="translate(38.916 77.294)">
          <g id="Group_90217" data-name="Group 90217">
            <g id="Group_90216" data-name="Group 90216" clip-path="url(#clip-path-6)">
              <path id="Path_5540" data-name="Path 5540" d="M66.657,151.722c-14,31-19.83,58.625-13.017,61.7s23.683-19.561,37.684-50.561,19.829-58.624,13.018-61.7-23.683,19.56-37.685,50.56" transform="translate(-50.792 -100.882)" fill="#16b988"/>
            </g>
          </g>
        </g>
        <path id="Path_5541" data-name="Path 5541" d="M288.964,270.905l-10.684-3.356,6.612-12.572,8.013,4.982Z" transform="translate(-65.067 -59.618)" fill="#47d7ac"/>
        <g id="Group_90221" data-name="Group 90221" transform="translate(213.213 195.36)" opacity="0.6">
          <g id="Group_90220" data-name="Group 90220">
            <g id="Group_90219" data-name="Group 90219" clip-path="url(#clip-path-7)">
              <path id="Path_5542" data-name="Path 5542" d="M284.892,254.978,278.28,267.55l2.2.69,5.376-12.666Z" transform="translate(-278.28 -254.978)"/>
            </g>
          </g>
        </g>
        <path id="Path_5543" data-name="Path 5543" d="M270.2,255.544c-.157.346-5.489-1.727-11.909-4.629s-11.5-5.535-11.346-5.88,5.487,1.728,11.91,4.63,11.5,5.535,11.344,5.88" transform="translate(-57.74 -57.285)" fill="#47d7ac"/>
        <path id="Path_5544" data-name="Path 5544" d="M275.2,245.831c-.169.341-4.993-1.693-10.778-4.541s-10.34-5.435-10.172-5.775,4.991,1.694,10.778,4.543,10.339,5.434,10.172,5.773" transform="translate(-59.446 -55.059)" fill="#47d7ac"/>
        <path id="Path_5545" data-name="Path 5545" d="M265.421,266.125c-.057.182-1.326-.11-3.351-.736-1.011-.312-2.21-.708-3.536-1.167-1.317-.477-2.685-1.168-4.15-1.833-5.845-2.713-10.307-5.37-10.162-5.684.172-.372,4.943,1.751,10.734,4.438,1.453.657,2.8,1.383,4.071,1.913s2.419,1,3.374,1.421c1.911.849,3.075,1.468,3.02,1.649" transform="translate(-57.103 -60.012)" fill="#47d7ac"/>
        <path id="Path_5546" data-name="Path 5546" d="M100.438,157.547s-15.985-9.912-24.731,11.684,8.073,25.148,8.073,25.148a143.888,143.888,0,0,0,16.658-36.832" transform="translate(-17.112 -36.306)" fill="#47d7ac"/>
        <g id="Group_90224" data-name="Group 90224" transform="translate(54.527 95.502)" opacity="0.5">
          <g id="Group_90223" data-name="Group 90223">
            <g id="Group_90222" data-name="Group 90222" clip-path="url(#clip-path-8)">
              <path id="Path_5547" data-name="Path 5547" d="M116.966,124.647a24.169,24.169,0,0,1-.626,4.126c-.506,2.639-1.221,6.47-2.246,11.173-.676,2.316-1.414,4.846-2.207,7.558q-.6,2.039-1.242,4.209l-.653,2.2c-.238.738-.55,1.461-.828,2.207-1.151,2.972-2.358,6.089-3.61,9.318q-.471,1.211-.952,2.443c-.31.825-.75,1.6-1.123,2.414l-2.376,4.9-2.383,4.9c-.408.8-.748,1.622-1.2,2.377l-1.333,2.26-5.094,8.6c-.415.68-.791,1.371-1.224,2.016q-.673.952-1.329,1.877l-2.544,3.584-4.583,6.414c-3.057,3.7-5.62,6.624-7.381,8.652a24.4,24.4,0,0,1-2.859,3.046,24.312,24.312,0,0,1,2.446-3.386l7.042-8.928c1.352-1.981,2.828-4.145,4.411-6.464q1.193-1.74,2.466-3.591.637-.923,1.291-1.875c.421-.644.787-1.338,1.191-2.017,1.591-2.738,3.26-5.608,4.991-8.584q.652-1.116,1.313-2.25c.449-.752.784-1.572,1.187-2.365l2.359-4.865,2.366-4.861c.373-.806.813-1.576,1.124-2.394l.956-2.421,3.661-9.226c.284-.738.6-1.453.849-2.183q.342-1.1.677-2.177.669-2.145,1.3-4.163c.845-2.68,1.633-5.181,2.356-7.47,1.11-4.608,2.015-8.358,2.659-11.031a24.681,24.681,0,0,1,1.15-4.022" transform="translate(-71.167 -124.647)"/>
            </g>
          </g>
        </g>
        <g id="Group_90227" data-name="Group 90227" transform="translate(130.237 223.34)" opacity="0.4">
          <g id="Group_90226" data-name="Group 90226">
            <g id="Group_90225" data-name="Group 90225" clip-path="url(#clip-path-9)">
              <path id="Path_5548" data-name="Path 5548" d="M169.982,313.393a31.1,31.1,0,0,0,5.105,7.45,10.5,10.5,0,0,0,8.128,3.311c3.007-.3,5.855-2.8,5.888-5.822,1.443,1.085,3.655.5,4.85-.855a8.486,8.486,0,0,0,1.727-5.032c1.961,1.156,4.686.238,5.994-1.623a7.755,7.755,0,0,0,.755-6.557,22.963,22.963,0,0,0-3.146-6.026,8.339,8.339,0,0,0,4.457-.457c1.351-.685,2.263-2.47,1.474-3.763a3.745,3.745,0,0,0-2.2-1.4c-2.364-.741-4.025-1.334-6.486-1.047-.573,0,.985,6.493-14.469,15.368a129.9,129.9,0,0,1-12.08,6.454" transform="translate(-169.982 -291.497)"/>
            </g>
          </g>
        </g>
        <path id="Path_5549" data-name="Path 5549" d="M210.612,332.2c-.01.071-1.039-.126-2.706-.081a15.3,15.3,0,0,0-11.358,5.445c-1.08,1.272-1.57,2.2-1.632,2.161a2.393,2.393,0,0,1,.3-.671,12.428,12.428,0,0,1,1.111-1.669,14.482,14.482,0,0,1,11.573-5.549,12.313,12.313,0,0,1,2,.179,2.378,2.378,0,0,1,.713.184" transform="translate(-45.574 -77.588)" fill="#eb996e"/>
        <path id="Path_5550" data-name="Path 5550" d="M171.3,310.553c2.489,2.391,4.192,5.031,6.8,7.439,1.186,1.095,3.029,3.167,4.62,3.443s2.61.064,3.239-1.421c.51-1.2-.405-2.849-1.038-3.841-1.663-2.61-3.254-4.65-4.5-6.678-.583-.95.172-1.147.447-.706,1.2,1.242,2.986,2.318,4.058,3.67,1.47,1.852,1.737,4.3,5.582,3.528a3.446,3.446,0,0,0,1.427-.593,3.845,3.845,0,0,0,.9-4.577,12.555,12.555,0,0,0-2.141-3.239c1.636,1.848,3.423,3.795,6.025,4a3.584,3.584,0,0,0,3.644-1.971c.77-1.748-.334-3.439-1.442-4.806a50.107,50.107,0,0,0-6.535-6.676,4.979,4.979,0,0,0-3.177-1.178c-1.345-.008-3.03.244-3.862,1.415a5.225,5.225,0,0,0-1.045,4s-3.375-1.711-6.088.079a8.6,8.6,0,0,0-3.383,4.867Z" transform="translate(-40.052 -69.432)" fill="#ffbe9d"/>
        <path id="Path_5551" data-name="Path 5551" d="M194.45,293.757a4.041,4.041,0,0,1-.478-4.566c.575-1.126,1.3-2.219,2.033-2.466,3.212-1.083,17.241,1.344,17.113,4.458-.132,3.2-1.152,4.6-8.767,3.5-1.339-.193-3.441-.457-3.441-.457l-1.838,2.759Z" transform="translate(-45.241 -66.98)" fill="#ffbe9d"/>
        <path id="Path_5552" data-name="Path 5552" d="M195.662,310.859a18.426,18.426,0,0,0-7.732-7.009,4.491,4.491,0,0,1,1.486.523,13.325,13.325,0,0,1,5.58,5.058,4.505,4.505,0,0,1,.666,1.427" transform="translate(-43.941 -71.044)" fill="#eb996e"/>
        <path id="Path_5553" data-name="Path 5553" d="M199.691,299.678c-.07.065-1-.69-2.259-1.463a15.807,15.807,0,0,0-1.647-.908c-.433-.2-.721-.26-.719-.319s.329-.092.817.055a7.542,7.542,0,0,1,1.759.833,5.422,5.422,0,0,1,2.05,1.8" transform="translate(-45.61 -69.43)" fill="#eb996e"/>
        <path id="Path_5554" data-name="Path 5554" d="M202.668,296.171a6.056,6.056,0,0,1-2.7-.3,4.94,4.94,0,0,1-1.729-.906c-.385-.328-.546-.6-.507-.634a11.291,11.291,0,0,0,2.354,1.159,20.016,20.016,0,0,1,2.584.686" transform="translate(-46.231 -68.818)" fill="#eb996e"/>
        <path id="Path_5555" data-name="Path 5555" d="M182.979,315.9a9.8,9.8,0,0,1-1.28-1.663,15.082,15.082,0,0,0-3.275-3.722,6.6,6.6,0,0,0-4.638-1.229,8.451,8.451,0,0,0-1.955.621c-.013-.018.134-.16.447-.354a4.374,4.374,0,0,1,1.461-.546,6.519,6.519,0,0,1,4.917,1.183,13.321,13.321,0,0,1,3.277,3.89,12.41,12.41,0,0,1,1.044,1.819" transform="translate(-40.177 -72.229)" fill="#eb996e"/>
        <path id="Path_5556" data-name="Path 5556" d="M196.876,358.523a42.138,42.138,0,0,1-5.734.824,42.2,42.2,0,0,1-5.778.428,42.125,42.125,0,0,1,5.735-.824,42.188,42.188,0,0,1,5.777-.428" transform="translate(-43.341 -83.822)" fill="#eb996e"/>
      </g>
    </g>
    <path id="Path_5557" data-name="Path 5557" d="M357.174,25.957l.865,1.581,1.581.865-1.581.865-.865,1.581-.865-1.581-1.581-.865,1.581-.865Z" transform="translate(-105.927 39.902)" fill="#9680c5"/>
    <path id="Path_5558" data-name="Path 5558" d="M380.779,77.127l.865,1.581,1.581.865-1.581.865-.865,1.581-.865-1.581-1.581-.865,1.581-.865Z" transform="translate(-111.446 27.937)" fill="#9680c5"/>
    <path id="Path_5559" data-name="Path 5559" d="M1.581,215.229,0,216.094l1.581.864.866,1.582.864-1.582,1.581-.864-1.581-.865-.864-1.582Z" transform="translate(38.309 26.664)" fill="#9680c5"/>
    <path id="Path_5560" data-name="Path 5560" d="M325.227,38.675l2,3.652,3.652,2-3.652,2-2,3.652-2-3.652-3.652-2,3.652-2Z" transform="translate(-74.723 -9.043)" fill="#9680c5"/>
    <path id="Path_5561" data-name="Path 5561" d="M22.63,181.211l1.993,3.644,3.644,1.993-3.644,1.993-1.993,3.644-1.993-3.644-3.644-1.993,3.644-1.993Z" transform="translate(34.336 34.248)" fill="#9680c5"/>
    <path id="Path_5562" data-name="Path 5562" d="M384.234,298.323l-3.644,1.993,3.644,1.993,1.994,3.644,1.993-3.644,3.644-1.993-3.644-1.993-1.993-3.644Z" transform="translate(-119.636 -68.901)" fill="#9680c5"/>
  </g>
</svg>
