<svg xmlns="http://www.w3.org/2000/svg" xmlns:xlink="http://www.w3.org/1999/xlink" width="369.031" height="358.611" viewBox="0 0 369.031 358.611">
  <defs>
    <clipPath id="clip-path">
      <rect id="Rectangle_2774" data-name="Rectangle 2774" width="56.064" height="84.284" fill="#46d7ab"/>
    </clipPath>
    <clipPath id="clip-path-2">
      <rect id="Rectangle_2775" data-name="Rectangle 2775" width="14.314" height="22.128" fill="none"/>
    </clipPath>
    <clipPath id="clip-path-3">
      <rect id="Rectangle_2779" data-name="Rectangle 2779" width="2.837" height="2.882" fill="none"/>
    </clipPath>
    <clipPath id="clip-path-4">
      <rect id="Rectangle_2780" data-name="Rectangle 2780" width="34.819" height="17.764" fill="none"/>
    </clipPath>
    <clipPath id="clip-path-5">
      <rect id="Rectangle_2781" data-name="Rectangle 2781" width="2.918" height="2.914" fill="none"/>
    </clipPath>
    <clipPath id="clip-path-6">
      <rect id="Rectangle_2782" data-name="Rectangle 2782" width="37.502" height="3.254" fill="none"/>
    </clipPath>
    <clipPath id="clip-path-7">
      <rect id="Rectangle_2783" data-name="Rectangle 2783" width="11.684" height="10.367" fill="none"/>
    </clipPath>
    <clipPath id="clip-path-8">
      <rect id="Rectangle_2785" data-name="Rectangle 2785" width="369.031" height="358.611" fill="none"/>
    </clipPath>
  </defs>
  <g id="Group_89701" data-name="Group 89701" transform="translate(13859.73 16752.545)">
    <path id="Path_3627" data-name="Path 3627" d="M44.536,38.249a29.152,29.152,0,0,0-15.913,37.98L46.7,120.36l8.108-3.32L36.733,72.909A20.356,20.356,0,1,1,74.408,57.481l8.108-3.32a29.151,29.151,0,0,0-37.98-15.913" transform="translate(-13864.844 -16759.52)" fill="#ff725e"/>
    <g id="Group_89674" data-name="Group 89674" transform="translate(-13838.392 -16723.441)" opacity="0.3">
      <g id="Group_89673" data-name="Group 89673" transform="translate(0 0)">
        <g id="Group_89672" data-name="Group 89672" clip-path="url(#clip-path)">
          <path id="Path_3628" data-name="Path 3628" d="M44.536,38.249a29.152,29.152,0,0,0-15.913,37.98L46.7,120.36l8.108-3.32L36.733,72.909A20.356,20.356,0,1,1,74.408,57.481l8.108-3.32a29.151,29.151,0,0,0-37.98-15.913" transform="translate(-26.452 -36.077)" fill="#46d7ab"/>
        </g>
      </g>
    </g>
    <path id="Path_3629" data-name="Path 3629" d="M117.679,132.825,53.728,159.012a4.688,4.688,0,0,1-6.115-2.562L32.086,118.531a4.687,4.687,0,0,1,2.562-6.114L98.6,86.23a4.688,4.688,0,0,1,6.115,2.561l15.527,37.92a4.687,4.687,0,0,1-2.562,6.114" transform="translate(-13865.865 -16769.146)" fill="#47d7ac"/>
    <g id="Group_89677" data-name="Group 89677" transform="translate(-13798.749 -16659.158)" opacity="0.5">
      <g id="Group_89676" data-name="Group 89676" transform="translate(0 0)">
        <g id="Group_89675" data-name="Group 89675" clip-path="url(#clip-path-2)">
          <path id="Path_3630" data-name="Path 3630" d="M88.227,119.841a6.56,6.56,0,1,0-5.347,8.977l3.716,9.076,3.312-1.356-3.716-9.076a6.54,6.54,0,0,0,2.034-7.621" transform="translate(-75.595 -115.766)"/>
        </g>
      </g>
    </g>
    <path id="Path_3631" data-name="Path 3631" d="M52.771,162.977c-.167.069-3.483-7.647-7.408-17.231s-6.972-17.411-6.805-17.479,3.482,7.646,7.409,17.233,6.971,17.409,6.8,17.478" transform="translate(-13867.183 -16777.34)" fill="#fafafa"/>
    <path id="Path_3632" data-name="Path 3632" d="M79.965,131.875a2.021,2.021,0,0,1-.878-.112,8.011,8.011,0,0,1-2.218-.954,9.193,9.193,0,0,1-2.2-14,8.02,8.02,0,0,1,1.817-1.589c.486-.3.782-.41.8-.377a20.677,20.677,0,0,0-2.26,2.256,9.093,9.093,0,0,0,2.1,13.327,20.415,20.415,0,0,0,2.844,1.453" transform="translate(-13873.72 -16774.742)" fill="#fafafa"/>
    <path id="Path_3633" data-name="Path 3633" d="M17.338,145.548l.393-1.144.751.947A5.061,5.061,0,0,0,20.807,147l1.144.393L21,148.14a5.059,5.059,0,0,0-1.644,2.325l-.393,1.144-.751-.948a5.077,5.077,0,0,0-2.325-1.645l-1.144-.393.948-.751a5.067,5.067,0,0,0,1.644-2.324" transform="translate(-13862.581 -16780.459)" fill="#47d7ac"/>
    <path id="Path_3634" data-name="Path 3634" d="M65.059,89.874l.228-.664.436.55a2.947,2.947,0,0,0,1.35.955l.664.227-.55.436a2.943,2.943,0,0,0-.955,1.35L66,93.393l-.436-.55a2.941,2.941,0,0,0-1.35-.954l-.665-.228.55-.436a2.937,2.937,0,0,0,.955-1.35" transform="translate(-13872.016 -16769.789)" fill="#47d7ac"/>
    <path id="Path_3635" data-name="Path 3635" d="M7.311,96.52l.66-1.922L9.233,96.19a8.509,8.509,0,0,0,3.906,2.762l1.922.66-1.592,1.262a8.507,8.507,0,0,0-2.763,3.906l-.66,1.922L8.784,105.11a8.515,8.515,0,0,0-3.906-2.763l-1.922-.659,1.592-1.262A8.511,8.511,0,0,0,7.311,96.52" transform="translate(-13860.302 -16770.832)" fill="#47d7ac"/>
    <path id="Path_3636" data-name="Path 3636" d="M249.336,360.023l-119.079-.071a25.939,25.939,0,0,1-25.925-25.943l.059-298.535A25.939,25.939,0,0,1,130.345,9.54l119.08.069a25.94,25.94,0,0,1,25.924,25.945L275.29,334.09a25.938,25.938,0,0,1-25.954,25.934" transform="translate(-13879.898 -16754.389)" fill="#263238"/>
    <path id="Path_3637" data-name="Path 3637" d="M251.189,22.7,228.1,22.685a5.735,5.735,0,0,0-5.607,5.857v4.188a5.735,5.735,0,0,1-5.607,5.857l-45-.027a5.741,5.741,0,0,1-5.606-5.864l0-4.188a5.742,5.742,0,0,0-5.607-5.864l-8.119,0-20.208-.012A18.168,18.168,0,0,0,114.17,40.793l-.057,291.391a18.167,18.167,0,0,0,18.155,18.171l118.843.069a18.165,18.165,0,0,0,18.176-18.163l.058-291.392A18.168,18.168,0,0,0,251.189,22.7" transform="translate(-13881.789 -16756.92)" fill="#fff"/>
    <path id="Path_3638" data-name="Path 3638" d="M195.554,400.825a2.281,2.281,0,1,1-2.3-2.263,2.282,2.282,0,0,1,2.3,2.263" transform="translate(-13896.65 -16829.59)" fill="#263238"/>
    <path id="Path_3639" data-name="Path 3639" d="M211.4,400.694a2.281,2.281,0,1,1-2.3-2.263,2.282,2.282,0,0,1,2.3,2.263" transform="translate(-13899.713 -16829.564)" fill="#263238"/>
    <path id="Path_3640" data-name="Path 3640" d="M227.245,400.563a2.281,2.281,0,1,1-2.3-2.263,2.281,2.281,0,0,1,2.3,2.263" transform="translate(-13902.776 -16829.539)" fill="#263238"/>
    <path id="Path_3641" data-name="Path 3641" d="M281.682,59.17c0,.069-3,.151-6.705.182s-6.707,0-6.708-.071,3-.15,6.706-.181,6.706,0,6.707.07" transform="translate(-13911.589 -16763.967)" fill="#263238"/>
    <path id="Path_3642" data-name="Path 3642" d="M281.717,63.424c0,.069-3,.151-6.705.182s-6.707,0-6.708-.07,3-.151,6.706-.182,6.706,0,6.707.07" transform="translate(-13911.596 -16764.789)" fill="#263238"/>
    <path id="Path_3643" data-name="Path 3643" d="M281.752,67.678c0,.069-3,.151-6.705.182s-6.707,0-6.708-.071,3-.15,6.706-.181,6.706,0,6.707.07" transform="translate(-13911.603 -16765.611)" fill="#263238"/>
    <path id="Path_3644" data-name="Path 3644" d="M133.637,69.867a2.471,2.471,0,0,1,.277-.017l.774-.023,2.866-.063-.07.072c-.01-.634-.02-1.328-.031-2.077,0-.385-.032-.752,0-1.193a1.088,1.088,0,0,1,.951-.873c.458-.009.87-.03,1.365-.006a1.1,1.1,0,0,1,.928,1.093c.01.968.022,1.98.033,3.029l-.118-.116,3.612-.036-.122.125c-.013-1.455-.027-2.96-.04-4.5q0-.577-.01-1.147a.906.906,0,0,0-.147-.472,2.84,2.84,0,0,0-.365-.392l-1.579-1.557-1.524-1.5-.739-.729a1.728,1.728,0,0,0-.753-.561.984.984,0,0,0-.841.161c-.223.187-.453.448-.674.662l-1.3,1.308c-.816.849-1.663,1.62-2.282,2.356a2.57,2.57,0,0,0-.182,1.355q0,.673,0,1.274c0,.784-.006,1.47-.009,2.051-.006.531-.009.964-.012,1.311,0,.3-.015.47-.015.47s-.013-.144-.023-.436c-.009-.342-.02-.769-.033-1.292q-.019-.88-.044-2.066-.011-.611-.023-1.3c0-.231-.007-.468-.01-.71a1.477,1.477,0,0,1,.2-.75c.666-.815,1.466-1.542,2.287-2.413l1.287-1.317c.232-.227.424-.455.7-.69a1.214,1.214,0,0,1,1.036-.2,1.93,1.93,0,0,1,.861.617l.741.726,1.528,1.5,1.583,1.554a2.937,2.937,0,0,1,.4.435,1.165,1.165,0,0,1,.187.6q0,.572.01,1.152c.011,1.542.023,3.047.035,4.5V69.9h-.123l-3.613.023H140.5v-.117c-.006-1.05-.011-2.061-.017-3.029a.884.884,0,0,0-.741-.89c-.42-.022-.905-.007-1.313,0a.9.9,0,0,0-.789.712c-.035.367-.008.787-.015,1.156,0,.75,0,1.444,0,2.077v.073h-.071l-2.909-.015-.759-.011a1.544,1.544,0,0,1-.252-.012" transform="translate(-13885.538 -16763.883)" fill="#263238"/>
    <path id="Path_3645" data-name="Path 3645" d="M168.881,157.227c0,2.8-2.1,4.534-5.448,4.534h-2.527v3.459H158V152.675h5.431c3.351,0,5.448,1.738,5.448,4.552m-2.94,0c0-1.38-.9-2.186-2.671-2.186h-2.365V159.4h2.365c1.775,0,2.671-.807,2.671-2.169" transform="translate(-13890.273 -16782.059)" fill="#263238"/>
    <path id="Path_3646" data-name="Path 3646" d="M182.068,160.38v5.5h-2.617v-1.2a3.164,3.164,0,0,1-2.939,1.345c-2.259,0-3.6-1.255-3.6-2.922,0-1.7,1.2-2.886,4.14-2.886h2.222c0-1.2-.717-1.9-2.222-1.9a4.637,4.637,0,0,0-2.778.9l-1-1.953a7.407,7.407,0,0,1,4.158-1.165c2.94,0,4.643,1.362,4.643,4.283m-2.8,2.456v-.986h-1.918c-1.308,0-1.721.484-1.721,1.129,0,.7.591,1.165,1.577,1.165a2.06,2.06,0,0,0,2.061-1.308" transform="translate(-13893.155 -16782.719)" fill="#263238"/>
    <path id="Path_3647" data-name="Path 3647" d="M186.241,164.986l.932-2.007a6.606,6.606,0,0,0,3.352.932c1.29,0,1.774-.34,1.774-.878,0-1.577-5.824.036-5.824-3.817,0-1.828,1.649-3.119,4.463-3.119a7.924,7.924,0,0,1,3.71.843l-.932,1.989a5.537,5.537,0,0,0-2.778-.717c-1.254,0-1.792.394-1.792.9,0,1.649,5.824.053,5.824,3.853,0,1.792-1.667,3.065-4.551,3.065a8.28,8.28,0,0,1-4.176-1.04" transform="translate(-13895.732 -16782.719)" fill="#263238"/>
    <path id="Path_3648" data-name="Path 3648" d="M198.039,164.986l.932-2.007a6.606,6.606,0,0,0,3.352.932c1.29,0,1.775-.34,1.775-.878,0-1.577-5.825.036-5.825-3.817,0-1.828,1.649-3.119,4.462-3.119a7.925,7.925,0,0,1,3.711.843l-.932,1.989a5.538,5.538,0,0,0-2.779-.717c-1.254,0-1.791.394-1.791.9,0,1.649,5.824.053,5.824,3.853,0,1.792-1.666,3.065-4.551,3.065a8.278,8.278,0,0,1-4.176-1.04" transform="translate(-13898.013 -16782.719)" fill="#263238"/>
    <path id="Path_3649" data-name="Path 3649" d="M225.949,156.274l-3.494,9.642h-2.689L217.6,159.93l-2.239,5.986h-2.689l-3.477-9.642h2.635L214.1,162.8l2.366-6.524h2.365l2.294,6.524,2.347-6.524Z" transform="translate(-13900.169 -16782.754)" fill="#263238"/>
    <path id="Path_3650" data-name="Path 3650" d="M230.366,161.061a5.307,5.307,0,1,1,5.3,4.964,4.963,4.963,0,0,1-5.3-4.964m7.76,0a2.472,2.472,0,1,0-2.456,2.67,2.434,2.434,0,0,0,2.456-2.67" transform="translate(-13904.262 -16782.719)" fill="#263238"/>
    <path id="Path_3651" data-name="Path 3651" d="M251.794,156.1v2.581c-.232-.018-.412-.035-.627-.035a2.369,2.369,0,0,0-2.563,2.688v4.552h-2.8v-9.642h2.671v1.272a3.889,3.889,0,0,1,3.315-1.416" transform="translate(-13907.247 -16782.719)" fill="#263238"/>
    <path id="Path_3652" data-name="Path 3652" d="M264.841,151.742v13.3h-2.67V163.93a3.709,3.709,0,0,1-3.011,1.254,4.966,4.966,0,0,1,0-9.929,3.707,3.707,0,0,1,2.886,1.165v-4.678ZM262.1,160.22a2.472,2.472,0,1,0-2.456,2.67,2.444,2.444,0,0,0,2.456-2.67" transform="translate(-13908.896 -16781.877)" fill="#263238"/>
    <path id="Path_3653" data-name="Path 3653" d="M262.07,181.033c0,.116-29.871.211-66.71.211s-66.717-.094-66.717-.211,29.865-.21,66.717-.21,66.71.094,66.71.21" transform="translate(-13884.599 -16787.5)" fill="#e0e0e0"/>
    <path id="Path_3654" data-name="Path 3654" d="M258.2,333.3c0,.116-29.871.21-66.71.21s-66.716-.094-66.716-.21,29.865-.21,66.716-.21,66.71.094,66.71.21" transform="translate(-13883.85 -16816.934)" fill="#e0e0e0"/>
    <path id="Path_3655" data-name="Path 3655" d="M235,344.731c0,.116-16.593.21-37.058.21s-37.06-.094-37.06-.21,16.59-.21,37.06-.21,37.058.094,37.058.21" transform="translate(-13890.829 -16819.143)" fill="#e0e0e0"/>
    <path id="Path_3656" data-name="Path 3656" d="M141.858,224.311l2.527,1.368-1.136,1.9-2.551-1.509.046,2.806h-2.18l.023-2.829-2.552,1.531-1.113-1.9,2.528-1.368-2.528-1.392,1.113-1.9,2.552,1.53-.023-2.829h2.18l-.046,2.829,2.551-1.53,1.136,1.9Z" transform="translate(-13885.813 -16795.018)" fill="#47d7ac"/>
    <path id="Path_3657" data-name="Path 3657" d="M177.774,224.311l2.527,1.368-1.136,1.9-2.551-1.509.046,2.806h-2.18l.023-2.829-2.552,1.531-1.113-1.9,2.528-1.368-2.528-1.392,1.113-1.9,2.552,1.53-.023-2.829h2.18l-.046,2.829,2.551-1.53,1.136,1.9Z" transform="translate(-13892.755 -16795.018)" fill="#47d7ac"/>
    <path id="Path_3658" data-name="Path 3658" d="M212.739,224.311l2.527,1.368-1.136,1.9-2.551-1.509.045,2.806h-2.18l.023-2.829-2.551,1.531-1.113-1.9,2.527-1.368-2.527-1.392,1.113-1.9,2.551,1.53-.023-2.829h2.18l-.045,2.829,2.551-1.53,1.136,1.9Z" transform="translate(-13899.514 -16795.018)" fill="#47d7ac"/>
    <path id="Path_3659" data-name="Path 3659" d="M246.607,224.311l2.527,1.368-1.136,1.9-2.551-1.509.045,2.806h-2.18l.023-2.829-2.551,1.531-1.113-1.9,2.527-1.368-2.527-1.392,1.113-1.9,2.551,1.53-.023-2.829h2.18l-.045,2.829,2.551-1.53,1.136,1.9Z" transform="translate(-13906.061 -16795.018)" fill="#47d7ac"/>
    <path id="Path_3660" data-name="Path 3660" d="M280.213,224.311l2.527,1.368-1.136,1.9-2.551-1.509.045,2.806h-2.18l.023-2.829-2.551,1.531-1.113-1.9,2.527-1.368-2.527-1.392,1.113-1.9,2.551,1.53-.023-2.829h2.18l-.045,2.829,2.551-1.53,1.136,1.9Z" transform="translate(-13912.557 -16795.018)" fill="#47d7ac"/>
    <path id="Path_3661" data-name="Path 3661" d="M144.8,239.259H132.571a5.707,5.707,0,0,1-5.7-5.7v-21.7a5.707,5.707,0,0,1,5.7-5.7H144.8a5.707,5.707,0,0,1,5.7,5.7v21.7a5.707,5.707,0,0,1-5.7,5.7m-12.228-32.7a5.3,5.3,0,0,0-5.3,5.3v21.7a5.3,5.3,0,0,0,5.3,5.3H144.8a5.3,5.3,0,0,0,5.3-5.3v-21.7a5.3,5.3,0,0,0-5.3-5.3Z" transform="translate(-13884.256 -16792.396)" fill="#263238"/>
    <path id="Path_3662" data-name="Path 3662" d="M179.989,239.259H167.761a5.707,5.707,0,0,1-5.7-5.7v-21.7a5.707,5.707,0,0,1,5.7-5.7h12.228a5.707,5.707,0,0,1,5.7,5.7v21.7a5.707,5.707,0,0,1-5.7,5.7m-12.228-32.7a5.3,5.3,0,0,0-5.3,5.3v21.7a5.3,5.3,0,0,0,5.3,5.3h12.228a5.3,5.3,0,0,0,5.3-5.3v-21.7a5.3,5.3,0,0,0-5.3-5.3Z" transform="translate(-13891.058 -16792.396)" fill="#263238"/>
    <path id="Path_3663" data-name="Path 3663" d="M214.212,239.259H201.984a5.707,5.707,0,0,1-5.7-5.7v-21.7a5.707,5.707,0,0,1,5.7-5.7h12.228a5.707,5.707,0,0,1,5.7,5.7v21.7a5.707,5.707,0,0,1-5.7,5.7m-12.228-32.7a5.3,5.3,0,0,0-5.3,5.3v21.7a5.3,5.3,0,0,0,5.3,5.3h12.228a5.3,5.3,0,0,0,5.3-5.3v-21.7a5.3,5.3,0,0,0-5.3-5.3Z" transform="translate(-13897.674 -16792.396)" fill="#263238"/>
    <path id="Path_3664" data-name="Path 3664" d="M248.822,239.259H236.594a5.707,5.707,0,0,1-5.7-5.7v-21.7a5.707,5.707,0,0,1,5.7-5.7h12.228a5.707,5.707,0,0,1,5.7,5.7v21.7a5.707,5.707,0,0,1-5.7,5.7m-12.228-32.7a5.3,5.3,0,0,0-5.3,5.3v21.7a5.3,5.3,0,0,0,5.3,5.3h12.228a5.3,5.3,0,0,0,5.3-5.3v-21.7a5.3,5.3,0,0,0-5.3-5.3Z" transform="translate(-13904.364 -16792.396)" fill="#263238"/>
    <path id="Path_3665" data-name="Path 3665" d="M282.428,239.259H270.2a5.707,5.707,0,0,1-5.7-5.7v-21.7a5.707,5.707,0,0,1,5.7-5.7h12.228a5.707,5.707,0,0,1,5.7,5.7v21.7a5.707,5.707,0,0,1-5.7,5.7m-12.228-32.7a5.3,5.3,0,0,0-5.3,5.3v21.7a5.3,5.3,0,0,0,5.3,5.3h12.228a5.3,5.3,0,0,0,5.3-5.3v-21.7a5.3,5.3,0,0,0-5.3-5.3Z" transform="translate(-13910.86 -16792.396)" fill="#263238"/>
    <path id="Path_3666" data-name="Path 3666" d="M254.965,303.662H136.213a9.107,9.107,0,0,1-9.107-9.108V288.78a9.107,9.107,0,0,1,9.107-9.108H254.965a9.108,9.108,0,0,1,9.108,9.108v5.775a9.108,9.108,0,0,1-9.108,9.108" transform="translate(-13884.301 -16806.607)" fill="#47d7ac"/>
    <path id="Path_3667" data-name="Path 3667" d="M190.57,288.566h3.687c2.656,0,4.476,1.6,4.476,4.058s-1.82,4.058-4.476,4.058H190.57Zm3.595,6.574a2.52,2.52,0,1,0,0-5.032h-1.716v5.032Z" transform="translate(-13896.569 -16808.326)" fill="#fff"/>
    <path id="Path_3668" data-name="Path 3668" d="M201.713,293.991a3.434,3.434,0,1,1,3.432,3.211,3.211,3.211,0,0,1-3.432-3.211m5.021,0a1.6,1.6,0,1,0-1.588,1.728,1.574,1.574,0,0,0,1.588-1.728" transform="translate(-13898.723 -16808.754)" fill="#fff"/>
    <path id="Path_3669" data-name="Path 3669" d="M218.084,293.539v3.571h-1.809v-3.293c0-1.009-.464-1.472-1.264-1.472-.87,0-1.5.533-1.5,1.681v3.084h-1.809v-6.239h1.727v.732a2.729,2.729,0,0,1,2.064-.824,2.446,2.446,0,0,1,2.585,2.76" transform="translate(-13900.655 -16808.754)" fill="#fff"/>
    <path id="Path_3670" data-name="Path 3670" d="M227.693,294.5h-4.718a1.664,1.664,0,0,0,1.786,1.252,2.116,2.116,0,0,0,1.565-.6l.962,1.043a3.642,3.642,0,0,1-6.133-2.2,3.176,3.176,0,0,1,3.328-3.212,3.089,3.089,0,0,1,3.247,3.235c0,.14-.023.336-.036.487m-4.742-1.055h3.073a1.558,1.558,0,0,0-3.073,0" transform="translate(-13902.481 -16808.754)" fill="#fff"/>
    <path id="Path_3671" data-name="Path 3671" d="M228.762,101.821a24.24,24.24,0,1,1-24.24-24.24,24.24,24.24,0,0,1,24.24,24.24" transform="translate(-13894.58 -16767.541)" fill="#47d7ac"/>
    <path id="Path_3672" data-name="Path 3672" d="M204.944,100.491h-.4V98.227a4.728,4.728,0,0,1,9.457,0v1.844h-.4V98.227a4.325,4.325,0,0,0-8.65,0Z" transform="translate(-13899.27 -16770.619)" fill="#fff"/>
    <path id="Path_3673" data-name="Path 3673" d="M214.423,117.925H202.4a2,2,0,0,1-1.994-1.994V103.909a2,2,0,0,1,1.994-1.993h12.021a2,2,0,0,1,1.994,1.993v12.021a2,2,0,0,1-1.994,1.994M202.4,102.319a1.592,1.592,0,0,0-1.591,1.59v12.021a1.593,1.593,0,0,0,1.591,1.591h12.021a1.592,1.592,0,0,0,1.591-1.591V103.909a1.592,1.592,0,0,0-1.591-1.59Z" transform="translate(-13898.471 -16772.246)" fill="#fff"/>
    <path id="Path_3674" data-name="Path 3674" d="M209.95,111.423a1.887,1.887,0,1,1,1.887-1.887,1.889,1.889,0,0,1-1.887,1.887m0-3.37a1.484,1.484,0,1,0,1.484,1.484,1.485,1.485,0,0,0-1.484-1.484" transform="translate(-13899.95 -16773.354)" fill="#fff"/>
    <rect id="Rectangle_2777" data-name="Rectangle 2777" width="0.403" height="3.406" transform="translate(-13690.261 -16662.221)" fill="#fff"/>
    <path id="Path_3675" data-name="Path 3675" d="M411.5,414.469l-15.225-35.117L378.81,390.563l18.524,32.1,9.286-4.163Z" transform="translate(-13932.957 -16825.877)" fill="#ffbe9d"/>
    <path id="Path_3676" data-name="Path 3676" d="M415.046,420.457l.507.994s20.289-1.73,22.082,1.381L404.045,439.55l-5.106-11.405a21.466,21.466,0,0,0,16.107-7.688" transform="translate(-13936.848 -16833.822)" fill="#2e008b"/>
    <g id="Group_89684" data-name="Group 89684" transform="translate(-13533.21 -16404.139)" opacity="0.6">
      <g id="Group_89683" data-name="Group 89683" transform="translate(0 0)">
        <g id="Group_89682" data-name="Group 89682" clip-path="url(#clip-path-3)">
          <path id="Path_3677" data-name="Path 3677" d="M405.244,432.237a1.533,1.533,0,0,0-.169,2.038,1.473,1.473,0,0,0,2.018.186,1.617,1.617,0,0,0,.168-2.159,1.529,1.529,0,0,0-2.121.04" transform="translate(-404.764 -431.894)" fill="#fff"/>
        </g>
      </g>
    </g>
    <g id="Group_89687" data-name="Group 89687" transform="translate(-13534.032 -16412.035)" opacity="0.6">
      <g id="Group_89686" data-name="Group 89686" transform="translate(0 0)">
        <g id="Group_89685" data-name="Group 89685" clip-path="url(#clip-path-4)">
          <path id="Path_3678" data-name="Path 3678" d="M404.974,439.868l-1.228-2.743,32.644-15.019s1.819-.094,2.175,1.044Z" transform="translate(-403.745 -422.105)" fill="#fff"/>
        </g>
      </g>
    </g>
    <path id="Path_3679" data-name="Path 3679" d="M419.2,421.723c.077.167-.707.649-1.251,1.579-.569.915-.632,1.832-.815,1.842-.167.044-.411-1.058.269-2.172s1.758-1.417,1.8-1.249" transform="translate(-13940.329 -16834.059)" fill="#fff"/>
    <path id="Path_3680" data-name="Path 3680" d="M424.676,421.359c.117.14-.455.773-.667,1.744-.24.964-.007,1.784-.174,1.859-.141.1-.732-.8-.446-2s1.206-1.754,1.287-1.6" transform="translate(-13941.56 -16833.992)" fill="#fff"/>
    <path id="Path_3681" data-name="Path 3681" d="M429.894,424.529c-.132.109-.768-.6-.794-1.7s.564-1.847.7-1.745c.16.089-.1.818-.064,1.728.014.909.311,1.625.157,1.721" transform="translate(-13942.679 -16833.941)" fill="#fff"/>
    <path id="Path_3682" data-name="Path 3682" d="M379.061,421.268l.582-38.27-20.532,3.027,3.666,36.88,10.176.029Z" transform="translate(-13929.149 -16826.582)" fill="#ffbe9d"/>
    <path id="Path_3683" data-name="Path 3683" d="M380.165,428.052l.052,1.113s19.2,6.776,19.556,10.35l-37.493,1.408.041-12.5a21.464,21.464,0,0,0,17.845-.375" transform="translate(-13929.762 -16835.291)" fill="#2e008b"/>
    <g id="Group_89690" data-name="Group 89690" transform="translate(-13564.532 -16403.094)" opacity="0.6">
      <g id="Group_89689" data-name="Group 89689" transform="translate(0 0)">
        <g id="Group_89688" data-name="Group 89688" clip-path="url(#clip-path-5)">
          <path id="Path_3684" data-name="Path 3684" d="M366.973,433.267a1.532,1.532,0,0,0-.993,1.787,1.473,1.473,0,0,0,1.763,1,1.616,1.616,0,0,0,1.041-1.9,1.527,1.527,0,0,0-1.948-.837" transform="translate(-365.936 -433.19)" fill="#fff"/>
        </g>
      </g>
    </g>
    <g id="Group_89693" data-name="Group 89693" transform="translate(-13567.482 -16397.621)" opacity="0.6">
      <g id="Group_89692" data-name="Group 89692" transform="translate(0 0)">
        <g id="Group_89691" data-name="Group 89691" clip-path="url(#clip-path-6)">
          <path id="Path_3685" data-name="Path 3685" d="M362.279,443.226l.009-3.006,35.932-.248s1.7.664,1.553,1.846Z" transform="translate(-362.279 -439.973)" fill="#fff"/>
        </g>
      </g>
    </g>
    <path id="Path_3686" data-name="Path 3686" d="M383.882,429.52c0,.183-.912.3-1.79.924-.9.6-1.329,1.409-1.5,1.343-.17-.029.061-1.134,1.138-1.869s2.186-.567,2.152-.4" transform="translate(-13933.292 -16835.545)" fill="#fff"/>
    <path id="Path_3687" data-name="Path 3687" d="M389.06,431.373c.048.176-.732.517-1.325,1.315-.616.78-.741,1.623-.924,1.622-.171.035-.338-1.033.419-2.01s1.821-1.1,1.831-.927" transform="translate(-13934.476 -16835.92)" fill="#fff"/>
    <path id="Path_3688" data-name="Path 3688" d="M392.562,436.35c-.165.045-.454-.86-.022-1.88s1.274-1.452,1.358-1.3c.109.147-.427.705-.77,1.548-.361.835-.385,1.609-.566,1.634" transform="translate(-13935.567 -16836.273)" fill="#fff"/>
    <path id="Path_3689" data-name="Path 3689" d="M356.891,229.779l-.763-30.134L326.8,201.188l-.953,3.565A161.353,161.353,0,0,0,322,221.531c-1.968,12.622-1.736,24.114,3.212,37.6s12.726,39.157,12.726,39.157l29.1,80.371,33.884-11.139Z" transform="translate(-13921.753 -16791.137)" fill="#263238"/>
    <path id="Path_3690" data-name="Path 3690" d="M380.931,198.437l2.563,8.343c3.758,2.389,9.83,14.282,10.388,19.139a276.751,276.751,0,0,1,.506,40.97c-.939,16.028-8.878,109.851-8.878,109.851l-32.06,1.688,3.341-151.707,1.408-27.088Z" transform="translate(-13928.055 -16790.904)" fill="#263238"/>
    <path id="Path_3691" data-name="Path 3691" d="M319.425,227.346a4.87,4.87,0,0,0,1.108.329,18.211,18.211,0,0,0,3.126.421,20.369,20.369,0,0,0,17.93-8.887,18.233,18.233,0,0,0,1.558-2.743,4.912,4.912,0,0,0,.409-1.081,42.671,42.671,0,0,1-2.226,3.641,20.991,20.991,0,0,1-17.658,8.753,42.622,42.622,0,0,1-4.246-.433" transform="translate(-13921.478 -16794.18)" fill="#455a64"/>
    <path id="Path_3692" data-name="Path 3692" d="M386,210.238a2.227,2.227,0,0,0,.183.7,15.957,15.957,0,0,0,.741,1.813,23.331,23.331,0,0,0,8.458,9.595,16.1,16.1,0,0,0,1.7.963,2.238,2.238,0,0,0,.668.269c.035-.067-.858-.556-2.2-1.495a26.872,26.872,0,0,1-8.351-9.475c-.765-1.445-1.137-2.393-1.208-2.366" transform="translate(-13934.346 -16793.186)" fill="#455a64"/>
    <path id="Path_3693" data-name="Path 3693" d="M362.878,241.988s.08.21.215.624l.59,1.847,2.228,7.112,8.118,26.177c6.959,22.07,15.789,52.812,27.63,86.085q2.041,5.975,4.033,11.805l.07.206-.207.067-33.888,11.125-.184.061-.066-.182L351.94,332.889l-5.545-15.48c-.634-1.792-1.124-3.174-1.458-4.121-.16-.461-.282-.814-.368-1.064s-.115-.365-.115-.365.055.118.146.353l.4,1.053c.348.942.857,2.317,1.518,4.1,1.317,3.6,3.233,8.836,5.652,15.442,4.818,13.249,11.629,31.984,19.625,53.972l-.25-.121L405.423,375.5l-.136.273q-1.992-5.825-4.036-11.807c-11.843-33.279-20.628-64.036-27.513-86.131-3.37-11.062-6.1-20.016-7.988-26.219-.931-3.09-1.655-5.492-2.151-7.135l-.549-1.859c-.121-.419-.173-.637-.173-.637" transform="translate(-13926.315 -16799.322)" fill="#455a64"/>
    <path id="Path_3694" data-name="Path 3694" d="M383.871,127.881s-1.534-8.583-5.928-12.684-22.716-8.751-22.716-8.751.217,6.359-3.877,8.066c-4.345,1.81-8.685,1.2-12.125-2.392a17.544,17.544,0,0,1-4.175-7.974s-21.714,3.169-24.807,9.055-6.319,28.226-6.319,28.226l19.675,3.106-.641,38.224,51.707-2.722-2.894-35.687,14.182,1.269Z" transform="translate(-13918.481 -16772.678)" fill="#455a64"/>
    <path id="Path_3695" data-name="Path 3695" d="M332.8,150.3a3.225,3.225,0,0,0,.024-.862c-.014-.553-.048-1.354-.1-2.341-.1-1.974-.279-4.7-.5-7.708s-.446-5.732-.632-7.7c-.093-.984-.176-1.781-.243-2.331a3.232,3.232,0,0,0-.15-.852,3.2,3.2,0,0,0-.024.861c.014.553.048,1.352.1,2.339.1,1.975.279,4.7.5,7.712s.446,5.733.631,7.7c.093.985.176,1.781.243,2.331a3.2,3.2,0,0,0,.15.85" transform="translate(-13923.747 -16777.385)" fill="#263238"/>
    <path id="Path_3696" data-name="Path 3696" d="M391.9,132.885c-.121-.028-1.132,3.9-2.258,8.768s-1.942,8.842-1.821,8.87,1.132-3.9,2.258-8.769,1.942-8.841,1.821-8.87" transform="translate(-13934.696 -16778.232)" fill="#263238"/>
    <path id="Path_3697" data-name="Path 3697" d="M314.364,113.526c-.011.081.936.2,2.385.669a16.932,16.932,0,0,1,9.155,7.153c.8,1.294,1.15,2.183,1.225,2.152a1.94,1.94,0,0,0-.181-.649,10.753,10.753,0,0,0-.77-1.665,15.455,15.455,0,0,0-9.337-7.3,10.743,10.743,0,0,0-1.8-.345,1.955,1.955,0,0,0-.674-.019" transform="translate(-13920.499 -16774.486)" fill="#263238"/>
    <path id="Path_3698" data-name="Path 3698" d="M395.909,119.988a9.109,9.109,0,0,0-.772,2.731,9.146,9.146,0,0,0-.332,2.818,9.1,9.1,0,0,0,.772-2.731,9.088,9.088,0,0,0,.332-2.818" transform="translate(-13936.041 -16775.74)" fill="#263238"/>
    <path id="Path_3699" data-name="Path 3699" d="M308.264,151.046s7.387,29.29,8.187,31.788,2.236,9.258,9.367,10.3c9.629,1.4,46.979-1.9,46.979-1.9l-7.53-8.564-33.224-7.458-5.607-21.3Z" transform="translate(-13919.32 -16781.742)" fill="#ffbe9d"/>
    <path id="Path_3700" data-name="Path 3700" d="M379.242,184.015a2.089,2.089,0,0,0-.244.7,9.746,9.746,0,0,0-.271,1.993,11.4,11.4,0,0,0,1.676,6.376,13.31,13.31,0,0,0,2.3,2.856,7.167,7.167,0,0,0,2.587,1.533,6.993,6.993,0,0,0,1.991.34,2.191,2.191,0,0,0,.737-.063,15.086,15.086,0,0,1-2.622-.576,7.283,7.283,0,0,1-2.413-1.538,13.954,13.954,0,0,1-2.2-2.789,11.929,11.929,0,0,1-1.74-6.134c-.012-1.664.279-2.678.2-2.7" transform="translate(-13932.939 -16788.117)" fill="#eb996e"/>
    <path id="Path_3701" data-name="Path 3701" d="M327.578,145.774a3.576,3.576,0,0,1-.885-.086l-2.388-.349c-2.015-.291-4.81-.62-7.9-1.02a78.482,78.482,0,0,1-7.864-1.367c-.995-.239-1.793-.456-2.337-.634a3.557,3.557,0,0,1-.833-.311c.019-.067,1.24.251,3.235.648s4.772.837,7.856,1.238,5.88.777,7.889,1.146c1.005.183,1.815.348,2.37.485a3.537,3.537,0,0,1,.854.25" transform="translate(-13918.762 -16779.994)" fill="#47d7ac"/>
    <path id="Path_3702" data-name="Path 3702" d="M326.39,134.01a2.647,2.647,0,0,1-.765.042c-.492,0-1.2-.022-2.079-.065-1.754-.086-4.174-.277-6.833-.607s-5.053-.743-6.774-1.091c-.861-.174-1.555-.328-2.03-.449a2.6,2.6,0,0,1-.732-.229,21.236,21.236,0,0,1,2.815.378c1.731.27,4.123.632,6.774.964s5.058.568,6.8.731a21.2,21.2,0,0,1,2.822.327" transform="translate(-13919.11 -16777.984)" fill="#47d7ac"/>
    <path id="Path_3703" data-name="Path 3703" d="M325.257,124.7a10.337,10.337,0,0,1-2.3-.019,47.963,47.963,0,0,1-10.887-2.044,10.453,10.453,0,0,1-2.15-.816,14.644,14.644,0,0,1,2.233.524c1.368.353,3.265.809,5.381,1.208s4.049.659,5.452.826a14.709,14.709,0,0,1,2.271.322" transform="translate(-13919.641 -16776.092)" fill="#47d7ac"/>
    <path id="Path_3704" data-name="Path 3704" d="M341.718,112.278a15.769,15.769,0,0,1-2.592.771c-1.617.414-3.863.935-6.36,1.435s-4.773.882-6.425,1.121a15.727,15.727,0,0,1-2.689.285,17.975,17.975,0,0,1,2.638-.585l6.391-1.243,6.376-1.31a18.122,18.122,0,0,1,2.66-.474" transform="translate(-13922.295 -16774.246)" fill="#47d7ac"/>
    <path id="Path_3705" data-name="Path 3705" d="M390.169,120.917a4.331,4.331,0,0,1-.925-.323l-2.464-1.013c-2.076-.862-4.947-2.042-8.141-3.291s-6.107-2.325-8.218-3.1l-2.5-.925a4.377,4.377,0,0,1-.9-.389,4.273,4.273,0,0,1,.953.23c.605.174,1.475.445,2.544.8,2.139.7,5.073,1.736,8.274,2.986s6.058,2.478,8.106,3.412c1.024.466,1.847.856,2.41,1.138a4.3,4.3,0,0,1,.857.477" transform="translate(-13930.679 -16774.17)" fill="#47d7ac"/>
    <path id="Path_3706" data-name="Path 3706" d="M381.064,131.173a2.262,2.262,0,0,1-.5-.052l-1.431-.232-5.247-.916c-4.43-.774-10.55-1.848-17.356-2.669-3.406-.4-6.66-.678-9.624-.853-2.965-.152-5.64-.219-7.885-.182-1.123-.009-2.138.046-3.029.07s-1.659.064-2.287.1l-1.446.073a2.3,2.3,0,0,1-.507,0,2.2,2.2,0,0,1,.5-.083l1.442-.153c.627-.067,1.394-.136,2.288-.177s1.909-.124,3.036-.135c2.251-.075,4.935-.04,7.911.09,2.974.154,6.241.421,9.653.822,6.825.823,12.944,1.947,17.361,2.8,2.209.427,3.992.791,5.223,1.051l1.415.311a2.288,2.288,0,0,1,.489.137" transform="translate(-13923.859 -16776.887)" fill="#47d7ac"/>
    <path id="Path_3707" data-name="Path 3707" d="M360.38,147.557a5.5,5.5,0,0,1-1.11-.026c-.712-.043-1.741-.131-3.011-.263-2.538-.261-6.035-.725-9.867-1.422s-7.269-1.5-9.737-2.153c-1.233-.325-2.227-.605-2.909-.816a5.568,5.568,0,0,1-1.047-.367,5.491,5.491,0,0,1,1.091.2l2.939.683c2.481.575,5.918,1.326,9.74,2.025s7.3,1.206,9.826,1.544l2.991.4a5.481,5.481,0,0,1,1.093.193" transform="translate(-13924.044 -16780.092)" fill="#47d7ac"/>
    <path id="Path_3708" data-name="Path 3708" d="M384.837,149.073a78.366,78.366,0,0,1-8.2.293,78.356,78.356,0,0,1-8.2-.138,78.347,78.347,0,0,1,8.2-.293,78.358,78.358,0,0,1,8.2.138" transform="translate(-13930.952 -16781.332)" fill="#47d7ac"/>
    <path id="Path_3709" data-name="Path 3709" d="M354.926,162.239a3.576,3.576,0,0,1-.893-.041c-.572-.052-1.4-.153-2.411-.3-2.032-.289-4.826-.783-7.877-1.5s-5.775-1.512-7.723-2.154c-.975-.32-1.759-.6-2.294-.8a3.635,3.635,0,0,1-.818-.359,3.557,3.557,0,0,1,.87.2l2.331.671c1.967.565,4.693,1.313,7.733,2.026s5.814,1.25,7.827,1.614l2.386.433a3.593,3.593,0,0,1,.87.207" transform="translate(-13924.084 -16782.91)" fill="#47d7ac"/>
    <path id="Path_3710" data-name="Path 3710" d="M379.55,163.967a13.548,13.548,0,0,1-2.6.027c-1.6-.058-3.816-.219-6.245-.533s-4.609-.727-6.174-1.08a13.607,13.607,0,0,1-2.5-.689,18.053,18.053,0,0,1,2.564.391c1.575.276,3.753.636,6.17.951s4.614.521,6.208.657a18.042,18.042,0,0,1,2.579.277" transform="translate(-13929.713 -16783.799)" fill="#47d7ac"/>
    <path id="Path_3711" data-name="Path 3711" d="M370.684,177.025a1.086,1.086,0,0,1-.328.132c-.219.069-.54.183-.965.292a31.491,31.491,0,0,1-3.63.754,47.341,47.341,0,0,1-12.213.1,95.5,95.5,0,0,1-12.007-2.251c-1.517-.374-2.739-.695-3.581-.926a8.113,8.113,0,0,1-1.3-.4,8.205,8.205,0,0,1,1.337.24l3.611.793a116.567,116.567,0,0,0,11.985,2.119,51.6,51.6,0,0,0,12.123.024c1.542-.2,2.781-.43,3.633-.616a9.5,9.5,0,0,1,1.332-.261" transform="translate(-13924.81 -16786.32)" fill="#47d7ac"/>
    <path id="Path_3712" data-name="Path 3712" d="M399.982,140.006a25.391,25.391,0,0,1-4.091.333,16.25,16.25,0,0,1-4.112-.1,25.262,25.262,0,0,1,4.092-.333,16.158,16.158,0,0,1,4.111.1" transform="translate(-13935.464 -16779.58)" fill="#47d7ac"/>
    <path id="Path_3713" data-name="Path 3713" d="M399.533,127.771a11.745,11.745,0,0,1-4.465-.29,11.745,11.745,0,0,1,4.465.29" transform="translate(-13936.1 -16777.166)" fill="#47d7ac"/>
    <path id="Path_3714" data-name="Path 3714" d="M358.263,160.813c-.04-.073.845-.513,2.051-1.515a14.267,14.267,0,0,0,1.922-1.955,14.586,14.586,0,0,0,2.9-6,14.239,14.239,0,0,0,.336-2.722c.035-1.567-.171-2.533-.089-2.548a2.151,2.151,0,0,1,.19.667,5.124,5.124,0,0,1,.129.8,8.436,8.436,0,0,1,.073,1.078,12.763,12.763,0,0,1-.253,2.8,13.833,13.833,0,0,1-2.977,6.166,12.888,12.888,0,0,1-2.037,1.941,8.776,8.776,0,0,1-.891.612,5.27,5.27,0,0,1-.709.4,2.152,2.152,0,0,1-.642.265" transform="translate(-13928.985 -16780.783)" fill="#263238"/>
    <g id="Group_89696" data-name="Group 89696" transform="translate(-13575.354 -16627.824)" opacity="0.3">
      <g id="Group_89695" data-name="Group 89695" transform="translate(0 0)">
        <g id="Group_89694" data-name="Group 89694" clip-path="url(#clip-path-7)">
          <path id="Path_3715" data-name="Path 3715" d="M364.068,154.607l-3.144,4.659a14.905,14.905,0,0,1-8.4,5.236,8.795,8.795,0,0,0,11.548-9.9" transform="translate(-352.521 -154.607)"/>
        </g>
      </g>
    </g>
    <path id="Path_3716" data-name="Path 3716" d="M376.248,87.31a15.621,15.621,0,0,0,8.658-1.765c-3.9-2.4-6.372-6.662-7.559-11.089s-2.73-11.976-2.773-16.559l-7.146,31.758a19.238,19.238,0,0,0,11.339-.877,3.129,3.129,0,0,1-2.52-1.468" transform="translate(-13930.757 -16763.736)" fill="#263238"/>
    <path id="Path_3717" data-name="Path 3717" d="M347.729,95.048A22.376,22.376,0,0,1,346,83.694l-14.408-5.461A25.436,25.436,0,0,1,327,89.062c-.881,1.194-1.929,2.58-1.515,4a3.008,3.008,0,0,0,2.235,1.909,8.882,8.882,0,0,0,3.061.038l-1.841,2.006a110.669,110.669,0,0,1,18.791-1.972" transform="translate(-13922.631 -16767.668)" fill="#263238"/>
    <path id="Path_3718" data-name="Path 3718" d="M349.627,40.26c-4.544-.469-8.381,1.519-12,4.3a23.211,23.211,0,0,0-7.5,25.328,17.849,17.849,0,0,0,9.487,10.34c6.04,2.586,13.448,1.062,18.418-3.235a22.6,22.6,0,0,0,7.355-17.6,21.706,21.706,0,0,0-4.271-12.654,16.534,16.534,0,0,0-11.488-6.482" transform="translate(-13923.313 -16760.314)" fill="#263238"/>
    <path id="Path_3719" data-name="Path 3719" d="M339.872,56.393c.545-1.763.165-3.665.3-5.5.31-4.05,3.332-7.478,6.969-9.287,3.382-1.683,7.651-1.643,11.93-.563a16.027,16.027,0,0,1,7.81,4.39,12.628,12.628,0,0,1,3.057,11.165l-20.724-1.646a22.936,22.936,0,0,1-5.953,4.5,4.248,4.248,0,0,1-2.121.482,1.915,1.915,0,0,1-1.683-1.212,4.062,4.062,0,0,1,.409-2.325" transform="translate(-13925.337 -16760.33)" fill="#263238"/>
    <path id="Path_3720" data-name="Path 3720" d="M359.864,48.2l-17.674,4.97a3.354,3.354,0,0,0-2.91,3.481l2.755,38.771a12.066,12.066,0,0,0,3,7.149l1.853,2.093a8.864,8.864,0,0,0,14.7-2.067,4.275,4.275,0,0,0,.346-1.042,8.05,8.05,0,0,0,.111-.887,28.119,28.119,0,0,0-.073-5.894c-.052-3.465-.09-4.885-.087-4.853,0,0,7.274-1.408,8.535-10.98.627-4.761.182-12.528-.387-18.87-.512-5.71-4.488-12.626-10.17-11.871" transform="translate(-13925.314 -16761.852)" fill="#ffbe9d"/>
    <path id="Path_3721" data-name="Path 3721" d="M372.6,70.239a1.223,1.223,0,0,1-1.146,1.265,1.169,1.169,0,0,1-1.289-1.069,1.223,1.223,0,0,1,1.145-1.265,1.17,1.17,0,0,1,1.291,1.069" transform="translate(-13931.286 -16765.916)" fill="#263238"/>
    <path id="Path_3722" data-name="Path 3722" d="M374.289,67.7c-.147.164-1.091-.5-2.407-.459-1.314.019-2.262.721-2.409.565-.073-.069.074-.361.486-.678a3.362,3.362,0,0,1,1.923-.65,3.222,3.222,0,0,1,1.922.565c.413.3.557.584.485.657" transform="translate(-13931.148 -16765.396)" fill="#263238"/>
    <path id="Path_3723" data-name="Path 3723" d="M357.164,71.051a1.223,1.223,0,0,1-1.146,1.265,1.17,1.17,0,0,1-1.289-1.069,1.224,1.224,0,0,1,1.145-1.266,1.171,1.171,0,0,1,1.291,1.07" transform="translate(-13928.302 -16766.072)" fill="#263238"/>
    <path id="Path_3724" data-name="Path 3724" d="M358.267,68.432c-.148.164-1.093-.5-2.408-.458-1.314.019-2.262.721-2.409.564-.072-.069.073-.361.487-.678a3.354,3.354,0,0,1,1.923-.649,3.225,3.225,0,0,1,1.922.565c.411.3.557.584.485.657" transform="translate(-13928.052 -16765.537)" fill="#263238"/>
    <path id="Path_3725" data-name="Path 3725" d="M365.448,78.038a8.756,8.756,0,0,1,2.126-.442c.335-.043.651-.119.7-.348a1.71,1.71,0,0,0-.251-.991q-.506-1.206-1.062-2.532a43.936,43.936,0,0,1-2.409-6.63,43.886,43.886,0,0,1,2.937,6.422c.356.889.7,1.736,1.02,2.548a1.939,1.939,0,0,1,.21,1.313.846.846,0,0,1-.54.507,2.23,2.23,0,0,1-.568.094,8.489,8.489,0,0,1-2.166.061" transform="translate(-13930.199 -16765.514)" fill="#263238"/>
    <path id="Path_3726" data-name="Path 3726" d="M364.223,99.2a24.258,24.258,0,0,1-12.857-3.066s3.386,6.514,12.9,5.368Z" transform="translate(-13927.652 -16771.127)" fill="#eb996e"/>
    <path id="Path_3727" data-name="Path 3727" d="M364.145,84.407A2.37,2.37,0,0,0,362,83.584a2.166,2.166,0,0,0-1.474.841A1.372,1.372,0,0,0,360.461,86a1.593,1.593,0,0,0,1.736.39,4.98,4.98,0,0,0,1.655-1.049,1.44,1.44,0,0,0,.365-.4.44.44,0,0,0-.015-.49" transform="translate(-13929.367 -16768.697)" fill="#eb996e"/>
    <path id="Path_3728" data-name="Path 3728" d="M360.849,81.917c.214-.019.254,1.409,1.5,2.391s2.765.783,2.781.983c.023.09-.331.286-.973.321a3.555,3.555,0,0,1-2.32-.74,3.1,3.1,0,0,1-1.169-2.007c-.07-.6.08-.954.177-.948" transform="translate(-13929.447 -16768.381)" fill="#263238"/>
    <path id="Path_3729" data-name="Path 3729" d="M358.132,63.566c-.12.361-1.438.227-2.977.453-1.543.2-2.776.681-2.989.365-.1-.151.112-.493.607-.853a5.235,5.235,0,0,1,4.545-.624c.573.214.865.487.814.658" transform="translate(-13927.803 -16764.654)" fill="#263238"/>
    <path id="Path_3730" data-name="Path 3730" d="M373.709,60.564c-.223.3-1.138.019-2.228.033-1.091-.023-2.007.254-2.228-.052-.1-.149.04-.453.436-.746a3.23,3.23,0,0,1,3.591.015c.394.3.528.6.43.75" transform="translate(-13931.104 -16764)" fill="#263238"/>
    <path id="Path_3731" data-name="Path 3731" d="M335.571,53.878c1.5-5.579,9.127-13.546,14.9-13.406l9.445,5.1a8.883,8.883,0,0,1-5.711,7.061c-1.6.57-3.554.795-4.458,2.236-.922,1.472-.25,3.525-1.1,5.039-1.181,2.1-4.666,2.16-5.52,4.411-.374.983-.1,2.126-.495,3.1-.52,1.3-3.674,3.064-5.028,2.7s-1.461-2.635-1.951-3.805a6.306,6.306,0,0,1-.385-4.217c.458-2.718-.413-5.556.3-8.218" transform="translate(-13924.502 -16760.369)" fill="#263238"/>
    <path id="Path_3732" data-name="Path 3732" d="M341.539,77.792c-.021-.71-.886-2.361-1.59-2.452-1.88-.242-5.25,0-5.155,4.753.13,6.5,6.629,5.03,6.637,4.843.006-.145.179-4.692.108-7.143" transform="translate(-13924.448 -16767.096)" fill="#ffbe9d"/>
    <path id="Path_3733" data-name="Path 3733" d="M339.793,83.02c-.029-.02-.112.081-.3.173a1.135,1.135,0,0,1-.846.034A2.8,2.8,0,0,1,337.3,80.74a3.746,3.746,0,0,1,.285-1.628,1.3,1.3,0,0,1,.834-.886.578.578,0,0,1,.675.3c.09.181.052.311.086.321.019.016.137-.111.08-.378a.723.723,0,0,0-.265-.4.856.856,0,0,0-.629-.153,1.593,1.593,0,0,0-1.162,1.032,3.842,3.842,0,0,0-.357,1.82,2.94,2.94,0,0,0,1.708,2.774,1.215,1.215,0,0,0,1.033-.193c.2-.165.229-.311.207-.322" transform="translate(-13924.844 -16767.604)" fill="#eb996e"/>
    <path id="Path_3734" data-name="Path 3734" d="M330.76,54.257h0c-.111-2.029-2.731-3.19-4.736-3.52a8.447,8.447,0,0,0-5.769,1.5,4.159,4.159,0,0,0-2.155,2.7c-.156,1.179,1.054,2.492,2.137,2a3.85,3.85,0,1,0,4.152,6.329,8.606,8.606,0,0,1-3.069,4.821,9.661,9.661,0,0,0,9.439-13.827" transform="translate(-13921.189 -16762.338)" fill="#263238"/>
    <path id="Path_3735" data-name="Path 3735" d="M319.8,87.71c.031-.309.84-.45,2-.8a11.3,11.3,0,0,0,7.018-5.486c.616-1.042.949-1.792,1.256-1.749.277.033.487.916.159,2.306A8.657,8.657,0,0,1,322,88.421c-1.426-.017-2.234-.434-2.2-.711" transform="translate(-13921.551 -16767.947)" fill="#263238"/>
    <path id="Path_3736" data-name="Path 3736" d="M328.993,65.276a5.817,5.817,0,0,1-.369-1.93,14.307,14.307,0,0,1,2.4-9.049,5.814,5.814,0,0,1,1.278-1.492,21.644,21.644,0,0,0-2.825,5.924,21.661,21.661,0,0,0-.486,6.546" transform="translate(-13923.247 -16762.752)" fill="#47d7ac"/>
    <path id="Path_3737" data-name="Path 3737" d="M363.378,44.463c.77,2.6,5,5.721,6.9,7.66,3.616,3.7,4.363,4.959,4.9,13.723,1.388-3.13,2.408-6.175,2.063-9.582a14.172,14.172,0,0,0-4.362-9.047,11.036,11.036,0,0,0-9.5-2.755" transform="translate(-13929.974 -16761.1)" fill="#263238"/>
    <path id="Path_3738" data-name="Path 3738" d="M408.776,136.474s-4.342,18.031-6.128,25.818c-1.9,8.273-6.005,27.05-17.014,24.332-8.373-2.068-6.51-12.876-6.51-12.876l7.151-24.824,6.616.749,6.074-14.951,6.546-6.9Z" transform="translate(-13932.983 -16777.254)" fill="#ffbe9d"/>
    <path id="Path_3739" data-name="Path 3739" d="M382.64,179.544a9.2,9.2,0,0,1-.215-4.016,12.514,12.514,0,0,1,1.546-4.083,35.382,35.382,0,0,1,3.2-4.372,34.881,34.881,0,0,0,3.207-4.447,26.818,26.818,0,0,0,1.949-4.036,24.306,24.306,0,0,0,.908-2.877,4.5,4.5,0,0,0,.2-1.088,6.273,6.273,0,0,0-.367,1.041c-.22.673-.545,1.643-1.034,2.807a29.712,29.712,0,0,1-2.009,3.941,37.684,37.684,0,0,1-3.2,4.378,33,33,0,0,0-3.207,4.449,12.277,12.277,0,0,0-1.5,4.24,7.8,7.8,0,0,0,.123,3.03,5.316,5.316,0,0,0,.268.781c.077.173.123.26.137.254" transform="translate(-13933.577 -16782.436)" fill="#eb996e"/>
    <path id="Path_3740" data-name="Path 3740" d="M403.121,134.637c0-.319.159-5.567.265-6.943a7.069,7.069,0,0,1,.721-2.489,2.113,2.113,0,0,1,3.29-.583l.118.107a9.263,9.263,0,0,1,2.594-3.124c1.536-1.007,2.806-1.695,4.129-.9a2.281,2.281,0,0,1,1.271,1.906s1.959-.265,2.806.528,0,3.178,0,3.178,1.747-.529,2.171.741a3.516,3.516,0,0,1-.37,2.594s1.376.424,1.535,1.429-1.377,2.118-1.377,2.118L415.5,137a9.079,9.079,0,0,1-3.69,4.876c-3.324,1.282-8.685-7.241-8.685-7.241" transform="translate(-13937.656 -16775.811)" fill="#ffbe9d"/>
    <path id="Path_3741" data-name="Path 3741" d="M407.057,131.019c.052.022.044.2-.1.449a1.692,1.692,0,0,1-1.937.745c-.269-.09-.4-.218-.373-.269.045-.111.656.085,1.314-.174s.985-.8,1.093-.752" transform="translate(-13937.951 -16777.871)" fill="#eb996e"/>
    <path id="Path_3742" data-name="Path 3742" d="M412.188,124.761c-.07.094-.528-.224-.612-.85s.266-1.056.359-.984-.006.455.067.924c.057.473.272.824.186.91" transform="translate(-13939.288 -16776.307)" fill="#eb996e"/>
    <path id="Path_3743" data-name="Path 3743" d="M420.38,127.731c.039.04-.342.49-1.062,1.111a29.864,29.864,0,0,1-2.975,2.184,4.6,4.6,0,0,1-1.9.883,1.726,1.726,0,0,1-1.647-.6,1.207,1.207,0,0,1-.129-1.178c.132-.263.3-.323.307-.3s-.087.13-.15.364a1.089,1.089,0,0,0,.215.936,1.449,1.449,0,0,0,1.349.391,4.619,4.619,0,0,0,1.719-.849c1.2-.793,2.272-1.509,3.025-2.064a7.577,7.577,0,0,1,1.25-.873" transform="translate(-13939.482 -16777.236)" fill="#eb996e"/>
    <path id="Path_3744" data-name="Path 3744" d="M422.212,131.906a30.526,30.526,0,0,1-4.561,2.317,4.619,4.619,0,0,1-1.976.58,1.559,1.559,0,0,1-1.481-.881.917.917,0,0,1-.007-.711.84.84,0,0,1,.344-.4c.263-.144.435-.066.425-.047,0,.036-.152.031-.328.184a.689.689,0,0,0-.156.847,1.262,1.262,0,0,0,1.2.608,4.635,4.635,0,0,0,1.8-.576,30.6,30.6,0,0,1,4.739-1.925" transform="translate(-13939.782 -16778.041)" fill="#eb996e"/>
    <path id="Path_3745" data-name="Path 3745" d="M420.488,136.728c.022.048-.258.244-.786.375a3.627,3.627,0,0,1-.948.1,2.569,2.569,0,0,1-1.187-.269.723.723,0,0,1-.35-.686,1.182,1.182,0,0,1,.262-.588,3.852,3.852,0,0,1,.683-.667c.435-.324.757-.428.782-.379s-.227.248-.582.608a5.406,5.406,0,0,0-.562.67c-.183.27-.25.54,0,.679a2.643,2.643,0,0,0,.977.236,4.756,4.756,0,0,0,.875,0c.5-.047.814-.136.837-.075" transform="translate(-13940.38 -16778.564)" fill="#eb996e"/>
    <path id="Path_3746" data-name="Path 3746" d="M413.77,137.256a3.91,3.91,0,1,0-4.956,3.62l-.041,1.087,1.066.8-1.12.625-.052,1.36,1.066.8-1.12.625-.044,1.17.649.489-.682.381-.025.681.809.92,1.617-.961.3-8.09a3.91,3.91,0,0,0,2.527-3.512m-3.8-3a1.122,1.122,0,1,1-1.163,1.079,1.122,1.122,0,0,1,1.163-1.079" transform="translate(-13938.204 -16778.293)" fill="#263238"/>
    <path id="Path_3747" data-name="Path 3747" d="M410.643,134.5c0,.01-.1,0-.271.044a1.116,1.116,0,0,0-.61.388,1.079,1.079,0,1,0,1.727.065,1.114,1.114,0,0,0-.579-.432c-.168-.053-.268-.053-.267-.064a.2.2,0,0,1,.073,0,.9.9,0,0,1,.2.03,1.12,1.12,0,0,1,.625.429,1.157,1.157,0,0,1-.29,1.633,1.158,1.158,0,0,1-1.381-.052,1.156,1.156,0,0,1-.166-1.649,1.112,1.112,0,0,1,.655-.381.871.871,0,0,1,.207-.015.2.2,0,0,1,.072.009" transform="translate(-13938.878 -16778.543)" fill="#263238"/>
    <path id="Path_3748" data-name="Path 3748" d="M413.76,137.248a.69.69,0,0,1,0,.077c0,.056-.007.131-.014.23a4.09,4.09,0,0,1-.2.875,3.937,3.937,0,0,1-2.3,2.358l.019-.027c-.075,2.09-.174,4.868-.289,8.091v.024l-.02.012-1.617.962-.034.02-.025-.029-.81-.92-.011-.014v-.019c.007-.211.017-.444.025-.68v-.027l.023-.013.682-.382-.006.08-.649-.49-.021-.015v-.025c.014-.368.028-.767.044-1.171v-.026l.024-.014,1.12-.625-.006.081-1.065-.8-.02-.015v-.025c0-.115.01-.237.014-.361q.018-.5.038-1v-.027l.024-.013,1.119-.625-.006.081-1.065-.8-.021-.015v-.025c.014-.365.028-.728.042-1.087l.035.048a4,4,0,0,1-1.616-.9,4,4,0,0,1-1.007-1.475,3.939,3.939,0,0,1,6.679-3.979,3.864,3.864,0,0,1,.751,1.377c.015.052.031.1.046.15s.021.1.031.145c.019.094.042.18.052.261.014.165.038.3.036.415s0,.194,0,.257,0,.086,0,.086,0-.03,0-.086,0-.145-.007-.255-.029-.249-.045-.412c-.012-.081-.037-.167-.056-.259-.01-.047-.02-.1-.031-.144s-.032-.1-.048-.147a3.877,3.877,0,1,0-7.315,2.559,3.772,3.772,0,0,0,.407.768,3.684,3.684,0,0,0,.58.67,3.9,3.9,0,0,0,1.577.882l.036.01v.036q-.021.54-.041,1.088l-.019-.04c.352.265.707.531,1.066.8l.059.045-.065.036-1.12.624.026-.04c-.013.331-.026.665-.038,1,0,.124-.01.248-.014.361l-.019-.041,1.066.8.06.045-.065.035-1.12.626.026-.04c-.016.4-.031.8-.044,1.17l-.02-.041.649.49.059.044-.063.036-.683.38.023-.039c-.009.236-.018.469-.025.681l-.012-.034c.28.32.557.635.809.921l-.058-.009,1.619-.959-.023.036c.127-3.222.236-6,.319-8.089v-.02l.019-.006a3.924,3.924,0,0,0,2.3-2.314,4.348,4.348,0,0,0,.211-.866c.009-.1.016-.174.023-.229s.009-.077.009-.077" transform="translate(-13938.194 -16778.285)" fill="#263238"/>
    <path id="Path_3749" data-name="Path 3749" d="M413.267,136.98a3.91,3.91,0,1,0-4.956,3.62v0l-.041,1.086,1.066.8-1.12.625-.052,1.36,1.066.8-1.12.625-.044,1.17.649.489-.682.381-.025.681.809.92,1.617-.961.3-8.09a3.91,3.91,0,0,0,2.527-3.512m-3.8-3a1.122,1.122,0,1,1-1.163,1.079,1.122,1.122,0,0,1,1.163-1.079" transform="translate(-13938.106 -16778.24)" fill="#47d7ac"/>
    <path id="Path_3750" data-name="Path 3750" d="M410.14,134.228c0,.01-.1,0-.271.044a1.116,1.116,0,0,0-.61.388,1.08,1.08,0,1,0,1.727.065,1.115,1.115,0,0,0-.579-.432c-.168-.053-.268-.053-.267-.064a.2.2,0,0,1,.073,0,.861.861,0,0,1,.2.031,1.114,1.114,0,0,1,.625.428,1.157,1.157,0,0,1-.29,1.633,1.158,1.158,0,0,1-1.381-.052,1.156,1.156,0,0,1-.166-1.649,1.112,1.112,0,0,1,.655-.381.87.87,0,0,1,.207-.015.2.2,0,0,1,.072.009" transform="translate(-13938.78 -16778.49)" fill="#263238"/>
    <path id="Path_3751" data-name="Path 3751" d="M413.257,136.972s0,.027,0,.078-.008.131-.014.23a4.111,4.111,0,0,1-.2.875,3.939,3.939,0,0,1-2.3,2.357l.019-.027c-.075,2.089-.174,4.868-.29,8.09v.024l-.02.012-1.617.962-.032.019-.026-.029-.81-.919-.012-.014v-.019c.007-.211.016-.444.025-.68v-.027l.023-.013.682-.382-.006.08-.649-.489-.02-.015v-.025c.014-.368.029-.766.044-1.17v-.027l.024-.014,1.119-.625-.006.081-1.066-.8-.02-.015v-.025c0-.115.009-.237.014-.361q.018-.5.037-1l0-.027.023-.013,1.12-.625-.006.081-1.066-.8-.02-.015v-.026c.015-.365.028-.728.041-1.087l.035.048a4,4,0,0,1-1.616-.9,3.77,3.77,0,0,1-.592-.687,3.887,3.887,0,0,1-.415-.787,3.94,3.94,0,0,1,6.68-3.979,3.863,3.863,0,0,1,.751,1.377l.047.15c.01.05.02.1.03.145.019.094.042.18.052.261.015.165.038.3.037.415s0,.194,0,.256,0,.086,0,.086,0-.029-.006-.086,0-.145-.007-.255-.028-.249-.045-.412c-.011-.081-.035-.167-.055-.259-.01-.047-.021-.094-.032-.144l-.048-.148a3.912,3.912,0,0,0-2.458-2.513,3.874,3.874,0,0,0-4.856,5.072,3.75,3.75,0,0,0,.407.768,3.71,3.71,0,0,0,.579.67,3.909,3.909,0,0,0,1.578.881l.036.01v.037q-.021.538-.04,1.087l-.019-.04,1.066.8.06.045-.065.036-1.12.625.025-.04c-.012.331-.025.665-.037,1,0,.123-.01.247-.014.361l-.019-.041,1.066.8.06.045-.065.036-1.12.625.025-.04c-.015.4-.031.8-.044,1.17l-.019-.04.649.489.059.044-.064.036-.682.381.023-.04c-.009.236-.018.469-.026.681l-.011-.033c.28.319.557.634.809.92l-.058-.009,1.618-.959-.022.036c.127-3.222.236-6,.319-8.089v-.02l.018-.006a3.919,3.919,0,0,0,2.3-2.314,4.331,4.331,0,0,0,.211-.866c.009-.1.016-.174.022-.229s.01-.077.01-.077" transform="translate(-13938.097 -16778.232)" fill="#263238"/>
    <path id="Path_3752" data-name="Path 3752" d="M412.9,137.133a5.374,5.374,0,0,0-.094-.84,3.311,3.311,0,0,0-.35-.922,3.405,3.405,0,0,0-4.033-1.6,3.176,3.176,0,0,0-.875.43,3.758,3.758,0,0,0-.4.313,3.8,3.8,0,0,0-.347.381,3.38,3.38,0,0,0-.151,4.01,3.894,3.894,0,0,0,.317.406,3.807,3.807,0,0,0,.373.342,3.2,3.2,0,0,0,.841.5,3.415,3.415,0,0,0,4.141-1.293,3.282,3.282,0,0,0,.418-.893,5.436,5.436,0,0,0,.157-.83.245.245,0,0,1,0,.056c0,.043-.006.1-.01.164a1.614,1.614,0,0,1-.032.265,2.4,2.4,0,0,1-.079.357,3.248,3.248,0,0,1-.408.912,3.469,3.469,0,0,1-2.4,1.561,3.48,3.48,0,0,1-1.824-.215,3.265,3.265,0,0,1-.866-.5,3.185,3.185,0,0,1-.711-.767,3.467,3.467,0,0,1,.155-4.123,3.175,3.175,0,0,1,.766-.712,3.3,3.3,0,0,1,.9-.44,3.487,3.487,0,0,1,1.835-.077,3.47,3.47,0,0,1,2.273,1.736,3.247,3.247,0,0,1,.339.94,2.412,2.412,0,0,1,.052.361,1.532,1.532,0,0,1,.013.266c0,.068,0,.122,0,.165a.226.226,0,0,1,0,.056" transform="translate(-13938.207 -16778.355)" fill="#263238"/>
    <path id="Path_3753" data-name="Path 3753" d="M411.351,135.36c-.01,0,0-.118-.048-.319a1.313,1.313,0,0,0-.454-.719,1.278,1.278,0,0,0-1.2-.22,1.258,1.258,0,0,0-.6.422,1.261,1.261,0,0,0-.056,1.5,1.252,1.252,0,0,0,.571.465,1.274,1.274,0,0,0,1.212-.129,1.311,1.311,0,0,0,.507-.683c.06-.2.06-.315.071-.314a.284.284,0,0,1,0,.085,1.051,1.051,0,0,1-.037.24,1.311,1.311,0,0,1-.5.729,1.336,1.336,0,0,1-.576.237,1.353,1.353,0,0,1-1.327-.576,1.35,1.35,0,0,1,.06-1.61,1.336,1.336,0,0,1,.651-.448,1.357,1.357,0,0,1,.716-.027,1.325,1.325,0,0,1,.556.28,1.307,1.307,0,0,1,.448.764,1.038,1.038,0,0,1,.019.243.277.277,0,0,1-.009.084" transform="translate(-13938.729 -16778.439)" fill="#263238"/>
    <path id="Path_3754" data-name="Path 3754" d="M411.02,150.59c-.027,0,.02-1.844.106-4.116s.176-4.113.2-4.113-.021,1.844-.106,4.117-.177,4.113-.2,4.112" transform="translate(-13939.182 -16780.064)" fill="#263238"/>
    <path id="Path_3755" data-name="Path 3755" d="M410.723,133.522a.562.562,0,0,1-.524,0v-4.958l.523.036Z" transform="translate(-13939.024 -16777.396)" fill="#e0e0e0"/>
    <path id="Path_3756" data-name="Path 3756" d="M410.456,133.6a.6.6,0,0,1-.27-.066l-.012-.006v-4.993l.565.039v4.954l-.012.006a.607.607,0,0,1-.271.066m-.24-.1a.538.538,0,0,0,.482,0v-4.889l-.482-.033Z" transform="translate(-13939.02 -16777.393)" fill="#263238"/>
    <path id="Path_3757" data-name="Path 3757" d="M407.3,125.542a12.023,12.023,0,0,0,1.4,1.027,1.855,1.855,0,0,1,.85,1.441,1.744,1.744,0,0,1-1.033,1.362,3.265,3.265,0,0,1-4.37-1.31" transform="translate(-13937.855 -16776.813)" fill="#ffbe9d"/>
    <path id="Path_3758" data-name="Path 3758" d="M404.149,128.061a8.231,8.231,0,0,0,1.1.98,3.183,3.183,0,0,0,3.261.091,1.37,1.37,0,0,0,.82-1.4,2.215,2.215,0,0,0-.9-1.172c-.762-.519-1.191-.968-1.128-1.016.038-.023.477.3,1.3.767a2.394,2.394,0,0,1,1.108,1.33,1.421,1.421,0,0,1-.169,1.083,2.284,2.284,0,0,1-.822.783,3.422,3.422,0,0,1-2.06.417,3.244,3.244,0,0,1-1.588-.631c-.784-.6-.966-1.221-.924-1.23" transform="translate(-13937.854 -16776.813)" fill="#eb996e"/>
    <path id="Path_3759" data-name="Path 3759" d="M413.513,122.979a19.526,19.526,0,0,0-2.413,3.548,2.977,2.977,0,0,0-.362,1.272,1.267,1.267,0,0,0,.592,1.124,1.285,1.285,0,0,0,1.1,0,3.438,3.438,0,0,0,.922-.659,22.168,22.168,0,0,0,3-3.333,3.456,3.456,0,0,0,.535-.946,1.311,1.311,0,0,0-.069-1.058" transform="translate(-13939.129 -16776.307)" fill="#ffbe9d"/>
    <path id="Path_3760" data-name="Path 3760" d="M416.772,122.922c.014-.018.206.166.23.6a2.652,2.652,0,0,1-.662,1.612,19.27,19.27,0,0,1-1.6,1.985c-.324.354-.678.714-1.058,1.074a4.019,4.019,0,0,1-1.369.979,1.52,1.52,0,0,1-.933.023,1.232,1.232,0,0,1-.705-.6,1.949,1.949,0,0,1-.032-1.616,10.306,10.306,0,0,1,1.286-2.228,9.446,9.446,0,0,1,1.534-1.77,18.749,18.749,0,0,1-1.283,1.943,11.438,11.438,0,0,0-1.162,2.186,1.568,1.568,0,0,0,.027,1.282.889.889,0,0,0,1.134.374,3.785,3.785,0,0,0,1.215-.878c.377-.349.73-.7,1.057-1.037a24.426,24.426,0,0,0,1.643-1.895,2.719,2.719,0,0,0,.74-1.434,2.79,2.79,0,0,0-.063-.6" transform="translate(-13939.08 -16776.307)" fill="#eb996e"/>
    <rect id="Rectangle_2784" data-name="Rectangle 2784" width="369.031" height="358.611" transform="translate(-13859.73 -16752.545)" fill="none"/>
    <g id="Group_89700" data-name="Group 89700" transform="translate(-13859.73 -16752.545)">
      <g id="Group_89699" data-name="Group 89699" clip-path="url(#clip-path-8)">
        <path id="Path_3761" data-name="Path 3761" d="M350.138,444.235c0,.116-78.387.21-175.06.21C78.371,444.445,0,444.351,0,444.235s78.371-.21,175.077-.21c96.673,0,175.06.094,175.06.21" transform="translate(0 -85.833)" fill="#263238"/>
      </g>
    </g>
    <path id="Path_3762" data-name="Path 3762" d="M51.122,295.7c7.677-11.744,7.382-28.909-1.788-39.529-2.846-3.3-6.824-6.161-11.163-5.79-4.442.381-8.023,4.191-9.374,8.44s-.883,8.853-.09,13.24c1.112,6.144,2.974,12.43,7.236,16.992s9.7,9.639,15.178,6.646" transform="translate(-13865.132 -16800.939)" fill="#47d7ac"/>
    <path id="Path_3763" data-name="Path 3763" d="M48.766,370.871a17.548,17.548,0,0,0-4.893-19.929c-1.765-1.44-4.074-2.556-6.275-1.971-2.255.6-3.754,2.886-4.065,5.2A14.449,14.449,0,0,0,34.687,361c1.129,3.065,2.659,6.135,5.268,8.1s6.26,3.812,8.812,1.774" transform="translate(-13866.197 -16819.973)" fill="#47d7ac"/>
    <path id="Path_3764" data-name="Path 3764" d="M75.279,364.331a25.4,25.4,0,0,1,12.8-26.8c2.925-1.521,6.526-2.422,9.474-.945,3.019,1.512,4.469,5.2,4.229,8.562s-1.859,6.475-3.646,9.339c-2.5,4.01-5.573,7.91-9.849,9.926s-9.993,3.56-13.009-.081" transform="translate(-13874.195 -16817.463)" fill="#47d7ac"/>
    <path id="Path_3765" data-name="Path 3765" d="M73.483,327.685c-3.676-11.862,2.556-26.245,12.944-33.051,3.224-2.113,7.307-3.583,10.909-2.21,3.689,1.4,5.807,5.519,5.924,9.463s-1.4,7.749-3.146,11.29c-2.441,4.958-5.556,9.854-10.293,12.7s-12.4,5.69-16.338,1.809" transform="translate(-13873.729 -16808.969)" fill="#47d7ac"/>
    <path id="Path_3766" data-name="Path 3766" d="M64.584,396.3a2.613,2.613,0,0,0,.12-.574c.065-.432.146-.98.247-1.655q.076-.548.166-1.2.126-.656.272-1.411c.193-1.012.392-2.168.724-3.423q.229-.947.478-1.977.3-1.02.621-2.117c.4-1.472.98-2.994,1.528-4.618a80.876,80.876,0,0,1,10.511-19.585c1.05-1.354,1.995-2.682,3-3.826l1.421-1.687,1.383-1.492c.862-.97,1.715-1.776,2.452-2.5l1.024-1.006.905-.8,1.242-1.12a2.572,2.572,0,0,0,.412-.417,2.552,2.552,0,0,0-.477.339l-1.306,1.05-.937.77-1.058.98c-.758.7-1.633,1.5-2.516,2.455l-1.415,1.478-1.451,1.677c-1.028,1.139-1.992,2.465-3.058,3.82A77.442,77.442,0,0,0,68.3,379.17c-.539,1.637-1.112,3.174-1.492,4.659q-.309,1.106-.6,2.136-.234,1.039-.449,2c-.311,1.267-.487,2.433-.655,3.454l-.232,1.423q-.067.653-.123,1.207c-.062.681-.113,1.233-.153,1.669a2.55,2.55,0,0,0-.019.585" transform="translate(-13872.213 -16819.604)" fill="#263238"/>
    <path id="Path_3767" data-name="Path 3767" d="M64.652,390.507a.842.842,0,0,0,0-.236c-.014-.185-.031-.411-.051-.688-.06-.644-.14-1.524-.244-2.635q-.085-.864-.187-1.9c-.052-.7-.072-1.456-.115-2.271-.061-1.63-.216-3.482-.159-5.536q.007-1.542.015-3.222c.012-1.12.118-2.282.174-3.487.081-2.414.409-4.972.7-7.669a109.846,109.846,0,0,1,9.993-33.7c1.227-2.419,2.347-4.743,3.595-6.811.609-1.041,1.154-2.073,1.755-3.019l1.743-2.709c1.071-1.753,2.212-3.221,3.151-4.555.48-.66.91-1.286,1.333-1.842s.833-1.041,1.194-1.492l1.641-2.076.417-.549a.809.809,0,0,0,.129-.2c-.006-.006-.063.05-.168.165l-.456.517L87.4,308.612l-1.231,1.468c-.436.548-.878,1.167-1.37,1.821-.964,1.321-2.128,2.78-3.223,4.526l-1.776,2.7c-.611.943-1.167,1.974-1.787,3.015-1.268,2.067-2.407,4.393-3.65,6.817A107.349,107.349,0,0,0,64.326,362.8c-.279,2.71-.593,5.281-.656,7.7-.048,1.21-.144,2.377-.145,3.5s.011,2.2.016,3.233c-.034,2.06.147,3.918.235,5.551.056.816.089,1.576.156,2.273q.126,1.037.232,1.9.214,1.663.337,2.628c.04.275.073.5.1.682a.807.807,0,0,0,.051.23" transform="translate(-13872.011 -16811.68)" fill="#263238"/>
    <path id="Path_3768" data-name="Path 3768" d="M40.144,267.972a.849.849,0,0,0,.1.219l.331.616,1.312,2.343c.282.51.62,1.062.945,1.692l1.028,2.066,1.183,2.371c.4.849.781,1.765,1.2,2.717s.873,1.945,1.3,3q.615,1.592,1.275,3.307.33.857.67,1.743.3.9.618,1.826l1.286,3.812c1.627,5.263,3.169,11.124,4.472,17.346,1.26,6.234,2.145,12.231,2.8,17.7.56,5.481.974,10.43,1.087,14.6.106,2.082.127,3.966.134,5.623.027,1.656.033,3.082-.006,4.248-.015,1.133-.028,2.03-.037,2.685,0,.282,0,.511,0,.7a.83.83,0,0,0,.019.24.9.9,0,0,0,.033-.237c.012-.186.028-.415.047-.7q.048-.983.132-2.685c.069-1.166.091-2.594.091-4.253.02-1.659.023-3.548-.06-5.635-.068-4.177-.445-9.139-.982-14.636-.628-5.487-1.5-11.5-2.766-17.753-1.305-6.241-2.865-12.115-4.522-17.386l-1.309-3.818-.632-1.828q-.347-.886-.685-1.744L47.9,282.848c-.436-1.054-.909-2.042-1.332-3s-.828-1.864-1.241-2.71q-.647-1.252-1.222-2.361l-1.067-2.051c-.339-.624-.691-1.172-.986-1.676l-1.4-2.3-.374-.59a.83.83,0,0,0-.142-.192" transform="translate(-13867.49 -16804.346)" fill="#263238"/>
    <path id="Path_3769" data-name="Path 3769" d="M43.379,357.3a10.442,10.442,0,0,0,.816,1.433c.561.9,1.333,2.224,2.236,3.884s1.9,3.681,2.908,5.969a81.206,81.206,0,0,1,2.823,7.618,81.255,81.255,0,0,1,1.968,7.885c.461,2.456.782,4.686.965,6.569s.3,3.411.345,4.468a10.381,10.381,0,0,0,.134,1.644,10.327,10.327,0,0,0,.061-1.65c.018-1.062-.04-2.6-.187-4.495A66.276,66.276,0,0,0,54.585,384a74.245,74.245,0,0,0-1.943-7.948,74.205,74.205,0,0,0-2.878-7.656,66.384,66.384,0,0,0-3.022-5.955c-.948-1.647-1.768-2.95-2.382-3.817a10.316,10.316,0,0,0-.981-1.327" transform="translate(-13868.115 -16821.613)" fill="#263238"/>
    <path id="Path_3770" data-name="Path 3770" d="M75.2,401.584H41.471l4.081,34.447H71Z" transform="translate(-13867.747 -16830.174)" fill="#455a64"/>
    <path id="Path_3771" data-name="Path 3771" d="M74.238,439.676l-2.865,3.718H45.823l-2.946-3.6Z" transform="translate(-13868.019 -16837.537)" fill="#263238"/>
    <path id="Path_3772" data-name="Path 3772" d="M43.1,414.083c0,.139,7,.252,15.63.252s15.632-.113,15.632-.252-7-.252-15.632-.252-15.63.113-15.63.252" transform="translate(-13868.062 -16832.541)" fill="#fafafa"/>
    <path id="Path_3773" data-name="Path 3773" d="M43.1,416.926c0,.139,7,.252,15.63.252s15.632-.113,15.632-.252-7-.252-15.632-.252-15.63.113-15.63.252" transform="translate(-13868.062 -16833.092)" fill="#fafafa"/>
    <path id="Path_3774" data-name="Path 3774" d="M43.621,419.678c0,.139,6.754.252,15.084.252s15.084-.113,15.084-.252-6.752-.252-15.084-.252-15.084.113-15.084.252" transform="translate(-13868.163 -16833.623)" fill="#fafafa"/>
    <path id="Path_3775" data-name="Path 3775" d="M76.889,309.555a1.156,1.156,0,0,0,0,.329c.021.253.046.561.077.935.087.862.2,2.022.348,3.432.307,2.9.756,6.895,1.273,11.308.019.169.04.337.057.494l.018.148.149,0c4.333.066,8.232.108,11.048.122h3.331l.9-.018a1.084,1.084,0,0,0,.315-.029,1.152,1.152,0,0,0-.315-.038l-.9-.046-3.329-.106c-2.815-.075-6.714-.156-11.047-.226l.167.151c-.019-.156-.038-.324-.058-.493-.516-4.413-1-8.407-1.372-11.3-.187-1.4-.34-2.56-.455-3.42-.056-.37-.1-.677-.141-.928a1.2,1.2,0,0,0-.072-.321" transform="translate(-13874.592 -16812.385)" fill="#263238"/>
    <path id="Path_3776" data-name="Path 3776" d="M86.389,296.786a1.238,1.238,0,0,0-.027.338c0,.26,0,.579-.008.966.008.891.019,2.093.032,3.554.043,3,.125,7.147.237,11.724,0,.185.009.369.013.54l0,.18.179-.014a105.145,105.145,0,0,1,11.34-.256c1.446.044,2.613.1,3.419.146l.928.044a.163.163,0,1,0,.006-.067c-.211-.028-.522-.069-.924-.107-.8-.083-1.972-.178-3.42-.254a89.49,89.49,0,0,0-11.376.153l.184.166c0-.171-.009-.356-.013-.541-.112-4.577-.232-8.722-.336-11.721-.058-1.461-.106-2.662-.141-3.552-.023-.386-.041-.706-.056-.965a1.312,1.312,0,0,0-.043-.336" transform="translate(-13876.423 -16809.916)" fill="#263238"/>
    <path id="Path_3777" data-name="Path 3777" d="M96.829,292.436a6.046,6.046,0,0,0-.21.989c-.129.7-.3,1.61-.5,2.711-.438,2.289-1.12,5.444-2.084,8.9l-.1.363.342-.165.4-.2a29.01,29.01,0,0,1,8.99-2.629c1.2-.148,2.172-.2,2.847-.227a7.135,7.135,0,0,0,1.051-.057.807.807,0,0,0-.271-.038c-.178-.011-.441-.035-.781-.038a24.21,24.21,0,0,0-2.873.119,27.332,27.332,0,0,0-9.111,2.562l-.41.2.241.2a86.546,86.546,0,0,0,1.989-8.948c.19-1.153.319-2.087.4-2.734a5.714,5.714,0,0,0,.081-1.008" transform="translate(-13877.889 -16809.074)" fill="#263238"/>
    <path id="Path_3778" data-name="Path 3778" d="M38.485,368.585c.006.052.978-.048,2.551-.11a42.852,42.852,0,0,1,6.133.2c.485.05.958.111,1.411.173l.161.022.029-.158c.364-2.039.67-3.837.874-5.127a14.047,14.047,0,0,0,.265-2.08,14.236,14.236,0,0,0-.483,2.04c-.264,1.279-.611,3.069-.987,5.106l.19-.136c-.457-.065-.934-.128-1.423-.179a34.364,34.364,0,0,0-6.183-.1c-.79.061-1.425.141-1.863.206a2.588,2.588,0,0,0-.674.144" transform="translate(-13867.17 -16822.426)" fill="#263238"/>
    <path id="Path_3779" data-name="Path 3779" d="M34.536,360.549c.013.054.945-.165,2.471-.354a26.874,26.874,0,0,1,5.985-.06c.363.037.719.085,1.057.131l.176.024.017-.174c.213-2.1.385-3.955.494-5.29a14.644,14.644,0,0,0,.11-2.151,14.447,14.447,0,0,0-.336,2.128c-.168,1.329-.382,3.182-.6,5.278l.193-.15c-.342-.048-.7-.1-1.071-.136a23.273,23.273,0,0,0-6.053.161c-.766.124-1.379.266-1.8.377a2.493,2.493,0,0,0-.64.216" transform="translate(-13866.406 -16820.719)" fill="#263238"/>
    <path id="Path_3780" data-name="Path 3780" d="M31.7,285.956a1.545,1.545,0,0,0,.335.174l.985.438,3.647,1.554,12.083,5,.652.267.154.063.066-.151,5.1-11.528,1.5-3.486.392-.953A1.462,1.462,0,0,0,56.74,277a1.535,1.535,0,0,0-.177.314l-.449.927-1.6,3.442-5.2,11.486.22-.088-.653-.267L36.763,287.9l-3.688-1.453-1.01-.379a1.606,1.606,0,0,0-.361-.111" transform="translate(-13865.859 -16806.09)" fill="#263238"/>
    <path id="Path_3781" data-name="Path 3781" d="M28.041,267.964a1.545,1.545,0,0,0,.3.219l.884.571,3.293,2.053L43.5,277.5l.176.107.073-.194.2-.53c1.79-4.832,3.411-9.2,4.6-12.421.561-1.563,1.022-2.842,1.358-3.778.144-.419.26-.762.353-1.033a1.6,1.6,0,0,0,.1-.369,1.638,1.638,0,0,0-.166.344c-.108.266-.245.6-.413,1.012-.361.926-.856,2.193-1.46,3.74-1.217,3.209-2.87,7.569-4.7,12.388l-.2.53.248-.088L32.638,270.6l-3.349-1.96-.917-.518a1.564,1.564,0,0,0-.332-.161" transform="translate(-13865.151 -16802.666)" fill="#263238"/>
    <path id="Path_3782" data-name="Path 3782" d="M29.241,258.434a4.708,4.708,0,0,0,.724.428c.474.261,1.16.648,1.992,1.164a35.531,35.531,0,0,1,6.112,4.783l.423.414-.141-.577c-.148-.6-.285-1.239-.389-1.893a21.98,21.98,0,0,1,.477-8.987,25.665,25.665,0,0,1,.864-2.614,6.33,6.33,0,0,0,.361-.949,5.375,5.375,0,0,0-.483.9,19.815,19.815,0,0,0-.974,2.6,21.031,21.031,0,0,0-.582,9.106c.106.665.246,1.312.4,1.924l.282-.163a32.22,32.22,0,0,0-6.233-4.733c-.853-.494-1.558-.851-2.051-1.08a4.084,4.084,0,0,0-.779-.319" transform="translate(-13865.383 -16800.91)" fill="#263238"/>
    <path id="Path_3783" data-name="Path 3783" d="M76.946,354.148a4.834,4.834,0,0,0,.155.872c.118.557.286,1.364.47,2.369a58.185,58.185,0,0,1,.906,7.988l.006.154.154.009.755.046c3.345.2,6.373.365,8.565.467l2.6.1a5.19,5.19,0,0,0,.955-.009,4.993,4.993,0,0,0-.947-.124l-2.592-.211c-2.189-.163-5.215-.365-8.559-.566l-.756-.045.16.162a49.161,49.161,0,0,0-1.016-8.019c-.215-1-.419-1.806-.576-2.355a4.374,4.374,0,0,0-.279-.841" transform="translate(-13874.604 -16821.004)" fill="#263238"/>
    <path id="Path_3784" data-name="Path 3784" d="M85.16,342.37a4.678,4.678,0,0,0,.056.879c.072.625.163,1.429.273,2.4.245,2.029.608,4.847,1.034,8.006l.019.138.14.009,1.086.071c3.426.233,6.516.586,8.749.877l2.643.355a5.46,5.46,0,0,0,.975.1,5.328,5.328,0,0,0-.954-.23c-.619-.123-1.517-.286-2.631-.462-2.228-.353-5.323-.745-8.76-.978l-1.089-.07.158.147c-.433-3.158-.836-5.97-1.141-7.991-.152-.962-.278-1.761-.377-2.382a4.587,4.587,0,0,0-.181-.862" transform="translate(-13876.19 -16818.727)" fill="#263238"/>
    <path id="Path_3785" data-name="Path 3785" d="M94.831,337.3c-.049.012.156.926.4,2.431a43.587,43.587,0,0,1,.543,5.969l0,.19.19-.024.565-.072a52.512,52.512,0,0,1,6.37-.378l1.938.022a2.945,2.945,0,0,0,.715-.019,2.834,2.834,0,0,0-.707-.114c-.457-.048-1.12-.1-1.942-.131a40.954,40.954,0,0,0-6.416.28l-.57.073.193.165a34.947,34.947,0,0,0-.653-6c-.151-.752-.3-1.353-.413-1.763a2.485,2.485,0,0,0-.214-.628" transform="translate(-13878.061 -16817.746)" fill="#263238"/>
    <path id="Path_3786" data-name="Path 3786" d="M39.751,349.075a29.719,29.719,0,0,0,1.505,3.422,29.574,29.574,0,0,0,1.622,3.368,15.834,15.834,0,0,0-1.312-3.511,15.854,15.854,0,0,0-1.815-3.279" transform="translate(-13867.413 -16820.023)" fill="#263238"/>
    <path id="Path_3787" data-name="Path 3787" d="M34.5,354.625a35.085,35.085,0,0,1,3.833.777,34.991,34.991,0,0,1,3.6,1.528,8.755,8.755,0,0,0-3.5-1.854,8.75,8.75,0,0,0-3.934-.451" transform="translate(-13866.399 -16821.084)" fill="#263238"/>
    <rect id="Rectangle_2786" data-name="Rectangle 2786" width="369.031" height="358.611" transform="translate(-13859.73 -16752.545)" fill="none"/>
  </g>
</svg>
