<svg xmlns="http://www.w3.org/2000/svg" xmlns:xlink="http://www.w3.org/1999/xlink" width="408.362" height="383.332" viewBox="0 0 408.362 383.332">
  <defs>
    <clipPath id="clip-path">
      <rect id="Rectangle_2826" data-name="Rectangle 2826" width="34.673" height="42.245" fill="#16b988"/>
    </clipPath>
    <clipPath id="clip-path-2">
      <rect id="Rectangle_2829" data-name="Rectangle 2829" width="26.613" height="14.395" fill="none"/>
    </clipPath>
    <clipPath id="clip-path-3">
      <rect id="Rectangle_2830" data-name="Rectangle 2830" width="33.611" height="6.595" fill="none"/>
    </clipPath>
    <clipPath id="clip-path-4">
      <rect id="Rectangle_2832" data-name="Rectangle 2832" width="408.362" height="383.332" fill="none"/>
    </clipPath>
  </defs>
  <g id="Group_89748" data-name="Group 89748" transform="translate(10055 16675.832)">
    <path id="Path_3877" data-name="Path 3877" d="M74.826,45.055a1.388,1.388,0,0,1-.013-.209c0-.153-.008-.347-.014-.589q-.012-.811-.032-2.26c-.018-1.982-.043-4.832-.075-8.426l.135.135-43.4.087c.1-.1-.223.22.219-.221v2.937q0,1.46,0,2.9,0,2.875,0,5.648l-.217-.216,30.933.1,9.13.062,2.469.029.646.013a1.723,1.723,0,0,1,.228.014,1.065,1.065,0,0,1-.2.014l-.619.013-2.422.029-9.08.062-31.084.1H31.2v-.217q0-2.77,0-5.648,0-1.437,0-2.9,0-.729,0-1.465V33.572c.443-.443.125-.122.224-.221l43.4.087h.136v.134c-.032,3.628-.057,6.5-.075,8.506q-.02,1.429-.032,2.23c-.006.232-.011.418-.014.566a.844.844,0,0,1-.013.182" transform="translate(-10058.364 -16679.426)" fill="#e0e0e0"/>
    <path id="Path_3878" data-name="Path 3878" d="M425.853,385.1a1.385,1.385,0,0,1-.013-.209c0-.153-.007-.347-.014-.589q-.012-.811-.031-2.26c-.019-1.982-.043-4.832-.076-8.426l.135.135-43.4.086c.1-.1-.223.22.218-.221v2.937q0,1.46,0,2.9,0,2.875,0,5.648l-.216-.217,30.933.1,9.13.062,2.469.029.646.013a1.563,1.563,0,0,1,.228.014,1.058,1.058,0,0,1-.2.014l-.619.013-2.422.029-9.08.062-31.083.1h-.216V385.1q0-2.77,0-5.648,0-1.437,0-2.9c0-.486,0-.975,0-1.465v-1.472c.443-.442.125-.122.225-.221l43.4.087h.137l0,.134c-.032,3.628-.056,6.5-.075,8.506q-.02,1.429-.031,2.229c-.007.232-.011.418-.014.565a.736.736,0,0,1-.014.183" transform="translate(-10096.217 -16716.096)" fill="#e0e0e0"/>
    <path id="Path_3879" data-name="Path 3879" d="M318.187,24.628a1.384,1.384,0,0,1-.013-.209c0-.153-.008-.347-.014-.589q-.012-.811-.032-2.26c-.018-1.982-.043-4.832-.075-8.426l.135.135-43.4.087c.1-.1-.223.22.219-.221v2.937q0,1.46,0,2.9,0,2.875,0,5.648l-.217-.216,30.933.1,9.13.062,2.469.029.646.013a1.723,1.723,0,0,1,.228.014,1.065,1.065,0,0,1-.2.014l-.619.013-2.422.029-9.08.062-31.084.1h-.216v-.217q0-2.77,0-5.648,0-1.437,0-2.9V13.145c.443-.443.125-.122.224-.221l43.4.087h.136v.135c-.032,3.628-.057,6.5-.074,8.506q-.021,1.429-.033,2.23c-.006.232-.011.418-.014.566a.843.843,0,0,1-.013.182" transform="translate(-10084.606 -16677.225)" fill="#e0e0e0"/>
    <path id="Path_3880" data-name="Path 3880" d="M326.877,11.753a1.341,1.341,0,0,1-.017-.219c0-.165-.01-.365-.017-.608q-.015-.847-.039-2.3c-.021-2.013-.05-4.857-.086-8.353l.159.159L300.8.492c-.2.2.267-.269.219-.22V3.263q0,1.48,0,2.923c0,1.921,0,3.784-.007,5.568l-.211-.211,18.656.1,5.434.058,1.466.027a4.454,4.454,0,0,1,.524.026,3.057,3.057,0,0,1-.474.026l-1.421.027-5.387.058-18.8.1h-.211v-.211c0-1.784-.005-3.647-.008-5.568q0-1.441,0-2.923,0-.74,0-1.489V.271c-.049.047.419-.42.223-.222l26.078.062h.161l0,.159c-.036,3.537-.065,6.414-.086,8.451q-.024,1.431-.039,2.266a6.776,6.776,0,0,1-.034.766" transform="translate(-10087.413 -16675.832)" fill="#e0e0e0"/>
    <path id="Path_3881" data-name="Path 3881" d="M43.628,390.761a1.387,1.387,0,0,1-.013-.209c0-.153-.008-.347-.014-.589q-.012-.811-.032-2.26c-.018-1.982-.043-4.832-.075-8.426l.135.135-43.4.086c.1-.1-.223.22.219-.221v2.937q0,1.46,0,2.9,0,2.875,0,5.648l-.217-.216,30.933.1,9.13.062,2.469.029.646.013a1.734,1.734,0,0,1,.228.014.971.971,0,0,1-.2.014l-.619.013-2.422.029-9.08.062-31.084.1H.005v-.217q0-2.77,0-5.648,0-1.437,0-2.9v-2.937c.443-.443.125-.122.224-.221l43.4.087h.136v.134c-.032,3.628-.057,6.5-.075,8.506q-.02,1.429-.032,2.23c-.006.232-.011.418-.014.566a.844.844,0,0,1-.013.182" transform="translate(-10055 -16716.705)" fill="#e0e0e0"/>
    <path id="Path_3882" data-name="Path 3882" d="M52.318,377.886a1.345,1.345,0,0,1-.017-.219c0-.165-.01-.365-.017-.608q-.015-.847-.039-2.3c-.021-2.014-.05-4.857-.086-8.353l.159.159-26.078.062c-.2.2.267-.269.219-.22V369.4q0,1.48,0,2.923c0,1.921,0,3.784-.007,5.568l-.211-.211,18.656.1,5.434.058,1.466.027a4.435,4.435,0,0,1,.524.026,3.072,3.072,0,0,1-.474.026l-1.421.027L45.036,378l-18.8.1h-.211v-.211c0-1.784-.005-3.647-.008-5.568q0-1.441,0-2.923,0-.74,0-1.489v-1.5c-.049.047.419-.419.223-.222l26.078.062h.161l0,.159c-.036,3.537-.065,6.414-.086,8.451q-.024,1.431-.039,2.266a6.766,6.766,0,0,1-.034.766" transform="translate(-10057.805 -16715.314)" fill="#e0e0e0"/>
    <path id="Path_3883" data-name="Path 3883" d="M381.323,63.222V296.8a11.446,11.446,0,0,1-11.446,11.446H24.716A11.446,11.446,0,0,1,13.27,296.8V63.222A11.446,11.446,0,0,1,24.716,51.776H369.876a11.446,11.446,0,0,1,11.446,11.446" transform="translate(-10056.431 -16681.414)" fill="#263238"/>
    <path id="Path_3884" data-name="Path 3884" d="M381.292,63.194s-.022-.269-.054-.8a6.733,6.733,0,0,0-.119-.983,9.357,9.357,0,0,0-.3-1.344,11.451,11.451,0,0,0-5.723-6.979,11.869,11.869,0,0,0-3.044-1.065,18.09,18.09,0,0,0-3.586-.212l-8.284.012-20.671.023-131.734.082-90.97.032-50.679.012-26.5.006-13.525,0a17.825,17.825,0,0,0-3.357.179,10.871,10.871,0,0,0-3.163,1.058,11.374,11.374,0,0,0-4.751,4.625,12.217,12.217,0,0,0-1.139,3.168,17.135,17.135,0,0,0-.216,3.4q0,3.467,0,6.957,0,6.979,0,14.039,0,14.121,0,28.558,0,28.87.006,58.9c0,40.011,0,81.436.005,123.865a11.177,11.177,0,0,0,9.112,11.018,20.009,20.009,0,0,0,3.892.2H69.539l61.042,0,115.4.015L350.395,308l12.158,0,6,0a18.542,18.542,0,0,0,2.941-.133,11.154,11.154,0,0,0,9.475-9.536,19.27,19.27,0,0,0,.122-2.861q0-1.445,0-2.882,0-2.875,0-5.721.008-22.769.017-43.651c.034-55.615.062-100.621.081-131.726.021-15.549.037-27.623.049-35.814.011-4.091.02-7.211.025-9.313s.027-3.173.027-3.173.018,1.075.027,3.173.014,5.223.025,9.313c.012,8.191.028,20.266.048,35.814.02,31.105.048,76.111.082,131.726q.009,20.857.017,43.651,0,2.846,0,5.721,0,1.437,0,2.882a19.721,19.721,0,0,1-.126,2.917,11.563,11.563,0,0,1-9.816,9.891,18.971,18.971,0,0,1-3,.139l-6,0-12.158,0-104.419.024-115.4.015-61.042,0H26.5a20.461,20.461,0,0,1-3.987-.21,11.695,11.695,0,0,1-9.533-11.525c0-42.429,0-83.854.005-123.865q0-30.008.006-58.9,0-14.434,0-28.558,0-7.061,0-14.039,0-3.489,0-6.957a17.631,17.631,0,0,1,.225-3.5,12.723,12.723,0,0,1,1.19-3.3A11.848,11.848,0,0,1,19.367,52.8a11.347,11.347,0,0,1,3.3-1.1,18.327,18.327,0,0,1,3.438-.186l13.525,0,26.5.005,50.679.013,90.97.031,131.734.082,20.671.024,8.284.012a18.239,18.239,0,0,1,3.61.228A11.994,11.994,0,0,1,375.146,53a11.6,11.6,0,0,1,4.046,3.539,11.476,11.476,0,0,1,1.68,3.519,9.294,9.294,0,0,1,.286,1.353,6.562,6.562,0,0,1,.106.988c.022.531.027.8.027.8" transform="translate(-10056.4 -16681.385)" fill="#263238"/>
    <path id="Path_3885" data-name="Path 3885" d="M403.889,184.479a9.841,9.841,0,1,1-9.841,9.841,9.841,9.841,0,0,1,9.841-9.841" transform="translate(-10097.492 -16695.725)" fill="#455a64"/>
    <path id="Path_3886" data-name="Path 3886" d="M34.187,165.615v52.378a3.653,3.653,0,1,1-7.306,0V165.615a3.653,3.653,0,0,1,7.306,0" transform="translate(-10057.899 -16693.297)" fill="#455a64"/>
    <rect id="Rectangle_2810" data-name="Rectangle 2810" width="307.369" height="240.293" transform="translate(-10016.903 -16621.33)" fill="#ebebeb"/>
    <path id="Path_3887" data-name="Path 3887" d="M264.831,254.982,288.6,296.875l58.433-.868-3.306-45.453Z" transform="translate(-10083.559 -16702.852)" fill="#e0e0e0"/>
    <path id="Path_3888" data-name="Path 3888" d="M177.209,96.323l-8.576,66.211,17.719,4.23,34.668-3.441-6.366-72.329Z" transform="translate(-10073.185 -16685.645)" fill="#e0e0e0"/>
    <path id="Path_3889" data-name="Path 3889" d="M112.941,242.892H71.973V193.559l44.526.451Z" transform="translate(-10062.761 -16696.703)" fill="#f5f5f5"/>
    <path id="Path_3890" data-name="Path 3890" d="M306.936,243.648c0-1.408,7.221-50.4,7.221-50.4s28.241-7.741,28.352-6.633,5.624,55.729,5.624,55.729Z" transform="translate(-10088.099 -16695.945)" fill="#f5f5f5"/>
    <path id="Path_3891" data-name="Path 3891" d="M77.257,108.537c.078,1.19,19.563,40.381,19.563,40.381l22.57-5.983V97.857l-23.269-.539Z" transform="translate(-10063.331 -16686.326)" fill="#e0e0e0"/>
    <rect id="Rectangle_2811" data-name="Rectangle 2811" width="31.201" height="14.721" transform="translate(-9879.488 -16496.031)" fill="#e0e0e0"/>
    <path id="Path_3892" data-name="Path 3892" d="M227.871,223.5l-31.426,1.594-1.594,29.827,35.885-2.854Z" transform="translate(-10076.012 -16699.932)" fill="#e0e0e0"/>
    <path id="Path_3893" data-name="Path 3893" d="M372.41,154.174l-4.362-60.567h17.02l.086,59.363Z" transform="translate(-10094.688 -16685.926)" fill="#e0e0e0"/>
    <path id="Path_3894" data-name="Path 3894" d="M294.8,82.494l7.088,75.469,37.213-3.345-6.5-64.366-29.461-7.758Z" transform="translate(-10086.79 -16684.727)" fill="#e0e0e0"/>
    <path id="Path_3895" data-name="Path 3895" d="M96.668,93.686l-53.734-.81.054-3.569,50.77.765,5.863-28.956,3.5.708Z" transform="translate(-10059.63 -16682.424)" fill="#fff"/>
    <path id="Path_3896" data-name="Path 3896" d="M68.543,155.859,42.509,97.478l.815-.363L69.048,154.8l46.48-12.321.228.863Z" transform="translate(-10059.583 -16686.305)" fill="#fff"/>
    <rect id="Rectangle_2812" data-name="Rectangle 2812" width="70.396" height="1.784" transform="translate(-10016.658 -16503.588)" fill="#fff"/>
    <rect id="Rectangle_2813" data-name="Rectangle 2813" width="0.892" height="77.161" transform="translate(-9991.235 -16530.973)" fill="#fff"/>
    <rect id="Rectangle_2814" data-name="Rectangle 2814" width="67.078" height="0.892" transform="translate(-10016.652 -16454.207)" fill="#fff"/>
    <path id="Path_3897" data-name="Path 3897" d="M106.548,298.445l-63.893-14.1.769-3.485,59.862,13.209L113.56,151.2,115.1,91.765l2.4-30.409,3.557.28L118.665,92l-1.541,59.373Z" transform="translate(-10059.6 -16682.449)" fill="#fff"/>
    <path id="Path_3898" data-name="Path 3898" d="M123.065,97.841l-21.734-2.2.36-3.551,19.215,1.946,3.174-6.78,28.626,6.938L281.447,79.522,326.3,91.173l29.961-.869.1,3.567-30.467.884-44.7-11.612L152.481,97.811l-26.406-6.4Z" transform="translate(-10065.927 -16684.408)" fill="#fff"/>
    <path id="Path_3899" data-name="Path 3899" d="M293.026,232.893l-3.539-.462,10.033-76.8L291.8,80.258l0-19.169h3.569l0,19.077,7.74,75.513Z" transform="translate(-10086.217 -16682.42)" fill="#fff"/>
    <path id="Path_3900" data-name="Path 3900" d="M116.176,256.475l-.217-3.562L326.4,240.12l28.637-58.308,3.2,1.574-29.552,60.171-1.036.062Z" transform="translate(-10067.505 -16695.438)" fill="#fff"/>
    <path id="Path_3901" data-name="Path 3901" d="M232.585,236.745,219.13,87.893,218.4,61.545l1.783-.05.732,26.294,13.451,148.8Z" transform="translate(-10078.551 -16682.463)" fill="#fff"/>
    <path id="Path_3902" data-name="Path 3902" d="M198.644,300.426l-15.563-63.544V165.018l-17.513-4.36,7.606-68.223-.706-31.311,3.568-.08.711,31.55-.013.119L169.46,157.95l17.189,4.28v74.223l15.46,63.125Z" transform="translate(-10072.854 -16682.414)" fill="#fff"/>
    <rect id="Rectangle_2815" data-name="Rectangle 2815" width="58.273" height="0.892" transform="translate(-9946.262 -16503.141)" fill="#fff"/>
    <rect id="Rectangle_2816" data-name="Rectangle 2816" width="0.892" height="39.736" transform="matrix(0.202, -0.979, 0.979, 0.202, -9944.35, -16530.688)" fill="#fff"/>
    <path id="Path_3903" data-name="Path 3903" d="M185.416,223.6l-13.845-3.057V194.064h.892v25.763l13.145,2.9Z" transform="translate(-10073.502 -16696.758)" fill="#fff"/>
    <path id="Path_3904" data-name="Path 3904" d="M157.612,325.86l-7.777-24.974H114.229v-3.569H152.46l8.559,27.482Z" transform="translate(-10067.318 -16707.893)" fill="#fff"/>
    <path id="Path_3905" data-name="Path 3905" d="M288.293,297.833,264.4,255.71l.775-.441,23.637,41.664,84.971-1.262.014.892Z" transform="translate(-10083.511 -16703.357)" fill="#fff"/>
    <rect id="Rectangle_2817" data-name="Rectangle 2817" width="0.892" height="24.057" transform="translate(-9754.305 -16405.977)" fill="#fff"/>
    <path id="Path_3906" data-name="Path 3906" d="M354.005,275.6,350.7,230.151,333.643,61.129l.887-.09,17.059,169.035,3.307,45.465Z" transform="translate(-10090.979 -16682.414)" fill="#fff"/>
    <rect id="Rectangle_2818" data-name="Rectangle 2818" width="179.016" height="0.893" transform="translate(-9888.025 -16519.248) rotate(-4.53)" fill="#fff"/>
    <rect id="Rectangle_2819" data-name="Rectangle 2819" width="1.784" height="59.268" transform="translate(-9727.529 -16590.705) rotate(-5.132)" fill="#fff"/>
    <path id="Path_3907" data-name="Path 3907" d="M342.216,139.786l-.214-.866,26.141-6.495.214.866Z" transform="translate(-10091.88 -16690.111)" fill="#fff"/>
    <path id="Path_3908" data-name="Path 3908" d="M356.289,132.313l-4.628-26.244-13.054-1.386.094-.887,13.721,1.456,4.745,26.9Z" transform="translate(-10091.514 -16687.025)" fill="#fff"/>
    <rect id="Rectangle_2820" data-name="Rectangle 2820" width="1.784" height="72.554" transform="matrix(0.996, -0.085, 0.085, 0.996, -9825.362, -16597.547)" fill="#fff"/>
    <rect id="Rectangle_2821" data-name="Rectangle 2821" width="32.377" height="0.892" transform="translate(-9820.553 -16551.195) rotate(-12.411)" fill="#fff"/>
    <rect id="Rectangle_2822" data-name="Rectangle 2822" width="25.391" height="1.785" transform="translate(-9799.091 -16380.908) rotate(-82.648)" fill="#fff"/>
    <path id="Path_3909" data-name="Path 3909" d="M125.425,195.758l-3.544,55.385,55.354-2.694V226.72l-14.5-3.2V198.14Z" transform="translate(-10068.143 -16696.941)" fill="#e0e0e0"/>
    <path id="Path_3910" data-name="Path 3910" d="M105.723,209.364A12.579,12.579,0,1,0,82.3,215.719H82.3l.036.047c.483.813,1.087,1.394,1.7,2.248l7.3,9.675a2.272,2.272,0,0,0,3.626,0l7.182-9.515a27.148,27.148,0,0,0,1.826-2.42l.026-.035h0a12.5,12.5,0,0,0,1.736-6.355m-12.579,5.477a5.536,5.536,0,1,1,5.536-5.536,5.536,5.536,0,0,1-5.536,5.536" transform="translate(-10063.688 -16697.051)" fill="#2e008b"/>
    <path id="Path_3911" data-name="Path 3911" d="M238.41,159.751a12.579,12.579,0,1,0-23.421,6.355h-.007l.036.047c.483.813,1.087,1.394,1.7,2.248l7.3,9.675a2.272,2.272,0,0,0,3.626,0l7.182-9.515a27.141,27.141,0,0,0,1.826-2.42l.026-.035h0a12.5,12.5,0,0,0,1.736-6.355m-12.579,5.477a5.536,5.536,0,1,1,5.536-5.536,5.536,5.536,0,0,1-5.536,5.536" transform="translate(-10077.996 -16691.701)" fill="#2e008b"/>
    <path id="Path_3912" data-name="Path 3912" d="M180.829,282.366a8.622,8.622,0,1,0-16.054,4.356h-.005l.025.032c.33.558.745.956,1.163,1.541l5.006,6.632a1.557,1.557,0,0,0,2.486,0l4.923-6.522a18.567,18.567,0,0,0,1.252-1.659l.018-.023h0a8.565,8.565,0,0,0,1.19-4.356m-8.622,3.754A3.794,3.794,0,1,1,176,282.326a3.794,3.794,0,0,1-3.794,3.794" transform="translate(-10072.64 -16705.352)" fill="#2e008b"/>
    <path id="Path_3913" data-name="Path 3913" d="M356.24,106.849a8.622,8.622,0,1,0-16.054,4.356h-.005l.025.032c.33.557.745.956,1.163,1.541l5.006,6.631a1.557,1.557,0,0,0,2.486,0l4.923-6.522a18.576,18.576,0,0,0,1.252-1.659l.018-.023h0a8.565,8.565,0,0,0,1.19-4.356m-8.622,3.754a3.794,3.794,0,1,1,3.794-3.794,3.794,3.794,0,0,1-3.794,3.794" transform="translate(-10091.556 -16686.424)" fill="#2e008b"/>
    <path id="Path_3914" data-name="Path 3914" d="M148.757,110.638a15.294,15.294,0,1,0-28.478,7.726h-.008l.043.057c.587.989,1.321,1.7,2.064,2.734l8.881,11.763a2.762,2.762,0,0,0,4.409,0l8.732-11.571a32.819,32.819,0,0,0,2.221-2.942l.032-.042h-.006a15.2,15.2,0,0,0,2.111-7.726M133.462,117.3a6.731,6.731,0,1,1,6.73-6.731,6.731,6.731,0,0,1-6.73,6.731" transform="translate(-10067.743 -16686.113)" fill="#2e008b"/>
    <path id="Path_3915" data-name="Path 3915" d="M56.488,378.309s-20.042-23.068-27.606-46.137-3.971-20.421-3.971-20.421,10.211,22.408,17.963,33.232,21.556,26.707,21.556,26.707Z" transform="translate(-10057.595 -16709.441)" fill="#455a64"/>
    <path id="Path_3916" data-name="Path 3916" d="M64.62,315.72a1.168,1.168,0,0,0-2.174.743c1.222,8.1,3.864,27.117,3.76,39.45-.134,16.022.005,22.215.005,22.215h8.342s-1.48-33.12-3.365-43.217c-1.321-7.08-4.127-14.94-6.567-19.19" transform="translate(-10061.732 -16709.813)" fill="#455a64"/>
    <path id="Path_3917" data-name="Path 3917" d="M69.982,375.089a88.345,88.345,0,0,0,6.866-24.907c.687-5.9-.539-13.867-2.362-24.5a65.984,65.984,0,0,1-1.055-11.79,1.99,1.99,0,0,1,3.737-.933c1.006,1.8,3.92,7.933,4.661,11.781,2.019,10.5,4.308,15.752,2.558,25.715s-8.212,25.311-8.212,25.311Z" transform="translate(-10062.546 -16709.469)" fill="#455a64"/>
    <path id="Path_3918" data-name="Path 3918" d="M78.4,374.219s22.006-47.292,23.531-54.308,6.712-23.183,7.321-22.268,1.526,9.457-2.44,19.218-20.9,58.8-20.9,58.8H78.4" transform="translate(-10063.454 -16707.926)" fill="#455a64"/>
    <path id="Path_3919" data-name="Path 3919" d="M62.653,373.694a4.429,4.429,0,0,1-.616-.424c-.391-.3-.984-.712-1.7-1.3a77.993,77.993,0,0,1-5.914-5.22,99.243,99.243,0,0,1-15.965-20.491,134.27,134.27,0,0,1-10.9-23.607c-1.107-3.141-1.915-5.713-2.438-7.5-.269-.89-.454-1.59-.584-2.062a4.543,4.543,0,0,1-.17-.729,4.4,4.4,0,0,1,.261.7l.668,2.035c.577,1.768,1.431,4.32,2.577,7.44a142.607,142.607,0,0,0,10.989,23.48,103.576,103.576,0,0,0,15.794,20.494c2.355,2.341,4.372,4.125,5.8,5.316.7.609,1.276,1.048,1.647,1.368a4.466,4.466,0,0,1,.558.5" transform="translate(-10057.627 -16709.516)" fill="#263238"/>
    <path id="Path_3920" data-name="Path 3920" d="M69.3,351.435a8.047,8.047,0,0,1-.2-1.387c-.105-.98-.242-2.255-.406-3.792-.349-3.2-.892-7.611-1.669-12.458s-1.648-9.209-2.32-12.356c-.326-1.51-.6-2.764-.8-3.727a8.118,8.118,0,0,1-.247-1.379,8.03,8.03,0,0,1,.426,1.336c.246.867.572,2.13.949,3.7.756,3.134,1.676,7.5,2.46,12.355s1.272,9.289,1.536,12.5c.133,1.606.219,2.908.257,3.809a8.068,8.068,0,0,1,.015,1.4" transform="translate(-10061.863 -16709.943)" fill="#263238"/>
    <path id="Path_3921" data-name="Path 3921" d="M75.486,312.665a3.413,3.413,0,0,1,.26.6q.252.666.659,1.757c.292.762.626,1.7.945,2.816s.751,2.362,1.07,3.786l.545,2.224c.185.774.316,1.593.484,2.434.36,1.679.582,3.5.848,5.411a88.057,88.057,0,0,1,.525,12.532A88.181,88.181,0,0,1,79.4,356.692c-.4,1.887-.756,3.687-1.234,5.337-.228.826-.418,1.634-.658,2.393s-.479,1.484-.7,2.18c-.419,1.4-.932,2.616-1.338,3.7s-.8,2-1.143,2.741l-.784,1.7a3.48,3.48,0,0,1-.3.581,3.359,3.359,0,0,1,.216-.62l.7-1.737c.318-.748.693-1.668,1.066-2.762s.87-2.311,1.268-3.71l.671-2.179c.229-.758.409-1.564.628-2.389.46-1.645.8-3.44,1.186-5.319a91.615,91.615,0,0,0,1.377-12.4,91.515,91.515,0,0,0-.485-12.465c-.254-1.9-.46-3.716-.8-5.391-.16-.838-.28-1.655-.455-2.428s-.35-1.513-.514-2.221c-.3-1.423-.7-2.677-1-3.791s-.6-2.063-.866-2.832q-.357-1.108-.575-1.783a3.422,3.422,0,0,1-.17-.633" transform="translate(-10062.897 -16709.549)" fill="#263238"/>
    <path id="Path_3922" data-name="Path 3922" d="M109.439,298.712a.722.722,0,0,1-.018.212c-.026.166-.058.368-.1.615-.1.538-.219,1.336-.434,2.354-.425,2.034-1.133,4.962-2.234,8.514s-2.6,7.718-4.382,12.294-3.838,9.567-5.792,14.877c-1.984,5.3-3.512,10.476-4.948,15.17s-2.773,8.916-4.078,12.4a79.01,79.01,0,0,1-3.475,8.087c-.45.937-.856,1.636-1.117,2.116l-.308.541a.73.73,0,0,1-.119.177.682.682,0,0,1,.077-.2l.266-.562c.234-.493.613-1.2,1.037-2.151.886-1.874,2.079-4.63,3.327-8.122s2.576-7.7,3.975-12.409,2.933-9.891,4.922-15.208c1.958-5.323,4.034-10.306,5.83-14.872s3.334-8.706,4.468-12.237,1.893-6.434,2.372-8.452c.242-1.009.393-1.8.519-2.332.057-.243.1-.442.144-.606a.732.732,0,0,1,.064-.2" transform="translate(-10063.89 -16708.045)" fill="#263238"/>
    <path id="Path_3923" data-name="Path 3923" d="M36.256,286.938a1.894,1.894,0,0,0-3.119,1.932,54.172,54.172,0,0,0,2.765,7.111c3.025,6.428,11.912,29.5,16.072,42.165S62,374.45,62,374.45l8.882-1.441s-8.127-38.834-16.068-52.826c-6.381-11.243-12.762-27.49-18.554-33.246" transform="translate(-10058.563 -16706.717)" fill="#455a64"/>
    <path id="Path_3924" data-name="Path 3924" d="M56.985,353.283a5.463,5.463,0,0,1,.459,1.064c.262.7.62,1.714,1.023,2.982.818,2.535,1.82,6.074,2.829,10.006s1.843,7.512,2.428,10.107c.267,1.228.491,2.258.668,3.078a5.44,5.44,0,0,1,.184,1.144,5.4,5.4,0,0,1-.361-1.1c-.217-.811-.49-1.83-.814-3.043-.679-2.672-1.572-6.185-2.561-10.068-1.007-3.928-1.956-7.474-2.689-10.026-.352-1.2-.646-2.216-.88-3.021a5.547,5.547,0,0,1-.285-1.122" transform="translate(-10061.145 -16713.93)" fill="#263238"/>
    <path id="Path_3925" data-name="Path 3925" d="M66.582,373.778a.927.927,0,0,1-.05-.237c-.027-.184-.06-.414-.1-.7-.094-.614-.177-1.526-.364-2.69-.326-2.333-.908-5.7-1.862-9.8a140.414,140.414,0,0,0-4.158-14.192c-1.822-5.263-4.108-10.95-6.7-16.834C48.123,317.57,42.9,307.144,39.472,299.433c-1.734-3.846-3.077-6.987-3.961-9.174-.451-1.09-.774-1.948-1-2.527-.1-.269-.182-.487-.246-.662a.943.943,0,0,1-.07-.232.893.893,0,0,1,.113.214l.29.644,1.08,2.492c.935,2.164,2.322,5.281,4.093,9.106,3.505,7.669,8.772,18.069,14.005,29.843,2.594,5.894,4.872,11.6,6.677,16.883a133.749,133.749,0,0,1,4.073,14.258,99.2,99.2,0,0,1,1.719,9.849c.161,1.17.214,2.087.277,2.7.022.287.04.519.054.7a.922.922,0,0,1,0,.242" transform="translate(-10058.688 -16706.764)" fill="#263238"/>
    <path id="Path_3926" data-name="Path 3926" d="M74.275,378.968a9.436,9.436,0,0,1-.3-1.493l-.691-4.084c-.612-3.441-1.547-8.182-2.891-13.341s-2.829-9.758-3.982-13.059c-.567-1.59-1.035-2.9-1.389-3.9a9.449,9.449,0,0,1-.473-1.446,9.351,9.351,0,0,1,.642,1.38c.383.9.918,2.214,1.532,3.855a129.046,129.046,0,0,1,4.124,13.053,135.882,135.882,0,0,1,2.764,13.406c.252,1.733.446,3.138.544,4.112a9.42,9.42,0,0,1,.119,1.518" transform="translate(-10061.96 -16712.674)" fill="#263238"/>
    <rect id="Rectangle_2824" data-name="Rectangle 2824" width="34.673" height="42.246" transform="translate(-10004.126 -16334.982)" fill="#ff725e"/>
    <g id="Group_89734" data-name="Group 89734" transform="translate(-10004.126 -16334.982)">
      <g id="Group_89733" data-name="Group 89733" transform="translate(0 0)">
        <g id="Group_89732" data-name="Group 89732" clip-path="url(#clip-path)">
          <rect id="Rectangle_2825" data-name="Rectangle 2825" width="34.673" height="42.246" transform="translate(0 0)" fill="#16b988"/>
        </g>
      </g>
    </g>
    <rect id="Rectangle_2827" data-name="Rectangle 2827" width="30.762" height="42.246" transform="translate(-10011.275 -16334.982)" fill="#47d7ac"/>
    <path id="Path_3927" data-name="Path 3927" d="M233.135,282.3s.023,31.363-.385,33.133-1.315,11.168.977,15.525,7.74,13.211,12.507,14.437,7.434,0,7.434,0,2.916-20.429,1.963-26.285-3.122-18.659-3.122-18.659L237.77,283.772Z" transform="translate(-10080.043 -16706.273)" fill="#ffbe9d"/>
    <path id="Path_3928" data-name="Path 3928" d="M274.666,233.316l13.859-4.259,26.2-1.745,15.859,3-17.222,27.6-24.833-1.873Z" transform="translate(-10084.618 -16700.344)" fill="#ffbe9d"/>
    <path id="Path_3929" data-name="Path 3929" d="M333.525,170.211a46.971,46.971,0,0,1-14.99,35.462l-6.7-19.41" transform="translate(-10088.627 -16694.186)" fill="#263238"/>
    <path id="Path_3930" data-name="Path 3930" d="M278.225,126.574c5.752-3.143,12.7-3.595,19.126-2.308s12.416,4.2,18.09,7.478c3.183,1.841,6.358,3.866,8.645,6.745,4.176,5.255,8.3,13.884,8.708,20.584.326,5.417-1.75,18.98-4.039,23.9-2.1,4.515-11.935,7.953-16.79,9.067l-44.54-51.8a22.55,22.55,0,0,1,10.8-13.666" transform="translate(-10083.838 -16689.158)" fill="#263238"/>
    <path id="Path_3931" data-name="Path 3931" d="M269.39,134.535l10.677-1.909c-5.837,13.9-7.419,45.687-10.759,60.389-3.935-5.711-13.076-23.105-12.587-30.023s-.019-29.636,12.668-28.456" transform="translate(-10082.682 -16690.135)" fill="#263238"/>
    <path id="Path_3932" data-name="Path 3932" d="M320.718,157.9A18.238,18.238,0,0,0,307,141.109l-24.589-6.273c-10.626-1.147-17.723,11.925-18.419,22.59-.773,11.85-1.249,24.353.136,33.2,2.784,17.787,16.408,20.081,16.408,20.081,0-.027,0,8.46.012,13.653l21.971,17.41,12.776-19.976,5.489-63.674c.007-.3-.034.189-.062-.216" transform="translate(-10083.388 -16690.363)" fill="#ffbe9d"/>
    <path id="Path_3933" data-name="Path 3933" d="M270.069,174.976a2.281,2.281,0,0,0,2.194,2.306,2.182,2.182,0,0,0,2.355-2.051,2.281,2.281,0,0,0-2.191-2.306,2.182,2.182,0,0,0-2.358,2.051" transform="translate(-10084.122 -16694.479)" fill="#263238"/>
    <path id="Path_3934" data-name="Path 3934" d="M267.069,167.686c.282.3,2.013-.976,4.466-.964,2.452-.023,4.249,1.243,4.517.943.13-.133-.157-.67-.939-1.243A6.252,6.252,0,0,0,271.5,165.3a6.007,6.007,0,0,0-3.555,1.138c-.757.577-1.013,1.114-.874,1.248" transform="translate(-10083.796 -16693.658)" fill="#263238"/>
    <path id="Path_3935" data-name="Path 3935" d="M294.044,174.976a2.28,2.28,0,0,0,2.194,2.305,2.182,2.182,0,0,0,2.355-2.051,2.282,2.282,0,0,0-2.192-2.306,2.182,2.182,0,0,0-2.357,2.052" transform="translate(-10086.709 -16694.479)" fill="#263238"/>
    <path id="Path_3936" data-name="Path 3936" d="M293.189,167.685c.283.3,2.015-.976,4.468-.964,2.451-.023,4.249,1.243,4.516.943.13-.133-.153-.67-.939-1.243a6.26,6.26,0,0,0-3.614-1.123,6.012,6.012,0,0,0-3.556,1.139c-.754.577-1.013,1.114-.874,1.248" transform="translate(-10086.612 -16693.658)" fill="#263238"/>
    <path id="Path_3937" data-name="Path 3937" d="M283.84,187.105c.012-.139-1.513-.406-3.984-.728-.626-.066-1.219-.192-1.323-.619a3.187,3.187,0,0,1,.422-1.857q.889-2.272,1.864-4.767c2.588-6.788,4.463-12.37,4.19-12.472s-2.6,5.317-5.183,12.1q-.934,2.511-1.786,4.8a3.627,3.627,0,0,0-.33,2.459,1.57,1.57,0,0,0,1.029.919,4.232,4.232,0,0,0,1.063.15c2.486.139,4.03.154,4.04.014" transform="translate(-10084.935 -16693.805)" fill="#263238"/>
    <path id="Path_3938" data-name="Path 3938" d="M306.206,212.794s-5.787,12.214-23.579,10.51l-.005-4.182a44.794,44.794,0,0,0,23.584-6.327" transform="translate(-10085.477 -16698.779)" fill="#eb996e"/>
    <path id="Path_3939" data-name="Path 3939" d="M294.054,157.814c.241.667,2.692.357,5.569.71,2.886.3,5.2,1.144,5.589.546.17-.285-.233-.914-1.171-1.563a9.758,9.758,0,0,0-8.5-.957c-1.058.425-1.592.947-1.488,1.264" transform="translate(-10086.707 -16692.652)" fill="#263238"/>
    <path id="Path_3940" data-name="Path 3940" d="M267.962,159.255c.43.558,2.122-.016,4.155-.039,2.032-.095,3.753.383,4.151-.2.174-.283-.1-.841-.847-1.371a6.015,6.015,0,0,0-6.692.193c-.72.571-.957,1.145-.767,1.417" transform="translate(-10083.889 -16692.732)" fill="#263238"/>
    <path id="Path_3941" data-name="Path 3941" d="M269.456,140.354c1.088-2.676,4.024-4.282,6.908-4.429a15.188,15.188,0,0,1,8.2,2.392c10.59,6.12,16.032,20.905,26.5,27.239,2.573,1.558,5.922.13,8.111,2.194s3.61,5.36,2.4,8.113a24.879,24.879,0,0,0,3.63-6.14,8.4,8.4,0,0,0-.294-6.931c-.906-1.568-2.505-2.766-2.944-4.523-.385-1.545.225-3.163.158-4.754a10.363,10.363,0,0,0-1.629-4.536c-4.1-7.249-9.738-13.805-17-17.883a30.1,30.1,0,0,0-15.6-4.036,23.017,23.017,0,0,0-14.847,5.894c-2.341,2.182-4.8,4.439-3.587,7.4" transform="translate(-10084.022 -16689.533)" fill="#263238"/>
    <path id="Path_3942" data-name="Path 3942" d="M324.934,175.024c.187-.51,9.462-3.858,9.585,6,.12,9.578-9.544,7.692-9.564,7.418s-.021-13.419-.021-13.419" transform="translate(-10090.039 -16694.604)" fill="#ffbe9d"/>
    <path id="Path_3943" data-name="Path 3943" d="M328.231,185.165c.042-.03.169.115.451.242a1.667,1.667,0,0,0,1.247.014c1.008-.381,1.845-1.995,1.875-3.722a5.5,5.5,0,0,0-.489-2.384,1.93,1.93,0,0,0-1.267-1.27.849.849,0,0,0-.98.467c-.126.269-.063.459-.114.476-.027.024-.207-.159-.134-.555a1.065,1.065,0,0,1,.371-.6,1.254,1.254,0,0,1,.921-.252,2.342,2.342,0,0,1,1.757,1.469,5.658,5.658,0,0,1,.6,2.664c-.043,1.931-1.014,3.746-2.395,4.159a1.789,1.789,0,0,1-1.528-.239c-.3-.234-.352-.448-.318-.466" transform="translate(-10090.395 -16694.98)" fill="#eb996e"/>
    <path id="Path_3944" data-name="Path 3944" d="M322.976,165.722a3.7,3.7,0,0,1-.578-.323c-.367-.233-.931-.543-1.606-1.021a32.857,32.857,0,0,1-5.171-4.706,92.316,92.316,0,0,1-6.323-8.214,75.443,75.443,0,0,0-7.9-9.842,30.072,30.072,0,0,0-5.1-4.03,24.855,24.855,0,0,0-5.51-2.5,27.263,27.263,0,0,0-10.146-1.245,26.116,26.116,0,0,0-6.8,1.332c-.788.239-1.369.5-1.774.658a3.634,3.634,0,0,1-.626.221,3.831,3.831,0,0,1,.59-.3,16.226,16.226,0,0,1,1.754-.738,24.826,24.826,0,0,1,6.83-1.48,27.074,27.074,0,0,1,10.29,1.171,24.939,24.939,0,0,1,5.609,2.518A30.145,30.145,0,0,1,301.7,141.3a73.272,73.272,0,0,1,7.926,9.92,98.344,98.344,0,0,0,6.226,8.243,35.461,35.461,0,0,0,5.039,4.774c.655.5,1.2.827,1.552,1.083a3.8,3.8,0,0,1,.532.4" transform="translate(-10084.271 -16690.221)" fill="#455a64"/>
    <path id="Path_3945" data-name="Path 3945" d="M329.268,187.977a1.885,1.885,0,1,1-.447.142" transform="translate(-10090.342 -16696.1)" fill="#fff"/>
    <path id="Path_3946" data-name="Path 3946" d="M328.8,188.11a2.578,2.578,0,0,0-.862,1.287,1.625,1.625,0,0,0,.375,1.5,1.675,1.675,0,0,0,2.945-.938,1.624,1.624,0,0,0-.565-1.444,2.569,2.569,0,0,0-1.446-.55c-.005-.024.146-.1.449-.106a1.953,1.953,0,0,1,1.194.418,1.912,1.912,0,0,1,.769,1.727,2.056,2.056,0,0,1-3.646,1.161,1.914,1.914,0,0,1-.372-1.853,1.961,1.961,0,0,1,.732-1.032c.251-.169.418-.2.427-.173" transform="translate(-10090.321 -16696.09)" fill="#263238"/>
    <path id="Path_3947" data-name="Path 3947" d="M325,171.017c.15,2.616.271,5.378-.938,7.7s-4.257,3.906-6.532,2.606c-1.856-1.06-2.411-3.437-2.725-5.55-.908-6.1-1.324-12.267-2.285-18.359Z" transform="translate(-10088.7 -16692.807)" fill="#263238"/>
    <path id="Path_3948" data-name="Path 3948" d="M272.138,136.8c.011.055.847-.16,2.381-.209a16.41,16.41,0,0,1,6.338,1.159,20.827,20.827,0,0,1,3.971,2.044,43.114,43.114,0,0,1,4.1,3.128,49.216,49.216,0,0,1,8.02,8.646c1.217,1.708,2.295,3.465,3.462,5.092a24.374,24.374,0,0,0,3.84,4.317,42.636,42.636,0,0,0,8.094,5.415c2.45,1.3,4.5,2.2,5.912,2.83l1.637.7a2.773,2.773,0,0,0,.587.21,2.724,2.724,0,0,0-.542-.308l-1.6-.79c-1.385-.684-3.4-1.643-5.819-2.974a44.188,44.188,0,0,1-7.947-5.453,24.17,24.17,0,0,1-3.739-4.252c-1.146-1.609-2.222-3.368-3.452-5.1a48.257,48.257,0,0,0-8.138-8.712,41.875,41.875,0,0,0-4.175-3.124,20.729,20.729,0,0,0-4.08-2.027,15.822,15.822,0,0,0-6.481-1.011,11.246,11.246,0,0,0-1.773.246,2.688,2.688,0,0,0-.6.171" transform="translate(-10084.347 -16690.537)" fill="#455a64"/>
    <path id="Path_3949" data-name="Path 3949" d="M326.8,164.545a4.207,4.207,0,0,0,.847.572l2.426,1.423.817.468a2.561,2.561,0,0,0,1.048.348,1.007,1.007,0,0,0,.648-.153.83.83,0,0,0,.359-.632,2.14,2.14,0,0,0-.452-1.211c-.864-1.382-1.811-2.9-2.816-4.507l-.38.352a10.024,10.024,0,0,0,6.507,1.939,2.888,2.888,0,0,0,.869-.149,1.178,1.178,0,0,0,.743-.648,1.042,1.042,0,0,0-.161-.967,4.03,4.03,0,0,0-.547-.6,20.225,20.225,0,0,1-3.261-4.114,34.266,34.266,0,0,1-2.074-4.411,4.98,4.98,0,0,0,.3,1.289,17.947,17.947,0,0,0,1.443,3.312,19.3,19.3,0,0,0,3.244,4.278c.357.338.711.727.574,1.029-.113.3-.659.451-1.162.454a9.67,9.67,0,0,1-6.163-1.836l-1.144-.837.764,1.19,2.873,4.472a1.812,1.812,0,0,1,.407.935.455.455,0,0,1-.551.408,4.907,4.907,0,0,1-1.721-.709l-2.5-1.286a4.278,4.278,0,0,0-.936-.41" transform="translate(-10090.24 -16692.252)" fill="#455a64"/>
    <path id="Path_3950" data-name="Path 3950" d="M294.3,194.353a3.2,3.2,0,0,0-3.308-2.431,3.348,3.348,0,0,0-2.575,1.831,4.118,4.118,0,0,0-.145,3.2l.052.229a3.644,3.644,0,0,0,4.1.873,3.408,3.408,0,0,0,1.874-3.705" transform="translate(-10086.058 -16696.527)" fill="#eb996e"/>
    <path id="Path_3951" data-name="Path 3951" d="M286.363,197.036c0-.373,2.478-.255,4.345-2.29s1.726-4.691,2.074-4.693c.157-.027.452.613.427,1.731a6.187,6.187,0,0,1-1.591,3.924,5.383,5.383,0,0,1-3.636,1.761c-1.043.043-1.643-.263-1.62-.433" transform="translate(-10085.88 -16696.326)" fill="#263238"/>
    <path id="Path_3952" data-name="Path 3952" d="M252.711,347.207l1.159,6.755-1.092,3.677s-11.216,14.3-14.807,24.786-3.876,38.19-3.876,38.19l127.762-.078s-4.481-41.123-20.542-54.064l-.02-2.956,3.971-5.879s1.332-4.551-4.486-3.867c-2.233.262-88.069-6.564-88.069-6.564" transform="translate(-10080.243 -16713.271)" fill="#455a64"/>
    <path id="Path_3953" data-name="Path 3953" d="M344.453,363.44a.857.857,0,0,1-.231.013l-.675-.007-2.593-.064c-2.252-.056-5.511-.1-9.538-.074s-8.823.12-14.149.229-11.185.212-17.337.111a173.209,173.209,0,0,1-17.314-1.105A108.089,108.089,0,0,1,268.676,360a80.585,80.585,0,0,1-9.112-2.862c-1.061-.385-1.856-.757-2.405-.981l-.617-.271a.816.816,0,0,1-.2-.108.883.883,0,0,1,.222.063l.635.229c.56.2,1.364.54,2.432.9a90.613,90.613,0,0,0,9.129,2.713,112.919,112.919,0,0,0,13.91,2.432c5.284.614,11.131.952,17.273,1.066s12,.008,17.321-.075,10.124-.153,14.156-.129,7.293.11,9.544.222c1.126.046,2,.113,2.591.151l.674.054a.831.831,0,0,1,.228.034" transform="translate(-10082.643 -16714.199)" fill="#263238"/>
    <path id="Path_3954" data-name="Path 3954" d="M344.453,370.088a.854.854,0,0,1-.231.013l-.675-.007-2.593-.064c-2.252-.057-5.511-.1-9.538-.074s-8.823.12-14.149.229-11.185.212-17.337.111a173.483,173.483,0,0,1-17.314-1.105,108.094,108.094,0,0,1-13.939-2.538,80.584,80.584,0,0,1-9.112-2.862c-1.061-.385-1.856-.757-2.405-.98l-.617-.272a.8.8,0,0,1-.2-.107.883.883,0,0,1,.222.063l.635.229c.56.2,1.364.54,2.432.9a90.624,90.624,0,0,0,9.129,2.713,112.92,112.92,0,0,0,13.91,2.431c5.284.614,11.131.953,17.273,1.066s12,.009,17.321-.074,10.124-.153,14.156-.129,7.293.109,9.544.222c1.126.045,2,.113,2.591.151l.674.054a.834.834,0,0,1,.228.034" transform="translate(-10082.643 -16714.914)" fill="#263238"/>
    <path id="Path_3955" data-name="Path 3955" d="M261.087,377.46a6.129,6.129,0,0,1,.5-1.83,22.971,22.971,0,0,1,4.8-7.742,6.165,6.165,0,0,1,1.419-1.258c.105.1-1.962,2.125-3.813,5.134-1.874,2.994-2.768,5.746-2.907,5.7" transform="translate(-10083.152 -16715.367)" fill="#263238"/>
    <path id="Path_3956" data-name="Path 3956" d="M266.171,385.819a2.36,2.36,0,0,1-.045-.752,18.616,18.616,0,0,1,.137-2.043,35.626,35.626,0,0,1,1.444-6.595,44.366,44.366,0,0,1,2.512-6.264,12.882,12.882,0,0,1,1.39-2.425,23.59,23.59,0,0,1-1.092,2.563,63.211,63.211,0,0,0-2.367,6.265,46.465,46.465,0,0,0-1.561,6.5c-.272,1.691-.343,2.753-.418,2.751" transform="translate(-10083.698 -16715.486)" fill="#263238"/>
    <path id="Path_3957" data-name="Path 3957" d="M269.557,351.81a5.808,5.808,0,0,1,.263,1.251,20.34,20.34,0,0,0,.831,2.929c.8,2.249,1.858,3.892,1.744,3.969a9.759,9.759,0,0,1-2.18-3.811,12.419,12.419,0,0,1-.719-3.039,2.674,2.674,0,0,1,.062-1.3" transform="translate(-10084.058 -16713.77)" fill="#263238"/>
    <path id="Path_3958" data-name="Path 3958" d="M273.8,354.8a20.6,20.6,0,0,1,1.455,5.989A20.52,20.52,0,0,1,273.8,354.8" transform="translate(-10084.521 -16714.092)" fill="#263238"/>
    <path id="Path_3959" data-name="Path 3959" d="M299.369,353.8a44.753,44.753,0,0,1,0,9.1,44.764,44.764,0,0,1,0-9.1" transform="translate(-10087.258 -16713.984)" fill="#263238"/>
    <path id="Path_3960" data-name="Path 3960" d="M302.572,356.4a11.4,11.4,0,0,1-.178,6.96c-.133-.029.126-1.568.169-3.478s-.124-3.46.01-3.482" transform="translate(-10087.604 -16714.266)" fill="#263238"/>
    <path id="Path_3961" data-name="Path 3961" d="M311.07,379.068a31.8,31.8,0,0,1-.75-3.916,31.979,31.979,0,0,1-.719-3.921,17.928,17.928,0,0,1,1.469,7.837" transform="translate(-10088.384 -16715.863)" fill="#263238"/>
    <path id="Path_3962" data-name="Path 3962" d="M225.437,274.8c-.253-.812,9.134-27.66,14.706-31.721s30.694-9.9,30.694-9.9,10.587,10.441,24.77,8.275,25.073-12.182,25.073-12.182,26.846,3.519,31.4,6.768,16.969,32.676,16.969,32.676l-21.869,18.227-1.938,16.5s1.013,34.38-1.267,37.9-91.681-5.415-91.681-5.415-4.559-.812-1.014-8.933,6.078-13.536,6.078-13.536-6.332-7.038-7.344-19.491-3.509-13.79-3.509-13.79Z" transform="translate(-10079.31 -16700.555)" fill="#47d7ac"/>
    <path id="Path_3963" data-name="Path 3963" d="M359.594,305.669c-.128-.017,1.219-11.208,3.006-24.994s3.34-24.953,3.468-24.937-1.219,11.206-3.007,25-3.339,24.95-3.467,24.934" transform="translate(-10093.775 -16703.41)" fill="#263238"/>
    <path id="Path_3964" data-name="Path 3964" d="M251.35,289.243c-.12.046-1.8-3.972-3.743-8.974s-3.429-9.1-3.31-9.143,1.8,3.971,3.743,8.974,3.43,9.1,3.31,9.143" transform="translate(-10081.343 -16705.068)" fill="#263238"/>
    <g id="Group_89739" data-name="Group 89739" transform="translate(-9828.033 -16411.271)" opacity="0.3">
      <g id="Group_89738" data-name="Group 89738" transform="translate(0 0)">
        <g id="Group_89737" data-name="Group 89737" clip-path="url(#clip-path-2)">
          <path id="Path_3965" data-name="Path 3965" d="M280.778,306.285a14.39,14.39,0,0,0-2.821-6.382,11.29,11.29,0,0,0-8.574-3.365,33.474,33.474,0,0,0-9.286,1.832l-5.7,8.887a3.791,3.791,0,0,0,2.316,2.338,10.947,10.947,0,0,0,3.342.6q8.834.633,17.7.738a3.922,3.922,0,0,0,2.209-.413c1.289-.835,1.162-2.737.814-4.233" transform="translate(-254.4 -296.538)"/>
        </g>
      </g>
    </g>
    <path id="Path_3966" data-name="Path 3966" d="M240.3,261.61a4.559,4.559,0,0,1,.467.934c.273.612.649,1.506,1.1,2.617.9,2.221,2.081,5.315,3.286,8.767s2.2,6.613,2.88,8.912c.338,1.149.6,2.083.766,2.733a4.538,4.538,0,0,1,.215,1.022,4.527,4.527,0,0,1-.388-.969q-.368-1.092-.906-2.687c-.757-2.271-1.8-5.407-3-8.857s-2.334-6.554-3.155-8.8l-.961-2.668a4.568,4.568,0,0,1-.3-1" transform="translate(-10080.912 -16704.041)" fill="#263238"/>
    <path id="Path_3967" data-name="Path 3967" d="M240.233,264.4l9.957,36.464a2.843,2.843,0,0,0,2.774,2.037h21.688a2.757,2.757,0,0,0,2.793-3.322l-8.766-36.465A2.838,2.838,0,0,0,265.886,261h-22.88a2.752,2.752,0,0,0-2.774,3.4" transform="translate(-10080.896 -16703.979)" fill="#263238"/>
    <path id="Path_3968" data-name="Path 3968" d="M247.241,272.36s-2.587-1.226-4.63,0-5.312,6.673-5.312,6.673l-2.042,8.661,1.361,11.768.545,5.448,13.21,1.5V302.05l15.118-11.3s5.311-1.472,4.9-3.051-1.089-2.668-2.587-2.4-17.7,4.495-17.7,4.495-2.588.544-2.452-.137,7.627-4.222,8.852-5.039,6.946-2.18,6.265-4.767a3.146,3.146,0,0,0-4.357-2.315c-1.5.544-13.075,4.767-13.075,4.767l-2.179.544.272-3.4,2.315-3.132a1.61,1.61,0,0,0,2.043-1.107,2.7,2.7,0,0,0-.545-2.842" transform="translate(-10080.369 -16705.145)" fill="#ffbe9d"/>
    <path id="Path_3969" data-name="Path 3969" d="M245.926,283.448a25.677,25.677,0,0,1-6.543,2.161,25.68,25.68,0,0,1,6.543-2.161" transform="translate(-10080.814 -16706.395)" fill="#eb996e"/>
    <path id="Path_3970" data-name="Path 3970" d="M249.32,292.254a22.04,22.04,0,0,1-6.11,1.834,22.039,22.039,0,0,1,6.11-1.834" transform="translate(-10081.227 -16707.346)" fill="#eb996e"/>
    <path id="Path_3971" data-name="Path 3971" d="M265.642,293.17a3.321,3.321,0,0,1-.765.456c-.505.269-1.249.631-2.179,1.056a77.234,77.234,0,0,1-15.137,5.046c-1,.218-1.811.374-2.377.462a3.3,3.3,0,0,1-.886.095,29.806,29.806,0,0,1,3.186-.876c1.972-.514,4.682-1.271,7.63-2.253s5.569-2,7.454-2.776a29.651,29.651,0,0,1,3.074-1.211" transform="translate(-10081.345 -16707.445)" fill="#eb996e"/>
    <path id="Path_3972" data-name="Path 3972" d="M241.227,299.962c-.049.118-.875-.327-1.161-1.364s.175-1.844.278-1.769c.125.048-.086.785.169,1.643.231.865.795,1.384.714,1.49" transform="translate(-10080.878 -16707.84)" fill="#eb996e"/>
    <path id="Path_3973" data-name="Path 3973" d="M238.261,292.262c-.02.054-.243.038-.542-.149a2.15,2.15,0,0,1-.825-2.421c.123-.33.291-.478.339-.449.115.06-.2.789.113,1.646.278.869.971,1.255.915,1.373" transform="translate(-10080.534 -16707.021)" fill="#eb996e"/>
    <path id="Path_3974" data-name="Path 3974" d="M236.461,283.193a1.612,1.612,0,0,1-.05.427c-.061.326-.136.726-.227,1.216-.228,1.118-.54,2.638-.923,4.511l0-.053c.577,4.141,1.375,10.131,2.243,16.862l.007.056-.022.058c-.169.453-.351.939-.534,1.427a47.188,47.188,0,0,0-2.676,17.157,51.2,51.2,0,0,0,.435,5.282c.083.579.151,1.052.205,1.429a2.083,2.083,0,0,1,.044.505,2.146,2.146,0,0,1-.136-.487c-.07-.324-.187-.8-.292-1.419a41.854,41.854,0,0,1-.584-5.3,45.445,45.445,0,0,1,2.567-17.326c.186-.493.369-.984.541-1.442l-.014.115c-.86-6.731-1.6-12.729-2.088-16.882l0-.029.005-.024c.441-1.86.8-3.37,1.061-4.481.124-.483.225-.878.306-1.2a1.682,1.682,0,0,1,.135-.409" transform="translate(-10080.222 -16706.371)" fill="#eb996e"/>
    <path id="Path_3975" data-name="Path 3975" d="M253.851,304.256a12.529,12.529,0,0,1-6.514,3.156c-.037-.13,1.5-.644,3.287-1.516s3.148-1.75,3.227-1.64" transform="translate(-10081.672 -16708.641)" fill="#eb996e"/>
    <path id="Path_3976" data-name="Path 3976" d="M348.465,324.984s3.453.892,3.8,3.141-2.421,41-2.421,41h3.286s1.307-38.425,1.259-41.17-1.36-2.925-1.849-3.122a6.736,6.736,0,0,0-4.073.153" transform="translate(-10092.577 -16710.832)" fill="#263238"/>
    <path id="Path_3977" data-name="Path 3977" d="M346.128,319.5l15.8.6-3.152-19.075,1.084-9.23L380.8,274.316s7.329,42.482,7.984,47.391c.784,5.88-.351,13.692-3.212,16.484-2.433,2.374-19.985.018-26.734,0-3.744-.01-12.706.058-12.706.058L342.991,323.6Z" transform="translate(-10091.986 -16705.412)" fill="#ffbe9d"/>
    <path id="Path_3978" data-name="Path 3978" d="M387.857,325.238c-.058.082-1.134-.848-3.188-1.767a17.828,17.828,0,0,0-8.52-1.533,16.853,16.853,0,0,0-4.684,1c-1.388.506-2.579,1.159-3.646,1.572a9.232,9.232,0,0,1-2.617.7,2.636,2.636,0,0,1-.994-.036,11.134,11.134,0,0,0,3.484-.963c1.032-.443,2.2-1.124,3.621-1.669a16.422,16.422,0,0,1,4.8-1.062,17.055,17.055,0,0,1,8.691,1.7,14.645,14.645,0,0,1,2.305,1.409,4.085,4.085,0,0,1,.742.656" transform="translate(-10094.275 -16710.492)" fill="#eb996e"/>
    <path id="Path_3979" data-name="Path 3979" d="M327.374,364.389c-.583.742-7.251,58.237-7.251,58.237l69.341-.236-10.992-57.822Z" transform="translate(-10089.521 -16715.127)" fill="#47d7ac"/>
    <path id="Path_3980" data-name="Path 3980" d="M340.8,422.506c-.128.006-.846-12.919-1.6-28.867s-1.268-28.885-1.14-28.891.847,12.917,1.6,28.87,1.268,28.882,1.139,28.888" transform="translate(-10091.453 -16715.166)" fill="#263238"/>
    <path id="Path_3981" data-name="Path 3981" d="M309.45,325.635a44.516,44.516,0,0,0,5.67-1.206,21.563,21.563,0,0,0,2.534-1.448l8.927-.724,15.923,2.412s2.654,1.931,2.292,7.841a44.669,44.669,0,0,1-2.534,11.581s-7.117,5.81-9.047,6.162-12.787-.252-13.872-1.1a5.95,5.95,0,0,1-1.568-1.809,3,3,0,0,1-1.568-3.257s-3.74-4.826-4.222-6.876.12-2.534.12-2.534-1.086-2.775-.242-3.74a2.337,2.337,0,0,1,3.378-.12c.845.965,6.152.242,6.152.242l4.705-3.137a52.811,52.811,0,0,1-7.359,1.327c-2.533.121-10.133,1.81-9.288-3.619" transform="translate(-10088.363 -16710.584)" fill="#ffbe9d"/>
    <path id="Path_3982" data-name="Path 3982" d="M328.254,338.454c.009.068-.971.238-2.487.77-.762.257-1.659.6-2.686.92a12.439,12.439,0,0,1-3.466.625,6.3,6.3,0,0,1-3.435-.885,8.547,8.547,0,0,1-2.143-1.931,15.132,15.132,0,0,1-1.118-1.567,2.019,2.019,0,0,1-.328-.626c.063-.048.636.782,1.7,1.978a8.956,8.956,0,0,0,2.112,1.777,6.079,6.079,0,0,0,3.211.789,24.34,24.34,0,0,0,6.06-1.393,7.629,7.629,0,0,1,2.586-.457" transform="translate(-10088.708 -16712.039)" fill="#eb996e"/>
    <path id="Path_3983" data-name="Path 3983" d="M333.66,334.026c.048-.03.217.114.338.442a2.076,2.076,0,0,1-.853,2.375c-.3.176-.524.179-.542.126-.048-.119.647-.475.934-1.326.32-.839.01-1.556.123-1.617" transform="translate(-10090.866 -16711.852)" fill="#eb996e"/>
    <path id="Path_3984" data-name="Path 3984" d="M331.567,345.8a11.075,11.075,0,0,1-2.239.405c-1.391.192-3.314.424-5.442.651a28.773,28.773,0,0,1-3.028.231,7.167,7.167,0,0,1-2.483-.4,3.2,3.2,0,0,1-1.852-1.345,6.931,6.931,0,0,0,1.956,1.034,7.523,7.523,0,0,0,2.374.278c.91-.018,1.917-.153,2.983-.264,2.128-.228,4.057-.409,5.456-.517a11.091,11.091,0,0,1,2.275-.079" transform="translate(-10089.132 -16713.074)" fill="#eb996e"/>
    <path id="Path_3985" data-name="Path 3985" d="M337.874,341.584c.052-.024.219.177.34.576a3.011,3.011,0,0,1-.857,2.976c-.313.274-.562.355-.593.307-.08-.107.689-.709.988-1.806a8.508,8.508,0,0,0,.122-2.054" transform="translate(-10091.314 -16712.668)" fill="#eb996e"/>
    <path id="Path_3986" data-name="Path 3986" d="M333.381,351.2a8.306,8.306,0,0,1-2.122.324,36.826,36.826,0,0,1-10.312-.641,8.334,8.334,0,0,1-2.066-.583,11.991,11.991,0,0,1,2.123.26c1.3.192,3.1.418,5.106.544s3.817.121,5.133.093a12.083,12.083,0,0,1,2.139,0" transform="translate(-10089.387 -16713.605)" fill="#eb996e"/>
    <path id="Path_3987" data-name="Path 3987" d="M352.061,324.638s3.124,2.333,3.7,3.755,6.816,31.674,6.816,31.674l2.676.009s-6.365-32.778-7.918-34.045a12.158,12.158,0,0,0-1.816-1.2,4.139,4.139,0,0,0-3.431-.206Z" transform="translate(-10092.964 -16710.807)" fill="#263238"/>
    <path id="Path_3988" data-name="Path 3988" d="M281.743,330.651a10.323,10.323,0,0,1-2.636-.027,27.417,27.417,0,0,1-11.984-4.053,10.267,10.267,0,0,1-2.111-1.578,25.868,25.868,0,0,1,2.279,1.3,33.155,33.155,0,0,0,11.852,4.008c1.6.223,2.6.278,2.6.353" transform="translate(-10083.578 -16710.877)" fill="#263238"/>
    <g id="Group_89742" data-name="Group 89742" transform="translate(-9815.696 -16383.949)" opacity="0.3">
      <g id="Group_89741" data-name="Group 89741" transform="translate(0 0)">
        <g id="Group_89740" data-name="Group 89740" clip-path="url(#clip-path-3)">
          <path id="Path_3989" data-name="Path 3989" d="M297.732,330.351a20.468,20.468,0,0,0-4.905.187c-8.344.872-16.93.913-24.6-3.374a10.714,10.714,0,0,0,5.3,5.153,25.11,25.11,0,0,0,8.218,1.349,118.558,118.558,0,0,0,20.094-.913,5.584,5.584,0,0,0-4.107-2.4" transform="translate(-268.228 -327.164)"/>
        </g>
      </g>
    </g>
    <g id="Group_89746" data-name="Group 89746" transform="translate(-10055 -16675.832)">
      <g id="Group_89745" data-name="Group 89745" clip-path="url(#clip-path-4)">
        <path id="Path_3990" data-name="Path 3990" d="M261.076,233.334a11.93,11.93,0,0,0-11.93-11.93H176.469a11.93,11.93,0,1,0,0,23.86H219.9c4.082,3.938,11.049,9.24,11.049,9.24v-9.665l19.065.381c6.519-.194,11.057-5.592,11.057-11.886" transform="translate(-17.743 -23.875)" fill="#fff"/>
        <path id="Path_3991" data-name="Path 3991" d="M261.049,233.307s.007.221,0,.655a11.432,11.432,0,0,1-.211,1.91,13.082,13.082,0,0,1-.971,2.973,11.971,11.971,0,0,1-2.513,3.446A10.99,10.99,0,0,1,252.7,244.9a13.289,13.289,0,0,1-1.474.314,14.834,14.834,0,0,1-1.566.1l-3.292-.056-15.45-.273.173-.169c0,3.053.01,6.287.016,9.665v.379l-.3-.231c-3.57-2.761-7.377-5.754-11.077-9.241l.141.057-26.314.02-14.335.005c-1.229-.02-2.433.046-3.7-.045a12.073,12.073,0,0,1-9.429-5.738,11.672,11.672,0,0,1-1.79-5.784,12.648,12.648,0,0,1,.213-3.016,12.432,12.432,0,0,1,.97-2.842,12.119,12.119,0,0,1,9.127-6.741,17.344,17.344,0,0,1,2.863-.15l2.811,0,5.54,0,10.726.008,37.105.05,14.254.034a17.943,17.943,0,0,1,3.046.166,11.822,11.822,0,0,1,6.785,3.54,11.4,11.4,0,0,1,2.215,3.248,12.525,12.525,0,0,1,.576,1.471c.129.464.23.889.318,1.269a11.411,11.411,0,0,1,.183,1.763c.012.4.006.6.006.6s-.026-.2-.054-.6a12.521,12.521,0,0,0-.227-1.747c-.094-.376-.2-.795-.336-1.253a12.68,12.68,0,0,0-.591-1.447,11.365,11.365,0,0,0-2.22-3.181,11.65,11.65,0,0,0-6.693-3.428,17.748,17.748,0,0,0-3.008-.145l-14.254.035-37.105.05-10.726.008-5.54,0-2.811,0a16.817,16.817,0,0,0-2.8.147,11.667,11.667,0,0,0-8.779,6.491,12.035,12.035,0,0,0-.931,2.734,12.247,12.247,0,0,0-.2,2.9,11.234,11.234,0,0,0,1.722,5.564,11.613,11.613,0,0,0,9.069,5.521c1.2.089,2.451.025,3.664.046l14.335.005,26.314.021h.081l.061.057c3.666,3.471,7.468,6.476,11.019,9.239l-.3.147c.005-3.378.011-6.612.016-9.665v-.173l.173,0,15.442.344c2.27.014,4.413.282,6.271-.31a10.828,10.828,0,0,0,4.577-2.523,11.917,11.917,0,0,0,2.512-3.371,13.291,13.291,0,0,0,1-2.93,12.521,12.521,0,0,0,.257-1.893c.028-.431.054-.652.054-.652" transform="translate(-17.716 -23.848)" fill="#263238"/>
        <path id="Path_3992" data-name="Path 3992" d="M254.641,237.9a4.431,4.431,0,0,1-.572-.037,4.384,4.384,0,1,1,.572.037m-.009-7.881a3.494,3.494,0,1,0,3.471,3.948h0a3.5,3.5,0,0,0-3.471-3.949m3.914,4.006h0Z" transform="translate(-26.986 -24.708)" fill="#263238"/>
        <path id="Path_3993" data-name="Path 3993" d="M261.451,239.712a.443.443,0,0,1-.285-.1l-2.863-2.395a.446.446,0,1,1,.571-.684l2.863,2.394a.446.446,0,0,1-.285.789" transform="translate(-27.837 -25.495)" fill="#263238"/>
      </g>
    </g>
    <text id="_1102224" data-name="1102224" transform="translate(-9896.194 -16462.311)" fill="#06041f" font-size="11" font-family="Lato-Bold, Lato" font-weight="700"><tspan x="0" y="0">1102224</tspan></text>
  </g>
</svg>
