<svg xmlns="http://www.w3.org/2000/svg" width="43" height="43" viewBox="0 0 43 43">
  <g id="lock-fill_1" data-name="lock-fill 1" transform="translate(0 -0.255)">
    <rect id="lock-fill_1-2" data-name="lock-fill 1" width="43" height="43" transform="translate(0 0.255)" fill="none"/>
    <path id="Vector" d="M28.837,14.418h1.8a1.8,1.8,0,0,1,1.8,1.8V34.243a1.8,1.8,0,0,1-1.8,1.8H1.8a1.8,1.8,0,0,1-1.8-1.8V16.221a1.8,1.8,0,0,1,1.8-1.8H3.6v-1.8a12.616,12.616,0,0,1,25.232,0Zm-3.6,0v-1.8a9.011,9.011,0,1,0-18.023,0v1.8ZM14.418,21.627v7.209h3.6V21.627Z" transform="translate(5.407 3.605)" fill="#007aff"/>
  </g>
</svg>
