<svg id="lock-unlock-fill_1" data-name="lock-unlock-fill 1" xmlns="http://www.w3.org/2000/svg" width="43" height="43" viewBox="0 0 43 43">
  <rect id="lock-unlock-fill_1-2" data-name="lock-unlock-fill 1" width="43" height="43" fill="none"/>
  <path id="Vector" d="M7.167,14.333H30.458a1.792,1.792,0,0,1,1.792,1.792V34.042a1.792,1.792,0,0,1-1.792,1.792H1.792A1.792,1.792,0,0,1,0,34.042V16.125a1.792,1.792,0,0,1,1.792-1.792H3.583V12.542a12.544,12.544,0,0,1,23.762-5.61l-3.206,1.6A8.96,8.96,0,0,0,7.167,12.542Zm5.375,8.958v3.583h7.167V23.292Z" transform="translate(5.375 3.583)" fill="#e14d44"/>
</svg>
